<svg width="196" height="22" viewBox="0 0 196 22" fill="none" xmlns="http://www.w3.org/2000/svg">
<path fill-rule="evenodd" clip-rule="evenodd" d="M0 21.1115H21.895V8.8773e-05H0V21.1115ZM2.73688 15.5391C3.26553 14.9223 3.79694 14.3029 4.58991 13.7743C7.76733 11.4781 11.0356 11.9214 10.9475 11.9214L20.5706 15.718V18.3666L11.1237 14.6553C11.1237 14.6553 7.50301 13.331 3.88504 16.0677C1.82 17.6177 1.34641 20.0047 1.24454 20.5333L1.23628 20.5691V19.3329C1.23628 19.2531 1.2528 19.209 1.27482 19.1622C1.2996 19.1044 1.32438 19.0383 1.32438 18.8924C1.5006 17.9206 1.85304 16.7752 2.73688 15.5391ZM3.97315 10.33C2.20822 12.1829 1.5006 14.5672 1.23628 16.4228V18.9833C1.41249 16.3347 2.38444 13.7743 4.4137 11.9214C7.50301 9.18471 10.9475 9.18471 10.9475 9.18471L20.5706 12.9813V10.2419L11.0356 6.62149C11.0356 6.62149 7.32954 6.8858 3.97315 10.33ZM1.32438 12.6262C1.5006 11.6543 2.03201 9.09385 3.35639 7.15286C6.62192 2.38435 10.9475 1.23627 10.9475 1.23627L20.6615 4.94481V7.59337L10.9475 3.88483C10.9475 3.88483 7.32679 4.6805 4.23748 8.03388C1.76768 10.7705 1.32438 14.5672 1.23628 15.9796C1.23628 15.9796 1.14817 13.8596 1.32438 12.6262Z" fill="white"/>
<path fill-rule="evenodd" clip-rule="evenodd" d="M195.816 0.313863V21.5794H190.576V10.0078L183.773 21.5822H179.238V0.313863H184.478V11.8855L191.281 0.313863H195.816ZM176.187 0.234021V4.92544H171.025V21.5024H165.785V4.92544H160.545V0.234021H176.187ZM151.398 16.8109C152.728 16.8109 153.51 15.9519 153.51 14.6992C153.51 13.4493 152.651 12.5105 151.398 12.5105H148.114V16.8109H151.398ZM151.632 7.89888C156.09 7.89888 158.75 10.7126 158.75 14.702C158.75 18.6914 156.09 21.5051 151.632 21.5051H142.874V0.234021H157.42V4.92544H148.114V7.89613H151.632V7.89888ZM132.317 9.22592C133.647 9.22592 134.586 8.36692 134.586 7.11422C134.586 5.86153 133.57 5.00253 132.317 5.00253H129.346V9.22592H132.317ZM132.474 0.313863C136.698 0.313863 139.746 3.12762 139.746 7.11698C139.746 11.1063 136.775 13.9201 132.474 13.9972H129.269V21.5822H124.03V0.313863H132.474ZM114.486 16.029C115.034 15.3242 115.268 14.1514 115.268 11.4147V9.92798C115.268 7.97322 115.034 6.40941 114.486 5.62751C114.018 5.00253 113.236 4.68867 112.374 4.68867C111.513 4.68867 110.733 5.00253 110.263 5.62751C109.715 6.33232 109.481 7.89613 109.481 9.92798V11.4147C109.481 14.1514 109.715 15.3242 110.263 16.029C110.731 16.5769 111.513 16.9679 112.374 16.9679C113.236 16.9679 114.018 16.6568 114.486 16.029ZM118.396 2.4228C119.883 3.98661 120.508 5.94137 120.508 8.9919V11.6515C120.508 14.4652 120.431 17.1248 118.396 19.2365C116.832 20.8774 114.877 21.6593 112.452 21.6593C110.029 21.6593 108.074 20.8774 106.507 19.2365C104.395 17.0477 104.395 14.2312 104.395 11.6515V10.0877C104.395 5.94412 104.863 4.14354 106.507 2.42555C108.071 0.784657 110.026 0.00275318 112.452 0.00275318C114.877 0 116.832 0.781904 118.396 2.4228ZM103.225 0V4.69142H94.6233V21.1114H89.1495V0H103.225ZM81.25 14.7791H86.5668C85.7849 19.4705 82.5001 21.6593 78.4333 21.7391C75.9305 21.7391 74.0554 20.8801 72.4887 19.3163C70.3713 17.1248 70.3741 14.2753 70.3769 11.1917C70.3769 11.0843 70.3769 10.9769 70.3769 10.8723C70.3769 10.7677 70.3769 10.6658 70.3769 10.5612C70.3741 7.47489 70.3713 4.62535 72.5658 2.58249C74.1297 1.01868 76.0075 0.159685 78.5104 0.159685C82.4973 0.159685 85.7821 2.42831 86.5641 7.11973H81.2473C80.9334 5.94688 80.2313 4.85111 78.5104 4.85111C77.5715 4.85111 76.8694 5.24206 76.4784 5.7101C76.0103 6.33507 75.6964 7.03989 75.6964 10.9494C75.6964 14.7818 76.0103 15.5637 76.4784 16.1887C76.8694 16.6568 77.5742 17.0477 78.5104 17.0477C80.234 17.0477 80.9389 15.9519 81.25 14.7791ZM47.7026 0V21.1114H43.0108V10.9467L39.492 16.42H36.1301L32.8453 10.9467V21.1114H28.1535V0H32.8453L37.9281 9.85364L43.0108 0H47.7026Z" fill="white"/>
<path fill-rule="evenodd" clip-rule="evenodd" d="M67.4114 8.99197C67.4114 5.94144 66.8635 3.98668 65.3794 2.42288C63.8155 0.859069 61.7835 0.0771644 59.3578 0.0771644C56.9348 0.0771644 54.9799 0.859068 53.4132 2.49997C51.7721 4.22071 51.3013 6.01853 51.3013 10.1621V11.7259C51.3013 14.3056 51.3013 17.1221 53.4132 19.3109C54.9771 20.9518 56.932 21.7337 59.3578 21.7337C61.7807 21.7337 63.7357 20.9518 65.3023 19.3109C67.3344 17.1992 67.4142 14.5396 67.4142 11.7259V8.99197H67.4114ZM62.3287 11.3983C62.3287 14.1349 62.0148 15.327 61.4696 16.0291C61.0015 16.6541 60.2196 17.045 59.4376 17.045C58.5785 17.045 57.7966 16.6541 57.3257 16.1062C56.7778 15.4014 56.5438 14.2285 56.5438 11.4919V10.0051C56.5438 7.97329 56.7778 6.40948 57.3257 5.70467C57.7938 5.0797 58.4987 4.76583 59.4376 4.76583C60.2967 4.76583 61.0786 5.0797 61.5495 5.70467C62.0974 6.48657 62.3314 8.05038 62.3314 10.0051V11.3983H62.3287Z" fill="white"/>
</svg>
