<svg width="255" height="170" viewBox="0 0 255 170" fill="none" xmlns="http://www.w3.org/2000/svg">
<g id="2-&#208;&#154;&#208;&#190;&#208;&#189;&#209;&#129;&#209;&#131;&#208;&#187;&#209;&#140;&#209;&#130;&#208;&#176;&#209;&#134;&#208;&#184;&#209;&#143; &#208;&#184; &#208;&#178;&#209;&#139;&#208;&#181;&#208;&#183;&#208;&#180; &#208;&#189;&#208;&#176; &#208;&#190;&#208;&#177;&#209;&#138;&#208;&#181;&#208;&#186;&#209;&#130; 1">
<g id="Group">
<path id="Vector" d="M126.729 82.0392L123.022 59.134L118.711 46.0152C118.711 46.0152 116.056 43.9312 112.33 43.3815C108.823 42.864 104.28 43.0502 100.643 44.5433C93.1717 47.6107 70.9806 47.5774 69.022 47.2724C67.0624 46.9672 37.1991 41.941 32.9126 42.2596C32.9126 42.2596 38.3718 56.9412 34.7997 63.4059C31.2707 69.7926 31.1333 77.2704 33.4471 80.6991C33.4471 80.6991 48.8866 80.4369 53.8104 83.3226C58.7072 86.1925 81.2231 85.0929 83.7857 84.2844C86.3524 83.4746 122.468 79.0284 126.729 82.0392Z" fill="#F1FFFF"/>
<path id="Vector_2" d="M117.801 44.9763L117.507 44.7377L117.189 44.5095L116.856 44.2993L116.51 44.1047L116.15 43.9265L115.778 43.765L115.395 43.6182L115 43.4864L114.596 43.37L114.183 43.2667L113.761 43.1771L113.331 43.101L112.894 43.0366L112.45 42.9844L112 42.9439L111.545 42.9136L111.084 42.8939L110.62 42.8844L110.151 42.8835L109.679 42.8917L109.204 42.9085L108.726 42.9325L108.247 42.9641L107.764 43.0029L107.285 43.0501L106.803 43.0975L106.321 43.1562L105.84 43.2148L105.36 43.2826L104.882 43.3503L104.407 43.4247L103.932 43.4991L103.464 43.5792L102.995 43.6593L102.078 43.826L101.18 43.9959L100.309 44.1656L99.4688 44.331L98.6616 44.4892L97.8947 44.636L97.1707 44.7676L96.6105 44.8662L96.0486 44.965L95.4794 45.0647L94.9107 45.1643L94.3354 45.2638L93.7605 45.3633L93.1801 45.462L92.6003 45.5607L92.0151 45.6577L91.4303 45.7546L90.841 45.849L90.2519 45.9435L89.659 46.035L89.0669 46.1265L88.4712 46.2141L87.8761 46.3016L87.2782 46.3843L86.6804 46.467L86.0807 46.5447L85.4817 46.6223L84.8812 46.6937L84.2811 46.765L83.6802 46.8292L83.0793 46.8934L82.4782 46.9505L81.8779 47.0076L81.2779 47.056L80.6785 47.1044L80.0799 47.1433L79.4814 47.1824L78.8842 47.2121L78.288 47.2418L77.694 47.2606L77.1005 47.2795L76.5098 47.2866L75.9189 47.2937L75.3311 47.2895L74.7443 47.2853L74.1615 47.2679L73.5793 47.2506L73.0016 47.2192L72.4235 47.1878L71.8502 47.143L71.2781 47.0984L70.7117 47.0382L70.1457 46.9781L69.586 46.9017L69.023 46.8249L68.4553 46.7358L67.8811 46.6458L67.3067 46.5557L66.7358 46.4662L66.1667 46.3706L65.594 46.2745L65.0212 46.1784L64.4508 46.0827L63.8816 45.9827L63.3098 45.8822L62.7379 45.7817L62.1674 45.6815L61.5976 45.5787L61.0262 45.4756L60.4547 45.3725L59.8838 45.2695L59.3132 45.1652L58.7418 45.0607L58.1702 44.9563L57.5983 44.8518L57.0261 44.7477L56.4541 44.6436L55.8819 44.5395L55.3086 44.4352L54.7345 44.3327L54.1615 44.2303L53.5883 44.128L53.0129 44.0253L52.4364 43.9262L51.8618 43.8273L51.287 43.7285L50.7091 43.629L50.1295 43.5349L49.5528 43.4412L48.9761 43.3475L48.3956 43.2532L47.8131 43.165L47.2341 43.0775L46.6551 42.9898L46.0711 42.9015L45.4845 42.8214L44.9026 42.742L44.3207 42.6626L43.7328 42.5825L43.1417 42.5124L42.5565 42.443L41.9712 42.3735L41.3857 42.3041L40.6847 42.2214L39.9898 42.1296L39.2928 42.0336L38.5929 41.9379L37.8889 41.8475L37.1802 41.7682L36.4657 41.7036L35.7431 41.6603L35.0212 41.6445L34.6467 41.6475L34.2762 41.6594L33.9043 41.6809L33.5304 41.7119L33.1535 41.7538L32.7849 41.806C32.5164 41.8441 32.3437 42.0296 32.399 42.2202C32.4543 42.4109 32.7166 42.5345 32.9849 42.4965L33.3332 42.447L33.6702 42.4094L34.0073 42.3815L34.344 42.362L34.6798 42.3512L35.0094 42.3483L35.6904 42.3629L36.3649 42.4032L37.0436 42.4645L37.7262 42.5408L38.4133 42.6288L39.1065 42.7234L39.8062 42.8197L40.5139 42.9129L41.2235 42.9965L41.8083 43.0657L42.3932 43.1349L42.9781 43.2041L43.557 43.2725L44.1327 43.351L44.7143 43.4302L45.2958 43.5093L45.8724 43.5878L46.4463 43.6745L47.025 43.7619L47.6037 43.8493L48.1786 43.9361L48.7516 44.0291L49.328 44.1225L49.9044 44.216L50.4776 44.3089L51.0491 44.4071L51.6235 44.5057L52.1979 44.6044L52.7701 44.7026L53.3411 44.8043L53.914 44.9063L54.4868 45.0082L55.0585 45.11L55.6295 45.2135L56.2015 45.3171L56.7733 45.4208L57.3448 45.5243L57.916 45.6283L58.4873 45.7323L59.0586 45.8363L59.6305 45.9404L60.2026 46.0432L60.7739 46.1459L61.3451 46.2485L61.9177 46.3514L62.4909 46.4517L63.0625 46.5518L63.634 46.6518L64.208 46.7522L64.7832 46.8483L65.3558 46.944L65.9283 47.0396L66.5042 47.1357L67.0819 47.2258L67.656 47.3153L68.2301 47.4048L68.8105 47.4953L69.3863 47.5734L69.9654 47.6519L70.5508 47.7136L71.1356 47.7752L71.726 47.8209L72.3151 47.8663L72.9088 47.8982L73.5028 47.9299L74.1012 47.9473L74.6991 47.9646L75.3009 47.9685L75.9014 47.9724L76.505 47.9647L77.1088 47.9569L77.7153 47.9372L78.3212 47.9176L78.9292 47.8869L79.5364 47.8561L80.1448 47.8161L80.7534 47.776L81.3629 47.7264L81.9719 47.6768L82.5813 47.6185L83.1899 47.5602L83.7982 47.4948L84.4066 47.4294L85.014 47.3568L85.6211 47.2842L86.2266 47.2053L86.8316 47.1265L87.4346 47.0427L88.0376 46.9588L88.6378 46.8702L89.2378 46.7816L89.8342 46.689L90.4303 46.5966L91.0227 46.5012L91.615 46.4058L92.2027 46.3081L92.7901 46.2103L93.3722 46.1112L93.954 46.012L94.5303 45.9121L95.1065 45.8123L95.6762 45.7124L96.2455 45.6126L96.8075 45.5135L97.3716 45.4142L98.1043 45.2807L98.8792 45.1323L99.6893 44.9733L100.528 44.808L101.394 44.6391L102.283 44.4706L103.19 44.3054L103.65 44.2269L104.109 44.1482L104.575 44.0752L105.039 44.0022L105.508 43.9358L105.974 43.8697L106.442 43.8126L106.909 43.7557L107.375 43.7099L107.842 43.6639L108.303 43.6268L108.763 43.5965L109.219 43.5734L109.672 43.5575L110.12 43.5496L110.563 43.5504L111 43.5594L111.431 43.5777L111.855 43.6059L112.272 43.6433L112.681 43.6912L113.081 43.7502L113.473 43.8195L113.854 43.9002L114.226 43.9933L114.589 44.0976L114.939 44.2143L115.279 44.3447L115.609 44.4875L115.925 44.6439L116.23 44.8154L116.524 45.0006L116.804 45.201L117.079 45.4251C117.245 45.5598 117.541 45.5686 117.74 45.4447C117.939 45.3209 117.966 45.1112 117.801 44.9763Z" fill="black"/>
<path id="Vector_3" d="M125.814 81.6469L125.456 81.5397L125.084 81.4369L124.703 81.3404L124.315 81.2492L123.919 81.1638L123.515 81.0842L123.105 81.0097L122.686 80.9407L122.261 80.8771L121.829 80.8184L121.39 80.7648L120.943 80.7161L120.491 80.6746L120.037 80.6329L119.57 80.6007L119.103 80.5686L118.625 80.5456L118.147 80.5226L117.66 80.5075L117.172 80.4925L116.673 80.4858L116.175 80.4791L115.668 80.4804L115.161 80.4817L114.645 80.4899L114.13 80.4981L113.607 80.5135L113.083 80.5289L112.553 80.5511L112.022 80.5733L111.486 80.6013L110.95 80.6293L110.407 80.6635L109.865 80.6976L109.318 80.7374L108.771 80.7772L108.22 80.8218L107.669 80.8664L107.114 80.916L106.559 80.9656L106.002 81.0198L105.444 81.0739L104.885 81.1319L104.326 81.1899L103.765 81.2517L103.204 81.3135L102.642 81.3788L102.08 81.4442L101.518 81.5136L100.959 81.5827L100.4 81.6519L99.8374 81.7214L99.2776 81.7957L98.7208 81.8696L98.1641 81.9435L97.6052 82.0177L97.0518 82.0951L96.5009 82.1721L95.9501 82.2491L95.3977 82.3263L94.8529 82.4053L94.3099 82.4839L93.7669 82.5626L93.2228 82.6414L92.6898 82.7206L92.1582 82.7997L91.6266 82.8787L91.0946 82.9579L90.5768 83.0359L90.0597 83.1137L89.5427 83.1916L89.0258 83.2695L88.5201 83.3457L88.0148 83.4219L87.5187 83.4966L87.0229 83.5711L86.5372 83.6437L86.0516 83.7162L85.5759 83.7865L85.1003 83.8569L84.6363 83.9244L84.1725 83.992L83.7209 84.0564L83.2699 84.1208L82.3905 84.2434L81.5394 84.3582L80.7176 84.4646L79.9238 84.5626L79.1626 84.6507L78.4359 84.7282L77.7291 84.7951L77.0161 84.8517L76.2958 84.8984L75.5699 84.9365L74.8389 84.9654L74.1028 84.9855L73.3629 84.9979L72.6199 85.0021L71.8739 84.9987L71.1259 84.9885L70.3769 84.9713L69.6282 84.9474L68.8772 84.915L68.1275 84.8826L67.3811 84.839L66.634 84.7954L65.8931 84.7421L65.1512 84.6888L64.4175 84.6279L63.6834 84.567L62.9609 84.4993L62.2378 84.4315L61.5291 84.3583L60.8205 84.2852L60.2871 84.2241L59.7519 84.1541L59.2133 84.0757L58.6721 83.9901L58.1284 83.8972L57.5831 83.7976L57.0316 83.689L56.481 83.5807L55.9269 83.4619L55.3713 83.3429L54.8126 83.2157L54.2523 83.0882L53.6894 82.9552L53.1256 82.822L52.5593 82.6847L51.9916 82.547L51.4216 82.4078L50.8506 82.2681L50.2778 82.1289L49.7038 81.9893L49.1282 81.8522L48.5513 81.7148L47.9731 81.5822L47.394 81.4493L46.8141 81.3228L46.2325 81.1959L45.6504 81.078L45.0669 80.9599L44.483 80.8531L43.8986 80.7463L43.3141 80.6517L42.7277 80.5569L42.1416 80.4777L41.5539 80.3983L40.9671 80.337L40.3826 80.2761L39.7927 80.2281L39.2047 80.191L38.6173 80.1651L38.0301 80.1501L37.4424 80.1475L36.8559 80.1579L36.2698 80.1806L35.6838 80.2176L35.0994 80.2693L34.516 80.335L33.9332 80.4167L33.3613 80.5132C33.1051 80.5565 32.9499 80.734 33.0147 80.9095C33.0795 81.085 33.3396 81.1922 33.5957 81.1489L34.1487 81.0554L34.6943 80.9789L35.2428 80.9171L35.7931 80.8683L36.3446 80.8335L36.8988 80.8119L37.4547 80.802L38.0117 80.8044L38.5712 80.8187L39.1322 80.8432L39.6941 80.8786L40.2555 80.9241L40.8241 80.9833L41.3899 81.0422L41.9569 81.1187L42.5252 81.1953L43.0941 81.2872L43.6648 81.3794L44.2356 81.4836L44.8069 81.5879L45.3781 81.7034L45.9503 81.8191L46.5221 81.9437L47.0951 82.0685L47.6672 82.1996L48.24 82.3308L48.8115 82.4667L49.384 82.6029L49.9549 82.7415L50.5267 82.8803L51.0967 83.0195L51.6675 83.1588L52.2362 83.2965L52.8058 83.4344L53.3729 83.5682L53.9406 83.7022L54.5058 83.8307L55.0722 83.9593L55.6355 84.0798L56.2 84.2005L56.7611 84.3106L57.3211 84.4204L57.8823 84.5226L58.4411 84.6178L58.9983 84.7055L59.5543 84.7861L60.1094 84.8584L60.6618 84.9214L61.3767 84.9948L62.0914 85.0681L62.8204 85.1361L63.5498 85.2041L64.2907 85.2652L65.0316 85.3262L65.7804 85.3797L66.5301 85.4331L67.286 85.4769L68.0425 85.5206L68.8021 85.553L69.5604 85.5852L70.3225 85.609L71.0836 85.626L71.8437 85.6359L72.6025 85.6389L73.3597 85.6341L74.114 85.621L74.8652 85.5999L75.6129 85.5699L76.3556 85.5305L77.0936 85.4822L77.8261 85.4236L78.5508 85.3546L79.2912 85.2753L80.0629 85.1854L80.865 85.0859L81.6937 84.9782L82.5507 84.8621L83.4336 84.7385L83.8872 84.6735L84.3404 84.6085L84.8057 84.5405L85.2709 84.4725L85.7474 84.4017L86.2238 84.331L86.7099 84.2581L87.196 84.1852L87.6921 84.1104L88.1881 84.0355L88.6933 83.959L89.1984 83.8825L89.7149 83.8044L90.2315 83.7263L90.7481 83.6482L91.2643 83.5701L91.7948 83.491L92.326 83.4117L92.8572 83.3324L93.3873 83.2532L93.9286 83.1745L94.4711 83.0956L95.0138 83.0167L95.5549 82.938L96.1037 82.8609L96.6541 82.7836L97.2047 82.7063L97.7529 82.6293L98.3069 82.5556L98.8632 82.4816L99.4196 82.4076L99.9732 82.334L100.529 82.2652L101.088 82.1959L101.647 82.1267L102.204 82.0578L102.761 81.9929L103.318 81.928L103.875 81.8665L104.431 81.805L104.986 81.7474L105.54 81.6898L106.093 81.636L106.645 81.5822L107.194 81.533L107.743 81.4837L108.289 81.4395L108.834 81.3952L109.375 81.3557L109.916 81.3162L110.451 81.2824L110.986 81.2486L111.515 81.2208L112.044 81.193L112.567 81.1711L113.089 81.1491L113.603 81.1339L114.118 81.1187L114.624 81.1107L115.13 81.1026L115.627 81.1013L116.124 81.0999L116.612 81.1065L117.098 81.1129L117.574 81.1276L118.05 81.1422L118.516 81.1646L118.981 81.1869L119.434 81.218L119.886 81.2491L120.325 81.2894L120.766 81.3299L121.194 81.3764L121.616 81.4279L122.031 81.4842L122.439 81.5451L122.839 81.6109L123.23 81.6819L123.615 81.7576L123.99 81.8384L124.358 81.9247L124.717 82.0158L125.066 82.1121L125.413 82.2158C125.637 82.2829 125.909 82.2101 126.02 82.053C126.131 81.896 126.039 81.7141 125.814 81.6469Z" fill="black"/>
<path id="Vector_4" d="M32.399 42.3026L32.6172 42.7066L32.8324 43.1051L33.0289 43.5086L33.2255 43.912L33.4037 44.32L33.5822 44.7282L33.7444 45.1402L33.9065 45.5516L34.0512 45.9668L34.1959 46.3818L34.3236 46.8002L34.4515 47.2188L34.5644 47.6401L34.677 48.0607L34.7736 48.484L34.8702 48.9071L34.9512 49.3323L35.0323 49.7576L35.0996 50.1846L35.1669 50.6109L35.2194 51.0386L35.272 51.4662L35.3103 51.8947L35.3487 52.3232L35.3745 52.7523L35.4004 53.1808L35.4128 53.6095L35.4252 54.0379L35.4246 54.4661L35.4239 54.8944L35.4119 55.3221L35.4 55.7493L35.376 56.1754L35.352 56.6013L35.3166 57.0258L35.2811 57.4503L35.2355 57.8732L35.1899 58.2956L35.1337 58.7158L35.0775 59.1357L35.0111 59.5531L34.9447 59.9705L34.8694 60.3852L34.7942 60.7995L34.7096 61.2103L34.6251 61.621L34.5316 62.028L34.4382 62.4348L34.3222 62.8978L34.1964 63.36L34.062 63.8221L33.9207 64.2839L33.7729 64.7454L33.6198 65.2064L33.461 65.6682L33.3024 66.1297L33.1395 66.5908L32.9764 67.0525L32.8139 67.5141L32.6508 67.977L32.4959 68.4403L32.3417 68.9013L32.1877 69.3619L32.0319 69.8282L31.9021 70.296L31.7741 70.7573L31.6464 71.2182L31.516 71.6895L31.4311 72.1636L31.3485 72.6264L31.266 73.0888L31.1823 73.5582L31.1514 73.8805L31.1396 74.1982L31.145 74.515L31.1648 74.8312L31.1994 75.1471L31.2471 75.4618L31.306 75.7755L31.3758 76.0885L31.4552 76.4L31.5424 76.7102L31.6369 77.0193L31.7377 77.3274L31.8444 77.6319L31.9514 77.9371L32.1759 78.539L32.4018 79.133L32.6207 79.718L32.8237 80.2919L33.0027 80.8591C33.0586 81.036 33.3132 81.1492 33.5714 81.112C33.8296 81.0749 33.9937 80.9014 33.938 80.7244L33.7565 80.1492L33.5496 79.563L33.3287 78.9724L33.1031 78.3786L32.8804 77.7812L32.7758 77.4822L32.6709 77.1824L32.5732 76.8836L32.4817 76.5844L32.3977 76.285L32.3216 75.986L32.2551 75.6878L32.1994 75.3899L32.1543 75.0927L32.122 74.7968L32.1037 74.5016L32.0987 74.2074L32.1096 73.9152L32.1369 73.6287L32.2183 73.1741L32.301 72.7117L32.3837 72.2489L32.4644 71.7966L32.5891 71.3468L32.7166 70.8859L32.8441 70.4246L32.97 69.969L33.1215 69.5149L33.2751 69.0543L33.4289 68.5933L33.5821 68.1338L33.7434 67.6746L33.9055 67.2133L34.0681 66.7517L34.2312 66.2886L34.3899 65.825L34.5488 65.3607L34.7028 64.8945L34.8517 64.4275L34.9942 63.9593L35.1301 63.4899L35.2575 63.0189L35.3751 62.5468L35.4691 62.135L35.5631 61.7227L35.6481 61.3068L35.7332 60.8904L35.8088 60.4708L35.8844 60.051L35.951 59.6285L36.0177 59.2054L36.0741 58.7797L36.1305 58.3535L36.176 57.9252L36.2216 57.4968L36.2569 57.0667L36.2923 56.6359L36.316 56.2037L36.3397 55.7711L36.3512 55.3374L36.3627 54.9036L36.3628 54.4692L36.3628 54.0341L36.3501 53.5987L36.3372 53.1628L36.3109 52.7271L36.2846 52.2913L36.2455 51.8559L36.2064 51.4197L36.1528 50.9845L36.0992 50.5488L36.0306 50.1145L35.962 49.68L35.8795 49.2471L35.7967 48.8134L35.6981 48.3818L35.5994 47.9497L35.4844 47.5201L35.3694 47.0906L35.2393 46.6636L35.1088 46.2358L34.9612 45.8114L34.8132 45.3864L34.6477 44.9652L34.4821 44.5441L34.2999 44.1267L34.1173 43.7085L33.9161 43.2948L33.7146 42.8807L33.494 42.4716L33.276 42.0675C33.1831 41.8952 32.9114 41.8081 32.6691 41.8731C32.4269 41.938 32.306 42.1304 32.399 42.3026Z" fill="black"/>
<path id="Vector_5" d="M149.163 84.2776C148.617 84.0807 147.691 84.0791 147.52 84.796C147.477 84.98 147.631 85.6503 147.561 85.6906C145.446 86.9025 144.394 86.7691 143.384 89.3401C143.242 89.702 142.531 91.3065 142.796 91.607C142.992 91.8298 143.771 91.8105 144.043 91.8408C145.285 91.9792 146.803 91.9448 148.037 91.7798C149.403 91.5973 150.981 91.729 152.366 91.729C152.81 91.729 153.653 91.8911 154.039 91.7087C154.288 91.5912 154.332 90.7974 154.343 90.5498C154.396 89.4408 154.702 88.2249 154.536 87.1037C154.525 87.0263 154.543 86.886 154.465 86.88C154.218 86.861 153.972 88.9213 152.914 88.6183C152.028 88.3645 151.426 86.8996 150.846 86.2497C150.318 85.6587 149.406 85.1585 148.99 84.4911" fill="#8D8DC3"/>
<path id="Vector_6" d="M155.256 76.4389C154.825 75.9444 154.58 75.2131 155.578 75.6134C156.401 75.9436 157.337 76.6023 157.919 77.2645C158.824 78.2927 158.261 79.672 158.665 80.6569C158.837 81.0748 160.377 80.6031 160.299 81.3019C160.207 82.1366 159.02 81.7508 158.653 82.1533C158.579 82.2338 158.659 82.621 158.64 82.7337C158.527 83.3915 158.359 83.9696 157.919 84.488C156.97 85.6075 155.477 85.8516 154.42 86.8486C154.13 87.1218 153.844 87.4007 153.7 87.7773C153.648 87.9131 153.483 88.5144 153.327 88.5512C153.054 88.6155 152.65 88.1433 152.426 88.0353C151.846 87.7559 149.433 85.1709 149.57 84.5525C149.715 83.8985 151.013 83.4886 151.281 82.7982C151.532 82.1524 150.38 81.0843 151.68 80.3732C152.073 80.1583 152.605 79.9645 153.056 80.0507C153.215 80.0809 153.328 80.2921 153.494 80.2571C153.541 80.2472 153.59 80.2276 153.622 80.1926C154.313 79.4567 154.757 78.0914 154.279 77.2C154.195 77.0441 153.479 76.4581 153.494 76.3615C153.5 76.319 153.556 76.2984 153.597 76.2841C153.633 76.2712 153.674 76.2806 153.712 76.2841C154.221 76.3304 154.698 76.4549 155.218 76.4776C155.261 76.4795 155.346 76.5337 155.346 76.4905C155.346 76.3469 154.786 75.9169 154.845 75.6521C154.881 75.4874 155.503 75.6605 155.629 75.6907C156.487 75.8955 157.087 76.4429 157.675 77.0323" fill="#FDB39A"/>
<path id="Vector_7" d="M157.854 76.8764C157.607 76.233 157.472 75.5648 157.039 75.0034C156.154 73.8548 154.157 73.6459 152.839 73.766C152.586 73.7891 152.26 73.9021 152.012 73.8796C151.966 73.8754 151.468 73.5174 151.458 73.539C151.321 73.8133 151.895 74.5168 151.741 74.9239C151.539 75.4538 150.555 74.6703 150.416 74.7082C150.196 74.7684 150.428 75.6012 150.235 75.7526C149.626 76.2304 148.788 76.3035 148.152 76.8196C146.638 78.0484 146.941 79.8925 147.62 81.5079C147.791 81.915 149.185 84.1024 149.386 84.1755C149.998 84.3987 150.871 83.4249 151.095 82.9495C151.445 82.2088 150.673 81.1065 151.412 80.4068C151.898 79.9469 152.583 79.938 153.212 79.9981C153.279 80.0045 153.483 80.131 153.541 80.1003C153.891 79.9144 154.629 77.9599 154.48 77.5802C154.268 77.0389 153.641 76.7315 153.303 76.2861C153.249 76.2142 153.092 76.1229 153.156 76.0591C153.397 75.8176 154.557 76.3429 154.797 76.3429C154.986 76.3429 154.711 75.5638 154.911 75.4688C155.936 74.9816 157.155 76.9378 157.956 77.2056" fill="#323E4A"/>
<path id="Vector_8" d="M157.794 77.6167L157.861 77.7278L157.918 77.8357L157.97 77.9489L158.018 78.0665L158.061 78.1879L158.098 78.3087L158.165 78.5757L158.215 78.8485L158.254 79.1308L158.283 79.4188L158.306 79.7097L158.324 80.0013L158.343 80.2912L158.362 80.574L158.385 80.851C158.402 81.0371 158.565 81.1745 158.751 81.1582C158.936 81.1418 159.074 80.9778 159.057 80.7918L159.033 80.5266L159.013 80.2455L158.993 79.9556L158.97 79.6577L158.942 79.3535L158.905 79.0466L158.858 78.7391L158.795 78.4326L158.717 78.1368L158.669 77.9833L158.615 77.8363L158.556 77.6924L158.49 77.5509L158.417 77.4121L158.34 77.2853C158.249 77.134 158.053 77.0856 157.902 77.1771C157.751 77.2687 157.703 77.4655 157.794 77.6167Z" fill="black"/>
<path id="Vector_9" d="M158.724 81.1609L158.877 81.159L159.018 81.1601L159.15 81.1641L159.273 81.1705L159.386 81.1796L159.49 81.191L159.586 81.2042L159.672 81.219L159.749 81.2355L159.817 81.2533L159.875 81.2716L159.924 81.2902L159.964 81.3081L159.993 81.324L160.014 81.3378L160.026 81.3474L160.028 81.3501L160.013 81.3272L160.013 81.3208L160.009 81.2775L160.011 81.2573L160.006 81.2651L159.981 81.2936L159.929 81.3378L159.855 81.3889L159.759 81.4422L159.642 81.4959L159.508 81.5475L159.358 81.5951L159.192 81.6378L159.013 81.6745L158.814 81.7044L158.612 81.7237C158.427 81.7423 158.292 81.9079 158.31 82.0937C158.329 82.2795 158.494 82.415 158.679 82.3965L158.915 82.3719L159.132 82.3384L159.344 82.294L159.544 82.2415L159.732 82.1803L159.905 82.1114L160.064 82.0358L160.209 81.952L160.337 81.8604L160.451 81.7583L160.549 81.6385L160.623 81.4984L160.662 81.332L160.644 81.1466L160.581 81.0041L160.516 80.9159L160.455 80.8553L160.389 80.8043L160.319 80.7598L160.243 80.7205L160.163 80.6864L160.079 80.6562L159.988 80.6293L159.892 80.6059L159.79 80.585L159.681 80.567L159.565 80.552L159.443 80.5396L159.312 80.5301L159.175 80.5235L159.029 80.5195L158.875 80.5186L158.716 80.5208C158.539 80.5232 158.398 80.6683 158.401 80.8451C158.403 81.0219 158.548 81.1633 158.724 81.1609Z" fill="black"/>
<path id="Vector_10" d="M158.32 82.1146L158.321 82.267L158.322 82.4312L158.322 82.6027L158.321 82.7785L158.316 82.9563L158.307 83.1279L158.271 83.4735L158.207 83.772L158.102 84.0209L158.021 84.152L157.924 84.2873L157.817 84.4141L157.702 84.5334L157.58 84.6446L157.449 84.7501L157.31 84.8506L157.166 84.9456L157.014 85.0368L156.857 85.1248L156.695 85.2099L156.53 85.2925L156.184 85.4579L155.832 85.6242L155.477 85.8008L155.125 85.9944L154.781 86.2151L154.463 86.4654L154.326 86.5964L154.202 86.7381L154.085 86.8908L153.972 87.0521L153.864 87.2211L153.76 87.3972L153.573 87.7409L153.411 88.0697L153.277 88.3624C153.199 88.5322 153.274 88.7328 153.443 88.8106C153.612 88.8883 153.812 88.8137 153.89 88.6439L154.015 88.3687L154.171 88.0522L154.347 87.7269L154.437 87.5741L154.531 87.4259L154.627 87.2884L154.721 87.1646L154.812 87.06L154.893 86.9816L155.17 86.7611L155.466 86.5688L155.786 86.3909L156.122 86.2211L156.469 86.0544L156.818 85.8841L156.995 85.7939L157.17 85.7003L157.343 85.6017L157.514 85.4974L157.681 85.3855L157.844 85.2655L158.002 85.1367L158.154 84.9966L158.297 84.8456L158.432 84.6832L158.558 84.5068L158.68 84.3017L158.82 83.9616L158.904 83.5739L158.944 83.1834L158.955 82.9819L158.96 82.7896L158.961 82.6042L158.961 82.4275L158.959 82.2627L158.958 82.1115C158.958 81.9348 158.814 81.7921 158.638 81.793C158.461 81.7938 158.319 81.9378 158.32 82.1146Z" fill="black"/>
<path id="Vector_11" d="M158.274 83.5015L158.054 83.563L157.859 83.5899L157.665 83.5826L157.597 83.5698L157.522 83.549L157.451 83.52L157.383 83.4844L157.302 83.427L157.242 83.3691C157.103 83.2447 156.89 83.2568 156.766 83.3961C156.642 83.5354 156.654 83.7491 156.793 83.8735L156.921 83.9834L157.038 84.0625L157.178 84.134L157.323 84.1868L157.471 84.2219L157.632 84.2407L157.907 84.2368L158.19 84.1906L158.447 84.1177C158.617 84.0699 158.716 83.8931 158.668 83.7229C158.62 83.5527 158.444 83.4536 158.274 83.5015Z" fill="black"/>
<path id="Vector_12" d="M156.288 80.1522L156.35 80.029L156.422 79.9265L156.51 79.827L156.611 79.734L156.723 79.6524L156.844 79.5822L156.968 79.5248L157.093 79.4833L157.218 79.4579L157.339 79.447L157.479 79.4559L157.585 79.4843C157.767 79.524 157.947 79.4083 157.986 79.2258C158.026 79.0434 157.911 78.8633 157.729 78.8236L157.514 78.7819L157.325 78.7734L157.115 78.7936L156.912 78.84L156.715 78.9113L156.53 79.0033L156.356 79.1124L156.194 79.2393L156.048 79.3795L155.916 79.5325L155.802 79.6998L155.72 79.8594C155.639 80.0166 155.701 80.2096 155.858 80.2904C156.015 80.3713 156.207 80.3094 156.288 80.1522Z" fill="black"/>
<path id="Vector_13" d="M154.443 77.9091L154.312 78.0632L154.184 78.2377L154.064 78.4202L153.951 78.6087L153.845 78.8027L153.744 79.0032L153.566 79.395L153.413 79.7794L153.279 80.1426C153.215 80.3181 153.306 80.5121 153.481 80.5761C153.655 80.6401 153.849 80.5497 153.913 80.3743L154.038 80.0258L154.182 79.6528L154.342 79.2774L154.425 79.0999L154.515 78.9253L154.611 78.7589L154.71 78.6026L154.814 78.4599L154.93 78.3228C155.044 78.1879 155.027 77.986 154.893 77.8717C154.758 77.7575 154.557 77.7742 154.443 77.9091Z" fill="black"/>
<path id="Vector_14" d="M153.864 80.1112L153.794 80.0014L153.705 79.8895L153.606 79.7928L153.499 79.7095L153.383 79.6407L153.263 79.5884L153.14 79.5502L153.012 79.5261L152.886 79.5156L152.759 79.5166L152.632 79.529L152.507 79.5515L152.384 79.5828L152.261 79.6232L152.141 79.6714L152.023 79.7265L151.906 79.789L151.786 79.8618L151.574 80.0119L151.369 80.1899L151.182 80.3868L151.015 80.6004L150.872 80.8318L150.764 81.0664L150.716 81.2031L150.681 81.3344L150.657 81.4674L150.644 81.6026L150.644 81.7411L150.657 81.8789L150.683 82.0167L150.725 82.1546L150.782 82.288L150.854 82.4174L150.942 82.5427L151.044 82.6604L151.16 82.7717L151.292 82.8765L151.437 82.9731L151.595 83.0628L151.758 83.1408L151.948 83.217C152.121 83.2856 152.317 83.2005 152.385 83.0269C152.454 82.8532 152.369 82.6568 152.196 82.5882L152.046 82.5301L151.904 82.4629L151.788 82.3973L151.686 82.3302L151.601 82.2628L151.529 82.1941L151.469 82.1256L151.422 82.0584L151.384 81.99L151.354 81.9213L151.332 81.8533L151.318 81.7822L151.311 81.7091L151.31 81.6351L151.317 81.5572L151.331 81.4771L151.351 81.3961L151.376 81.3222L151.455 81.1428L151.556 80.9759L151.68 80.8136L151.821 80.6605L151.977 80.5228L152.149 80.3984L152.228 80.3498L152.312 80.3033L152.398 80.2628L152.482 80.2283L152.564 80.2009L152.645 80.1801L152.722 80.1655L152.794 80.158L152.863 80.1571L152.928 80.1619L152.986 80.1726L153.042 80.1897L153.093 80.2118L153.14 80.2394L153.186 80.2754L153.231 80.3191L153.274 80.372L153.323 80.4521C153.417 80.6017 153.614 80.6467 153.764 80.5526C153.913 80.4585 153.958 80.2609 153.864 80.1112Z" fill="black"/>
<path id="Vector_15" d="M152.217 81.869L152.227 81.7812L152.244 81.7041L152.27 81.6243L152.302 81.546L152.341 81.4734L152.386 81.4062L152.434 81.3474L152.483 81.2999L152.532 81.2625L152.58 81.2343L152.654 81.2074L152.702 81.204C152.884 81.168 153.003 80.9903 152.967 80.8071C152.932 80.6239 152.754 80.5046 152.572 80.5406L152.408 80.5789L152.285 80.6292L152.151 80.7095L152.034 80.8054L151.931 80.9148L151.845 81.0319L151.772 81.1546L151.711 81.2831L151.663 81.4131L151.624 81.5444L151.597 81.6776L151.583 81.7951C151.563 81.9708 151.688 82.1296 151.863 82.15C152.039 82.1704 152.197 82.0446 152.217 81.869Z" fill="black"/>
<path id="Vector_16" d="M151.087 82.4619L150.997 82.6434L150.896 82.811L150.778 82.9757L150.647 83.1354L150.504 83.2868L150.349 83.4302L150.187 83.5644L150.018 83.6867L149.844 83.7967L149.667 83.8947L149.477 83.982L149.299 84.0466C149.124 84.1116 149.035 84.3062 149.1 84.4813C149.165 84.6563 149.359 84.7454 149.534 84.6804L149.761 84.5941L149.972 84.4949L150.188 84.3736L150.397 84.237L150.598 84.0852L150.788 83.9208L150.968 83.7456L151.136 83.5591L151.291 83.3645L151.432 83.1622L151.557 82.9517L151.659 82.7468C151.737 82.5884 151.673 82.3964 151.515 82.3177C151.357 82.239 151.166 82.3036 151.087 82.4619Z" fill="black"/>
<path id="Vector_17" d="M152.758 76.3933L152.927 76.4722L153.08 76.5669L153.235 76.6843L153.388 76.8194L153.535 76.9708L153.677 77.1357L153.814 77.3095L153.941 77.4892L154.059 77.6725L154.168 77.8552L154.268 78.0407L154.351 78.2133C154.433 78.3811 154.635 78.4507 154.802 78.3688C154.97 78.2869 155.039 78.0845 154.957 77.9167L154.859 77.7176L154.751 77.5195L154.626 77.3135L154.489 77.1084L154.339 76.9059L154.179 76.7104L154.008 76.5226L153.827 76.3456L153.638 76.183L153.44 76.0359L153.23 75.9082L153.029 75.8134C152.869 75.7385 152.679 75.8076 152.604 75.9678C152.53 76.1279 152.599 76.3184 152.758 76.3933Z" fill="black"/>
<path id="Vector_18" d="M152.859 76.4295L153.053 76.4499L153.262 76.4648L153.475 76.4772L153.691 76.4894L153.906 76.5042L154.114 76.5225L154.523 76.578L154.908 76.6763L155.195 76.8223C155.364 76.9025 155.565 76.8309 155.645 76.6623C155.725 76.4938 155.653 76.292 155.485 76.2118L155.069 76.0221L154.643 75.92L154.184 75.8675L153.949 75.8523L153.724 75.8426L153.507 75.8339L153.3 75.8243L153.107 75.8115L152.924 75.7927C152.749 75.7746 152.592 75.9024 152.574 76.0782C152.556 76.2541 152.683 76.4113 152.859 76.4295Z" fill="black"/>
<path id="Vector_19" d="M155.561 76.2849L155.431 76.1339L155.297 75.9735L155.167 75.8072L155.042 75.6413L154.923 75.4749L154.824 75.3228C154.721 75.1673 154.512 75.1251 154.357 75.2285C154.201 75.3319 154.159 75.5417 154.263 75.6972L154.382 75.8751L154.513 76.0476L154.657 76.2219L154.803 76.3909L154.946 76.5535L155.08 76.7056C155.195 76.8388 155.397 76.8527 155.53 76.7365C155.663 76.6204 155.677 76.4182 155.561 76.2849Z" fill="black"/>
<path id="Vector_20" d="M154.663 75.7899L154.685 75.778L154.694 75.7754L154.713 75.7717L154.74 75.7689L154.775 75.7684L154.81 75.7702L154.925 75.7863L155.051 75.8171L155.194 75.8636L155.351 75.9231L155.516 75.9951L155.69 76.0792L155.868 76.1725L156.049 76.2738L156.228 76.3801L156.59 76.6108L156.929 76.8469L157.235 77.0793L157.366 77.186L157.485 77.2882L157.585 77.3817L157.667 77.4642L157.734 77.5407L157.765 77.5883C157.874 77.7402 158.084 77.7753 158.236 77.6667C158.387 77.5581 158.422 77.3469 158.314 77.1951L158.24 77.0951L158.158 77.0015L158.051 76.8946L157.931 76.7836L157.795 76.6677L157.644 76.5457L157.319 76.3023L156.953 76.0544L156.57 75.8183L156.37 75.7037L156.172 75.5969L155.976 75.4979L155.782 75.4069L155.59 75.3255L155.405 75.2563L155.223 75.1993L155.046 75.157L154.883 75.1336L154.789 75.1279L154.703 75.1295L154.617 75.1385L154.531 75.156L154.444 75.1851L154.38 75.2159C154.222 75.2942 154.157 75.4861 154.235 75.6446C154.313 75.8032 154.505 75.8682 154.663 75.7899Z" fill="black"/>
<path id="Vector_21" d="M150.414 75.3653L150.319 75.3604L150.201 75.363L150.073 75.3736L149.935 75.3918L149.787 75.4185L149.631 75.4541L149.467 75.4983L149.297 75.5526L149.122 75.6172L148.943 75.6919L148.762 75.7786L148.581 75.877L148.4 75.9874L148.221 76.1116L148.047 76.2496L147.878 76.4011L147.716 76.5687L147.565 76.7515L147.424 76.9491L147.295 77.1643L147.183 77.3951L147.086 77.6413L147.008 77.9055L146.952 78.1801L146.912 78.4427L146.879 78.6888L146.853 78.9231L146.832 79.1474L146.818 79.3616L146.811 79.5653L146.809 79.7605L146.812 79.947L146.822 80.1244L146.836 80.2944L146.856 80.4571L146.881 80.6119L146.911 80.7604L146.947 80.9027L146.986 81.0379L147.03 81.1676L147.078 81.2921L147.133 81.416L147.243 81.6319L147.369 81.8359L147.502 82.0232L147.64 82.1986L147.781 82.3652L147.923 82.5266L148.064 82.6866L148.202 82.8489L148.337 83.0183L148.468 83.1971L148.594 83.3897L148.715 83.6024L148.829 83.8362L148.94 84.1081L149.036 84.4011C149.095 84.5782 149.285 84.6741 149.462 84.6152C149.639 84.5563 149.734 84.3649 149.676 84.1877L149.563 83.852L149.444 83.56L149.31 83.287L149.168 83.0383L149.021 82.8126L148.87 82.608L148.72 82.4196L148.571 82.2451L148.426 82.0813L148.288 81.9245L148.158 81.7719L148.037 81.6192L147.925 81.4639L147.825 81.3024L147.732 81.1219L147.694 81.0351L147.656 80.9385L147.62 80.8358L147.588 80.7275L147.559 80.6132L147.534 80.4909L147.512 80.3614L147.494 80.224L147.481 80.077L147.472 79.9213L147.468 79.7561L147.469 79.58L147.475 79.3938L147.486 79.1968L147.504 78.9876L147.527 78.7673L147.557 78.5346L147.593 78.2935L147.638 78.0607L147.699 77.8505L147.775 77.6542L147.863 77.4707L147.963 77.3019L148.075 77.1447L148.195 76.9984L148.324 76.8645L148.461 76.7412L148.603 76.6277L148.75 76.5254L148.9 76.433L149.052 76.3499L149.204 76.2771L149.356 76.2136L149.504 76.1587L149.648 76.1129L149.785 76.0757L149.915 76.0461L150.035 76.0245L150.142 76.0102L150.236 76.0022L150.311 76.0005L150.379 76.0045C150.555 76.0142 150.705 75.8789 150.715 75.7025C150.725 75.5259 150.59 75.375 150.414 75.3653Z" fill="black"/>
<path id="Vector_22" d="M150.682 75.5024L150.62 75.3806L150.582 75.2714L150.557 75.1558L150.543 75.0382L150.538 74.9237L150.54 74.8137L150.548 74.7116L150.558 74.6227L150.569 74.5495L150.579 74.4938L150.587 74.4588L150.589 74.4535C150.633 74.2721 150.522 74.0892 150.341 74.0449C150.16 74.0006 149.978 74.1117 149.934 74.2931L149.928 74.3154L149.918 74.3643L149.905 74.4418L149.891 74.5409L149.879 74.6612L149.874 74.7981L149.877 74.9484L149.892 75.1115L149.922 75.2818L149.967 75.4576L150.034 75.6377L150.115 75.7959C150.196 75.953 150.388 76.0146 150.545 75.9336C150.702 75.8525 150.763 75.6595 150.682 75.5024Z" fill="black"/>
<path id="Vector_23" d="M149.991 74.5435L150.04 74.6269L150.104 74.7165L150.174 74.7976L150.249 74.8721L150.329 74.9402L150.419 75.0061L150.582 75.1059L150.763 75.1907L150.944 75.2564L151.126 75.3071L151.305 75.3433L151.477 75.3666L151.64 75.3794L151.782 75.3828L151.918 75.3787C152.104 75.3717 152.249 75.2148 152.242 75.0282C152.235 74.8416 152.078 74.696 151.892 74.703L151.795 74.7077L151.672 74.706L151.545 74.6971L151.41 74.6815L151.273 74.6575L151.135 74.6242L151.003 74.5819L150.882 74.5303L150.764 74.4623L150.724 74.433L150.68 74.3973L150.641 74.3589L150.605 74.3186L150.575 74.2773L150.542 74.2197C150.453 74.0673 150.257 74.0161 150.105 74.1055C149.953 74.1949 149.902 74.391 149.991 74.5435Z" fill="black"/>
<path id="Vector_24" d="M152.238 74.9228L152.198 74.8237L152.162 74.7331L152.13 74.6506L152.099 74.575L152.072 74.5062L152.047 74.4438L152.005 74.3323L151.97 74.2376L151.942 74.1566L151.889 73.9815L151.832 73.754L151.759 73.4262C151.717 73.2442 151.536 73.1308 151.354 73.1728C151.173 73.2148 151.06 73.3963 151.101 73.5782L151.183 73.9252L151.25 74.1675L151.319 74.3687L151.359 74.4721L151.402 74.575L151.45 74.6884L151.477 74.7511L151.505 74.8189L151.536 74.893L151.57 74.9735L151.605 75.0621L151.645 75.1601C151.71 75.3242 151.896 75.4042 152.059 75.3387C152.223 75.2732 152.303 75.087 152.238 74.9228Z" fill="black"/>
<path id="Vector_25" d="M151.255 73.7457L151.385 73.822L151.523 73.8912L151.66 73.9479L151.795 73.9941L151.93 74.0298L152.062 74.0553L152.192 74.0725L152.32 74.0818L152.444 74.0841L152.565 74.0812L152.684 74.0736L152.803 74.0623L153.023 74.0344L153.237 74.003L153.444 73.9758L153.644 73.9575L153.838 73.9536L154.038 73.9703L154.269 74.0068L154.498 74.0538L154.721 74.111L154.94 74.1772L155.151 74.2529L155.357 74.3384L155.556 74.4323L155.747 74.5353L155.932 74.6476L156.109 74.7681L156.279 74.8969L156.44 75.0349L156.595 75.1807L156.74 75.3344L156.877 75.4973L157.006 75.6676L157.125 75.8456L157.235 76.0327L157.336 76.2274L157.427 76.4297L157.508 76.6412L157.579 76.8603L157.641 77.096L157.688 77.3309C157.726 77.5137 157.905 77.6312 158.087 77.5933C158.269 77.5554 158.387 77.3765 158.349 77.1937L158.292 76.9228L158.225 76.6692L158.142 76.4158L158.048 76.1703L157.941 75.9328L157.822 75.7053L157.692 75.4862L157.551 75.276L157.399 75.0765L157.237 74.8862L157.065 74.7055L156.883 74.5358L156.694 74.3757L156.494 74.2259L156.287 74.0875L156.072 73.9591L155.849 73.8414L155.62 73.7352L155.384 73.6393L155.142 73.5545L154.893 73.4813L154.64 73.4186L154.381 73.3674L154.113 73.3274L153.858 73.308L153.608 73.3135L153.372 73.3356L153.148 73.3658L152.935 73.3977L152.728 73.4246L152.633 73.4341L152.537 73.4405L152.442 73.443L152.348 73.4414L152.257 73.4349L152.164 73.4227L152.072 73.4051L151.98 73.3808L151.885 73.3485L151.788 73.3085L151.689 73.2591L151.577 73.1934C151.425 73.104 151.23 73.1552 151.141 73.3077C151.051 73.4602 151.102 73.6564 151.255 73.7457Z" fill="black"/>
<path id="Vector_26" d="M149.77 77.2986L149.545 77.3811L149.313 77.4976L149.098 77.6374L148.898 77.7967L148.712 77.9757L148.545 78.1707L148.395 78.3792L148.265 78.6019L148.157 78.8341L148.071 79.0747L148.012 79.3065L147.974 79.5585C147.948 79.7434 148.076 79.9144 148.261 79.9405C148.445 79.9666 148.616 79.8379 148.642 79.653L148.665 79.4699L148.714 79.27L148.778 79.0874L148.858 78.908L148.954 78.7363L149.066 78.5726L149.191 78.4193L149.327 78.2809L149.476 78.1586L149.634 78.0532L149.798 77.9691L149.988 77.9003C150.154 77.84 150.239 77.6563 150.179 77.4902C150.119 77.324 149.936 77.2383 149.77 77.2986Z" fill="black"/>
<path id="Vector_27" d="M157.1 80.4766C157.1 80.1703 157.23 79.9219 157.391 79.9219C157.552 79.9219 157.682 80.1703 157.682 80.4766C157.682 80.783 157.552 81.0314 157.391 81.0314C157.23 81.0314 157.1 80.783 157.1 80.4766Z" fill="black"/>
<path id="Vector_28" d="M153.697 88.9035L153.698 88.8721L153.699 88.8675L153.698 88.8707L153.693 88.8812L153.681 88.8988L153.646 88.9316L153.629 88.9382L153.6 88.9466L153.599 88.948L153.618 88.953L153.651 88.967L153.693 88.993L153.738 89.0287L153.781 89.0722L153.818 89.1193L153.914 89.2753L153.986 89.4316L154.044 89.5978L154.09 89.7728L154.128 89.9643L154.155 90.1538C154.183 90.3385 154.355 90.4656 154.539 90.4378C154.723 90.41 154.85 90.2378 154.822 90.0531L154.788 89.831L154.744 89.6169L154.681 89.3944L154.599 89.1725L154.489 88.9526L154.355 88.7469L154.261 88.6321L154.159 88.5355L154.051 88.4554L153.937 88.3894L153.812 88.3394L153.681 88.3106L153.539 88.3076L153.384 88.346L153.262 88.4189L153.183 88.4979L153.133 88.5714L153.099 88.6481L153.075 88.7269L153.062 88.8085L153.059 88.8742C153.051 89.0508 153.187 89.2005 153.363 89.2086C153.539 89.2167 153.689 89.0801 153.697 88.9035Z" fill="black"/>
<path id="Vector_29" d="M154.816 90.1107L154.819 89.8871L154.826 89.6476L154.836 89.3927L154.848 89.127L154.862 88.8529L154.874 88.5722L154.888 88.0141L154.877 87.4835L154.829 86.9903C154.81 86.8045 154.644 86.6693 154.459 86.6883C154.274 86.7073 154.139 86.8732 154.158 87.0589L154.205 87.5005L154.221 88.0167L154.217 88.5579L154.211 88.8297L154.203 89.1018L154.194 89.3684L154.186 89.6274L154.18 89.875L154.178 90.1041C154.176 90.2809 154.318 90.4257 154.494 90.4275C154.67 90.4293 154.815 90.2875 154.816 90.1107Z" fill="black"/>
<path id="Vector_30" d="M153.683 88.8224L153.658 88.733L153.617 88.6329L153.565 88.5416L153.5 88.4587L153.421 88.386L153.333 88.33L153.24 88.2897L153.142 88.2655L153.047 88.2568L152.954 88.2602L152.864 88.2746L152.767 88.302L152.619 88.3638L152.469 88.4557L152.332 88.5666L152.207 88.6943L152.095 88.8409L152.005 88.9965L151.925 89.169L151.86 89.3328L151.806 89.4921L151.763 89.649L151.73 89.8043L151.704 89.9638L151.677 90.2597L151.668 90.5638L151.666 90.8942C151.666 91.0809 151.816 91.2325 152.003 91.2329C152.189 91.2333 152.34 91.0822 152.34 90.8955L152.34 90.5821L152.347 90.2988L152.37 90.0382L152.386 89.9235L152.41 89.804L152.442 89.6821L152.481 89.5566L152.53 89.426L152.589 89.2915L152.64 89.1986L152.699 89.117L152.769 89.0429L152.843 88.9807L152.913 88.9365L152.989 88.9052L153.001 88.9024L153.019 88.8991L153.032 88.8984L153.039 88.8985L153.037 88.8979L153.035 88.8968L153.032 88.8948L153.03 88.893L153.035 88.8986L153.043 88.9126L153.053 88.9367L153.067 88.9913C153.114 89.1618 153.289 89.2622 153.459 89.2155C153.629 89.1689 153.729 88.9929 153.683 88.8224Z" fill="black"/>
<path id="Vector_31" d="M152.222 90.7494L152.091 90.5281L151.947 90.2965L151.793 90.0596L151.633 89.819L151.466 89.5752L151.293 89.3292L150.942 88.8424L150.587 88.3658L150.243 87.9156L150.077 87.7016L149.919 87.4991L149.768 87.3091L149.627 87.1319L149.497 86.9703L149.38 86.8258L149.276 86.6983L149.187 86.591L149.117 86.5055L149.088 86.4705L149.064 86.4416L149.045 86.419L149.031 86.4021L149.022 86.392L149.017 86.3861L149.011 86.3791L148.996 86.3622L148.973 86.3349L148.941 86.2991L148.903 86.2548L148.857 86.203L148.806 86.1451L148.751 86.0816L148.691 86.0134L148.627 85.9418L148.561 85.8672L148.493 85.7901L148.218 85.4838L147.975 85.2205L147.811 85.0575C147.679 84.9263 147.465 84.9276 147.335 85.0605C147.204 85.1933 147.205 85.4074 147.338 85.5386L147.481 85.6799L147.721 85.9389L147.993 86.2408L148.06 86.3155L148.125 86.3892L148.188 86.4601L148.248 86.5276L148.303 86.5905L148.354 86.6477L148.399 86.699L148.437 86.7429L148.468 86.7783L148.492 86.8052L148.506 86.8218L148.51 86.8256L148.51 86.8261L148.518 86.8357L148.532 86.8519L148.551 86.8738L148.574 86.902L148.603 86.9358L148.673 87.0197L148.761 87.125L148.864 87.2502L148.981 87.3922L149.111 87.5511L149.252 87.7251L149.402 87.9116L149.561 88.1103L149.726 88.3189L150.07 88.7614L150.423 89.2273L150.772 89.7057L150.94 89.9432L151.104 90.1797L151.26 90.4127L151.408 90.6407L151.545 90.8614L151.673 91.0764C151.763 91.2284 151.959 91.2783 152.11 91.1881C152.262 91.0977 152.312 90.9014 152.222 90.7494Z" fill="black"/>
<path id="Vector_32" d="M147.862 85.2858L147.862 85.2074L147.868 85.1512L147.879 85.098L147.895 85.0482L147.915 85.0027L147.941 84.9581L147.971 84.9153L148.005 84.8754L148.044 84.8365L148.087 84.7992L148.133 84.7648L148.175 84.737L148.289 84.6739L148.399 84.628L148.508 84.5937L148.611 84.5707L148.714 84.5589L148.776 84.5619C148.963 84.562 149.114 84.4107 149.114 84.224C149.114 84.0372 148.963 83.8858 148.777 83.8857L148.631 83.8887L148.492 83.907L148.328 83.9452L148.161 84.0012L147.99 84.0784L147.831 84.1721L147.743 84.2343L147.664 84.2987L147.589 84.3691L147.517 84.4459L147.451 84.5309L147.391 84.622L147.338 84.7198L147.294 84.826L147.26 84.9374L147.236 85.0542L147.224 85.1775L147.224 85.2885C147.225 85.4653 147.368 85.608 147.544 85.6072C147.721 85.6065 147.863 85.4626 147.862 85.2858Z" fill="black"/>
<path id="Vector_33" d="M148.604 84.477L148.724 84.5555L148.827 84.6324L148.924 84.714L149.016 84.7996L149.104 84.8893L149.189 84.9816L149.363 85.1875L149.542 85.406L149.735 85.6331L149.969 85.8991L150.201 86.1634L150.427 86.4209L150.654 86.6798L150.881 86.9343L151.11 87.1895L151.345 87.4424L151.581 87.6965L151.831 87.9496L152.081 88.2036L152.351 88.4595L152.617 88.7114C152.752 88.8396 152.966 88.8333 153.093 88.6975C153.221 88.5617 153.215 88.3478 153.08 88.2196L152.813 87.9683L152.551 87.7208L152.308 87.4756L152.064 87.2295L151.832 86.9838L151.599 86.7369L151.372 86.4881L151.143 86.2386L150.916 85.9847L150.687 85.7296L150.453 85.4678L150.22 85.2078L150.033 84.9914L149.855 84.7744L149.67 84.559L149.568 84.4474L149.461 84.3389L149.346 84.233L149.223 84.1297L149.089 84.0299L148.952 83.9406C148.805 83.8441 148.607 83.8859 148.511 84.0341C148.415 84.1822 148.456 84.3805 148.604 84.477Z" fill="black"/>
<path id="Vector_34" d="M153.583 88.9013L153.6 88.9698L153.617 89.0477L153.637 89.1368L153.657 89.2348L153.677 89.3412L153.698 89.4542L153.741 89.6992L153.782 89.9603L153.821 90.2277L153.891 90.7603L153.941 91.2337L153.955 91.5619C153.963 91.7483 154.121 91.8923 154.307 91.8835C154.493 91.8746 154.637 91.7162 154.628 91.5297L154.609 91.1596L154.553 90.6758L154.471 90.1316L154.424 89.8549L154.376 89.5877L154.329 89.3377L154.306 89.2189L154.283 89.1076L154.262 89.0041L154.241 88.9082L154.221 88.821L154.202 88.7468C154.16 88.5752 153.987 88.4708 153.815 88.5134C153.644 88.5561 153.54 88.7298 153.583 88.9013Z" fill="black"/>
<path id="Vector_35" d="M147.575 85.154L147.464 85.1614L147.335 85.1841L147.211 85.2171L147.09 85.2573L146.971 85.3037L146.851 85.3551L146.632 85.4585L146.429 85.5602L146.25 85.6464L145.962 85.7856L145.678 85.941L145.405 86.1086L145.142 86.287L144.889 86.4771L144.647 86.6779L144.416 86.8884L144.196 87.1097L143.988 87.3402L143.791 87.5793L143.606 87.8278L143.434 88.0841L143.274 88.3476L143.127 88.6195L142.993 88.8977L142.872 89.1819L142.764 89.4729L142.671 89.7689L142.591 90.0697L142.525 90.3759L142.474 90.6855L142.436 90.9986L142.414 91.3074L142.406 91.6273C142.402 91.8139 142.55 91.9686 142.736 91.9727C142.922 91.9768 143.076 91.8288 143.081 91.6422L143.086 91.3551L143.106 91.0624L143.14 90.7804L143.185 90.5015L143.244 90.2272L143.316 89.9565L143.399 89.69L143.494 89.4291L143.602 89.173L143.72 88.9221L143.851 88.6781L143.993 88.44L144.146 88.2082L144.31 87.9845L144.485 87.7679L144.671 87.5589L144.867 87.359L145.074 87.1677L145.29 86.9849L145.517 86.8124L145.754 86.6503L146.001 86.4978L146.256 86.3569L146.528 86.2241L146.711 86.1357L146.911 86.0352L147.117 85.9377L147.213 85.8965L147.306 85.86L147.395 85.8306L147.474 85.8091L147.541 85.7969L147.615 85.7929C147.79 85.7818 147.924 85.6298 147.913 85.4534C147.902 85.277 147.751 85.1429 147.575 85.154Z" fill="black"/>
<path id="Vector_36" d="M145.431 87.9995L145.587 88.0274L145.745 88.0594L145.908 88.0963L146.074 88.1377L146.242 88.184L146.409 88.2343L146.755 88.3517L147.094 88.4882L147.425 88.6445L147.74 88.8179L148.032 89.0087L148.303 89.2229L148.417 89.3273L148.528 89.4401L148.629 89.5574L148.721 89.6778L148.808 89.8121L148.876 89.9399C148.966 90.1036 149.171 90.1637 149.334 90.074C149.497 89.9843 149.557 89.7788 149.468 89.6151L149.372 89.4418L149.27 89.2873L149.15 89.1308L149.021 88.9821L148.881 88.8406L148.728 88.7025L148.418 88.463L148.076 88.2455L147.719 88.0552L147.35 87.8875L146.975 87.7429L146.605 87.621L146.417 87.5656L146.234 87.5164L146.055 87.4724L145.879 87.4328L145.706 87.3982L145.543 87.3692C145.369 87.3384 145.204 87.4544 145.173 87.6284C145.142 87.8025 145.258 87.9686 145.431 87.9995Z" fill="black"/>
<path id="Vector_37" d="M151.862 89.9215L151.934 90.0827L152.024 90.2564L152.125 90.4299L152.235 90.6034L152.352 90.777L152.477 90.9506L152.727 91.2796L152.978 91.5842L153.21 91.8547C153.332 91.9957 153.545 92.011 153.685 91.8887C153.826 91.7664 153.841 91.553 153.719 91.4118L153.493 91.1521L153.246 90.859L152.997 90.5496L152.882 90.3968L152.771 90.2427L152.671 90.0905L152.582 89.9428L152.508 89.8031L152.446 89.6622C152.375 89.5006 152.186 89.4276 152.025 89.4992C151.864 89.5708 151.791 89.7598 151.862 89.9215Z" fill="black"/>
<path id="Vector_38" d="M210.868 100.671C210.868 100.671 208.514 101.686 206.727 103.794C204.94 105.901 203.807 107.305 203.158 110.894C202.508 114.484 203.314 116.966 205.356 120.675C207.398 124.384 211.326 125.729 211.326 125.729L215.997 126.96L220.355 126.539L224.439 124.741L227.648 122.083L230.334 116.938L230.754 112.184C230.754 112.184 230.212 108.457 228.796 105.898C227.381 103.338 225.419 101.96 222.008 100.342C218.596 98.7243 215.151 99.4257 215.151 99.4257L210.868 100.671Z" fill="#323E4A"/>
<path id="Vector_39" d="M102.625 108.35L101.498 112.851L101.831 117.865C101.831 117.865 104.431 126.074 111.198 127.392C117.966 128.711 122.541 126.842 126.613 122.006C130.686 117.17 129.389 110.325 125.71 105.221C122.313 100.509 118.217 99.8497 112.446 100.632C106.674 101.414 102.625 108.35 102.625 108.35Z" fill="#323E4A"/>
<path id="Vector_40" d="M99.989 118.337L95.78 117.711L95.6592 114.945L81.5056 114.934C81.5056 114.934 80.0558 105.874 80.6652 103.009C81.2745 100.144 82.4914 96.5733 82.4914 96.5733L86.3182 93.5566L92.3867 91.9903C92.3867 91.9903 104.202 90.3904 114.602 90.3297C125.002 90.2689 133.985 91.7472 133.985 91.7472L173.45 91.8105L173.166 90.1201L190.301 90.47L231.237 91.9099L236.672 94.2785L241.18 98.32L242.26 102.614L242.07 108.61L240.341 114.218L238.273 116.241L232.324 117.039L232.731 111.822C232.731 111.822 231.849 105.585 228.748 102.509C225.646 99.4328 220.119 96.7415 216.055 97.4456C211.99 98.1496 204.716 99.5898 202.644 106.603C200.572 113.615 200.534 111.586 201.618 117.334C201.665 117.584 192.698 117.644 181.382 117.584C160.388 117.472 130.652 117.379 130.652 117.379C130.652 117.379 132.331 108.909 127.538 104.32C122.746 99.7311 120.445 97.5959 113.788 98.3201C107.13 99.0443 101.065 106.324 100.906 107.217C100.715 108.291 98.4638 114.95 99.989 118.337Z" fill="#1481DE"/>
<path id="Vector_41" d="M181.545 88.1088L183.529 90.185L173.142 90.3407L163.979 77.0533L170.416 75.5654L171.554 76.8976L166.602 78.0914L173.366 88.2991L181.545 88.1088Z" fill="#1481DE"/>
<path id="Vector_42" d="M135.971 91.6488L136.527 89.6878L138.628 88.6445L141.142 89.9626L142.611 91.8183L135.971 91.6488Z" fill="#F1FFFF"/>
<path id="Vector_43" d="M142.353 94.8877L142.479 95.8058L140.875 96.4241L138.141 96.4685L136.079 95.6673L136.833 94.6642L138.989 94.377L142.353 94.8877Z" fill="#F1FFFF"/>
<path id="Vector_44" d="M166.438 78.1617L171.452 76.8711L181.735 88.0666L173.293 88.2467L166.438 78.1617Z" fill="#F1FFFF"/>
<path id="Vector_45" d="M188.856 85.6738L187.026 86.2704L186.534 87.4575L188.082 88.551L189.683 88.6143L190.979 92.2833L193.17 91.9575L191.401 88.089L191.972 87.1686L191.437 86.2806L188.856 85.6738Z" fill="#F1FFFF"/>
<path id="Vector_46" d="M231.847 91.9766L231.547 93.7975L233.735 97.5398L237.91 101.01L240.255 102.2L242.286 101.999L241.542 98.9162L237.138 94.5574L231.847 91.9766Z" fill="#F1FFFF"/>
<path id="Vector_47" d="M240.192 108.542L236.73 108.959L234.428 109.858C234.428 109.858 233.301 110.567 234.582 111.859C235.862 113.151 239.023 113.126 239.023 113.126L243.832 112.919L246.649 111.717L247.212 110.582L246.146 109.644L240.192 108.542Z" fill="#F1FFFF"/>
<path id="Vector_48" d="M214.293 106.033C214.293 106.033 208.412 108.51 209.543 114.686C210.674 120.862 217.146 121.158 218.66 120.46C220.174 119.762 225.689 117.948 224.315 111.249C222.94 104.55 215.511 105.126 214.293 106.033Z" fill="#F1FFFF"/>
<path id="Vector_49" d="M114.241 106.576C114.241 106.576 105.555 109.011 108.217 116.971C110.879 124.931 119.354 120.459 119.378 120.436C119.401 120.412 124.631 117.088 122.203 111.493C119.605 105.507 114.568 106.553 114.241 106.576Z" fill="#F1FFFF"/>
<path id="Vector_50" d="M81.1412 115.92L81.2658 114.976L95.7093 114.946L95.749 118.793L81.268 118.901L81.244 117.726L77.1298 117.763L75.125 115.981L81.1412 115.92Z" fill="#F1FFFF"/>
<path id="Vector_51" d="M82.0733 108.684L78.3387 109.465C78.3387 109.465 73.6577 111.341 79.5994 112.499C85.5412 113.657 93.105 112.397 93.105 112.397C93.105 112.397 98.5559 111.037 93.3217 109.367C88.0874 107.698 82.0733 108.684 82.0733 108.684Z" fill="#F1FFFF"/>
<path id="Vector_52" d="M86.5516 93.4844L83.2085 95.638L81.0793 99.8702L80.5938 103.054L83.0404 102.08L85.5057 98.8403L86.6263 95.1698" fill="#F1FFFF"/>
<path id="Vector_53" d="M169.18 111.182C155.075 111.182 140.115 111.123 139.716 110.873C134.61 107.673 133.689 92.4234 133.653 91.7758C133.648 91.6885 133.679 91.6028 133.739 91.5392C133.799 91.4755 133.882 91.4395 133.97 91.4395H173.554C173.729 91.4395 173.871 91.582 173.871 91.7578V110.862C173.871 111.037 173.729 111.18 173.554 111.18C172.118 111.181 170.652 111.182 169.18 111.182ZM140.013 110.308C141.198 110.497 160.336 110.552 173.236 110.544V92.0762H134.31C134.475 94.3545 135.617 107.479 140.013 110.308Z" fill="black"/>
<path id="Vector_54" d="M139.366 96.8C137.609 96.8 135.718 96.3716 135.718 95.4312C135.718 94.4908 137.609 94.0625 139.366 94.0625C141.124 94.0625 143.015 94.4908 143.015 95.4312C143.015 96.3716 141.124 96.8 139.366 96.8ZM139.366 94.6992C137.409 94.6992 136.353 95.2187 136.353 95.4312C136.353 95.6437 137.409 96.1633 139.366 96.1633C141.324 96.1633 142.38 95.6437 142.38 95.4312C142.38 95.2187 141.324 94.6992 139.366 94.6992Z" fill="black"/>
<path id="Vector_55" d="M142.705 91.376L142.594 91.2722L142.48 91.1607L142.361 91.039L142.237 90.9095L142.108 90.7727L141.976 90.63L141.699 90.332L141.409 90.0244L141.105 89.7178L140.79 89.4198L140.461 89.1393L140.127 88.8923L139.947 88.7755L139.768 88.6729L139.586 88.5831L139.399 88.506L139.207 88.4442L139.01 88.4002L138.795 88.3737L138.575 88.3711L138.359 88.3911L138.145 88.4301L137.934 88.4887L137.729 88.5645L137.528 88.6552L137.334 88.7613L137.147 88.8804L136.967 89.0109L136.794 89.1536L136.632 89.3061L136.479 89.4674L136.336 89.6381L136.206 89.8157L136.088 89.9997L135.982 90.1908L135.893 90.3862L135.818 90.5861L135.761 90.7913L135.723 90.9982L135.705 91.2073L135.709 91.399L135.736 91.6089C135.762 91.7938 135.933 91.9224 136.117 91.8962C136.301 91.8699 136.43 91.6988 136.403 91.514L136.383 91.3842L136.378 91.2298L136.391 91.0884L136.417 90.9429L136.458 90.7955L136.514 90.6451L136.583 90.4941L136.664 90.3451L136.759 90.1976L136.864 90.0534L136.98 89.9152L137.105 89.7826L137.238 89.6569L137.377 89.5405L137.523 89.4335L137.673 89.3366L137.826 89.2522L137.982 89.1805L138.139 89.1212L138.295 89.0768L138.451 89.0473L138.604 89.0318L138.753 89.0324L138.902 89.0499L139.037 89.0792L139.175 89.1228L139.318 89.181L139.464 89.2514L139.611 89.3342L139.754 89.4256L140.061 89.6485L140.36 89.9015L140.657 90.1801L140.949 90.4729L141.233 90.7719L141.508 91.067L141.642 91.211L141.774 91.3509L141.902 91.4854L142.029 91.6141L142.153 91.7358L142.271 91.8455C142.4 91.9656 142.602 91.958 142.722 91.8283C142.842 91.6987 142.834 91.4962 142.705 91.376Z" fill="black"/>
<path id="Vector_56" d="M183.651 90.5324H172.994C172.889 90.5324 172.791 90.481 172.732 90.3947L163.706 77.2572C163.646 77.1695 163.634 77.0576 163.673 76.9589C163.712 76.8601 163.798 76.7875 163.902 76.7652L170.327 75.3928C170.437 75.3692 170.551 75.4057 170.627 75.4892L183.885 89.9991C183.97 90.092 183.992 90.2268 183.941 90.3423C183.891 90.4578 183.777 90.5324 183.651 90.5324ZM173.16 89.8957H182.929L170.282 76.0534L164.499 77.2886L173.16 89.8957Z" fill="black"/>
<path id="Vector_57" d="M181.718 88.6595H173.386C173.282 88.6595 173.184 88.608 173.125 88.5218L166.069 78.2507C166.009 78.1631 165.996 78.0511 166.035 77.9524C166.074 77.8536 166.16 77.781 166.264 77.7587L171.287 76.6857C171.397 76.6622 171.512 76.6988 171.587 76.7821L181.952 88.1262C182.037 88.2191 182.059 88.3539 182.009 88.4694C181.958 88.5849 181.844 88.6595 181.718 88.6595ZM173.553 88.0228H180.997L171.242 77.3463L166.861 78.2821L173.553 88.0228Z" fill="black"/>
<path id="Vector_58" d="M189.214 88.9096C187.545 88.9096 186.237 88.1598 186.237 87.2024C186.237 86.245 187.545 85.4951 189.214 85.4951C190.883 85.4951 192.19 86.245 192.19 87.2024C192.19 88.1598 190.883 88.9096 189.214 88.9096ZM189.214 86.1318C187.834 86.1318 186.872 86.6961 186.872 87.2024C186.872 87.7087 187.834 88.2729 189.214 88.2729C190.594 88.2729 191.555 87.7087 191.555 87.2024C191.555 86.6961 190.594 86.1318 189.214 86.1318Z" fill="black"/>
<path id="Vector_59" d="M115.226 128.355C107.436 128.355 101.099 122.001 101.099 114.19C101.099 106.379 107.436 100.024 115.226 100.024C123.016 100.024 129.354 106.379 129.354 114.19C129.354 122.001 123.016 128.355 115.226 128.355ZM115.226 100.661C107.786 100.661 101.734 106.73 101.734 114.19C101.734 121.65 107.786 127.719 115.226 127.719C122.666 127.719 128.719 121.65 128.719 114.19C128.719 106.73 122.666 100.661 115.226 100.661Z" fill="black"/>
<path id="Vector_60" d="M216.968 127.308C209.177 127.308 202.84 120.954 202.84 113.143C202.84 105.332 209.177 98.9775 216.968 98.9775C224.758 98.9775 231.095 105.332 231.095 113.143C231.095 120.954 224.758 127.308 216.968 127.308ZM216.968 99.6142C209.528 99.6142 203.475 105.683 203.475 113.143C203.475 120.603 209.528 126.672 216.968 126.672C224.408 126.672 230.46 120.603 230.46 113.143C230.46 105.683 224.408 99.6142 216.968 99.6142Z" fill="black"/>
<path id="Vector_61" d="M115.226 122.066C110.894 122.066 107.37 118.532 107.37 114.189C107.37 109.846 110.894 106.312 115.226 106.312C119.557 106.312 123.081 109.846 123.081 114.189C123.081 118.532 119.557 122.066 115.226 122.066ZM115.226 106.949C111.244 106.949 108.005 110.197 108.005 114.189C108.005 118.181 111.244 121.429 115.226 121.429C119.207 121.429 122.446 118.181 122.446 114.189C122.446 110.197 119.207 106.949 115.226 106.949Z" fill="black"/>
<path id="Vector_62" d="M216.967 120.993C212.635 120.993 209.111 117.46 209.111 113.117C209.111 108.774 212.635 105.24 216.967 105.24C221.298 105.24 224.822 108.774 224.822 113.117C224.822 117.46 221.298 120.993 216.967 120.993ZM216.967 105.877C212.986 105.877 209.746 109.125 209.746 113.117C209.746 117.109 212.986 120.357 216.967 120.357C220.948 120.357 224.187 117.109 224.187 113.117C224.187 109.125 220.948 105.877 216.967 105.877Z" fill="black"/>
<path id="Vector_63" d="M130.897 117.462L130.969 117.163L131.033 116.883L131.089 116.617L131.137 116.36L131.177 116.11L131.211 115.858L131.258 115.357L131.283 114.812L131.29 114.189L131.281 113.636L131.254 113.087L131.207 112.543L131.144 112.005L131.063 111.471L130.964 110.944L130.849 110.423L130.717 109.908L130.568 109.4L130.404 108.899L130.224 108.405L130.028 107.92L129.818 107.442L129.592 106.972L129.352 106.511L129.098 106.059L128.83 105.616L128.548 105.183L128.253 104.759L127.944 104.345L127.623 103.942L127.29 103.55L126.944 103.168L126.587 102.798L126.218 102.439L125.837 102.092L125.446 101.758L125.045 101.436L124.632 101.126L124.21 100.83L123.778 100.547L123.336 100.277L122.885 100.022L122.426 99.781L121.957 99.5543L121.481 99.3431L120.997 99.1462L120.504 98.9651L120.004 98.8004L119.498 98.6508L118.984 98.518L118.464 98.4024L117.938 98.3028L117.406 98.221L116.868 98.1573L116.326 98.1105L115.778 98.0823L115.225 98.0732L114.673 98.0817L114.125 98.1093L113.582 98.1555L113.045 98.2186L112.512 98.2999L111.986 98.3989L111.466 98.5139L110.952 98.6462L110.445 98.7953L109.945 98.9595L109.452 99.1402L108.967 99.3367L108.49 99.5474L108.021 99.7737L107.562 100.015L107.11 100.269L106.668 100.539L106.236 100.822L105.813 101.118L105.4 101.427L104.998 101.749L104.606 102.083L104.225 102.43L103.855 102.789L103.497 103.159L103.151 103.541L102.817 103.934L102.496 104.337L102.187 104.751L101.891 105.175L101.609 105.608L101.34 106.051L101.086 106.504L100.845 106.965L100.619 107.435L100.408 107.914L100.212 108.399L100.031 108.894L99.8672 109.395L99.7181 109.903L99.5857 110.419L99.4707 110.941L99.3715 111.468L99.2901 112.002L99.2268 112.542L99.1803 113.086L99.1524 113.636L99.1436 114.187L99.1447 114.395L99.1484 114.594L99.1545 114.787L99.1629 114.975L99.1735 115.158L99.1864 115.338L99.2175 115.683L99.2565 116.017L99.3026 116.345L99.3563 116.667L99.4099 116.99L99.4734 117.324L99.5362 117.655L99.6058 118.017L99.6753 118.38C99.7106 118.563 99.8873 118.683 100.07 118.648C100.253 118.612 100.373 118.435 100.338 118.252L100.268 117.889L100.198 117.528L100.136 117.197L100.073 116.87L100.021 116.556L99.9685 116.242L99.9247 115.931L99.8875 115.613L99.8576 115.282L99.8455 115.114L99.8354 114.94L99.8275 114.761L99.8215 114.577L99.8179 114.387L99.8168 114.193L99.8251 113.658L99.8517 113.132L99.8961 112.61L99.9567 112.093L100.034 111.581L100.129 111.076L100.24 110.576L100.366 110.082L100.509 109.595L100.666 109.114L100.839 108.642L101.027 108.176L101.228 107.717L101.445 107.267L101.675 106.825L101.919 106.391L102.176 105.967L102.447 105.551L102.73 105.144L103.026 104.748L103.334 104.361L103.654 103.984L103.985 103.618L104.328 103.263L104.682 102.919L105.047 102.586L105.422 102.265L105.808 101.956L106.203 101.659L106.609 101.375L107.023 101.103L107.446 100.845L107.879 100.601L108.32 100.369L108.768 100.152L109.226 99.9493L109.69 99.7603L110.162 99.5869L110.642 99.4289L111.127 99.2853L111.619 99.1581L112.118 99.0472L112.623 98.9516L113.133 98.8732L113.649 98.8121L114.17 98.7671L114.695 98.7401L115.225 98.7314L115.756 98.7395L116.281 98.7659L116.802 98.8103L117.318 98.8708L117.828 98.9487L118.333 99.0437L118.832 99.154L119.325 99.2807L119.811 99.4238L120.291 99.5813L120.763 99.7543L121.228 99.9428L121.686 100.145L122.135 100.362L122.576 100.593L123.009 100.837L123.433 101.095L123.848 101.367L124.254 101.651L124.65 101.947L125.036 102.257L125.412 102.577L125.777 102.91L126.132 103.254L126.475 103.61L126.807 103.975L127.127 104.353L127.436 104.739L127.732 105.136L128.016 105.543L128.287 105.959L128.545 106.384L128.789 106.818L129.02 107.26L129.236 107.711L129.439 108.17L129.627 108.636L129.8 109.109L129.958 109.59L130.101 110.078L130.227 110.572L130.338 111.072L130.433 111.579L130.511 112.09L130.572 112.608L130.616 113.131L130.643 113.658L130.651 114.19L130.645 114.795L130.621 115.313L130.576 115.789L130.546 116.016L130.508 116.25L130.462 116.492L130.41 116.745L130.348 117.016L130.276 117.31C130.235 117.482 130.339 117.655 130.511 117.697C130.682 117.739 130.855 117.634 130.897 117.462Z" fill="black"/>
<path id="Vector_64" d="M232.717 117.163L232.734 116.954L232.751 116.756L232.768 116.567L232.785 116.385L232.803 116.21L232.82 116.043L232.856 115.72L232.89 115.413L232.923 115.113L232.979 114.516L233.019 113.879L233.026 113.51L233.032 113.143L233.024 112.59L232.996 112.04L232.95 111.497L232.886 110.958L232.805 110.424L232.706 109.897L232.591 109.376L232.459 108.861L232.311 108.353L232.147 107.852L231.967 107.358L231.771 106.873L231.56 106.395L231.335 105.925L231.094 105.464L230.841 105.012L230.572 104.569L230.29 104.136L229.995 103.712L229.687 103.298L229.365 102.896L229.032 102.503L228.687 102.121L228.329 101.751L227.96 101.393L227.58 101.046L227.188 100.711L226.787 100.389L226.374 100.079L225.952 99.7833L225.52 99.4999L225.078 99.2304L224.627 98.9755L224.168 98.734L223.7 98.5073L223.223 98.2962L222.739 98.0993L222.246 97.9182L221.747 97.7535L221.24 97.6039L220.726 97.471L220.206 97.3555L219.681 97.2559L219.148 97.1741L218.611 97.1104L218.068 97.0636L217.52 97.0354L216.968 97.0264L216.415 97.0348L215.867 97.0624L215.325 97.1087L214.787 97.1717L214.254 97.253L213.728 97.3521L213.208 97.467L212.694 97.5994L212.187 97.7485L211.687 97.9127L211.194 98.0934L210.71 98.2898L210.232 98.5006L209.763 98.7269L209.304 98.9681L208.852 99.2227L208.41 99.492L207.978 99.7751L207.555 100.071L207.142 100.38L206.74 100.703L206.348 101.037L205.967 101.384L205.598 101.743L205.239 102.112L204.893 102.494L204.559 102.887L204.238 103.29L203.929 103.704L203.634 104.128L203.351 104.561L203.082 105.005L202.828 105.457L202.587 105.918L202.361 106.388L202.15 106.867L201.954 107.353L201.774 107.847L201.609 108.348L201.46 108.856L201.328 109.372L201.213 109.894L201.114 110.421L201.032 110.956L200.969 111.495L200.922 112.039L200.895 112.589L200.886 113.14L200.887 113.544L200.891 113.927L200.9 114.297L200.915 114.656L200.937 115.008L200.968 115.355L201.008 115.7L201.06 116.046L201.125 116.395L201.203 116.749L201.294 117.106L201.403 117.48C201.456 117.659 201.643 117.762 201.822 117.709C202.001 117.657 202.103 117.469 202.05 117.29L201.947 116.937L201.858 116.592L201.785 116.26L201.725 115.934L201.676 115.611L201.638 115.286L201.609 114.957L201.588 114.621L201.573 114.274L201.564 113.915L201.56 113.539L201.559 113.146L201.567 112.611L201.594 112.085L201.638 111.563L201.699 111.046L201.777 110.535L201.872 110.029L201.982 109.529L202.108 109.036L202.251 108.548L202.408 108.068L202.581 107.595L202.769 107.129L202.971 106.67L203.187 106.22L203.418 105.778L203.661 105.345L203.918 104.92L204.189 104.504L204.472 104.098L204.768 103.701L205.076 103.315L205.396 102.938L205.727 102.572L206.07 102.217L206.424 101.872L206.789 101.54L207.165 101.219L207.55 100.909L207.945 100.613L208.351 100.329L208.765 100.057L209.188 99.7986L209.621 99.5541L210.062 99.3224L210.511 99.1053L210.968 98.9027L211.433 98.7137L211.904 98.5403L212.384 98.3823L212.87 98.2387L213.362 98.1115L213.861 98.0007L214.365 97.9051L214.875 97.8266L215.391 97.7655L215.912 97.7206L216.437 97.6936L216.968 97.6849L217.498 97.693L218.024 97.7194L218.544 97.7638L219.061 97.8243L219.571 97.9022L220.075 97.9972L220.575 98.1075L221.067 98.2342L221.553 98.3773L222.033 98.5348L222.505 98.7078L222.97 98.8963L223.428 99.0985L223.877 99.3152L224.318 99.5466L224.751 99.7909L225.175 100.049L225.59 100.32L225.996 100.604L226.392 100.901L226.778 101.21L227.154 101.531L227.519 101.863L227.874 102.208L228.218 102.563L228.549 102.929L228.87 103.306L229.178 103.693L229.474 104.089L229.758 104.496L230.029 104.912L230.287 105.337L230.531 105.771L230.762 106.214L230.979 106.664L231.181 107.123L231.369 107.589L231.542 108.063L231.7 108.544L231.843 109.031L231.969 109.525L232.08 110.026L232.175 110.532L232.253 111.044L232.314 111.561L232.358 112.084L232.385 112.611L232.393 113.144L232.387 113.498L232.38 113.85L232.343 114.466L232.287 115.049L232.255 115.343L232.221 115.649L232.186 115.974L232.168 116.145L232.15 116.322L232.132 116.507L232.115 116.7L232.098 116.902L232.081 117.113C232.067 117.29 232.198 117.444 232.374 117.457C232.55 117.471 232.704 117.34 232.717 117.163Z" fill="black"/>
<path id="Vector_65" d="M190.889 92.6417C190.752 92.6417 190.628 92.5523 190.586 92.4166L189.502 88.8706L190.109 88.6841L191.111 91.9589L192.692 91.6662L191.081 88.2359L191.655 87.9648L193.442 91.7687C193.484 91.858 193.482 91.9618 193.437 92.0496C193.392 92.1375 193.309 92.1995 193.212 92.2174L190.947 92.6364C190.928 92.64 190.909 92.6417 190.889 92.6417Z" fill="black"/>
<path id="Vector_66" d="M240.5 113.494C237.118 113.494 233.523 112.583 233.523 110.894C233.523 109.206 237.118 108.295 240.5 108.295C243.882 108.295 247.476 109.206 247.476 110.894C247.476 111.873 246.219 112.697 244.027 113.155C242.965 113.377 241.745 113.494 240.5 113.494ZM240.5 108.932C236.763 108.932 234.158 109.966 234.158 110.894C234.158 111.823 236.763 112.857 240.5 112.857C241.702 112.857 242.877 112.745 243.897 112.532C245.931 112.107 246.841 111.403 246.841 110.894C246.841 109.966 244.237 108.932 240.5 108.932Z" fill="black"/>
<path id="Vector_67" d="M86.1105 113.461C81.2347 113.461 76.2988 112.569 76.2988 110.862C76.2988 109.156 81.2347 108.263 86.1105 108.263C90.9863 108.263 95.9223 109.156 95.9223 110.862C95.9223 112.569 90.9863 113.461 86.1105 113.461ZM86.1105 108.899C80.4249 108.899 76.9338 110.043 76.9338 110.862C76.9338 111.682 80.4249 112.825 86.1105 112.825C91.7962 112.825 95.2873 111.682 95.2873 110.862C95.2873 110.043 91.7962 108.899 86.1105 108.899Z" fill="black"/>
<path id="Vector_68" d="M80.8281 103.433C80.669 103.433 80.5138 103.415 80.3633 103.38L80.5093 102.76C81.142 102.91 81.9647 102.58 82.8258 101.831C84.7793 100.132 86.6367 96.564 86.3637 93.5328L86.9962 93.4756C87.2874 96.7099 85.316 100.508 83.2419 102.312C82.3909 103.052 81.5663 103.433 80.8281 103.433Z" fill="black"/>
<path id="Vector_69" d="M241.087 102.642C239.481 102.642 237.066 101.32 234.896 99.2468C231.858 96.3437 230.412 93.0593 231.605 91.7695L232.071 92.2026C231.068 93.2864 232.986 96.542 235.334 98.786C237.394 100.755 239.727 102.047 241.155 102.005C241.526 101.993 241.807 101.888 241.988 101.692L242.454 102.125C242.153 102.45 241.722 102.624 241.175 102.641C241.146 102.642 241.117 102.642 241.087 102.642Z" fill="black"/>
<path id="Vector_70" d="M240.314 113.23L240.305 113.469L240.277 113.682L240.232 113.885L240.171 114.079L240.095 114.262L240.003 114.437L239.897 114.605L239.776 114.764L239.641 114.917L239.493 115.064L239.333 115.203L239.16 115.335L238.976 115.461L238.781 115.58L238.576 115.692L238.363 115.797L238.142 115.896L237.914 115.989L237.679 116.075L237.44 116.156L237.197 116.23L236.95 116.298L236.702 116.361L236.454 116.418L235.95 116.52L235.455 116.601L234.973 116.665L234.511 116.716L234.077 116.753L233.677 116.778L233.494 116.787L233.322 116.794L233.162 116.8L233.014 116.803L232.881 116.806L232.764 116.807L232.661 116.807L232.576 116.807L232.509 116.806L232.46 116.805L232.43 116.805L232.422 116.805C232.236 116.8 232.081 116.947 232.076 117.134C232.072 117.321 232.219 117.476 232.405 117.48L232.416 117.481L232.449 117.481L232.502 117.482L232.573 117.483L232.662 117.483L232.769 117.482L232.891 117.481L233.029 117.478L233.182 117.474L233.347 117.469L233.526 117.461L233.718 117.451L234.127 117.424L234.576 117.385L235.055 117.332L235.555 117.263L236.071 117.176L236.592 117.068L236.858 117.005L237.121 116.937L237.382 116.862L237.642 116.781L237.898 116.693L238.151 116.598L238.398 116.496L238.641 116.386L238.877 116.267L239.105 116.14L239.326 116.003L239.537 115.858L239.739 115.702L239.93 115.536L240.108 115.359L240.273 115.171L240.423 114.97L240.556 114.758L240.674 114.535L240.772 114.298L240.849 114.051L240.906 113.793L240.941 113.523L240.952 113.255C240.959 113.079 240.822 112.93 240.645 112.923C240.469 112.916 240.321 113.054 240.314 113.23Z" fill="black"/>
<path id="Vector_71" d="M241.917 102.284L241.901 102.657L241.886 103.03L241.87 103.403L241.853 103.776L241.837 104.149L241.819 104.522L241.802 104.895L241.785 105.268L241.767 105.641L241.75 106.014L241.733 106.387L241.716 106.76L241.7 107.133L241.684 107.506L241.669 107.879L241.653 108.252C241.645 108.439 241.79 108.596 241.976 108.604C242.162 108.612 242.319 108.467 242.326 108.28L242.341 107.907L242.356 107.534L242.371 107.161L242.386 106.788L242.4 106.415L242.414 106.042L242.427 105.669L242.441 105.295L242.454 104.922L242.468 104.549L242.481 104.176L242.496 103.803L242.51 103.43L242.525 103.057L242.54 102.684L242.555 102.311C242.562 102.134 242.425 101.985 242.249 101.978C242.073 101.97 241.924 102.108 241.917 102.284Z" fill="black"/>
<path id="Vector_72" d="M190.028 90.0978L189.934 90.0946L189.831 90.0909L189.72 90.0869L189.601 90.0826L189.475 90.0779L189.343 90.0728L189.06 90.0617L188.754 90.0493L188.431 90.0359L188.094 90.0216L187.746 90.0059L187.391 89.9899L187.033 89.9735L186.675 89.9571L186.321 89.9409L185.974 89.9251L185.639 89.91L185.319 89.8955L185.016 89.8824L184.735 89.8704L184.481 89.8595L184.364 89.8545L184.256 89.8498L184.155 89.8454L184.063 89.8415L183.98 89.8379L183.907 89.8347L183.844 89.832L183.791 89.8297L183.749 89.8279L183.719 89.8265L183.7 89.8258L183.694 89.8255C183.508 89.8176 183.351 89.9625 183.343 90.149C183.335 90.3356 183.48 90.4932 183.666 90.501L183.672 90.5013L183.69 90.5021L183.721 90.5033L183.763 90.505L183.815 90.5072L183.879 90.5098L183.952 90.5128L184.035 90.5161L184.127 90.5199L184.227 90.524L184.336 90.5284L184.453 90.5332L184.707 90.5435L184.988 90.5549L185.291 90.5669L185.611 90.579L185.947 90.5917L186.294 90.6044L186.648 90.6171L187.006 90.6299L187.365 90.6427L187.72 90.6552L188.068 90.6674L188.406 90.6799L188.73 90.6918L189.035 90.7029L189.319 90.7133L189.452 90.7182L189.578 90.7228L189.697 90.727L189.809 90.7309L189.912 90.7345L190.007 90.7376C190.183 90.7435 190.33 90.605 190.336 90.4284C190.342 90.2517 190.204 90.1037 190.028 90.0978Z" fill="black"/>
<path id="Vector_73" d="M230.998 91.6539L230.4 91.6331L229.803 91.6122L229.205 91.5914L228.607 91.5705L228.009 91.5497L227.412 91.5288L226.814 91.508L226.216 91.4871L225.618 91.4662L225.021 91.4452L224.423 91.4242L223.825 91.4032L223.228 91.3821L222.63 91.3611L222.032 91.3401L221.434 91.319L220.837 91.298L220.239 91.277L219.641 91.2559L219.043 91.2347L218.446 91.2134L217.848 91.1921L217.25 91.1708L216.653 91.1495L216.055 91.1282L215.457 91.1069L214.859 91.0856L214.262 91.0644L213.664 91.0431L213.066 91.0218L212.468 91.0005L211.871 90.9792L211.273 90.9579L210.675 90.9366L210.078 90.9153L209.48 90.894L208.882 90.8727L208.284 90.8514L207.687 90.8301L207.089 90.8089L206.491 90.7877L205.894 90.7666L205.296 90.7454L204.698 90.7242L204.1 90.7031L203.503 90.6819L202.905 90.6608L202.307 90.6396L201.709 90.6186L201.112 90.5977L200.514 90.5768L199.916 90.5559L199.318 90.535L198.721 90.5141L198.123 90.4931L197.525 90.4722L196.928 90.4513L196.33 90.4304L195.732 90.4095L195.134 90.3886L194.537 90.3676L193.939 90.3467L193.341 90.3258L192.743 90.3049C192.557 90.2984 192.401 90.4444 192.395 90.631C192.388 90.8176 192.534 90.9742 192.72 90.9806L193.318 91.0013L193.916 91.022L194.513 91.0427L195.111 91.0633L195.709 91.084L196.306 91.1047L196.904 91.1254L197.502 91.1461L198.1 91.1667L198.697 91.1874L199.295 91.2081L199.893 91.2288L200.491 91.2495L201.088 91.2701L201.686 91.2908L202.284 91.3114L202.882 91.3319L203.479 91.3523L204.077 91.3728L204.675 91.3932L205.273 91.4136L205.87 91.4341L206.468 91.4545L207.066 91.4749L207.664 91.4953L208.261 91.5156L208.859 91.5359L209.457 91.5562L210.055 91.5765L210.652 91.5968L211.25 91.6171L211.848 91.6374L212.446 91.6577L213.043 91.6781L213.641 91.6983L214.239 91.7186L214.837 91.7389L215.434 91.7593L216.032 91.7795L216.63 91.7999L217.228 91.8202L217.826 91.8405L218.423 91.8608L219.021 91.8811L219.619 91.9014L220.217 91.9219L220.814 91.9425L221.412 91.9631L222.01 91.9837L222.608 92.0042L223.205 92.0248L223.803 92.0454L224.401 92.066L224.999 92.0865L225.596 92.1071L226.194 92.1278L226.792 92.1485L227.389 92.1693L227.987 92.19L228.585 92.2107L229.183 92.2315L229.78 92.2523L230.378 92.273L230.976 92.2937C231.152 92.2999 231.3 92.1616 231.306 91.9849C231.312 91.8083 231.174 91.6601 230.998 91.6539Z" fill="black"/>
<path id="Vector_74" d="M231.165 92.3457L231.171 92.3464L231.194 92.3495L231.234 92.3555L231.289 92.3642L231.359 92.3762L231.445 92.392L231.544 92.4115L231.657 92.4352L231.784 92.4636L231.923 92.4965L232.073 92.5346L232.236 92.5783L232.409 92.6273L232.592 92.6824L232.785 92.7441L232.987 92.812L233.197 92.8868L233.416 92.9692L233.642 93.0586L233.874 93.1559L234.113 93.2617L234.358 93.3752L234.607 93.4975L234.861 93.6289L235.313 93.8735L235.762 94.1273L236.206 94.3908L236.645 94.6629L237.075 94.9445L237.497 95.2361L237.908 95.5367L238.307 95.847L238.693 96.1677L239.064 96.4977L239.417 96.8375L239.753 97.1879L240.071 97.5477L240.367 97.9174L240.64 98.2983L240.891 98.6888L241.117 99.0891L241.318 99.506L241.407 99.7114L241.489 99.9238L241.565 100.14L241.634 100.358L241.695 100.579L241.748 100.803L241.794 101.031L241.832 101.261L241.861 101.495L241.883 101.732L241.896 101.978L241.9 102.221C241.903 102.408 242.056 102.557 242.242 102.553C242.429 102.55 242.577 102.396 242.574 102.21L242.569 101.941L242.555 101.682L242.531 101.421L242.498 101.164L242.456 100.909L242.405 100.658L242.346 100.411L242.278 100.166L242.203 99.926L242.119 99.6891L242.028 99.4553L241.927 99.2211L241.711 98.7763L241.465 98.3402L241.192 97.9193L240.898 97.5112L240.58 97.1161L240.241 96.7349L239.885 96.3658L239.511 96.0089L239.121 95.6649L238.718 95.332L238.301 95.0105L237.874 94.7008L237.437 94.4014L236.992 94.1127L236.54 93.8348L236.084 93.5665L235.624 93.308L235.162 93.0594L234.895 92.9219L234.633 92.794L234.377 92.6756L234.126 92.5654L233.882 92.4636L233.646 92.3704L233.417 92.2844L233.195 92.2059L232.984 92.1348L232.781 92.0702L232.588 92.0122L232.406 91.9607L232.234 91.9146L232.074 91.8743L231.927 91.8395L231.792 91.8093L231.671 91.7839L231.564 91.763L231.471 91.7458L231.393 91.7325L231.331 91.7227L231.285 91.7159L231.255 91.7119L231.245 91.7106C231.07 91.6885 230.91 91.8127 230.888 91.9881C230.866 92.1635 230.99 92.3236 231.165 92.3457Z" fill="black"/>
<path id="Vector_75" d="M134.058 91.5021L133.764 91.4208L133.457 91.3418L133.141 91.2659L132.816 91.1926L132.482 91.1221L132.14 91.0545L131.789 90.9894L131.43 90.9271L131.062 90.8674L130.688 90.8101L130.305 90.7554L129.915 90.7032L129.518 90.6533L129.114 90.6058L128.704 90.5607L128.287 90.5178L127.864 90.4773L127.434 90.4389L126.998 90.4037L126.56 90.3685L126.112 90.3376L125.664 90.3067L125.206 90.28L124.749 90.2532L124.283 90.2301L123.817 90.207L123.343 90.1877L122.869 90.1684L122.389 90.1529L121.908 90.1373L121.422 90.1251L120.936 90.1128L120.445 90.1039L119.953 90.095L119.458 90.0894L118.963 90.0837L118.466 90.0809L117.968 90.0781L117.468 90.0783L116.968 90.0785L116.467 90.0815L115.967 90.0844L115.466 90.0898L114.965 90.0952L114.465 90.1031L113.965 90.1108L113.467 90.121L112.969 90.1311L112.475 90.1442L111.982 90.1573L111.489 90.1704L110.995 90.1834L110.51 90.2004L110.027 90.2173L109.544 90.2342L109.059 90.2512L108.588 90.2713L108.119 90.2914L107.649 90.3115L107.179 90.3317L106.72 90.3537L106.262 90.3756L105.813 90.3988L105.365 90.4219L104.927 90.4461L104.489 90.4702L104.062 90.4952L103.635 90.5201L103.221 90.5458L102.807 90.5714L102.406 90.5976L102.006 90.6239L101.619 90.6505L101.232 90.6771L100.86 90.7039L100.489 90.7308L100.134 90.7578L99.7798 90.7848L99.4371 90.8118L99.1036 90.8387L98.7794 90.8655L98.464 90.8923L98.1584 90.9188L97.8629 90.9452L97.5768 90.9714L97.3012 90.9972L97.0365 91.0228L96.7817 91.048L96.5382 91.0729L96.3063 91.0974L96.0851 91.1214L95.8757 91.145L95.6786 91.168L95.4928 91.1906L95.3195 91.2126L95.1593 91.2339L94.7219 91.2938L94.2592 91.3583L93.7741 91.4281L93.2709 91.5032L92.7504 91.5848L92.216 91.6736L91.671 91.7693L91.1171 91.8735L90.5574 91.9866L89.9947 92.1086L89.431 92.2408L88.87 92.384L88.3133 92.5377L87.7636 92.7039L87.2247 92.883L86.6973 93.0747L86.1849 93.2812L85.6913 93.5028L85.2166 93.7394L84.7645 93.9935L84.3436 94.2629L84.1368 94.4082L83.9411 94.5562L83.7538 94.7091L83.5742 94.8668L83.4028 95.0305L83.2411 95.1992L83.0383 95.4271L82.8442 95.6606L82.6594 95.8986L82.4825 96.141L82.314 96.3882L82.154 96.6395L82.0016 96.8945L81.8569 97.154L81.7203 97.4168L81.5906 97.6829L81.4681 97.9528L81.353 98.2255L81.2444 98.501L81.1424 98.7797L81.0472 99.0608L80.9579 99.3442L80.8747 99.6302L80.7968 99.9212L80.6592 100.499L80.5424 101.088L80.4459 101.682L80.3662 102.279L80.3037 102.88L80.2566 103.482L80.2224 104.085L80.2006 104.687L80.1897 105.287L80.1875 105.883L80.1933 106.476L80.2056 107.062L80.2225 107.641L80.2429 108.212L80.2654 108.773C80.2729 108.96 80.4298 109.105 80.6159 109.097C80.8019 109.09 80.9467 108.932 80.9392 108.746L80.9167 108.187L80.8962 107.619L80.8793 107.045L80.8671 106.465L80.8612 105.881L80.8632 105.294L80.8737 104.705L80.8949 104.116L80.9283 103.528L80.9739 102.941L81.0344 102.359L81.1113 101.781L81.2043 101.208L81.3161 100.643L81.4493 100.084L81.522 99.8119L81.601 99.5401L81.6859 99.2707L81.7762 99.004L81.8723 98.7408L81.975 98.4805L82.0833 98.2234L82.1982 97.9702L82.3199 97.7203L82.4479 97.474L82.5828 97.2319L82.7252 96.9937L82.8742 96.7593L83.0307 96.5297L83.1952 96.3041L83.367 96.0828L83.5466 95.8666L83.7349 95.655L83.8762 95.5073L84.0266 95.3637L84.1867 95.2231L84.3549 95.0857L84.5314 94.9522L84.7127 94.8245L85.1089 94.5705L85.5297 94.3337L85.9775 94.1104L86.4468 93.8993L86.9363 93.7017L87.4441 93.5167L87.9655 93.343L88.4986 93.1815L89.0412 93.0312L89.5896 92.8908L90.1413 92.7609L90.6939 92.6408L91.2445 92.5291L91.7901 92.4261L92.328 92.3312L92.8564 92.243L93.3715 92.1619L93.8704 92.087L94.3523 92.0172L94.8128 91.9526L95.2486 91.8925L95.405 91.8715L95.5745 91.8499L95.7571 91.8275L95.9513 91.8046L96.158 91.7811L96.3769 91.7571L96.6067 91.7327L96.8481 91.7078L97.1009 91.6825L97.364 91.6568L97.6379 91.6308L97.9224 91.6045L98.2165 91.578L98.5206 91.5513L98.8347 91.5244L99.1575 91.4973L99.4896 91.4702L99.8308 91.443L100.184 91.4157L100.538 91.3885L100.908 91.3613L101.278 91.3342L101.664 91.3073L102.05 91.2804L102.449 91.2539L102.848 91.2273L103.262 91.2013L103.675 91.1754L104.101 91.1501L104.526 91.1248L104.963 91.1003L105.4 91.0757L105.847 91.0522L106.295 91.0287L106.752 91.0063L107.209 90.984L107.677 90.9635L108.147 90.9429L108.616 90.9224L109.084 90.9019L109.567 90.8845L110.05 90.8672L110.533 90.8498L111.015 90.8324L111.507 90.8189L112 90.8054L112.492 90.7918L112.984 90.7783L113.481 90.7678L113.977 90.7572L114.475 90.749L114.974 90.7408L115.473 90.7352L115.972 90.7296L116.471 90.7264L116.97 90.7232L117.468 90.7229L117.966 90.7225L118.462 90.725L118.958 90.7276L119.451 90.733L119.944 90.7383L120.433 90.747L120.922 90.7556L121.406 90.7676L121.89 90.7797L122.368 90.7949L122.846 90.8102L123.317 90.8291L123.788 90.8481L124.251 90.8709L124.714 90.8936L125.169 90.9201L125.624 90.9466L126.068 90.9772L126.513 91.0077L126.946 91.0426L127.38 91.0776L127.805 91.1154L128.224 91.1555L128.636 91.1979L129.042 91.2424L129.441 91.2893L129.833 91.3385L130.218 91.3899L130.594 91.4438L130.963 91.5001L131.324 91.5587L131.677 91.6198L132.02 91.6835L132.355 91.7496L132.681 91.8182L132.997 91.8895L133.303 91.9632L133.6 92.0395L133.888 92.1192C134.058 92.1662 134.234 92.0662 134.281 91.8958C134.328 91.7253 134.228 91.5491 134.058 91.5021Z" fill="black"/>
<path id="Vector_76" d="M95.7916 119.251H81.2345C81.0592 119.251 80.917 119.108 80.917 118.932V114.981C80.917 114.805 81.0592 114.663 81.2345 114.663H95.7916C95.9669 114.663 96.1091 114.805 96.1091 114.981V118.932C96.1091 119.108 95.9669 119.251 95.7916 119.251ZM81.552 118.614H95.4741V115.3H81.552V118.614Z" fill="black"/>
<path id="Vector_77" d="M81.0413 118.08H77.0031C76.9201 118.08 76.8402 118.047 76.7808 117.989L74.8823 116.123C74.7903 116.032 74.7619 115.895 74.8107 115.775C74.8596 115.655 74.9757 115.577 75.1047 115.577H81.0561V116.214H75.8821L77.1328 117.443H81.0413V118.08Z" fill="black"/>
<path id="Vector_78" d="M100.009 118.019L99.6948 117.966L99.3803 117.912L99.0658 117.858L98.7502 117.803L98.4352 117.75L98.1215 117.697L97.8078 117.644L97.4917 117.591L97.1741 117.542L96.8583 117.495L96.5426 117.448L96.2269 117.401C96.0427 117.374 95.8714 117.502 95.8444 117.687C95.8174 117.871 95.9449 118.043 96.1291 118.07L96.445 118.116L96.7609 118.162L97.0768 118.207L97.3907 118.252L97.703 118.299L98.0176 118.347L98.3322 118.395L98.6455 118.443L98.9593 118.494L99.2742 118.546L99.589 118.598L99.9037 118.651C100.078 118.68 100.242 118.562 100.271 118.388C100.301 118.214 100.183 118.049 100.009 118.019Z" fill="black"/>
<path id="Vector_79" d="M201.755 117.096L201.199 117.096L200.643 117.096L200.087 117.096L199.531 117.096L198.975 117.096L198.419 117.096H197.863L197.307 117.096L196.751 117.096L196.195 117.096L195.639 117.096L195.083 117.096L194.527 117.096L193.971 117.096L193.415 117.096L192.859 117.096L192.303 117.096L191.747 117.096L191.191 117.095L190.635 117.095L190.079 117.095L189.523 117.095L188.967 117.095L188.411 117.095L187.856 117.095L187.3 117.095L186.744 117.095L186.188 117.094L185.632 117.094L185.076 117.094L184.52 117.094L183.964 117.094L183.408 117.094L182.852 117.094L182.296 117.094L181.74 117.094L181.184 117.093L180.628 117.093L180.072 117.093L179.516 117.093L178.96 117.093L178.404 117.092L177.848 117.092L177.292 117.092L176.736 117.092L176.18 117.091L175.624 117.091L175.068 117.091L174.512 117.091L173.956 117.09L173.4 117.09L172.844 117.09L172.288 117.09L171.732 117.089L171.176 117.089L170.62 117.089L170.064 117.089L169.508 117.088L168.952 117.088L168.396 117.088L167.84 117.088L167.284 117.087L166.728 117.087L166.172 117.087L165.616 117.087L165.06 117.086L164.504 117.086L163.948 117.086L163.392 117.086L162.836 117.085L162.28 117.085L161.724 117.085L161.168 117.085L160.612 117.084L160.056 117.084L159.5 117.084L158.944 117.084L158.388 117.083L157.832 117.083L157.276 117.083L156.72 117.083L156.164 117.083L155.608 117.082L155.052 117.082L154.496 117.082L153.94 117.082L153.384 117.082L152.828 117.082L152.273 117.081L151.717 117.081L151.161 117.081L150.605 117.081L150.049 117.081L149.493 117.08L148.937 117.08L148.381 117.08L147.825 117.08L147.269 117.08L146.713 117.08L146.157 117.08L145.601 117.08L145.045 117.08L144.489 117.08L143.933 117.08L143.377 117.079L142.821 117.079L142.265 117.079L141.709 117.079L141.153 117.079L140.597 117.079L140.041 117.079L139.485 117.079L138.929 117.079L138.373 117.079L137.817 117.079L137.261 117.079L136.705 117.079L136.149 117.079L135.593 117.079L135.037 117.079L134.481 117.079L133.925 117.079L133.369 117.078L132.813 117.078L132.257 117.078L131.701 117.078L131.145 117.078L130.589 117.078C130.403 117.078 130.252 117.229 130.252 117.416C130.252 117.603 130.403 117.754 130.589 117.754L131.145 117.754L131.701 117.754L132.257 117.754L132.813 117.754L133.369 117.754L133.925 117.754L134.481 117.754L135.037 117.754L135.593 117.754L136.149 117.754L136.705 117.754L137.261 117.754L137.817 117.754L138.373 117.753L138.929 117.753L139.485 117.753L140.041 117.753L140.597 117.753L141.153 117.753L141.709 117.753L142.265 117.753L142.821 117.753L143.377 117.753L143.933 117.753L144.489 117.753L145.045 117.753L145.601 117.753L146.157 117.753L146.713 117.753L147.269 117.753L147.825 117.752L148.381 117.752L148.937 117.752L149.493 117.752L150.049 117.752L150.605 117.752L151.161 117.751L151.717 117.751L152.273 117.751L152.828 117.751L153.384 117.751L153.94 117.751L154.496 117.75L155.052 117.75L155.608 117.75L156.164 117.75L156.72 117.75L157.276 117.749L157.832 117.749L158.388 117.749L158.944 117.749L159.5 117.749L160.056 117.748L160.612 117.748L161.168 117.748L161.724 117.748L162.28 117.747L162.836 117.747L163.392 117.747L163.948 117.747L164.504 117.746L165.06 117.746L165.616 117.746L166.172 117.746L166.728 117.745L167.284 117.745L167.84 117.745L168.396 117.745L168.952 117.744L169.508 117.744L170.064 117.744L170.62 117.744L171.176 117.743L171.732 117.743L172.288 117.743L172.844 117.743L173.4 117.742L173.956 117.742L174.512 117.742L175.068 117.742L175.624 117.741L176.18 117.741L176.736 117.741L177.292 117.741L177.848 117.74L178.404 117.74L178.96 117.74L179.516 117.74L180.072 117.739L180.628 117.739L181.184 117.739L181.74 117.739L182.296 117.739L182.852 117.739L183.408 117.739L183.964 117.738L184.52 117.738L185.076 117.738L185.632 117.738L186.188 117.738L186.744 117.738L187.3 117.738L187.856 117.738L188.411 117.738L188.967 117.737L189.523 117.737L190.079 117.737L190.635 117.737L191.191 117.737L191.747 117.737L192.303 117.737L192.859 117.737L193.415 117.737L193.971 117.737L194.527 117.737L195.083 117.737L195.639 117.737L196.195 117.737L196.751 117.737L197.307 117.737L197.863 117.736L198.419 117.736H198.975L199.531 117.736L200.087 117.736L200.643 117.736L201.199 117.736L201.755 117.736C201.931 117.736 202.074 117.593 202.074 117.416C202.074 117.239 201.931 117.096 201.755 117.096Z" fill="black"/>
<path id="Vector_80" d="M81.0175 113.152L81.0643 113.62L81.1129 114.085L81.1969 114.565C81.2307 114.748 81.4066 114.869 81.5897 114.835C81.7728 114.801 81.8938 114.625 81.8599 114.442L81.7742 114.001L81.7062 113.544L81.6522 113.082C81.6332 112.907 81.4757 112.78 81.3004 112.799C81.1251 112.818 80.9985 112.976 81.0175 113.152Z" fill="black"/>
<path id="Vector_81" d="M31.8436 99.0888L32.4263 99.0889L33.009 99.0889L33.5916 99.089L34.1743 99.089L34.757 99.0891L35.3397 99.0892L35.9223 99.0892L36.505 99.0893L37.0876 99.0894L37.6703 99.0896L38.253 99.0898L38.8357 99.0901L39.4183 99.0903L40.001 99.0905L40.5837 99.0907L41.1663 99.091L41.749 99.0912L42.3317 99.0914L42.9143 99.0917L43.497 99.0921L44.0797 99.0926L44.6623 99.0931L45.245 99.0936L45.8277 99.0941L46.4104 99.0946L46.993 99.0951L47.5757 99.0956L48.1584 99.0961L48.741 99.0966L49.3237 99.0971L49.9064 99.0976L50.489 99.0981L51.0717 99.0986L51.6544 99.0991L52.2371 99.0996L52.8197 99.1001L53.4024 99.1005L53.9851 99.1011L54.5677 99.1015L55.1504 99.102L55.7331 99.1023L56.3157 99.1027L56.8984 99.1031L57.4811 99.1034L58.0637 99.1038L58.6464 99.1042L59.2291 99.1045L59.8118 99.1048L60.3944 99.1051L60.9771 99.1052L61.5598 99.1053L62.1424 99.1054L62.7251 99.1055L63.3078 99.1056L63.8904 99.1058L64.4731 99.1059L65.0558 99.106L65.6385 99.1061L66.2211 99.1062L66.8038 99.1063L67.3864 99.1065L67.9691 99.1066L68.5518 99.1067L69.1344 99.1068C69.3207 99.1068 69.4716 98.9555 69.4716 98.7687C69.4716 98.582 69.3207 98.4307 69.1344 98.4307L68.5518 98.4308L67.9691 98.4309L67.3864 98.431L66.8038 98.4311L66.2211 98.4313L65.6385 98.4314L65.0558 98.4315L64.4731 98.4316L63.8904 98.4317L63.3078 98.4318L62.7251 98.432L62.1424 98.4321L61.5598 98.4322L60.9771 98.4323L60.3944 98.4324L59.8118 98.4327L59.2291 98.433L58.6464 98.4333L58.0637 98.4337L57.4811 98.4341L56.8984 98.4344L56.3157 98.4348L55.7331 98.4352L55.1504 98.4355L54.5677 98.436L53.9851 98.4365L53.4024 98.4369L52.8197 98.4374L52.2371 98.4379L51.6544 98.4384L51.0717 98.4389L50.489 98.4394L49.9064 98.4399L49.3237 98.4404L48.741 98.4409L48.1584 98.4414L47.5757 98.4419L46.993 98.4424L46.4104 98.4429L45.8277 98.4434L45.245 98.4439L44.6623 98.4444L44.0797 98.4449L43.497 98.4454L42.9143 98.4458L42.3317 98.4461L41.749 98.4463L41.1663 98.4465L40.5837 98.4467L40.001 98.447L39.4183 98.4472L38.8357 98.4474L38.253 98.4477L37.6703 98.4479L37.0876 98.4481L36.505 98.4482L35.9223 98.4483L35.3397 98.4483L34.757 98.4484L34.1743 98.4484L33.5916 98.4485L33.009 98.4485L32.4263 98.4486L31.8436 98.4487C31.6673 98.4487 31.5244 98.592 31.5244 98.7687C31.5244 98.9455 31.6673 99.0888 31.8436 99.0888Z" fill="black"/>
<path id="Vector_82" d="M7.84363 117.391L8.28987 117.391L8.7361 117.391L9.18233 117.391L9.62856 117.391L10.0748 117.391L10.521 117.391L10.9672 117.391L11.4135 117.391L11.8597 117.391L12.3059 117.391L12.7522 117.391H13.1984L13.6446 117.391L14.0909 117.391L14.5371 117.391L14.9833 117.391L15.4296 117.391L15.8758 117.391L16.322 117.391L16.7682 117.391L17.2145 117.391L17.6607 117.392L18.1069 117.392L18.5532 117.392L18.9994 117.392L19.4456 117.392L19.8919 117.392L20.3381 117.392L20.7843 117.392L21.2306 117.393L21.6768 117.393L22.123 117.393L22.5692 117.393L23.0155 117.393L23.4617 117.393L23.9079 117.393L24.3542 117.393L24.8004 117.393L25.2466 117.394L25.6929 117.394L26.1391 117.394L26.5853 117.394L27.0316 117.395L27.4778 117.395L27.924 117.395L28.3702 117.395L28.8165 117.396L29.2627 117.396L29.7089 117.396L30.1552 117.396L30.6014 117.397L31.0476 117.397L31.4939 117.397L31.9401 117.397L32.3863 117.398L32.8326 117.398L33.2788 117.398L33.725 117.398L34.1713 117.399L34.6175 117.399L35.0637 117.399L35.5099 117.399L35.9562 117.4L36.4024 117.4L36.8486 117.4L37.2948 117.4L37.7411 117.401L38.1873 117.401L38.6336 117.401L39.0798 117.401L39.526 117.402L39.9722 117.402L40.4185 117.402L40.8647 117.402L41.3109 117.403L41.7572 117.403L42.2034 117.403L42.6496 117.403L43.0959 117.404L43.5421 117.404L43.9883 117.404L44.4346 117.404L44.8808 117.404L45.327 117.404L45.7732 117.405L46.2195 117.405L46.6657 117.405L47.1119 117.405L47.5582 117.405L48.0044 117.406L48.4506 117.406L48.8969 117.406L49.3431 117.406L49.7893 117.406L50.2355 117.406L50.6818 117.407L51.128 117.407L51.5742 117.407L52.0205 117.407L52.4667 117.407L52.9129 117.407L53.3592 117.407L53.8054 117.407L54.2516 117.407L54.6978 117.407L55.1441 117.407L55.5903 117.407L56.0366 117.407L56.4828 117.407L56.929 117.407L57.3752 117.408L57.8215 117.408L58.2677 117.408L58.7139 117.408L59.1601 117.408L59.6064 117.408L60.0526 117.408L60.4989 117.408L60.9451 117.408L61.3913 117.408L61.8375 117.408L62.2838 117.408L62.73 117.408L63.1762 117.408L63.6225 117.408L64.0687 117.408L64.5149 117.409L64.9612 117.409C65.1474 117.409 65.2983 117.257 65.2983 117.07C65.2983 116.884 65.1474 116.732 64.9612 116.732L64.5149 116.732L64.0687 116.733L63.6225 116.733L63.1762 116.733L62.73 116.733L62.2838 116.733L61.8375 116.733L61.3913 116.733L60.9451 116.733L60.4989 116.733L60.0526 116.733L59.6064 116.733L59.1601 116.733L58.7139 116.733L58.2677 116.733L57.8215 116.733L57.3752 116.733L56.929 116.733L56.4828 116.734L56.0366 116.734L55.5903 116.734L55.1441 116.734L54.6978 116.734L54.2516 116.734L53.8054 116.734L53.3592 116.734L52.9129 116.734L52.4667 116.734L52.0205 116.734L51.5742 116.734L51.128 116.734L50.6818 116.734L50.2355 116.735L49.7893 116.735L49.3431 116.735L48.8969 116.735L48.4506 116.735L48.0044 116.735L47.5582 116.736L47.1119 116.736L46.6657 116.736L46.2195 116.736L45.7732 116.736L45.327 116.737L44.8808 116.737L44.4346 116.737L43.9883 116.737L43.5421 116.737L43.0959 116.737L42.6496 116.738L42.2034 116.738L41.7572 116.738L41.3109 116.738L40.8647 116.739L40.4185 116.739L39.9722 116.739L39.526 116.739L39.0798 116.74L38.6336 116.74L38.1873 116.74L37.7411 116.74L37.2948 116.741L36.8486 116.741L36.4024 116.741L35.9562 116.741L35.5099 116.742L35.0637 116.742L34.6175 116.742L34.1713 116.742L33.725 116.743L33.2788 116.743L32.8326 116.743L32.3863 116.743L31.9401 116.744L31.4939 116.744L31.0476 116.744L30.6014 116.744L30.1552 116.745L29.7089 116.745L29.2627 116.745L28.8165 116.745L28.3702 116.746L27.924 116.746L27.4778 116.746L27.0316 116.746L26.5853 116.747L26.1391 116.747L25.6929 116.747L25.2466 116.747L24.8004 116.748L24.3542 116.748L23.9079 116.748L23.4617 116.748L23.0155 116.748L22.5692 116.748L22.123 116.748L21.6768 116.748L21.2306 116.749L20.7843 116.749L20.3381 116.749L19.8919 116.749L19.4456 116.749L18.9994 116.749L18.5532 116.749L18.1069 116.749L17.6607 116.749L17.2145 116.75L16.7682 116.75L16.322 116.75L15.8758 116.75L15.4296 116.75L14.9833 116.75L14.5371 116.75L14.0909 116.75L13.6446 116.75H13.1984L12.7522 116.75L12.3059 116.75L11.8597 116.75L11.4135 116.75L10.9672 116.75L10.521 116.75L10.0748 116.75L9.62856 116.75L9.18233 116.75L8.7361 116.75L8.28987 116.75H7.84363C7.66733 116.75 7.52441 116.894 7.52441 117.07C7.52441 117.247 7.66733 117.391 7.84363 117.391Z" fill="black"/>
<path id="Vector_83" d="M172.76 90.362L172.764 90.3686L172.772 90.3808L172.782 90.3983L172.796 90.4216L172.811 90.4484L172.851 90.5239L172.896 90.6191L172.945 90.7353L172.995 90.8696L173.043 91.0215L173.088 91.1914L173.128 91.3754L173.164 91.5839L173.187 91.7968C173.208 91.9822 173.375 92.1152 173.56 92.0937C173.745 92.0722 173.878 91.9045 173.856 91.719L173.826 91.466L173.784 91.2402L173.73 91.0236L173.669 90.825L173.605 90.646L173.54 90.4885L173.478 90.3505L173.421 90.2345L173.373 90.1439L173.35 90.1036L173.332 90.0717L173.316 90.0463L173.304 90.0269L173.296 90.0142L173.293 90.0087C173.195 89.8613 172.997 89.8209 172.85 89.9184C172.703 90.016 172.663 90.2146 172.76 90.362Z" fill="black"/>
<path id="Vector_84" d="M126.899 90.5279L128.258 90.7816C128.258 90.7816 122.392 49.6285 118.588 43.6162C118.553 43.5609 117.152 43.0208 117.403 43.592C121.383 52.6434 126.899 90.5279 126.899 90.5279Z" fill="#545C63"/>
<path id="Vector_85" d="M127.884 90.778C127.842 90.436 123.575 56.5707 118.314 43.9204C118.172 43.9018 117.949 43.8851 117.766 43.8809C122.932 57.2825 127.26 90.3179 127.304 90.653L126.674 90.7351C126.63 90.398 122.236 56.856 117.039 43.7648C116.977 43.608 117.029 43.3922 117.25 43.3016C117.391 43.2436 118.682 43.157 118.836 43.5231C124.161 56.1342 128.471 90.3549 128.514 90.6991L127.884 90.778Z" fill="black"/>
<path id="Vector_86" d="M56.2617 67.8029L47.0273 70.4697C46.3018 70.6792 45.5372 70.2554 45.3282 69.5279L43.0486 61.5915C42.8396 60.864 43.2623 60.0973 43.9878 59.8878L46.0798 59.2837C46.3803 59.1969 46.8501 59.25 47.1239 59.4017L47.8277 59.7918C48.1014 59.9435 48.5712 59.9967 48.8718 59.9099L53.6021 58.5438C54.3277 58.3343 55.0923 58.7581 55.3012 59.4856L57.2009 66.0993C57.4099 66.8268 56.9872 67.5934 56.2617 67.8029Z" fill="#008FF3"/>
<path id="Vector_87" d="M57.5818 67.4254L49.6667 69.7112C48.9411 69.9207 48.1765 69.4969 47.9675 68.7694L46.8716 64.9541C46.7425 64.5045 46.9177 63.8773 47.261 63.5604L50.6487 60.4334C50.9264 60.1771 51.4574 60.0237 51.8286 60.0927L56.3561 60.9339C56.8149 61.0192 57.296 61.4568 57.4251 61.9064L58.5211 65.7217C58.73 66.4493 58.3074 67.2159 57.5818 67.4254Z" fill="#008FF3"/>
<path id="Vector_88" d="M47.9681 68.7695L47.1797 66.025L46.8722 64.9542C46.743 64.5046 46.9182 63.8775 47.2615 63.5605L44.3789 66.2213L45.3288 69.5282C45.5377 70.2557 46.3023 70.6794 47.0278 70.47L47.0602 70.4606C47.7684 70.237 48.1747 69.4889 47.9681 68.7695Z" fill="#0EE0BF"/>
<path id="Vector_89" d="M47.261 63.5602L50.6487 60.4332C50.9264 60.1769 51.4574 60.0235 51.8286 60.0925L55.6812 60.8083L55.3012 59.4856C55.0923 58.7581 54.3277 58.3343 53.6021 58.5438L48.8717 59.9099C48.5712 59.9967 48.1014 59.9435 47.8277 59.7918L47.1238 59.4017C46.8501 59.25 46.3803 59.1969 46.0798 59.2837L43.9878 59.8878C43.2623 60.0973 42.8396 60.864 43.0486 61.5915L44.3783 66.2211L47.261 63.5602Z" fill="#0EF3BF"/>
<path id="Vector_90" d="M55.1956 63.0976L55.9871 62.869C56.1328 62.8269 56.2169 62.6744 56.175 62.5283L55.681 60.8087L54.1719 60.5283L54.8558 62.9092C54.8977 63.0553 55.0499 63.1397 55.1956 63.0976Z" fill="#F32100"/>
<path id="Vector_91" d="M65.0966 68.6697C65.1209 69.4604 64.659 69.8704 63.7104 69.8997C62.7621 69.9291 62.2757 69.5484 62.2513 68.7577L62.1483 64.8873C62.1342 64.4279 62.1342 64.0803 62.1483 63.8445C62.1713 63.555 62.2105 63.2677 62.2657 62.9826C62.3209 62.6975 62.441 62.3515 62.6257 61.9447C62.8106 61.5379 63.0423 61.1832 63.321 60.8804C63.5996 60.5777 64.0021 60.3113 64.5284 60.0812C65.0546 59.851 65.6588 59.7252 66.3408 59.7041C67.5662 59.6662 68.5549 59.9913 69.3067 60.6794C70.0585 61.3672 70.451 62.2507 70.4842 63.3301C70.5201 64.4946 70.1859 65.4221 69.4818 66.1122C68.7778 66.8026 67.9035 67.1638 66.8593 67.1961C66.1346 67.2185 65.5388 67.0925 65.0717 66.8182L65.0557 66.8187C65.056 66.8294 65.0508 66.8349 65.0401 66.8352L65.0966 68.6697ZM67.426 64.5556C67.6778 64.243 67.7971 63.8783 67.7843 63.4617C67.7691 62.9701 67.6373 62.5865 67.389 62.3108C67.1405 62.035 66.7924 61.9042 66.3449 61.918C65.9293 61.9309 65.5981 62.0881 65.3515 62.3899C65.1047 62.6916 64.9885 63.0775 65.003 63.5477C65.0165 63.9857 65.145 64.3481 65.3885 64.6346C65.632 64.9212 65.9775 65.0577 66.425 65.0438C66.8407 65.031 67.1743 64.8681 67.426 64.5556Z" fill="#0E1845"/>
<path id="Vector_92" d="M72.4742 65.9959C71.7432 65.2911 71.361 64.3939 71.3275 63.3042C71.2946 62.2356 71.6131 61.3247 72.2833 60.5714C72.9535 59.8181 73.8587 59.4237 74.9989 59.3884C76.0645 59.3555 76.9501 59.6249 77.6557 60.1967C78.3613 60.7684 78.7286 61.5245 78.7575 62.4646C78.7782 63.1378 78.5008 63.4834 77.9254 63.5012L74.1051 63.6193C74.1629 64.4624 74.7195 64.8676 75.7744 64.8349C76.2326 64.8208 76.7624 64.7028 77.3635 64.4811C77.6798 64.3644 77.9511 64.4227 78.1769 64.6564C78.4027 64.8901 78.521 65.1832 78.5319 65.5359C78.5418 65.8563 78.3955 66.1282 78.093 66.3514C77.5397 66.7429 76.7304 66.9552 75.6646 66.9882C74.2687 67.0313 73.2051 66.7005 72.4742 65.9959ZM74.143 62.2544L76.1731 62.1916C76.0177 61.651 75.6737 61.389 75.1408 61.4055C74.6188 61.4216 74.2862 61.7046 74.143 62.2544Z" fill="#0E1845"/>
<path id="Vector_93" d="M87.4421 65.244C87.4543 65.6393 87.3466 65.9527 87.119 66.1843C86.8916 66.4161 86.5434 66.5392 86.0745 66.5537C85.5949 66.5685 85.2345 66.4647 84.993 66.2422C84.7514 66.0197 84.6247 65.7161 84.6129 65.3315L84.4946 61.4848L82.5444 61.5452L82.6628 65.3918C82.6749 65.7871 82.5672 66.1005 82.3397 66.3321C82.1123 66.5639 81.7641 66.687 81.2951 66.7015C80.8262 66.716 80.4712 66.612 80.2296 66.3895C79.9881 66.1671 79.8614 65.8634 79.8496 65.4788L79.6866 60.7032C79.6623 59.9124 80.0497 59.5047 80.849 59.48L86.0759 59.3183C86.4276 59.3074 86.7156 59.3949 86.9399 59.5803C87.1643 59.766 87.2827 60.0618 87.2952 60.4679L87.4421 65.244Z" fill="#0E1845"/>
<path id="Vector_94" d="M95.8892 65.0631C95.9132 65.8432 95.4562 66.2477 94.5186 66.2767C93.5914 66.3054 93.1159 65.9297 93.0919 65.1496L92.9701 61.191L92.3308 61.2108C92.0964 61.218 91.9515 61.3668 91.8964 61.6573L91.1071 65.6443C90.9955 66.1718 90.5985 66.4461 89.9165 66.4671C89.3944 66.4833 88.9966 66.3806 88.7231 66.1591C88.4495 65.9377 88.3693 65.5791 88.4819 65.0837L89.3673 61.0939C89.4419 60.7494 89.5139 60.4877 89.583 60.3091C89.6522 60.1305 89.769 59.9398 89.9335 59.7368C90.0979 59.5338 90.3254 59.3878 90.616 59.2985C90.9064 59.2094 91.2756 59.1578 91.7231 59.1439L94.5205 59.0574C94.8508 59.0472 95.1336 59.1402 95.369 59.336C95.6043 59.532 95.7279 59.8222 95.7398 60.207L95.8892 65.0631Z" fill="#0E1845"/>
<path id="Vector_95" d="M105.073 64.5384C105.103 65.5108 104.724 66.009 103.936 66.0334C103.456 66.0483 103.131 65.8711 102.959 65.5022L102.805 65.1701C102.794 65.1704 102.781 65.1681 102.765 65.1633C102.749 65.1584 102.735 65.1561 102.725 65.1564C102.169 65.8047 101.368 66.1448 100.324 66.1771C99.2372 66.2108 98.3532 65.9093 97.6723 65.2727C96.9913 64.6359 96.634 63.7674 96.6001 62.6668C96.5666 61.5769 96.8766 60.6475 97.5303 59.8786C98.1839 59.1099 99.0969 58.7072 100.269 58.671C101.271 58.64 102.032 58.948 102.554 59.595C102.564 59.5947 102.577 59.5916 102.593 59.5858C102.609 59.5799 102.622 59.5768 102.633 59.5765L102.798 59.2184C102.978 58.8386 103.303 58.6413 103.772 58.6268C104.518 58.6038 104.904 59.041 104.932 59.9385L105.073 64.5384ZM99.7353 61.3426C99.494 61.6441 99.3798 62.0086 99.393 62.4361C99.4081 62.9275 99.5399 63.3111 99.7883 63.5869C100.037 63.8626 100.379 63.9938 100.816 63.9803C101.232 63.9674 101.561 63.8128 101.802 63.5165C102.044 63.2203 102.157 62.8318 102.142 62.3511C102.129 61.9129 101.992 61.5535 101.733 61.2728C101.474 60.992 101.136 60.858 100.721 60.8709C100.305 60.8837 99.9767 61.041 99.7353 61.3426Z" fill="#0E1845"/>
<path id="Vector_96" d="M105.959 59.7943C105.948 59.4311 106.064 59.128 106.307 58.8852C106.55 58.6424 106.89 58.5142 107.327 58.5007C107.774 58.4868 108.124 58.5883 108.376 58.8051C108.628 59.0219 108.76 59.3227 108.772 59.7073L108.817 61.1659L110.831 61.1036L110.786 59.645C110.775 59.2818 110.891 58.9787 111.134 58.7359C111.377 58.493 111.723 58.3647 112.17 58.3509C112.618 58.337 112.965 58.4386 113.212 58.6555C113.458 58.8725 113.587 59.1733 113.599 59.558L113.749 64.4303C113.761 64.8257 113.651 65.1392 113.418 65.3709C113.185 65.6029 112.845 65.7257 112.397 65.7396C111.95 65.7534 111.597 65.644 111.339 65.4113C111.082 65.1786 110.947 64.8805 110.936 64.5174L110.888 62.9627L108.874 63.025L108.922 64.5797C108.934 64.975 108.824 65.2885 108.591 65.5203C108.358 65.7522 108.018 65.875 107.57 65.8889C107.123 65.9027 106.77 65.7933 106.512 65.5606C106.254 65.3279 106.12 65.0299 106.109 64.6667L105.959 59.7943Z" fill="#0E1845"/>
</g>
</g>
</svg>
