<svg width="196" height="22" viewBox="0 0 196 22" fill="none" xmlns="http://www.w3.org/2000/svg">
<path fill-rule="evenodd" clip-rule="evenodd" d="M0 21.1114H21.895V0H0V21.1114ZM2.73688 15.539C3.26553 14.9223 3.79693 14.3028 4.58991 13.7742C7.76733 11.478 11.0356 11.9213 10.9475 11.9213L20.5706 15.7179V18.3665L11.1237 14.6552C11.1237 14.6552 7.50301 13.3309 3.88504 16.0676C1.82 17.6176 1.34641 20.0046 1.24454 20.5332L1.23628 20.569V19.3329C1.23628 19.253 1.2528 19.209 1.27482 19.1622C1.2996 19.1043 1.32438 19.0383 1.32438 18.8923C1.5006 17.9205 1.85304 16.7751 2.73688 15.539ZM3.97315 10.3299C2.20822 12.1828 1.5006 14.5671 1.23628 16.4227V18.9832C1.41249 16.3346 2.38444 13.7742 4.4137 11.9213C7.50301 9.18462 10.9475 9.18462 10.9475 9.18462L20.5706 12.9813V10.2418L11.0356 6.6214C11.0356 6.6214 7.32954 6.88571 3.97315 10.3299ZM1.32438 12.6261C1.5006 11.6542 2.03201 9.09376 3.35639 7.15277C6.62192 2.38426 10.9475 1.23618 10.9475 1.23618L20.6615 4.94472V7.59328L10.9475 3.88474C10.9475 3.88474 7.32679 4.68041 4.23748 8.03379C1.76768 10.7705 1.32438 14.5671 1.23628 15.9795C1.23628 15.9795 1.14817 13.8595 1.32438 12.6261Z" fill="#3E41DE"/>
<path fill-rule="evenodd" clip-rule="evenodd" d="M195.816 0.313863V21.5794H190.576V10.0078L183.773 21.5822H179.238V0.313863H184.478V11.8855L191.281 0.313863H195.816ZM176.187 0.234021V4.92544H171.024V21.5024H165.785V4.92544H160.545V0.234021H176.187ZM151.398 16.8109C152.728 16.8109 153.51 15.9519 153.51 14.6992C153.51 13.4493 152.651 12.5105 151.398 12.5105H148.113V16.8109H151.398ZM151.632 7.89888C156.09 7.89888 158.75 10.7126 158.75 14.702C158.75 18.6914 156.09 21.5051 151.632 21.5051H142.874V0.234021H157.42V4.92544H148.113V7.89613H151.632V7.89888ZM132.317 9.22592C133.647 9.22592 134.586 8.36692 134.586 7.11422C134.586 5.86153 133.57 5.00253 132.317 5.00253H129.346V9.22592H132.317ZM132.474 0.313863C136.698 0.313863 139.746 3.12762 139.746 7.11698C139.746 11.1063 136.775 13.9201 132.474 13.9972H129.269V21.5822H124.029V0.313863H132.474ZM114.486 16.029C115.034 15.3242 115.268 14.1514 115.268 11.4147V9.92798C115.268 7.97322 115.034 6.40941 114.486 5.62751C114.018 5.00253 113.236 4.68867 112.374 4.68867C111.513 4.68867 110.733 5.00253 110.263 5.62751C109.715 6.33232 109.481 7.89613 109.481 9.92798V11.4147C109.481 14.1514 109.715 15.3242 110.263 16.029C110.731 16.5769 111.513 16.9679 112.374 16.9679C113.236 16.9679 114.018 16.6568 114.486 16.029ZM118.396 2.4228C119.883 3.98661 120.508 5.94137 120.508 8.9919V11.6515C120.508 14.4652 120.431 17.1248 118.396 19.2365C116.832 20.8774 114.877 21.6593 112.451 21.6593C110.028 21.6593 108.074 20.8774 106.507 19.2365C104.395 17.0477 104.395 14.2312 104.395 11.6515V10.0877C104.395 5.94412 104.863 4.14354 106.507 2.42555C108.071 0.784657 110.026 0.00275318 112.451 0.00275318C114.877 0 116.832 0.781904 118.396 2.4228ZM103.225 0V4.69142H94.6232V21.1114H89.1495V0H103.225ZM81.25 14.7791H86.5668C85.7848 19.4705 82.5 21.6593 78.4332 21.7391C75.9304 21.7391 74.0553 20.8801 72.4886 19.3163C70.3713 17.1248 70.374 14.2753 70.3768 11.1917C70.3768 11.0843 70.3768 10.9769 70.3768 10.8723C70.3768 10.7677 70.3768 10.6658 70.3768 10.5612C70.374 7.47489 70.3713 4.62535 72.5657 2.58249C74.1297 1.01868 76.0075 0.159685 78.5103 0.159685C82.4972 0.159685 85.7821 2.42831 86.564 7.11973H81.2472C80.9333 5.94688 80.2312 4.85111 78.5103 4.85111C77.5714 4.85111 76.8693 5.24206 76.4783 5.7101C76.0102 6.33507 75.6964 7.03989 75.6964 10.9494C75.6964 14.7818 76.0102 15.5637 76.4783 16.1887C76.8693 16.6568 77.5742 17.0477 78.5103 17.0477C80.234 17.0477 80.9388 15.9519 81.25 14.7791ZM47.7026 0V21.1114H43.0108V10.9467L39.4919 16.42H36.13L32.8452 10.9467V21.1114H28.1534V0H32.8452L37.928 9.85364L43.0108 0H47.7026Z" fill="#3E41DE"/>
<path fill-rule="evenodd" clip-rule="evenodd" d="M67.4114 8.99197C67.4114 5.94144 66.8634 3.98668 65.3794 2.42288C63.8154 0.859069 61.7834 0.0771644 59.3577 0.0771644C56.9347 0.0771644 54.9798 0.859068 53.4131 2.49997C51.7721 4.22071 51.3012 6.01853 51.3012 10.1621V11.7259C51.3012 14.3056 51.3012 17.1221 53.4131 19.3109C54.977 20.9518 56.9319 21.7337 59.3577 21.7337C61.7807 21.7337 63.7356 20.9518 65.3023 19.3109C67.3343 17.1992 67.4141 14.5396 67.4141 11.7259V8.99197H67.4114ZM62.3286 11.3983C62.3286 14.1349 62.0147 15.327 61.4695 16.0291C61.0015 16.6541 60.2195 17.045 59.4375 17.045C58.5785 17.045 57.7965 16.6541 57.3257 16.1062C56.7777 15.4014 56.5437 14.2285 56.5437 11.4919V10.0051C56.5437 7.97329 56.7777 6.40948 57.3257 5.70467C57.7937 5.0797 58.4986 4.76583 59.4375 4.76583C60.2966 4.76583 61.0785 5.0797 61.5494 5.70467C62.0973 6.48657 62.3313 8.05038 62.3313 10.0051V11.3983H62.3286Z" fill="#3E41DE"/>
</svg>
