<?xml version="1.0" encoding="utf-8"?>
<!-- Generator: Adobe Illustrator 25.2.3, SVG Export Plug-In . SVG Version: 6.00 Build 0)  -->
<svg version="1.1" id="Слой_1" xmlns="http://www.w3.org/2000/svg" xmlns:xlink="http://www.w3.org/1999/xlink" x="0px" y="0px"
	 viewBox="0 0 568 307" style="enable-background:new 0 0 568 307;" xml:space="preserve">
<style type="text/css">
	.st0{opacity:0.1;}
	.st1{fill:#FFFFFF;}
	.st2{fill:#008FF3;}
	.st3{fill:#F32100;}
	.st4{fill:url(#SVGID_1_);}
	.st5{fill:#91432A;}
	.st6{fill:#0EF3BF;}
	.st7{fill:#F4A589;}
	.st8{fill:#777777;}
	.st9{opacity:0.24;}
	.st10{fill:#0E1845;}
	.st11{fill:#9B9B9B;}
	.st12{fill:#7F7F7F;}
	.st13{fill:#F28279;}
</style>
<g>
	<g class="st0">
		<path class="st1" d="M407.8,7C341.9,19.5,323,72.3,265.3,75.6c-78.3,4.5-124.3-47.7-196.7-36C0.3,50.8-4.6,134.8,30,188.5
			s154.6,123.1,288.9,105.8C453.2,277,534,218,543.5,119.4S465.4-3.8,407.8,7z"/>
	</g>
	<g>
		<g>
			<g>
				<g>
					<g>
						<path class="st2" d="M507.7,33.3c0.4-3.7,0.4-5.9-3.9-5.9c-4.3,0-71.2,2.6-75.9,2.5s-6,3.6-6.6,8.8s-3.4,28.8-3.7,31.8
							c-0.3,3.1,2.6,3.6,5.5,0.7c2.9-2.9,12-11.8,12-11.8s59.2-2.4,62-2.5c2.8-0.1,7.4-0.1,8.3-5.3C506,46.6,507.7,33.3,507.7,33.3z
							"/>
					</g>
				</g>
			</g>
		</g>
		<g>
			<g>
				<g>
					<g>
						
							<rect x="432" y="36.7" transform="matrix(0.9994 -3.323637e-02 3.323637e-02 0.9994 -0.9755 15.4819)" class="st1" width="66.5" height="0.7"/>
					</g>
				</g>
			</g>
		</g>
		<g>
			<g>
				<g>
					<g>
						
							<rect x="430.8" y="49.1" transform="matrix(0.9994 -3.323637e-02 3.323637e-02 0.9994 -1.3907 15.1244)" class="st1" width="47" height="0.7"/>
					</g>
				</g>
			</g>
		</g>
	</g>
	<g>
		<path class="st3" d="M190.6,250.3c0,0,4.6,9.5,11.3,8.8c0,0-6.1,6.6-3.9,13.2c0,0-3.9-7.3-10.7-8.4
			C187.4,264,192.8,260,190.6,250.3z"/>
	</g>
	<g>
		<path class="st3" d="M446.8,78.1c0,0-2,10.5,3.9,14c0,0-9,1.7-11.1,8.4c0,0,1.2-8.4-3.7-13.3C435.9,87.3,442.7,87.4,446.8,78.1z"
			/>
	</g>
	<g>
		<g>
			<g>
				<g>
					<polygon class="st2" points="267.5,256.3 277,290.3 235.6,301.7 221,268.4 					"/>
				</g>
			</g>
		</g>
		<g>
			<g>
				<g>
					<polygon class="st1" points="253.6,290.9 259.4,263.4 258.6,263.2 253.1,289.2 225.7,262.2 225.1,262.7 					"/>
				</g>
			</g>
		</g>
	</g>
	<g>
		<g>
			<g>
				<polygon class="st1" points="11.5,242.7 266.6,234.2 258.7,211.9 10.7,220.2 				"/>
			</g>
		</g>
	</g>
	<g>
		<g>
			<g>
				
					<linearGradient id="SVGID_1_" gradientUnits="userSpaceOnUse" x1="307.8541" y1="216.5763" x2="744.3543" y2="-60.9622" gradientTransform="matrix(-0.9994 3.328335e-02 3.328335e-02 0.9994 555.1796 -10.6894)">
					<stop  offset="0" style="stop-color:#0EF3BF"/>
					<stop  offset="1" style="stop-color:#008FF3"/>
				</linearGradient>
				<path class="st4" d="M209.2,71.2c0,0-183.9,1.6-191.3,1.8c-7.5,0.2-4.5,6.6-3.1,10.5c1.5,3.9,44.2,135.1,44.2,135.1l199.7-6.6
					L209.2,71.2z"/>
			</g>
		</g>
	</g>
	<g>
		<g>
			<g>
				<path class="st2" d="M89.8,176.3c0.2-17.2-4-38.8-19.8-37.6c-8.1,0.9-6.3,11.8-3,28.9c2.5,12.7,4.1,32.3,3.3,40.4
					c-2.2-21-6.5-42.7-15.2-60c-9.5-18.9-21.5-22.3-29.5-18.8c-8,3.4-4.1,15.5,2.9,28.1c4.9,8.8,18.3,35.6,20.9,48.6
					c-7.4-13-10.3-21-19.9-31.6c-6.8-7.6-18.3-18.5-26.8-12.9c-8.8,5.9,6,19.9,14.1,28.7c8.1,8.7,20.5,23.8,23.8,29.3l45.1-1.5
					C85.7,217.7,89.6,196.3,89.8,176.3z"/>
			</g>
		</g>
	</g>
	<g>
		<g>
			<g>
				<path class="st5" d="M167.8,42.2c-5.5-7.6-19.5-4.3-25.7,0.9s-16.1,19-19.1,31.6c-3,12.6-0.8,20,6.3,23.2
					c7.2,3.2,29.3,6.8,35,6.5c5.7-0.2,10.4-2.6,10.4-7.7s0-11.9,3.2-21.4c3.2-9.6,6.1-16.4,1.9-25.3C175.6,41,167.8,42.2,167.8,42.2
					z"/>
			</g>
		</g>
	</g>
	<g>
		<g>
			<g>
				<path class="st6" d="M64.6,85c0.5,2.5,2.9,4.5,5.4,4.5c2.6-0.1,4.4-2.3,3.9-5c-0.5-2.7-3.1-4.7-5.7-4.5
					C65.6,80.2,64.1,82.4,64.6,85z"/>
			</g>
		</g>
	</g>
	<g>
		<g>
			<g>
				<path class="st2" d="M48.4,85.5c0.5,2.5,2.9,4.5,5.4,4.5c2.6-0.1,4.4-2.3,3.9-5c-0.5-2.7-3.1-4.7-5.7-4.5
					C49.5,80.7,47.9,83,48.4,85.5z"/>
			</g>
		</g>
	</g>
	<g>
		<g>
			<g>
				<path class="st3" d="M32.1,86.1c0.5,2.5,2.9,4.5,5.4,4.5c2.6-0.1,4.4-2.3,3.9-5c-0.5-2.7-3.1-4.7-5.7-4.5
					C33.2,81.3,31.6,83.5,32.1,86.1z"/>
			</g>
		</g>
	</g>
	<g>
		<g>
			<g>
				<g>
					<path class="st7" d="M188.6,137c-2.3-7.7-10.5-12-18.2-9.7c-7.7,2.3-12,10.5-9.7,18.1l25.6,60.2c2.8,6.7,10.5,9.9,17.2,7.1
						c6.7-2.8,9.9-10.4,7.2-17.2L188.6,137z"/>
				</g>
			</g>
		</g>
	</g>
	<g>
		<g>
			<g>
				<path class="st1" d="M172,113.4c-6.9-2.9-16.5-6.4-29.1-7.1c-12.7-0.8-26.6,1.1-37.6,5.3c-14.6,5.6-22.6,16.7-12.3,25.9
					c11.6,10.5,16.2,9.5,22.6,7.1c6.4-2.5,20.9-7.1,32.7-7.1c8.6,0,10.5,1.1,16.5,4.8c5.5,3.4,12.4,1.3,18.8-2.2c4.1-2.3,7-4.2,3-12
					C184,122.9,179.8,116.7,172,113.4z"/>
			</g>
		</g>
	</g>
	<g>
		<g>
			<g>
				<path class="st1" d="M173.4,136.5c-2.1-5.5-7.6-15.1-18.4-15.9c-10.9-0.8-25.6-0.8-37.7,1.3c-12.1,2.1-18.8,9.2-15.7,31.2
					c3.1,24.8,4,30.8-2.4,41.4c-6.4,10.6-13.5,23.3-13.5,23.3l77.7-2.6c0,0-0.9-9-2.5-16.3c-1.6-7.3-0.9-8.4,3.9-17.1
					C173,166.1,181.3,157,173.4,136.5z"/>
			</g>
		</g>
	</g>
	<g>
		<g>
			<g>
				<path class="st1" d="M187.1,107c0.8,6,6.3,9.9,12.6,9c6.3-0.9,11.3-6.5,11.1-12.6c-0.2-6.5-6-11.1-12.9-10
					C191.1,94.5,186.3,100.7,187.1,107z"/>
			</g>
		</g>
	</g>
	<g>
		<g>
			<g>
				<g>
					<path class="st7" d="M125,215.7c4.1,0.3,7.7-3.1,8-7.2c0.3-4.1-2.7-7.7-6.8-8.1l-47.5-5.3c-6.4-0.5-12.1,4.2-12.6,10.7
						c-0.5,6.4,6.1,12.1,12.5,12.6L125,215.7z"/>
				</g>
			</g>
		</g>
	</g>
	<g>
		<g>
			<g>
				<polygon class="st8" points="198.8,107.7 202,97.7 201.4,97.5 198.5,106.5 193.3,100.7 192.8,101.2 				"/>
			</g>
		</g>
	</g>
	<g>
		<g>
			<g>
				<path class="st8" d="M226.3,45.4c-4.2-0.8-8.5-4.4-10.5-7.4c-1.2-1.8-5.1-8.2-6.8-15.2c-0.2-0.7-0.3-1.4-0.4-2.1
					c-3.8-0.2-7.5,0.7-10.9,3.5c-8.7,7,1.7,24.6,1.8,24.8l-0.5,0.3c0,0-2.7-4.6-4.3-9.9c-2.1-7.2-1.2-12.6,2.6-15.7
					c3.5-2.8,7.3-3.8,11.2-3.6c-1-7.2,1-12.5,6.2-16c6.1-4.1,14-5.1,22.3-2.7c7.1,2.1,13.9,6.6,17.5,11.7l-0.5,0.4
					c-7-9.7-25.6-18-38.9-8.9c-4.9,3.4-6.9,8.6-5.9,15.6c5.9,0.5,11.7,3.8,16.3,7.7c5.1,4.5,8.1,9.3,7.9,13
					c-0.1,1.5-0.7,2.8-1.8,3.6c-0.7,0.5-1.5,0.9-2.4,1.1C228.3,45.6,227.3,45.6,226.3,45.4z M209.7,22.6c1.7,6.9,5.5,13.3,6.7,15
					c1.9,3,6.2,6.5,10.1,7.2c1.8,0.3,3.4,0,4.7-0.9c1-0.7,1.5-1.8,1.6-3.1c0.1-3.4-2.8-8.2-7.7-12.4c-4.4-3.9-10.1-7-15.7-7.6
					C209.4,21.3,209.5,22,209.7,22.6z"/>
			</g>
		</g>
	</g>
	<g>
		<g>
			<g>
				<path class="st7" d="M133.1,215.1c-4.1,1.8-8.9-0.1-10.7-4.3c-1.8-4.1-0.1-9.6,4.3-10.7c3-0.8,6.9-4.1,10.9-6
					c4-1.9,11.3-4.3,18.6,2.4s9,8.6,7.8,10.8c1.8,1.4,2,3.9,0.5,4.2c0.5,1.4-0.3,2.8-2.3,2.8c-2.1,0.1-10.7-1.3-14.5-2.5
					C143.8,210.7,140.3,212,133.1,215.1z"/>
			</g>
		</g>
	</g>
	<g>
		<g>
			<g>
				<path d="M163.7,207.6l0.5-0.4c-0.9-1-5.6-4.2-9.1-6.6c-1-0.7-1.9-1.3-2.5-1.7l-0.4,0.5c0.6,0.4,1.5,1,2.5,1.7
					C157.9,203.3,162.8,206.6,163.7,207.6z"/>
			</g>
		</g>
	</g>
	<g>
		<g>
			<g>
				<path class="st7" d="M160.5,89.4c1.8-5.3-1.1-11-6.4-12.8s-11,1.1-12.8,6.4l-6.8,20.3c-1.8,5.3,1.1,11,6.4,12.8
					c5.3,1.8,11-1.1,12.8-6.4L160.5,89.4z"/>
			</g>
		</g>
	</g>
	<g>
		<g>
			<g>
				<path class="st7" d="M142.9,106.3c4.4,0.3,8.4,0.9,12,1.6c0.4,2,0.7,4,0.9,5.7c0.5,7.2,0.6,13.4-1.5,18.6
					c-2.1,5.2-6,8.2-9.7,0.3c-3.5-7.4-7.1-17.1-9.6-21.7c-0.8-1.5-1.5-3.1-2.1-4.6C136.3,106,139.6,106.1,142.9,106.3z"/>
			</g>
		</g>
	</g>
	<g>
		<g>
			<g>
				<path class="st7" d="M175.3,72.4c4.1-0.1,6,2.2,6.1,5c0.1,2.8-2.7,5.8-6.5,4.5L175.3,72.4z"/>
			</g>
		</g>
	</g>
	<g>
		<g>
			<g>
				<path d="M178.4,78.1l0.5-0.4c0,0-0.9-1.1-2-1.2c-0.7,0-1.3,0.3-2,0.9l0.5,0.4c0.5-0.5,1-0.7,1.4-0.7
					C177.7,77.2,178.4,78.1,178.4,78.1z"/>
			</g>
		</g>
	</g>
	<g>
		<g>
			<g>
				<path d="M155.8,103.7c-3.2-5-8.9-14.1-8.9-14.1l12.9,2.1L155.8,103.7z"/>
			</g>
		</g>
	</g>
	<g>
		<g>
			<g>
				<path class="st7" d="M163.9,48c4.9,1,8.9,3.5,11.5,6.8c2.5,3.3,4,6.8,2.9,10.6s-2.2,7.6-2.2,11.1c0,3.5-0.9,7-4,11
					c-3.1,4-7.3,8.7-13.1,9c-5.8,0.3-11.8-6.6-13.9-9.1c-2.2-2.5-3.7-6.2-1-13.3S155.2,54.3,163.9,48z"/>
			</g>
		</g>
	</g>
	<g>
		<g>
			<g>
				<path class="st7" d="M149.5,67.1c-2.4-4.6-7.6-6.1-10.7-2.4c-3.4,4.1,0.6,10.3,5.7,10.1L149.5,67.1z"/>
			</g>
		</g>
	</g>
	<g>
		<g>
			<g>
				<path d="M145.3,69.3l0.6-0.1c-0.1-0.9-0.8-1.6-1.7-1.8c-0.9-0.2-2.1,0-2.9,1.3l0.5,0.3c0.5-0.8,1.3-1.2,2.2-1
					C144.8,68.2,145.3,68.7,145.3,69.3z"/>
			</g>
		</g>
	</g>
	<g>
		<g>
			<g>
				<path class="st5" d="M177.2,66c-0.4-0.5-1.3-1.9-3.1-1.9c-1.1,0-1.6,0.4-1.6,1.3c0,1,0.4,1.5,1,1.5c0.9,0,1.5,0.2,2.2,1.1
					c0.5,0.6,1.1,0.5,1.5,0.1C177.6,67.9,177.9,66.9,177.2,66z"/>
			</g>
		</g>
	</g>
	<g>
		<g>
			<g>
				<path class="st5" d="M164.6,62.6c0.5-1.3-0.6-2.2-1.9-2.3c-1.3-0.1-3.2,0.1-4.4,0.9c-1.2,0.8-1.1,1.6-0.9,2.1
					c0.2,0.4,0.6,0.8,1.5,0.4c0.9-0.5,2.3-0.7,3.4-0.5C163.3,63.5,164.2,63.8,164.6,62.6z"/>
			</g>
		</g>
	</g>
	<g>
		<g>
			<g>
				<path d="M174,73.4c0.5-1,0.8-2.4,0.2-2.8c-0.6-0.4-1.3,0.5-1.7,1.7c-0.4,1.2-0.6,2.1-0.1,2.4C172.9,74.9,173.4,74.6,174,73.4z"
					/>
			</g>
		</g>
	</g>
	<g>
		<g>
			<g>
				<path d="M162.6,67.6c-1-0.5-1.5,0.9-1.7,2c-0.2,1.1-0.3,2.3,0.2,2.5c0.5,0.2,1.2-0.7,1.6-1.9C163.1,69,163.4,67.9,162.6,67.6z"
					/>
			</g>
		</g>
	</g>
	<g>
		<g>
			<g>
				<path d="M168.7,82.6c0.4,0,0.8-0.1,1-0.3c0.7-0.4,1.1-1.2,1.2-1.8c0.1-1-0.6-2.9-1.3-4.3l-0.6,0.3c0.9,1.9,1.3,3.3,1.2,4
					c-0.1,0.4-0.3,1-0.8,1.3c-0.4,0.3-1,0.3-1.6,0l-0.2,0.6C168,82.5,168.4,82.6,168.7,82.6z"/>
			</g>
		</g>
	</g>
	<g>
		<g>
			<g>
				<path class="st1" d="M159.8,82.7c-1.1-0.3-3.3-2-4.1-3.3c-0.8-1.3-1.5-1.3-1.8,0.4c-0.2,1.7-0.4,4,1,5c1.1,0.8,3.2,0.4,4.5,0
					C160.9,84.4,161,83,159.8,82.7z"/>
			</g>
		</g>
	</g>
	<g>
		<g>
			<g>
				<path class="st5" d="M143.5,96.9c0.9-3.8-2-9.4-1-16c0.4-2.5,1.2-5.8,1.2-5.8s-5.4,0.8-9,8.6c-3.6,7.8-5.7,14.5-0.9,15.8
					C138.5,100.6,142.4,101.7,143.5,96.9z"/>
			</g>
		</g>
	</g>
	<g>
		<g>
			<g>
				<g>
					<g>
						<polygon class="st1" points="466.9,267 302.6,289.6 225.8,54.3 393.8,50.7 						"/>
						<path class="st8" d="M302.4,290l-0.1-0.3l-77-235.8L394,50.3l0.1,0.3l73.3,216.7l-0.5,0.1L302.4,290z M226.3,54.6l76.5,234.5
							l163.5-22.5L393.5,51.1L226.3,54.6z"/>
					</g>
				</g>
			</g>
		</g>
		<g class="st9">
			<g>
				<g>
					<polygon class="st8" points="388.8,74.6 386.1,65.8 353.1,66.2 355.4,75.3 					"/>
				</g>
			</g>
		</g>
		<g>
			<g>
				<g>
					
						<rect x="259.3" y="85.4" transform="matrix(0.9994 -3.323637e-02 3.323637e-02 0.9994 -2.6677 10.8491)" class="st8" width="131.3" height="0.6"/>
				</g>
			</g>
		</g>
		<g>
			<g>
				<g>
					
						<rect x="354.5" y="93.1" transform="matrix(0.9994 -3.323637e-02 3.323637e-02 0.9994 -2.8982 12.4693)" class="st8" width="38.3" height="0.6"/>
				</g>
			</g>
		</g>
		<g>
			<g>
				<g>
					<path class="st8" d="M268.3,70.6L268.3,70.6c-0.2-0.6-0.1-1.3,0.3-1.8c0.4-0.5,1.1-0.8,1.9-0.8c1.4,0,2.7,1.2,2.7,2.5
						c0,1.1-0.9,2-2.1,2.1C269.9,72.6,268.7,71.7,268.3,70.6z M269.1,69.1c-0.3,0.4-0.4,0.8-0.2,1.3c0.3,0.9,1.2,1.6,2.2,1.5
						c0.9,0,1.6-0.7,1.5-1.5c0-1-1-1.9-2.2-1.9c0,0-0.1,0-0.1,0C269.8,68.6,269.4,68.8,269.1,69.1z"/>
				</g>
			</g>
		</g>
		<g>
			<g>
				<g>
					<path class="st8" d="M251.5,65.5C251.5,65.5,251.5,65.5,251.5,65.5L251.5,65.5c-0.2-0.6-0.1-1.3,0.3-1.8
						c0.4-0.5,1.1-0.8,1.9-0.8c1.4,0,2.7,1.2,2.7,2.5c0,1.1-0.9,2-2.1,2.1C253,67.5,251.8,66.7,251.5,65.5z M252.3,64.1
						c-0.3,0.4-0.4,0.8-0.2,1.3l0,0c0.3,0.9,1.2,1.6,2.2,1.5c0.9,0,1.6-0.7,1.5-1.5c0-1-1-1.9-2.2-1.9c0,0-0.1,0-0.1,0
						C253,63.5,252.5,63.7,252.3,64.1z"/>
				</g>
			</g>
		</g>
		<g>
			<g>
				<g>
					<path class="st8" d="M255.8,79.4L255.8,79.4c-0.2-0.6-0.1-1.3,0.3-1.8c0.4-0.5,1.1-0.8,1.9-0.8c1.4,0,2.7,1.2,2.7,2.5
						c0,1.1-0.9,2-2.1,2.1C257.4,81.4,256.2,80.5,255.8,79.4z M256.6,77.9c-0.3,0.4-0.4,0.8-0.2,1.3l0,0c0.3,0.9,1.2,1.6,2.2,1.5
						c0.9,0,1.6-0.7,1.5-1.5c0-1-1-1.9-2.2-1.9c0,0-0.1,0-0.1,0C257.3,77.4,256.9,77.6,256.6,77.9z"/>
				</g>
			</g>
		</g>
		<g>
			<g>
				<g>
					<path class="st1" d="M402.9,162.6c0.3,1,1.4,1.8,2.5,1.7c1.1,0,1.9-0.8,1.8-1.8c0-1.1-1.1-2.2-2.4-2.2
						C403.4,160.3,402.6,161.4,402.9,162.6z"/>
				</g>
			</g>
		</g>
		<g>
			<g>
				<g>
					<path class="st1" d="M406.6,175c0.3,1,1.4,1.8,2.5,1.7c1.1,0,1.9-0.8,1.8-1.8c0-1.1-1.1-2.2-2.4-2.2
						C407.1,172.8,406.3,173.8,406.6,175z"/>
				</g>
			</g>
		</g>
		<g>
			<g>
				<g>
					<path class="st1" d="M409.9,186.9c0.3,1,1.4,1.8,2.5,1.7c1.1,0,1.9-0.8,1.8-1.8c0-1.1-1.1-2.2-2.4-2.2
						C410.4,184.6,409.6,185.7,409.9,186.9z"/>
				</g>
			</g>
		</g>
		<g>
			<g>
				<g>
					
						<rect x="262.1" y="61" transform="matrix(0.2614 -0.9652 0.9652 0.2614 128.6045 303.1883)" class="st8" width="0.6" height="13"/>
				</g>
			</g>
		</g>
		<g>
			<g>
				<g>
					<path class="st8" d="M260,78.1c1.5-1,9.3-6.2,9.4-6.4l-0.4-0.4c-0.2,0.2-6.9,4.6-9.4,6.3L260,78.1z"/>
				</g>
			</g>
		</g>
		<g>
			<g>
				<g>
					<polygon class="st2" points="345.6,94 343.8,98.9 339.2,94.6 					"/>
				</g>
			</g>
		</g>
		<g class="st9">
			<g>
				<g>
					<polygon class="st8" points="396,104.7 411.1,148.9 280,159.7 264.6,111 					"/>
				</g>
			</g>
		</g>
		<g>
			<g>
				<g>
					
						<rect x="358.5" y="106.1" transform="matrix(0.9556 -0.2946 0.2946 0.9556 -22.1991 111.447)" class="st1" width="0.6" height="46.5"/>
				</g>
			</g>
		</g>
		<g>
			<g>
				<g>
					
						<rect x="313.2" y="108.6" transform="matrix(0.954 -0.2997 0.2997 0.954 -25.1395 100.0313)" class="st1" width="0.6" height="46.8"/>
				</g>
			</g>
		</g>
		<g>
			<g>
				<g>
					
						<rect x="269.4" y="121.6" transform="matrix(0.9977 -6.734741e-02 6.734741e-02 0.9977 -7.4491 22.8338)" class="st1" width="131.2" height="0.6"/>
				</g>
			</g>
		</g>
		<g>
			<g>
				<g>
					
						<rect x="374.7" y="125.2" transform="matrix(0.9975 -7.017355e-02 7.017355e-02 0.9975 -7.8589 27.2748)" class="st1" width="19.2" height="0.6"/>
				</g>
			</g>
		</g>
		<g>
			<g>
				<g>
					
						<rect x="377.5" y="135.8" transform="matrix(0.9975 -7.016405e-02 7.016405e-02 0.9975 -8.5972 27.4913)" class="st1" width="19.2" height="0.6"/>
				</g>
			</g>
		</g>
		<g>
			<g>
				<g>
					
						<rect x="329.6" y="129" transform="matrix(0.9975 -7.017415e-02 7.017415e-02 0.9975 -8.2355 24.1197)" class="st1" width="19.2" height="0.6"/>
				</g>
			</g>
		</g>
		<g>
			<g>
				<g>
					
						<rect x="332.4" y="139.6" transform="matrix(0.9975 -7.016405e-02 7.016405e-02 0.9975 -8.9737 24.3364)" class="st1" width="19.2" height="0.6"/>
				</g>
			</g>
		</g>
		<g>
			<g>
				<g>
					
						<rect x="283.1" y="166.7" transform="matrix(0.9969 -7.805725e-02 7.805725e-02 0.9969 -12.0013 27.0102)" class="st8" width="112.7" height="0.6"/>
				</g>
			</g>
		</g>
		<g>
			<g>
				<g>
					
						<rect x="289.9" y="182.1" transform="matrix(0.9952 -9.788611e-02 9.788611e-02 0.9952 -16.1997 34.6345)" class="st8" width="109.9" height="0.6"/>
				</g>
			</g>
		</g>
		<g>
			<g>
				<g>
					
						<rect x="294.3" y="195.8" transform="matrix(0.9935 -0.1141 0.1141 0.9935 -20.0896 41.0569)" class="st8" width="108.9" height="0.6"/>
				</g>
			</g>
		</g>
		<g>
			<g>
				<g>
					
						<rect x="299" y="214.3" transform="matrix(0.9906 -0.1365 0.1365 0.9906 -26.3448 45.1278)" class="st8" width="33.5" height="0.6"/>
				</g>
			</g>
		</g>
		<g>
			<g>
				<g>
					<path class="st8" d="M322.2,253.5c-7.2-0.7-13-6.4-13.2-13.2l0,0c-0.1-3.4,1.2-6.7,3.7-9.2c2.7-2.7,6.4-4.2,10.4-4.1
						c4.3,0.1,8.2,1.9,11,4.9c2.5,2.8,3.7,6.3,3.3,10c-0.7,6.5-6.4,11.4-13.3,11.6C323.5,253.5,322.8,253.5,322.2,253.5z
						 M313.2,231.7c-2.3,2.3-3.5,5.4-3.4,8.6c0.2,6.3,5.7,11.8,12.5,12.4c7.2,0.7,13.6-4.2,14.3-10.9c0.3-3.4-0.7-6.7-3.1-9.3
						c-2.6-2.9-6.3-4.6-10.4-4.7c-0.3,0-0.5,0-0.8,0C318.8,227.9,315.6,229.3,313.2,231.7z"/>
				</g>
			</g>
		</g>
		<g>
			<g>
				<g>
					
						<rect x="323.4" y="231.9" transform="matrix(0.9789 -0.2043 0.2043 0.9789 -42.1858 71.194)" class="st8" width="0.6" height="16"/>
				</g>
			</g>
		</g>
		<g>
			<g>
				<g>
					
						<rect x="315.2" y="239.2" transform="matrix(0.9901 -0.1402 0.1402 0.9901 -30.3744 47.6665)" class="st8" width="16.1" height="0.6"/>
				</g>
			</g>
		</g>
	</g>
	<g>
		<g>
			<g>
				<path class="st8" d="M541.1,83.3c-3.5,2.7-8.5,2.4-11.4,1.9c-0.4,2.3-1.3,4.4-2.9,6c-3.7,4-9.3,2.9-9.6,2.8l0.1-0.6
					c0.1,0,5.5,1.1,9-2.6c1.5-1.6,2.4-3.6,2.7-5.7c-4.3-0.9-8.2-2.8-10.5-5.2c-1.3-1.4-2-3-1.9-4.6c0.1-1.4,0.7-2.7,1.8-3.6
					c0.7-0.6,1.8-0.8,3.1-0.6c1.7,0.2,4,1.3,5.6,3.7c1.9,2.8,2.8,5.9,2.7,8.9c0,0.3,0,0.6-0.1,0.9c4,0.7,8.2,0.4,11-1.7
					c5.7-4.4,5.8-9.8,5.8-9.9l0.6,0c0,0.2-0.1,4.3-3.8,8.4C542.7,81.9,542,82.6,541.1,83.3z M517.4,75.3c-0.1,1.4,0.5,2.8,1.7,4.1
					c2.1,2.2,6,4.1,10.1,5c0.3-3-0.6-6.3-2.6-9.3c-1.4-2.2-3.6-3.2-5.1-3.4c-1.1-0.2-2,0-2.6,0.5c-0.1,0.1-0.2,0.2-0.4,0.3
					C517.9,73.3,517.4,74.3,517.4,75.3z"/>
			</g>
		</g>
	</g>
	<g>
		<g>
			<g>
				<polygon class="st1" points="568,147.5 531.1,124.5 515.6,158.3 545.4,179.2 				"/>
			</g>
		</g>
	</g>
	<g>
		<g>
			<g>
				<polygon class="st8" points="536.4,157.4 555.1,149.5 554.8,148.9 537.1,156.5 537.8,119.7 537.2,119.7 				"/>
			</g>
		</g>
	</g>
	<g>
		<g>
			<g>
				<g>
					<path class="st7" d="M382.2,263.8c-7.4,4.6-17.2,2.3-21.8-5.1c-4.6-7.4-2.3-17.1,5.1-21.7l60.1-51.3c8-6.5,19.8-5.3,26.4,2.7
						s5.3,19.8-2.7,26.3L382.2,263.8z"/>
				</g>
			</g>
		</g>
	</g>
	<g>
		<g>
			<g>
				<g>
					<path class="st7" d="M338.2,189.6c-2.6-4.1-7.9-5.3-12-2.8c-4.1,2.5-5.2,9.7-2.6,13.8l37.4,59c5.1,7.1,15,8.6,22.1,3.5
						c7.1-5.1,8.6-15,3.5-22.1L338.2,189.6z"/>
				</g>
			</g>
		</g>
	</g>
	<g>
		<g>
			<g>
				<path class="st10" d="M526.9,194.9c-7.5-7.8-24.2-20.5-49.9-22.4c-26.7-2-32.7,0.5-40.2,5c-8.5,5.1-19.8,12.1-19.4,25.1
					c0.3,11,9.8,19.2,19.9,17.9c15.4-2.1,21.9-1.8,33.6,6.7c11.7,8.5,34.5,32,51.7,20.7C539.8,236.5,542.1,210.8,526.9,194.9z"/>
			</g>
		</g>
	</g>
	<g>
		<g>
			<g>
				<path class="st10" d="M418.3,245.5l-26.7-33.9c0,0,29.1-23.5,36.7-28.5c7.6-5.1,18.6-6.4,27.4,3.7c7.9,9.1,7.6,23.9-9,36.7
					C431.3,235.3,418.3,245.5,418.3,245.5z"/>
			</g>
		</g>
	</g>
	<g>
		<g>
			<g>
				<path class="st10" d="M433.5,197.4c-4.5,11.6-5.1,25.8-5.8,40.5c-0.7,14.7-0.4,35.9-0.4,35.9l57.2,21.5c0,0,21.1-37.9,29.3-54.8
					c8.2-16.9,2.8-43.3-25.4-51.4C460.1,180.9,439.1,182.8,433.5,197.4z"/>
			</g>
		</g>
	</g>
	<g>
		<g>
			<g>
				<path d="M175.8,82.1c0.5-2,0.5-4.8,0.7-6.9c0.1-0.8,0.6-2.3,0.6-2.8l-0.7-0.1c-0.1,0.5-0.4,1.4-0.6,2.9c-0.2,2-0.2,4.7-0.7,6.7
					L175.8,82.1z"/>
			</g>
		</g>
	</g>
	<g>
		<g>
			<g>
				<path class="st1" d="M167.1,148.3l26-12.1c0,0-5-11.2-15.1-19.2L167.1,148.3z"/>
			</g>
		</g>
	</g>
	<g>
		<g>
			<g>
				<g>
					<path class="st7" d="M188.9,191.6c-4.8,5.4-4.4,13.7,1,18.6c5.4,4.8,13.7,4.4,18.6-1l40.6-74.1c2.8-3.7,2-9-1.8-11.8
						c-3.7-2.8-9-2-11.8,1.8L188.9,191.6z"/>
				</g>
			</g>
		</g>
	</g>
	<g>
		<g>
			<g>
				<g>
					<path class="st7" d="M262.1,106.8c1.5-2.7,1.7-4.8,0.9-5.5c-0.8-0.7-2.3,1.3-4.1,3.3c-2.2,2.5-5.7,6.1-7.8,7.9
						c-2.1,1.8-4.7,3.4-3.4,5.3c1.3,1.9,3.7,1,5.8-0.9C255.7,114.9,259.9,110.9,262.1,106.8z"/>
				</g>
			</g>
		</g>
		<g>
			<g>
				<g>
					<path class="st7" d="M266.5,111.8c1.3-1.6,3.3-4,2.4-5.1c-0.8-1.1-3,0.7-5.2,2.7c-2.3,2-8.3,6.4-10.2,8
						c-1.9,1.6-2.9,2.4-2.1,3.9c0.8,1.5,2.7,1.4,5.6-0.7C260,118.4,264.5,114.3,266.5,111.8z"/>
				</g>
			</g>
		</g>
		<g>
			<g>
				<g>
					<path class="st7" d="M270.6,112.7c-0.9-1.3-4.1,1.8-7.1,3.8c-3,2.1-5.8,3.4-7.5,4.8c-1.8,1.4-2.8,2-1.9,3.6
						c0.9,1.5,2.6,1.4,4.8,0.1c2.2-1.3,4.9-3.4,7.9-6.2C269,116.6,271.7,114.3,270.6,112.7z"/>
				</g>
			</g>
		</g>
		<g>
			<g>
				<g>
					<path class="st7" d="M269.6,120.1c-0.7-0.9-3.9,1.6-6.7,3.2c-2.8,1.6-5.2,2.6-6.1,3.1c-1.3,0.7-1.6,1.7-1,3s2.3,1.4,4.9,0
						c2.4-1.3,5-3.2,7-5.2C269.7,122.2,270.3,121.1,269.6,120.1z"/>
				</g>
			</g>
		</g>
		<g>
			<g>
				<g>
					<path class="st7" d="M259.5,125.3c-1.5-2.5-4.2-6.6-5.8-8.1s-2.8-4.3-4.8-2.9c-2,1.4-12.3,6.5-14.5,12.8
						c-2.2,6.3,2.5,11.4,8.2,11.3c5.6-0.1,11.9-5,14.5-6.6C259.8,130.2,261.9,129.2,259.5,125.3z"/>
				</g>
			</g>
		</g>
		<g>
			<g>
				<g>
					<path class="st7" d="M237.9,111.2c-2-2.5-3.4-4.3-4.8-5.3c-1.4-1-2.8-0.8-2,1.8c0.8,2.6,2.3,6.2,2.9,9.8c0.8,5,0.5,8.4,0.1,11
						s5.8,5.9,10.1,2.9c4.8-3.4,4.5-6.9,4.4-9.1s-1.9-5.2-3.8-5.2C241.2,116.9,239.7,113.6,237.9,111.2z"/>
				</g>
			</g>
		</g>
		<g>
			<g>
				<g>
					<path d="M241.9,129.7c0.1-0.2,3-5,0.5-10l-0.6,0.3c2.4,4.7-0.4,9.3-0.4,9.4L241.9,129.7z"/>
				</g>
			</g>
		</g>
	</g>
	<g>
		<g>
			<g>
				<g>
					<path class="st7" d="M529.9,232.3c5.1-8.4,2.4-19.3-6-24.4c-8.4-5.1-19.4-2.4-24.5,6L462,282.8c-4.9,6.9-3.3,16.4,3.5,21.4
						c6.9,4.9,16.5,3.3,21.4-3.5L529.9,232.3z"/>
				</g>
			</g>
		</g>
	</g>
	<g>
		<g>
			<g>
				<g>
					<path class="st7" d="M420.2,254.5c-3.8-2.7-9-1.8-11.7,1.9c-2.7,3.8-1.8,9,1.9,11.7l57.2,37.2c7.6,3.8,16.8,0.8,20.6-6.8
						s0.8-16.8-6.8-20.6L420.2,254.5z"/>
				</g>
			</g>
		</g>
	</g>
	<g>
		<g>
			<g>
				<path class="st10" d="M518.3,269.3l-43.1-22.7c0,0,15.1-26.4,20.5-34.3c5.4-7.8,17.3-16,29.7-9.7c12.4,6.3,12.9,21.9,8.2,32.6
					C528.9,246,518.3,269.3,518.3,269.3z"/>
			</g>
		</g>
	</g>
	<g>
		<g>
			<g>
				<g>
					<path class="st2" d="M414.8,218.6c-0.6-3.9-1.2-5.4-4.6-5.9c-3.5-0.6-10-1.4-12.8-1.8c-2.8-0.4-4.4-0.1-3.7,5.5
						c0.7,5.5,4.6,32.7,4.7,35.3c0.2,2.5,0.5,4.5,3.8,5.8c3.6,1.4,11.3,3.9,12.9,4.2c2.5,0.3,3.5,0,3.1-5.1
						C417.7,251.2,415.1,220.6,414.8,218.6z"/>
				</g>
			</g>
		</g>
		<g>
			<g>
				<g>
					<path class="st1" d="M410,226c-0.6-0.1-1-0.1-1.5-0.2c-0.6-0.1-1.2-0.2-2.3-0.3c-2.2-0.3-2.3-1.4-2.3-2.1l0-0.1
						c0-0.4-0.1-0.9-0.2-1.8c-0.1-0.7-0.2-1.6-0.3-2.8c-0.1-1.5,0-2.5,0.6-3c0.4-0.4,0.9-0.5,1.5-0.5c1.2,0.1,3.7,0.4,4.4,0.5
						c1.8,0.3,2.2,1.6,2.4,2.8l0,0c0.1,0.7,0.1,3.4,0.2,5.3l0,0.5c0,0.7-0.1,1.2-0.5,1.5c-0.3,0.3-0.6,0.3-1,0.4
						C410.6,226,410.2,226,410,226z M404.4,216c-0.4,0.4-0.5,1.3-0.4,2.5c0.1,1.3,0.2,2.2,0.3,2.8c0.1,0.9,0.1,1.4,0.2,1.8l0,0.1
						c0.1,0.6,0.1,1.3,1.8,1.5c1.1,0.1,1.7,0.3,2.3,0.3c0.5,0.1,1,0.2,1.5,0.2c0.6,0.1,1.2,0.1,1.4-0.1c0.2-0.2,0.3-0.5,0.3-1l0-0.5
						c0-1.7-0.1-4.6-0.2-5.2l0,0c-0.2-1.5-0.7-2.1-1.8-2.3c-0.7-0.1-3.2-0.5-4.4-0.5c-0.1,0-0.2,0-0.2,0
						C404.8,215.7,404.5,215.8,404.4,216z"/>
				</g>
			</g>
		</g>
		<g>
			<g>
				<g>
					<path class="st1" d="M407.6,222.3c0-1.1,0.8-1.9,1.9-2c1.1,0,1.9,0.8,2,1.8s-0.8,1.9-1.9,2
						C408.5,224.1,407.6,223.3,407.6,222.3z M408.2,222.2c0,0.7,0.6,1.3,1.3,1.2c0.7,0,1.3-0.6,1.2-1.3c0-0.7-0.6-1.3-1.3-1.2
						C408.8,220.9,408.2,221.5,408.2,222.2z"/>
				</g>
			</g>
		</g>
		<g>
			<g>
				<g>
					<path class="st1" d="M405,218.2c0-0.7,0.6-1.4,1.3-1.4c0.7,0,1.4,0.6,1.4,1.3c0,0.7-0.6,1.4-1.3,1.4
						C405.6,219.5,405,218.9,405,218.2z M405.6,218.1c0,0.4,0.3,0.7,0.7,0.7c0.4,0,0.7-0.3,0.7-0.7c0-0.4-0.3-0.7-0.7-0.7
						C405.9,217.4,405.6,217.7,405.6,218.1z"/>
				</g>
			</g>
		</g>
	</g>
	<g>
		<g>
			<g>
				<g>
					<path class="st7" d="M423.2,257.4c0.8,3.7,0.9,6.2-1.1,8.8c-2.8,3.7-7.7,4.3-11.7,1.9c-3-1.8-10-6.7-12.1-8.8
						c-2.9-3.1-4.2-4.6-3.9-8.2c-1.8-3.8-0.9-5.2-0.3-5.6c-1.1-1.5-2-4.5-1.6-6.4c-1.2-2-2-4.3-1.3-4.9c0.7-0.6,2.1,0.4,3.7,1.9
						c2,2,5,5.4,8.8,7.2c4.6,2.2,7.9,3,10,2.7c2.1-0.3,3.7-1.7,3.8-4.7c0.2-3,0.6-5.1,1.2-6.4c0.7-1.2,2.5-2.2,2.6,1
						c0.1,3.2,0.4,6.7,0.7,8.6C423.5,252,422.1,252.3,423.2,257.4z"/>
				</g>
			</g>
		</g>
		<g>
			<g>
				<g>
					<path d="M404.3,249.6l0.3-0.6c0,0-3.3-1.7-4.8-2.6c-1.4-0.8-2.3-1.7-4-4c-1.7-2.2-3.1-3.7-3.1-3.7l-0.5,0.4
						c0,0,1.4,1.5,3.1,3.6c1.8,2.3,2.8,3.2,4.2,4.1C401,247.9,404.2,249.6,404.3,249.6z"/>
				</g>
			</g>
		</g>
		<g>
			<g>
				<g>
					<path d="M402.3,253.7l0.4-0.5c0,0-2.3-1.6-3.6-2.5c-1.2-0.9-1.9-1.4-2.8-2.8c-1-1.4-2-2.5-2-2.5l-0.5,0.4c0,0,1,1.1,1.9,2.5
						c1,1.5,1.7,1.9,3,2.9C400,252.1,402.3,253.7,402.3,253.7z"/>
				</g>
			</g>
		</g>
		<g>
			<g>
				<g>
					<path d="M400.7,257.7l0.4-0.5c0,0-1.5-1.1-2.6-2.2c-0.3-0.2-0.5-0.5-0.8-0.7c-1-0.8-2-1.7-3-3.3l-0.5,0.4
						c1.1,1.7,2.2,2.6,3.2,3.5c0.3,0.2,0.5,0.5,0.8,0.7C399.2,256.6,400.7,257.7,400.7,257.7z"/>
				</g>
			</g>
		</g>
		<g>
			<g>
				<g>
					<path d="M394.1,255l0.6-0.5c-0.3-0.9-0.2-2.1-0.1-3.4l0-0.1l0-0.1c-1.5-3.3-1-4.8-0.4-5.2l0.3-0.2l-0.2-0.3
						c-1-1.5-1.9-4.3-1.5-6.2l0-0.1l-0.1-0.1c-1.4-2.2-1.8-4.2-1.4-4.5c0.2-0.2,1-0.7,3.4,1.6c0.3,0.3,0.7,0.7,1.1,1.1
						c0.2,0.2,0.6,0.6,0.8,0.8l-0.1-0.8c-0.2-0.2-0.9-1-1.2-1.4c-2.1-2-3.6-2.4-4.3-1.7c-1,0.9,0.3,3.7,1.2,5.2
						c-0.4,2,0.5,4.7,1.5,6.3c-0.5,0.5-1.3,2,0.4,5.7C393.9,252.5,393.8,254,394.1,255z"/>
				</g>
			</g>
		</g>
	</g>
	<g>
		<g>
			<g>
				<g>
					<path class="st7" d="M323.8,172.6c-2.2-1.8-9.9-7.3-11.6-8.4s-4.6-2.6-5.4-1.7s0.9,2.4,2.5,3.8c1.6,1.4,8.6,8,10.2,9.4
						c1.5,1.4,3.7,2.7,5.2,1.4C326.2,175.7,325.4,173.9,323.8,172.6z"/>
				</g>
			</g>
		</g>
		<g>
			<g>
				<g>
					<path class="st7" d="M319.1,176.5c-1.7-1.3-9.5-6.6-11.3-7.9c-2.6-1.8-5.6-2.6-6.7-1.7c-1.1,0.8,2.1,3.3,4.1,4.7
						c1.9,1.5,7.8,6.5,9.1,7.6c2.4,2,4.5,3.1,6,1.7C321.9,179.6,320.8,177.8,319.1,176.5z"/>
				</g>
			</g>
		</g>
		<g>
			<g>
				<g>
					<path class="st7" d="M315.3,180.7c-2-1.7-6.6-5.1-9.3-6.8c-2.7-1.7-5.4-2.7-6.2-2c-0.8,0.7,1.2,2.6,2.9,3.9
						c1.7,1.4,8,6.6,9.3,8c1.3,1.3,3.4,1.7,4.3,0.7C317.4,183.4,317,182.1,315.3,180.7z"/>
				</g>
			</g>
		</g>
		<g>
			<g>
				<g>
					<path class="st7" d="M311.8,184.5c-2.4-1.6-5.6-3.3-7.6-4c-2-0.8-4.3-1.4-5.1-0.5c-0.7,0.9,1.5,2.3,3.9,3.7s6.8,4.7,8,5.5
						c1.3,0.8,1.8-0.1,2.7-1.2C314.6,186.8,313.3,185.6,311.8,184.5z"/>
				</g>
			</g>
		</g>
		<g>
			<g>
				<g>
					<path class="st7" d="M333.8,175.7c1-1.5,1.9-3.7,2.5-6.8c0.5-3.1,1.6-4.6,3.1-4.4c1.5,0.2,0.8,2.6,0.8,5.4
						c-0.1,2.8,0.4,8,0.7,10.8c0.3,2.8,0.5,10.4-3.3,12c-3.8,1.6-8.8-1.3-9.4-6.4C327.5,181.4,330.6,180.2,333.8,175.7z"/>
				</g>
			</g>
		</g>
		<g>
			<g>
				<g>
					<path class="st7" d="M311.3,189.5c-2.1-2.3-0.5-4.6,1-7c1.5-2.4,5.4-7,7.6-9.3s3.8-0.8,5.8,0.7c1.3,0.9,5,4.1,7.7,2.4
						c4.6-2.9,7,9.5,7.1,12.2c0.2,5-1.2,10.4-5.6,13.2c-4.4,2.8-9.5,1.4-14.1-3.3C317,194.4,313.4,191.7,311.3,189.5z"/>
				</g>
			</g>
		</g>
		<g>
			<g>
				<g>
					<path d="M330.3,191.8l0.6-0.2c-2.4-7,0.3-10.2,0.3-10.2l-0.5-0.4C330.6,181.1,327.8,184.4,330.3,191.8z"/>
				</g>
			</g>
		</g>
	</g>
	<g>
		<g>
			<g>
				<polygon class="st11" points="479.7,250.1 480.2,249.3 475.6,246.5 494.1,215.4 493.6,215 474.5,246.9 				"/>
			</g>
		</g>
	</g>
	<g>
		<g>
			<g>
				<path class="st11" d="M427,238.7l0.8-0.6c-0.8-19.5,6.3-34.7,6.4-34.9l-0.6-0.3C433.4,203.2,426.2,219.1,427,238.7z"/>
			</g>
		</g>
	</g>
	<g>
		<g>
			<g>
				<path class="st11" d="M468.6,188.3c5.6-0.2,12.6-2.2,17.4-4.7l-0.3-0.6c-6.3,3.3-16.6,5.8-22.2,4.1l-0.2,0.6
					C464.8,188.2,466.6,188.4,468.6,188.3z"/>
			</g>
		</g>
	</g>
	<g>
		<g>
			<g>
				<g>
					<path class="st7" d="M90.1,208.5c-1.9,6.8-8.9,10.8-15.6,8.9c-6.8-1.9-10.8-8.8-8.9-15.6l18.9-64c2-7.3,9.6-11.6,16.9-9.6
						c7.3,2,11.6,9.6,9.6,16.9L90.1,208.5z"/>
				</g>
			</g>
		</g>
	</g>
	<g>
		<g>
			<g>
				<path class="st1" d="M117.2,155.1L81,135c0,0,6.4-14.4,19.8-21.4C127.4,116.7,117.2,155.1,117.2,155.1z"/>
			</g>
		</g>
	</g>
	<g>
		<g>
			<g>
				<path class="st12" d="M175.7,144.3l0.5-0.2c0-0.1-2.4-8.8-4-12.9l-0.6,0.2C173.2,135.4,175.7,144.2,175.7,144.3z"/>
			</g>
		</g>
	</g>
	<g>
		<g>
			<g>
				<path class="st12" d="M113.7,153.3l0.2-0.2c5.1-6.4,5-18.8,5-19.3l-0.6,0c0,0.1,0.1,12.4-4.7,18.7l-4.4-1.8l-0.3,0.8
					L113.7,153.3z"/>
			</g>
		</g>
	</g>
	<g>
		<g>
			<g>
				<path class="st7" d="M460.1,179.1c-0.7-2.4,0.6-5,3.2-7.3c3.9,0.1,8.4,0.3,13.7,0.7c4.3,0.3,8.4,1,12.2,1.8
					c-1.3,3.6-6,7.2-12.2,8.9C468.9,185.4,461.4,183.6,460.1,179.1z"/>
			</g>
		</g>
	</g>
	<g>
		<g>
			<g>
				<g>
					<path class="st7" d="M483.9,149c-1.2-6.4-7.3-10.6-13.6-9.4c-6.4,1.2-10.6,7.2-9.4,13.6l3.7,21.8c1,6.4,6.7,7.8,13.1,6.9
						c6.4-1,11-4,10.1-10.4L483.9,149z"/>
				</g>
			</g>
		</g>
		<g>
			<g>
				<g>
					<path class="st5" d="M480.1,155.9c0,0,4.8-0.9,11.1-6.9c6.4-6.1,11.2-11.7,13.4-17.3c2-5,2.2-9.5-2-12.8
						c1.1-6.9-2.9-13.7-9.3-17.6s-10.5-3.4-12.6-3.1c-2-3.8-7.6-6.1-11.1-5.2s-5.4,5.5-2.8,9c-4.2-3.2-10.3-0.9-10.6,2.7
						c-0.3,3.6,2,5.9,2.6,6.4c-1.4,2.4-2.7,6.2-1.5,9C458.6,122.7,480.1,155.9,480.1,155.9z"/>
				</g>
			</g>
		</g>
		<g>
			<g>
				<g>
					<path class="st7" d="M458.2,123.4c-2.8-3.6-6.8-4.3-8.7-0.6c-2,3.7,0.2,8.3,2.9,9.2C452.3,132.1,455.8,129.9,458.2,123.4z"/>
				</g>
			</g>
		</g>
		<g>
			<g>
				<g>
					<path d="M455.6,128.2l0.6-0.2c-0.2-0.9-0.7-1.4-1.3-1.7c-1.3-0.6-2.9,0.2-3,0.2l0.3,0.6l-0.1-0.3l0.1,0.3c0,0,1.4-0.7,2.4-0.2
						C455.1,127.1,455.4,127.5,455.6,128.2z"/>
				</g>
			</g>
		</g>
		<g>
			<g>
				<g>
					<path d="M477.6,104.2c-1.2-0.4-1.8-1.4-1.8-2.6c0.2-3.4,4.8-3.7,4.8-3.7l0.2,0L481,98c0,0,2,2.8,0,5.3c-0.6,0.7-1.4,1-2.1,1.1
						C478.4,104.4,478,104.4,477.6,104.2z M476.5,101.6c-0.1,1.1,0.7,1.7,1.4,2c0.8,0.3,1.9,0.2,2.6-0.7c1.4-1.8,0.4-3.8,0.1-4.4
						C479.8,98.7,476.7,99.2,476.5,101.6z M480.4,98.4L480.4,98.4L480.4,98.4z"/>
				</g>
			</g>
		</g>
		<g>
			<g>
				<g>
					<polygon points="463.5,168.8 460.9,153.4 475.7,158.2 					"/>
				</g>
			</g>
		</g>
		<g>
			<g>
				<g>
					<path class="st7" d="M450,147.7c-0.4-5.6-0.2-8.7,0.5-12c0.7-3.2,1.4-5.6,2.9-6.6c1.5-1,2.7-1.4,3.1-4.2c0.4-3-0.5-4.1,1.6-7.1
						c1.8-2.6,3.4-4.8,5-6.8c1.6-1.9,6.1-3.4,10.3-1.2c4.1,2.2,10.5,7,12.8,8.2c2.3,1.2,2.7,5.4,1,10.5c-1.8,5.1-3.8,9.3-4,13.4
						s1.7,12,1.7,12s-6.5,5.3-14.4,5.9c-5.1,0.4-8.8,0.3-12.9-1C454.1,157.5,450.6,155.7,450,147.7z"/>
				</g>
			</g>
		</g>
		<g>
			<g>
				<g>
					<path class="st7" d="M482.9,142.7c1.4-1.6,4.7-3.3,7.8-2.2c2.4,0.9,3.9,5.3,2.7,9.1c-1.2,3.8-3.7,5.4-6.4,5.1
						c-2.7-0.3-4.6-3.5-4.7-5.1L482.9,142.7z"/>
				</g>
			</g>
		</g>
		<g>
			<g>
				<g>
					<path d="M486.9,148.4l0.6,0c0-0.1-0.1-2.3-1.4-3.1c-0.7-0.4-1.5-0.4-2.4,0.1l0.3,0.6c0.7-0.4,1.4-0.4,1.8-0.1
						C486.6,146.3,486.8,147.9,486.9,148.4z"/>
				</g>
			</g>
		</g>
		<g>
			<g>
				<g>
					<path class="st5" d="M491.4,137.4c0,0-3.1,3.8-4.8,5.2c-1.7,1.4-2.6,2.2-3.7,1.5c-1.5-0.9-0.6-2.8,1.4-8.3
						c2-5.5,3.5-10.1,3.5-10.1l8.7,4.8C496.5,130.6,493.9,134.5,491.4,137.4z"/>
				</g>
			</g>
		</g>
		<g>
			<g>
				<g>
					<path class="st5" d="M494.8,125.9c0,0-8.9-1.6-13.3-3.1c-4.4-1.6-7.7-3.6-7.5-4.7c0.2-1.1,2.5-1.3,2.5-1.3s-6.1-0.8-9.5-2
						c-3.4-1.2-7-2.6-8.1-3.8c-1.1-1.2-3.1-6.3,4.5-6.3c7.6,0,20.2,8.9,20.2,8.9S489.6,110.1,494.8,125.9z"/>
				</g>
			</g>
		</g>
		<g>
			<g>
				<g>
					<path class="st5" d="M482.7,131c-0.5-2-3.2-4.4-4.9-4.6c-1.7-0.2-2,0.6-2,1.6c0,1,0.3,1.4,1,1.4c0.7,0.1,1.9,0.8,2.3,2.6
						c0.3,1,0.9,1.7,2.4,1C483,132.4,482.9,131.8,482.7,131z"/>
				</g>
			</g>
		</g>
		<g>
			<g>
				<g>
					<path class="st5" d="M462.8,121.3c0.4-1.2-0.2-1.9-1.4-2.1c-1-0.2-1.8-0.2-2.7,0.1c-1.1,0.3-1.2,0.7-0.9,1.8
						c0.2,1,0.6,1.4,1.1,1.1c0.7-0.4,1.7-0.3,2.2,0.1C461.7,122.6,462.4,122.6,462.8,121.3z"/>
				</g>
			</g>
		</g>
		<g>
			<g>
				<g>
					<path d="M473.7,134.7c0.5-1,0.4-2.1,0-2.4c-0.5-0.3-1.1,0-1.8,1.4c-0.7,1.4-0.6,2.3-0.2,2.6C472.1,136.6,473,136.2,473.7,134.7
						z"/>
				</g>
			</g>
		</g>
		<g>
			<g>
				<g>
					<path d="M459.5,128.6c0.4-1.1,0.2-2.1-0.2-2.4s-1.1,0.1-1.7,1.5c-0.6,1.5-0.4,2.4,0.1,2.6C458.1,130.6,459,130.1,459.5,128.6z"
						/>
				</g>
			</g>
		</g>
		<g>
			<g>
				<g>
					<path d="M459.3,139.7l0.3-0.6c0,0-0.9-0.4-1.7-1.2c-0.8-0.7-0.8-1.4-0.1-2.2c0.2-0.2,0.3-0.4,0.5-0.6c0.7-0.9,1.5-1.8,3.1-2.9
						l-0.4-0.5c-1.7,1.1-2.5,2.1-3.2,3c-0.2,0.2-0.3,0.4-0.5,0.6c-1,1.1-0.9,2.2,0.1,3.1C458.3,139.2,459.2,139.7,459.3,139.7z"/>
				</g>
			</g>
		</g>
		<g>
			<g>
				<g>
					<path class="st13" d="M476.8,141.1c-1.7-0.4-2.8-0.6-3.2,0.1c-0.5,0.7,1.1,1.8,2.5,2.1c1.3,0.3,2.9,0.6,3.2-0.1
						C479.4,142.5,478.2,141.4,476.8,141.1z"/>
				</g>
			</g>
		</g>
		<g>
			<g>
				<g>
					<path class="st13" d="M455.6,130.6c-1.3-0.7-2-1.1-2.6-0.5c-0.5,0.6,0.5,1.9,1.5,2.5c1,0.6,2.2,1.1,2.5,0.5
						C457.4,132.5,456.7,131.2,455.6,130.6z"/>
				</g>
			</g>
		</g>
		<g>
			<g>
				<g>
					<path class="st1" d="M467.2,144c-0.4,1.9-1.2,3.3-2.1,3.8c-1.2,0.7-2.4,0.1-3.7-1.7c-1-1.4-1.7-2.6-0.2-2.8s3.1-0.2,4.2-0.6
						C466.4,142.2,467.5,142.8,467.2,144z"/>
				</g>
			</g>
		</g>
		<g>
			<g>
				<g>
					<path d="M452,131.5c0.5-1.5,1.7-2.4,2.8-3.1c0.4-0.3,0.8-0.6,1.1-0.8c0.9-0.9,1-3.2,1-5.6l0-0.2l-0.6,0l0,0.2
						c0,1.3-0.1,4.4-0.9,5.2c-0.2,0.2-0.6,0.5-1,0.8c-1.1,0.8-2.4,1.7-3,3.4L452,131.5z"/>
				</g>
			</g>
		</g>
		<g>
			<g>
				<g>
					<path d="M479.8,155.4c1.3-1.2,2.4-2.3,2.9-2.8c0.2,0.4,0.8,1,1.8,1.6l0.3-0.6c-1.5-0.8-1.7-1.7-1.7-1.7l-0.1-0.6l-0.4,0.4
						c0,0-1.4,1.4-3.2,3.1L479.8,155.4z"/>
				</g>
			</g>
		</g>
	</g>
	<g>
		<g>
			<g>
				<path class="st10" d="M276.6,138.7l-31.8,73.7l-146.4,4.9c0,0-3.1-9,11.8-9.5s58.9-1.6,58.9-1.6l28.2-67.2L276.6,138.7z"/>
			</g>
		</g>
	</g>
	<g>
		<path class="st8" d="M145.5,273.1c-0.2-5,3.8-9.3,8.8-9.4c5-0.2,9.3,3.8,9.5,8.8c0.2,5-3.8,9.3-8.8,9.4
			C149.9,282.1,145.7,278.2,145.5,273.1z M146.7,273.1c0.1,4.4,3.8,7.8,8.2,7.7c4.4-0.1,7.8-3.8,7.7-8.2c-0.1-4.4-3.8-7.8-8.2-7.7
			C150,265,146.5,268.7,146.7,273.1z"/>
	</g>
</g>
</svg>
