<svg width="20" height="20" viewBox="0 0 20 20" xmlns="http://www.w3.org/2000/svg">
<path fill-rule="evenodd" clip-rule="evenodd" d="M6 2.00012C5.44772 2.00012 5 2.44784 5 3.00012V4.00012H4C2.89543 4.00012 2 4.89555 2 6.00012V16.0001C2 17.1047 2.89543 18.0001 4 18.0001H16C17.1046 18.0001 18 17.1047 18 16.0001V6.00012C18 4.89555 17.1046 4.00012 16 4.00012H15V3.00012C15 2.44784 14.5523 2.00012 14 2.00012C13.4477 2.00012 13 2.44784 13 3.00012V4.00012H7V3.00012C7 2.44784 6.55228 2.00012 6 2.00012ZM6 7.00012C5.44772 7.00012 5 7.44784 5 8.00012C5 8.55241 5.44772 9.00012 6 9.00012H14C14.5523 9.00012 15 8.55241 15 8.00012C15 7.44784 14.5523 7.00012 14 7.00012H6Z" fill="currentColor"/>
</svg>
