<svg width="56" height="56" viewBox="0 0 56 56" xmlns="http://www.w3.org/2000/svg">
<path d="M18.6667 16.3333V35C18.6667 37.5773 20.756 39.6667 23.3334 39.6667H37.3334M18.6667 16.3333V11.6667C18.6667 9.08934 20.756 7 23.3334 7H34.0335C34.6524 7 35.2459 7.24583 35.6835 7.68342L45.9833 17.9832C46.4209 18.4208 46.6667 19.0143 46.6667 19.6332V35C46.6667 37.5773 44.5774 39.6667 42 39.6667H37.3334M18.6667 16.3333H11.3334C10.2288 16.3333 9.33337 17.2288 9.33337 18.3333V44.3333C9.33337 46.9107 11.4227 49 14 49H35.3334C36.4379 49 37.3334 48.1046 37.3334 47V39.6667" stroke="currentColor" stroke-width="3" stroke-linecap="round" stroke-linejoin="round" fill="none"/>
</svg>
