<svg width="22" height="22" viewBox="0 0 22 22" fill="none" xmlns="http://www.w3.org/2000/svg">
<path d="M11 3.5V1M11 3.5C9.61929 3.5 8.5 4.61929 8.5 6C8.5 7.38071 9.61929 8.5 11 8.5M11 3.5C12.3807 3.5 13.5 4.61929 13.5 6C13.5 7.38071 12.3807 8.5 11 8.5M3.5 18.5C4.88071 18.5 6 17.3807 6 16C6 14.6193 4.88071 13.5 3.5 13.5M3.5 18.5C2.11929 18.5 1 17.3807 1 16C1 14.6193 2.11929 13.5 3.5 13.5M3.5 18.5V21M3.5 13.5V1M11 8.5V21M18.5 18.5C19.8807 18.5 21 17.3807 21 16C21 14.6193 19.8807 13.5 18.5 13.5M18.5 18.5C17.1193 18.5 16 17.3807 16 16C16 14.6193 17.1193 13.5 18.5 13.5M18.5 18.5V21M18.5 13.5V1" stroke="currentColor" stroke-width="1.5" stroke-linecap="round" stroke-linejoin="round"/>
</svg>
