<svg width="56" height="56" viewBox="0 0 56 56" xmlns="http://www.w3.org/2000/svg">
<path d="M41.1994 38.866C38.5139 41.5514 32.2277 47.8377 29.4099 50.6554C28.6289 51.4365 27.3708 51.4361 26.5897 50.655C23.8162 47.8815 17.6729 41.7382 14.8007 38.866C7.51093 31.5762 7.51093 19.7571 14.8007 12.4673C22.0905 5.17755 33.9096 5.17755 41.1994 12.4673C48.4892 19.7571 48.4892 31.5762 41.1994 38.866Z" stroke="currentColor" stroke-width="3" stroke-linecap="round" stroke-linejoin="round" fill="none"/>
<path d="M35 25.6667C35 29.5327 31.866 32.6667 28 32.6667C24.134 32.6667 21 29.5327 21 25.6667C21 21.8007 24.134 18.6667 28 18.6667C31.866 18.6667 35 21.8007 35 25.6667Z" stroke="currentColor" stroke-width="3" stroke-linecap="round" stroke-linejoin="round" fill="none"/>
</svg>
