<svg width="24" height="24" viewBox="0 0 24 24" xmlns="http://www.w3.org/2000/svg">
<path d="M11.9999 2.3999C12.6626 2.3999 13.1999 2.93716 13.1999 3.5999V4.7999C13.1999 5.46264 12.6626 5.9999 11.9999 5.9999C11.3372 5.9999 10.7999 5.46264 10.7999 4.7999V3.5999C10.7999 2.93716 11.3372 2.3999 11.9999 2.3999Z" fill="currentColor"/>
<path d="M16.7999 11.9999C16.7999 14.6509 14.6509 16.7999 11.9999 16.7999C9.34894 16.7999 7.1999 14.6509 7.1999 11.9999C7.1999 9.34894 9.34894 7.1999 11.9999 7.1999C14.6509 7.1999 16.7999 9.34894 16.7999 11.9999Z" fill="currentColor"/>
<path d="M16.2426 17.9396L17.0911 18.7881C17.5598 19.2567 18.3196 19.2567 18.7882 18.7881C19.2568 18.3195 19.2568 17.5597 18.7882 17.091L17.9397 16.2425C17.471 15.7739 16.7112 15.7739 16.2426 16.2425C15.774 16.7111 15.774 17.4709 16.2426 17.9396Z" fill="currentColor"/>
<path d="M18.7881 5.21161C19.2567 5.68024 19.2567 6.44004 18.7881 6.90867L17.9396 7.7572C17.4709 8.22583 16.7111 8.22583 16.2425 7.7572C15.7739 7.28857 15.7739 6.52877 16.2425 6.06014L17.091 5.21161C17.5597 4.74298 18.3195 4.74298 18.7881 5.21161Z" fill="currentColor"/>
<path d="M20.3999 13.1999C21.0626 13.1999 21.5999 12.6626 21.5999 11.9999C21.5999 11.3372 21.0626 10.7999 20.3999 10.7999H19.1999C18.5372 10.7999 17.9999 11.3372 17.9999 11.9999C17.9999 12.6626 18.5372 13.1999 19.1999 13.1999H20.3999Z" fill="currentColor"/>
<path d="M11.9999 17.9999C12.6626 17.9999 13.1999 18.5372 13.1999 19.1999V20.3999C13.1999 21.0626 12.6626 21.5999 11.9999 21.5999C11.3372 21.5999 10.7999 21.0626 10.7999 20.3999V19.1999C10.7999 18.5372 11.3372 17.9999 11.9999 17.9999Z" fill="currentColor"/>
<path d="M6.06028 7.75722C6.5289 8.22585 7.2887 8.22585 7.75733 7.75722C8.22596 7.28859 8.22596 6.52879 7.75733 6.06016L6.9088 5.21164C6.44017 4.74301 5.68038 4.74301 5.21175 5.21164C4.74312 5.68026 4.74312 6.44006 5.21175 6.90869L6.06028 7.75722Z" fill="currentColor"/>
<path d="M7.75722 17.9395L6.90869 18.7881C6.44006 19.2567 5.68026 19.2567 5.21164 18.7881C4.74301 18.3194 4.74301 17.5596 5.21164 17.091L6.06016 16.2425C6.52879 15.7738 7.28859 15.7738 7.75722 16.2425C8.22585 16.7111 8.22585 17.4709 7.75722 17.9395Z" fill="currentColor"/>
<path d="M4.7999 13.1999C5.46264 13.1999 5.9999 12.6626 5.9999 11.9999C5.9999 11.3372 5.46264 10.7999 4.7999 10.7999H3.5999C2.93716 10.7999 2.3999 11.3372 2.3999 11.9999C2.3999 12.6626 2.93716 13.1999 3.5999 13.1999H4.7999Z" fill="currentColor"/>
</svg>
