<svg width="32" height="32" viewBox="0 0 32 32" xmlns="http://www.w3.org/2000/svg">
<path d="M12.8846 22.6667H19.1152M15.9999 4V5.33333M24.4852 7.51472L23.5424 8.45753M28 15.9999H26.6667M5.33333 15.9999H4M8.45746 8.45753L7.51465 7.51472M11.2859 20.7141C8.68239 18.1106 8.68239 13.8895 11.2859 11.286C13.8894 8.68249 18.1105 8.68249 20.714 11.286C23.3175 13.8895 23.3175 18.1106 20.714 20.7141L19.9845 21.4435C19.1407 22.2874 18.6666 23.4319 18.6666 24.6253V25.3333C18.6666 26.8061 17.4727 28 15.9999 28C14.5272 28 13.3333 26.8061 13.3333 25.3333V24.6253C13.3333 23.4319 12.8592 22.2874 12.0153 21.4435L11.2859 20.7141Z" stroke="currentColor" stroke-width="2" stroke-linecap="round" stroke-linejoin="round" fill="none"/>
</svg>
