<svg width="32" height="33" viewBox="0 0 32 33" xmlns="http://www.w3.org/2000/svg">
<path fill-rule="evenodd" clip-rule="evenodd" d="M16.0002 29.4643C23.0694 29.4643 28.8002 23.7335 28.8002 16.6643C28.8002 9.59501 23.0694 3.86426 16.0002 3.86426C8.93095 3.86426 3.2002 9.59501 3.2002 16.6643C3.2002 23.7335 8.93095 29.4643 16.0002 29.4643ZM13.9316 12.3329C13.3067 11.708 12.2937 11.708 11.6688 12.3329C11.044 12.9577 11.044 13.9708 11.6688 14.5956L13.7375 16.6643L11.6688 18.7329C11.044 19.3577 11.044 20.3708 11.6688 20.9956C12.2937 21.6205 13.3067 21.6205 13.9316 20.9956L16.0002 18.927L18.0688 20.9956C18.6937 21.6205 19.7067 21.6205 20.3316 20.9956C20.9564 20.3708 20.9564 19.3577 20.3316 18.7329L18.2629 16.6643L20.3316 14.5956C20.9564 13.9708 20.9564 12.9577 20.3316 12.3329C19.7067 11.708 18.6937 11.708 18.0688 12.3329L16.0002 14.4015L13.9316 12.3329Z" fill="currentColor"/>
</svg>
