<svg width="56" height="56" viewBox="0 0 56 56" xmlns="http://www.w3.org/2000/svg">
<path d="M32.9306 21.9831C33.4735 22.6088 34.4209 22.6759 35.0466 22.133C35.6723 21.59 35.7394 20.6426 35.1965 20.0169L32.9306 21.9831ZM23.0695 34.0169C22.5265 33.3912 21.5792 33.3241 20.9535 33.867C20.3277 34.41 20.2606 35.3574 20.8036 35.9831L23.0695 34.0169ZM29.5 16.3333C29.5 15.5049 28.8284 14.8333 28 14.8333C27.1716 14.8333 26.5 15.5049 26.5 16.3333H29.5ZM26.5 39.6666C26.5 40.4951 27.1715 41.1666 28 41.1667C28.8284 41.1667 29.5 40.4951 29.5 39.6667L26.5 39.6666ZM47.5 28C47.5 38.7696 38.7696 47.5 28 47.5V50.5C40.4264 50.5 50.5 40.4264 50.5 28H47.5ZM28 47.5C17.2304 47.5 8.5 38.7696 8.5 28H5.5C5.5 40.4264 15.5736 50.5 28 50.5V47.5ZM8.5 28C8.5 17.2304 17.2304 8.5 28 8.5V5.5C15.5736 5.5 5.5 15.5736 5.5 28H8.5ZM28 8.5C38.7696 8.5 47.5 17.2304 47.5 28H50.5C50.5 15.5736 40.4264 5.5 28 5.5V8.5ZM28 26.5C26.3218 26.5 24.8704 26.0438 23.8823 25.3851C22.8837 24.7194 22.5 23.9644 22.5 23.3333H19.5C19.5 25.2796 20.6833 26.858 22.2182 27.8812C23.7636 28.9115 25.8122 29.5 28 29.5V26.5ZM22.5 23.3333C22.5 22.7022 22.8837 21.9473 23.8823 21.2816C24.8704 20.6228 26.3218 20.1667 28 20.1667V17.1667C25.8122 17.1667 23.7636 17.7552 22.2182 18.7854C20.6833 19.8087 19.5 21.3871 19.5 23.3333H22.5ZM28 20.1667C30.281 20.1667 32.0778 21.0003 32.9306 21.9831L35.1965 20.0169C33.6286 18.21 30.901 17.1667 28 17.1667V20.1667ZM28 29.5C29.6782 29.5 31.1296 29.9562 32.1177 30.6149C33.1163 31.2806 33.5 32.0356 33.5 32.6667H36.5C36.5 30.7204 35.3167 29.142 33.7818 28.1188C32.2364 27.0885 30.1878 26.5 28 26.5V29.5ZM26.5 16.3333V18.6667H29.5V16.3333H26.5ZM26.5 37.3333L26.5 39.6666L29.5 39.6667L29.5 37.3334L26.5 37.3333ZM28.0001 35.8333C25.719 35.8333 23.9222 34.9997 23.0695 34.0169L20.8036 35.9831C22.3715 37.79 25.0991 38.8333 28 38.8333L28.0001 35.8333ZM33.5 32.6667C33.5 33.2978 33.1163 34.0527 32.1177 34.7184C31.1297 35.3771 29.6782 35.8333 28 35.8333V38.8333C30.1879 38.8333 32.2364 38.2448 33.7818 37.2146C35.3168 36.1913 36.5 34.6129 36.5 32.6667H33.5ZM26.5 18.6667L26.5 37.3333L29.5 37.3333L29.5 18.6667L26.5 18.6667Z" fill="currentColor"/>
</svg>
