<svg width="24" height="24" viewBox="0 0 24 24" xmlns="http://www.w3.org/2000/svg">
<path d="M12 2C17.5399 2 22 6.50704 22 12C22 17.493 17.493 22 12 22C6.50704 22 2 17.5399 2 12C2 6.46009 6.50704 2 12 2ZM15.4742 16.0845C15.662 15.5211 16.507 9.88732 16.6479 8.76056C16.6948 8.43192 16.554 8.19718 16.3662 8.10329C16.1315 7.96244 15.7559 8.05634 15.2864 8.19718C14.6761 8.43192 7.11737 11.6714 6.69484 11.8592C6.2723 12.0469 5.89671 12.2347 5.89671 12.5164C5.89671 12.7042 5.99061 12.8451 6.31925 12.939C6.64789 13.0798 7.49296 13.3146 8.00939 13.4554C8.47887 13.5962 9.04225 13.4554 9.32394 13.2676C9.65258 13.0798 13.3615 10.5915 13.6432 10.3568C13.9249 10.1221 14.1127 10.4038 13.9249 10.6385C13.6901 10.8732 11.1549 13.3615 10.8263 13.6901C10.4038 14.1127 10.6854 14.5352 10.9671 14.723C11.2958 14.9108 13.5493 16.4131 13.8779 16.6948C14.2066 16.9296 14.5822 17.0704 14.8638 17.0704C15.1455 16.9765 15.3333 16.6009 15.4742 16.0845Z" fill="currentColor"/>
</svg>
