<svg width="25" height="24" viewBox="0 0 25 24" xmlns="http://www.w3.org/2000/svg">
<path d="M11.7855 2.02495C9.3981 2.20238 7.22037 3.18406 5.51045 4.85475C3.26129 7.04854 2.18279 10.1549 2.58147 13.275C3.07923 17.1764 5.83077 20.4256 9.61011 21.5755C12.5322 22.465 15.7838 21.9373 18.2611 20.1744C21.3053 18.006 22.8885 14.4088 22.4184 10.7264C21.9206 6.82501 19.1691 3.57581 15.3897 2.42591C14.2651 2.08256 12.9539 1.93738 11.7855 2.02495ZM12.5483 8.22148C13.0599 8.27217 13.3157 8.35283 13.4309 8.50261C13.4609 8.54409 13.5093 8.64549 13.5369 8.72845C13.5968 8.90358 13.5991 9.10406 13.5623 10.6019C13.5392 11.5375 13.5531 11.8256 13.6291 12.033C13.719 12.2703 13.9172 12.3786 14.0923 12.2887C14.2513 12.2058 14.6223 11.7979 14.8643 11.4361C15.4243 10.6065 15.7654 9.9636 16.1755 8.97041C16.2585 8.77453 16.3691 8.64549 16.4843 8.61553C16.5304 8.6017 17.1826 8.59018 17.9846 8.58788L19.4018 8.58327L19.5216 8.63397C19.676 8.7031 19.736 8.79297 19.736 8.95658C19.736 9.26768 19.411 9.906 18.8533 10.6872C18.7773 10.7955 18.4892 11.178 18.215 11.5398C17.6089 12.3371 17.4776 12.5238 17.3854 12.7174C17.2702 12.9616 17.2978 13.1621 17.4799 13.3995C17.5329 13.4663 17.8002 13.7359 18.0744 13.9986C18.8418 14.7337 19.1898 15.1209 19.4732 15.5449C19.676 15.8513 19.7544 16.0772 19.7221 16.2708C19.706 16.3768 19.6 16.5035 19.4802 16.5657C19.3373 16.6372 19.1184 16.651 17.9131 16.6671L16.7724 16.6832L16.588 16.621C16.1179 16.4643 15.8045 16.2039 15.0924 15.3789C14.6984 14.9227 14.4057 14.6991 14.2029 14.6968C14.0163 14.6968 13.7789 14.9457 13.6775 15.2545C13.6084 15.4619 13.583 15.6209 13.5623 15.9804C13.5369 16.4044 13.4862 16.5035 13.2258 16.6118C13.1313 16.6533 11.9561 16.6671 11.645 16.6348C11.0204 16.5657 10.442 16.3698 9.86821 16.0311C9.03629 15.5426 8.52701 15.1047 7.98085 14.4088C7.0314 13.1967 6.38385 12.1643 5.59802 10.6065C5.29383 10.0005 4.93664 9.21698 4.87903 9.03032C4.82141 8.83675 4.90438 8.67775 5.09334 8.61784C5.15787 8.5971 5.51737 8.58557 6.34698 8.57405L7.51073 8.56253L7.6467 8.61323C7.86101 8.69618 7.95089 8.80219 8.09607 9.15476C8.22051 9.45203 8.89111 10.7978 9.10082 11.1734C9.31514 11.5536 9.54328 11.8716 9.73916 12.0606C9.98113 12.298 10.0894 12.3556 10.26 12.3417C10.4051 12.3279 10.4443 12.2957 10.5342 12.0998C10.7531 11.6274 10.7877 10.0304 10.5918 9.40364C10.4789 9.04645 10.3107 8.91049 9.84516 8.8114C9.76451 8.79297 9.76451 8.76532 9.83825 8.65701C10.018 8.39892 10.3383 8.27448 10.949 8.22378C11.2832 8.19613 12.2741 8.19383 12.5483 8.22148Z" fill="currentColor"/>
</svg>
