<svg width="80" height="80" viewBox="0 0 80 80" xmlns="http://www.w3.org/2000/svg">
<path fill-rule="evenodd" clip-rule="evenodd" d="M40 72C57.6731 72 72 57.6731 72 40C72 22.3269 57.6731 8 40 8C22.3269 8 8 22.3269 8 40C8 57.6731 22.3269 72 40 72ZM38.2188 28.6718C36.9914 27.8535 35.4132 27.7772 34.1126 28.4733C32.8119 29.1694 32 30.5248 32 32V48C32 49.4752 32.8119 50.8306 34.1126 51.5267C35.4132 52.2228 36.9914 52.1465 38.2188 51.3282L50.2188 43.3282C51.3316 42.5863 52 41.3374 52 40C52 38.6626 51.3316 37.4137 50.2188 36.6718L38.2188 28.6718Z" fill="currentColor"/>
</svg>
