<svg width="24" height="24" viewBox="0 0 24 24" xmlns="http://www.w3.org/2000/svg">
<path d="M12 2C6.47826 2 2 6.47826 2 12C2 13.7174 2.43478 15.413 3.28261 16.913L2.02174 21.4565C1.97826 21.6087 2.02174 21.7609 2.13043 21.8696C2.19565 21.9565 2.32609 22 2.43478 22C2.47826 22 2.5 22 2.54348 21.9783L7.28261 20.8043C8.71739 21.587 10.3478 22 12 22C17.5217 22 22 17.5217 22 12C22 6.47826 17.5217 2 12 2ZM17.0217 15.5217C16.8043 16.1087 15.7826 16.6522 15.2826 16.7174C14.8478 16.7826 14.2826 16.8043 13.6739 16.6087C13.3043 16.5 12.8261 16.3261 12.2174 16.0652C9.65217 15 7.95652 12.4348 7.82609 12.2609C7.69565 12.087 6.78261 10.8913 6.78261 9.63043C6.78261 8.36956 7.43478 7.76087 7.67391 7.52174C7.91304 7.28261 8.19565 7.19565 8.36957 7.19565C8.54348 7.19565 8.71739 7.19565 8.86957 7.19565C9.02174 7.19565 9.23913 7.13043 9.45652 7.63043C9.67391 8.13043 10.1739 9.3913 10.2391 9.52174C10.3043 9.65217 10.3478 9.80435 10.2609 9.95652C10.1739 10.1304 10.1304 10.2391 10 10.3696C9.86957 10.5 9.73913 10.6957 9.6087 10.8043C9.47826 10.9348 9.34783 11.0652 9.5 11.3261C9.65217 11.587 10.1739 12.413 10.9348 13.087C11.913 13.9565 12.7391 14.2174 13 14.3478C13.2609 14.4783 13.413 14.4565 13.5652 14.2826C13.7174 14.1087 14.2174 13.5435 14.3696 13.2826C14.5217 13.0217 14.7174 13.0652 14.9565 13.1522C15.1957 13.2391 16.4565 13.8478 16.7174 13.9783C16.9783 14.1087 17.1522 14.1739 17.2174 14.2826C17.2391 14.4348 17.2391 14.9348 17.0217 15.5217Z" fill="currentColor"/>
</svg>
