<svg width="32" height="33" viewBox="0 0 32 33" xmlns="http://www.w3.org/2000/svg">
<path fill-rule="evenodd" clip-rule="evenodd" d="M16.0002 29.4643C23.0694 29.4643 28.8002 23.7335 28.8002 16.6643C28.8002 9.59501 23.0694 3.86426 16.0002 3.86426C8.93095 3.86426 3.2002 9.59501 3.2002 16.6643C3.2002 23.7335 8.93095 29.4643 16.0002 29.4643ZM21.9316 14.5956C22.5564 13.9708 22.5564 12.9577 21.9316 12.3329C21.3067 11.708 20.2937 11.708 19.6688 12.3329L14.4002 17.6015L12.3316 15.5329C11.7067 14.908 10.6937 14.908 10.0688 15.5329C9.44399 16.1577 9.44399 17.1708 10.0688 17.7956L13.2688 20.9956C13.8937 21.6205 14.9067 21.6205 15.5316 20.9956L21.9316 14.5956Z" fill="currentColor"/>
</svg>
