<svg width="25" height="24" viewBox="0 0 25 24" xmlns="http://www.w3.org/2000/svg">
<path d="M12.5 4C9.28 4 5.10066 4.76272 5.10066 4.76272L5.09014 4.77408C3.62359 4.99581 2.5 6.18717 2.5 7.63604V11.9993V12.0007V16.3625V16.364C2.50143 17.0559 2.76375 17.7247 3.23984 18.2503C3.71594 18.7759 4.37464 19.1238 5.09766 19.2316L5.10066 19.2359C5.10066 19.2359 9.28 20 12.5 20C15.72 20 19.8993 19.2359 19.8993 19.2359L19.9008 19.2344C20.6246 19.1269 21.2841 18.7787 21.7606 18.2525C22.237 17.7263 22.4992 17.0566 22.5 16.364V16.3625V12.0007V11.9993V7.63604C22.4989 6.94383 22.2368 6.27467 21.7606 5.7488C21.2845 5.22292 20.6256 4.8748 19.9023 4.76698L19.8993 4.76272C19.8993 4.76272 15.72 4 12.5 4ZM10.1923 8.653L16.3462 11.9993L10.1923 15.3456V8.653Z" fill="currentColor"/>
</svg>
