<svg width="825" height="901" viewBox="0 0 825 901" fill="none" xmlns="http://www.w3.org/2000/svg">
<g style="mix-blend-mode:multiply">
<path d="M64.4487 542.99C66.2452 541.296 67.3548 538.81 67.3548 536.164C67.3548 531.296 63.4448 527.381 58.6366 527.381C54.1982 527.381 50.1826 531.296 50.1826 536.164C50.1826 541.032 54.1982 545.106 58.1082 544.683C58.6366 542.725 62.2824 540.926 64.5015 542.99M53.7755 519.021C61.1199 512.884 59.482 506.905 55.9947 498.122L40.7247 502.46C42.0985 512.09 43.6307 518.069 53.7755 519.074M45.163 520.027C43.8949 519.445 42.3626 517.381 41.6758 516.799C39.0339 517.646 37.5016 520.027 35.4409 520.027C35.5995 528.968 54.5681 530.767 45.163 520.027ZM38.9282 500.873C38.5055 498.916 35.4409 494.048 35.1768 493.889C33.6445 492.355 30.1572 492.09 28.7834 493.307C28.7834 496.217 37.2374 506.111 38.9282 500.82M46.2726 490.291C58.4781 474.101 46.801 478.598 43.1024 479.974C39.0867 481.085 27.1455 483.201 46.2726 490.291ZM56.6816 495.476C60.6972 499.497 63.4976 486.852 62.2295 483.889C60.4331 483.73 57.3685 485.265 56.9458 487.381C56.6816 487.963 56.2589 493.519 56.6816 495.476ZM61.5426 515.423C57.6327 529.233 74.0123 519.603 70.5778 511.402C68.2002 512.09 66.298 510.82 63.3391 511.138C62.7579 511.984 62.4937 514.365 61.5426 515.476M55.1493 525.582C51.2393 526.535 48.2276 529.762 47.3822 532.302C42.0985 535.794 34.9126 539.286 32.6934 533.148C30.21 527.011 34.4899 523.783 32.9576 521.138C21.8617 513.889 12.985 509.709 12.2981 488.81C16.3138 491.72 31.5838 499.286 27.4097 485.741C21.0163 483.254 27.8324 478.492 26.0359 476.376C26.987 478.757 33.803 475.423 33.5388 481.561L36.6034 479.603C31.2139 472.355 38.664 469.286 39.0867 465.265C41.0417 468.175 49.2315 466.958 48.2276 476.005L51.8205 476.27C48.2276 471.085 55.7305 470.556 55.1493 468.016C54.8851 470.662 62.9164 471.085 59.0593 476.376C62.1238 490.344 71.2647 475.953 73.3782 471.349C83.523 489.498 78.0808 497.857 72.4272 509.815C72.4272 513.042 77.5524 513.572 78.662 519.974C79.9301 526.376 72.0045 527.064 65.5054 526.958C63.709 525.265 59.3763 524.154 55.255 525.582M55.1493 499.921L42.3626 503.677C43.4722 511.614 45.0045 516.64 53.1943 517.328C59.4291 512.143 58.0554 507.169 55.1493 499.921ZM463.583 483.201C462.315 483.042 458.563 482.249 455.974 481.244L457.348 484.577C459.567 485 462.632 485.953 464.005 485.953L463.583 483.148V483.201ZM11.4527 323.677C20.3294 344.048 56.1532 358.81 79.8772 365.953C66.4037 358.968 31.1611 342.778 26.0359 330.662C38.2413 329.127 65.8753 336.799 83.3645 342.249C63.2334 331.773 35.0711 317.857 11.4527 323.677ZM85.161 329.233C72.9555 320.291 42.6797 296.587 38.9282 283.889C51.2922 284.048 77.9223 295.318 94.0377 303.572C75.7031 290.027 49.9184 272.778 25.6132 274.841C31.4253 296.323 62.8107 318.757 85.161 329.233ZM98.5817 292.99C79.1375 277.804 53.617 255.635 48.0691 232.725C56.6816 243.995 93.2979 266.587 107.194 272.725C77.9223 253.043 40.7247 218.334 36.9732 215.106C34.1728 252.619 75.5446 278.81 98.5817 292.937M114.539 289.921C101.91 283.36 68.3058 258.968 63.1806 251.826C65.8225 260.45 97.8948 285.582 112.848 296.587L114.486 289.868L114.539 289.921ZM131.499 330.609C126.11 329.233 112.214 334.947 110.153 340.397C107.775 345.423 114.063 358.81 122.359 368.545C117.497 372.46 111.791 378.175 108.092 386.799C110.312 395.582 117.815 402.143 125.159 406.058C121.83 409.286 119.347 416.958 117.815 423.889C118.766 426.958 121.989 433.095 134.036 438.651C132.239 441.72 130.02 450.238 129.439 457.328C130.971 463.042 140.429 469.021 153.85 469.603C152.582 476.587 153.691 484.524 157.443 494.577C162.304 498.598 173.135 496.958 182.857 493.201C183.122 500.291 184.39 505.476 188.564 512.037C196.067 515.371 203.253 512.619 210.756 508.016C211.337 516.111 218.523 520.979 224.071 526.852C236.963 526.429 241.718 522.249 245.734 515.423C247.266 519.762 248.799 525.212 258.785 531.032C270.568 528.81 274.478 525.159 279.603 516.693C286.102 528.704 291.703 531.455 301.953 530.767L302.112 527.434C293.499 529.392 284.622 521.296 278.388 504.418C275.746 516.005 272.681 523.095 260.053 527.011C253.237 523.783 247.953 519.762 247.953 501.931C243.515 515.476 237.28 521.296 225.18 522.302C212.288 511.296 214.771 504.312 218.681 491.349C212.182 502.513 208.114 509.074 191.628 508.069C184.126 496.217 187.877 488.386 193.425 474.894C182.857 490.238 177.468 494.577 161.088 491.349C154.959 472.937 159.398 466.958 167.904 458.439C155.118 465.423 147.668 468.915 134.617 455.635C135.304 442.513 139.901 437.487 155.699 432.884C141.116 436.376 132.239 438.069 122.517 422.831C126.797 407.91 133.19 405.688 148.883 404.418C132.768 405.953 122.517 403.466 112.953 388.386C126.11 367.169 132.239 369.974 146.822 372.355C125.74 367.328 117.815 361.455 114.75 342.249C131.975 329.974 140.852 335.953 157.495 344.63C132.239 329.286 120.721 312.99 121.989 300.979C137.1 292.46 161.67 311.984 172.66 319.127C133.824 288.863 137.946 264.736 139.214 245.476C131.024 268.651 135.885 281.455 144.497 296.376C139.795 293.889 121.302 292.037 117.286 297.487C113.376 302.355 118.818 318.81 131.605 330.662M125.529 260.344L128.171 253.783C117.075 245 89.4408 213.889 85.2666 205.529C86.9046 215 112.584 246.535 125.529 260.344ZM109.73 251.826C93.932 230.926 67.1434 196.058 67.6718 171.085C73.4839 185.053 110.946 222.408 123.997 232.46C98.7402 206.111 63.9203 153.519 61.9653 146.958C47.8049 187.963 90.1277 231.455 109.73 251.826ZM146.875 265.476C147.562 279.709 168.116 301.455 171.603 303.942C174.932 306.429 177.415 303.519 173.822 299.762C166.742 294.312 151.049 275.9 146.875 265.476ZM151.736 320.027C149.358 318.334 147.139 321.296 149.358 322.408C151.736 324.207 173.347 336.905 175.724 338.704C178.208 340.238 179.899 336.905 177.944 335.635C177.944 335.635 153.638 321.296 151.736 320.027ZM176.2 475.529C177.468 473.995 192.844 458.81 195.327 456.852C197.546 454.63 194.217 452.249 192.685 454.365C192.685 454.365 175.619 470.979 173.664 472.937C171.867 474.736 174.351 477.804 176.147 475.582M158.129 449.974C160.93 449.127 178.261 440.767 181.167 439.233C184.337 438.122 182.012 434.894 179.476 436.005C179.476 436.005 159.926 445.741 157.126 446.482C154.484 447.751 155.857 451.244 158.077 449.974M147.615 416.958C144.973 417.117 144.973 420.873 147.456 420.714C150.098 420.714 169.384 418.228 172.554 417.646C176.147 417.487 174.932 413.625 172.131 413.889C172.131 413.889 150.468 416.958 147.562 416.958M170.229 364.789C173.4 365.9 173.822 361.984 171.339 361.032C171.339 361.032 150.098 354.312 147.615 353.201C145.237 352.249 143.441 355.582 146.241 356.27C148.46 357.54 167.218 363.519 170.229 364.789ZM168.961 388.386C168.961 388.386 146.875 387.699 144.128 387.434C141.644 387.434 140.957 390.926 143.705 390.926C146.505 391.349 165.474 391.878 168.961 392.196C172.131 392.46 171.603 388.439 168.961 388.439M210.439 472.725C210.439 472.725 200.294 490.027 198.497 492.408C197.229 494.524 200.294 496.746 201.562 494.524C203.094 492.408 211.707 476.693 213.345 474.736C215.3 472.355 211.654 470.397 210.439 472.778M236.54 481.085C236.54 481.085 230.834 502.566 230.041 505.053C229.46 507.699 232.683 508.968 233.529 506.429C234.215 503.783 239.076 485.106 239.763 482.143C241.031 478.916 237.28 478.386 236.593 481.032M261.374 485.423C261.374 485.423 260.687 507.751 260.423 510.238C260.159 512.725 263.91 513.466 263.91 510.82C264.174 508.439 264.861 488.916 265.284 485.741C265.548 482.249 261.427 482.672 261.427 485.476M298.043 512.884C297.515 510.397 292.495 491.561 291.808 488.333C291.386 485.106 287.634 486.64 288.057 489.445C288.057 489.445 293.763 510.767 294.292 513.413C294.82 515.9 298.571 515.794 298.043 512.831M220.319 376.482C223.225 372.302 207.004 368.545 203.94 369.815C201.139 370.926 219.21 377.752 220.319 376.482ZM215.458 400.926C217.255 396.323 198.55 397.011 195.908 399.127C192.844 401.244 215.194 402.619 215.458 400.926ZM203.675 433.677C202.407 437.328 219.896 427.117 219.474 425.423C218.364 419.974 205.049 430.45 203.675 433.677ZM191.734 381.931C186.028 380.979 184.39 382.778 181.167 387.804C177.996 392.566 171.339 399.921 171.339 399.498C171.18 399.339 178.683 406.058 181.589 411.085C184.654 416.27 187.983 416.958 192.949 417.064C187.824 421.931 186.292 423.201 186.556 429.339C186.82 436.058 186.556 447.328 186.292 447.328C186.028 447.169 195.327 447.91 200.294 449.709C205.578 451.244 206.793 452.196 211.654 449.55C209.435 453.307 210.386 455.106 212.182 459.18C214.137 463.095 216.462 471.455 216.092 471.455C215.934 471.455 224.018 468.651 228.879 468.651C233.74 468.651 236.223 468.069 238.601 464.312C238.178 469.603 240.979 471.402 243.99 474.471C247.161 477.117 252.022 484.101 251.916 484.101C251.757 484.365 258.838 478.545 263.17 477.275C267.767 476.429 268.56 474.471 269.669 470.291C270.937 475.159 274.795 476.587 278.81 477.699C283.09 478.968 290.329 483.148 290.329 483.413C290.065 483.572 294.08 475.159 297.409 472.249C300.474 469.603 301.425 466.535 300.209 461.931C299.522 457.328 292.178 447.275 291.755 447.169C294.926 452.725 299.522 462.937 296.616 466.852C293.023 470.344 289.114 477.857 289.114 477.857C289.114 477.699 280.765 474.101 276.644 472.672C271.624 471.402 269.299 460.556 268.613 454.683C269.035 458.598 268.613 469.762 264.755 472.249C260.053 474.471 252.656 479.074 253.078 478.968C253.078 478.968 247.266 472.249 243.62 469.074C239.869 465.741 242.352 455.106 244.73 448.439C241.665 454.312 237.227 464.894 232.102 464.894C227.505 464.894 218.628 466.587 219.051 466.587C219.21 466.587 216.568 458.069 214.613 454.048C212.816 450.027 219.051 440.82 224.071 434.947C219.051 440.238 210.069 449.18 204.943 447.381C199.396 445.847 189.673 443.889 189.832 443.889C190.255 444.048 190.519 434.418 190.413 428.968C190.255 423.413 200.664 416.429 208.853 412.937C202.46 414.207 189.832 415.423 186.926 410.556C183.333 405.953 177.098 398.281 177.468 398.704C177.468 398.704 184.126 391.296 187.718 387.117C190.519 382.249 203.147 384.048 210.756 386.005C202.724 383.889 190.202 379.021 189.779 373.572C189.251 368.386 187.137 358.386 187.137 358.81C186.873 358.81 196.278 355.741 201.139 353.254C206.264 350.767 216.568 357.699 222.485 362.302C200.558 344.894 181.959 316.429 181.114 290.503L180.268 291.191C181.801 313.36 188.881 331.931 202.46 347.804C199.977 347.963 195.961 349.498 194.957 350.291C193.425 351.244 180.638 356.27 180.638 356.164C180.638 355.741 184.231 365.106 184.231 370.926C184.654 376.799 187.032 379.445 191.576 381.931M201.562 321.984C209.329 328.122 231.838 357.117 231.838 358.122C231.838 358.968 231.838 364.841 236.276 362.302C240.292 360.08 237.227 358.281 236.276 356.164C234.48 353.677 207.268 323.677 201.562 321.984ZM224.335 455.318C224.493 458.386 235.166 443.466 234.48 442.196C231.415 438.545 224.335 452.09 224.335 455.318ZM253.184 467.011C254.452 469.815 260.106 452.249 258.732 451.508C254.558 449.021 251.916 464.312 253.184 467.011ZM286.102 466.852C288.585 468.81 285.151 450.82 283.301 450.397C278.863 450.238 283.566 464.894 286.102 466.852ZM299.153 412.355C291.808 408.016 285.151 403.413 283.196 391.72C287.634 394.207 295.824 396.746 299.575 394.524C292.918 393.148 283.196 387.699 279.022 384.63C275.429 392.99 282.509 410.556 299.153 412.408M236.963 566.852C239.024 556.799 239.605 553.466 239.605 534.524L232.683 535.106C233.793 552.672 235.166 557.275 236.963 566.905M248.904 540.503C247.372 555.265 249.433 566.164 235.008 574.789C224.071 567.54 225.022 559.286 224.071 541.614C221.587 563.783 216.145 571.614 234.215 584.841C255.192 574.101 251.44 566.852 248.904 540.503ZM202.566 530.714L195.486 529.603C193.425 547.328 188.405 558.333 187.983 568.069C191.734 558.333 198.814 549.392 202.566 530.714ZM208.219 541.085C203.781 555.159 196.542 574.841 185.605 576.905C177.574 571.191 180.744 554.577 183.808 536.746C176.2 558.069 169.807 572.143 182.435 586.376C202.407 579.815 205.049 567.011 208.272 541.032M144.128 555.159C150.521 547.064 161.458 534.524 169.807 517.381L163.413 514.736C156.333 530.767 146.875 545.529 144.128 555.159ZM170.335 533.254C162.304 545.529 150.627 563.677 139.531 562.566C133.402 555.318 139.002 539.974 146.188 523.519C133.719 542.355 125.529 556.587 133.983 573.73C155.065 572.196 160.613 557.275 170.335 533.307M142.754 500.344L137.629 495.741C125.582 508.968 110.84 523.466 105.556 531.984C114.01 526.111 129.28 513.836 142.754 500.344ZM134.67 515.953C122.993 525.159 109.572 542.46 99.1629 537.963C95.8341 528.915 106.507 515.794 118.713 502.408C100.695 515.953 87.6443 528.069 90.2862 546.746C110.946 552.037 117.762 536.005 134.67 515.9M120.932 478.598L117.022 472.725C102.333 482.196 95.2529 487.804 87.5915 494.207C97.3136 490.873 104.235 487.804 120.879 478.598M111.368 494.207C98.159 501.191 86.3762 504.947 82.3606 504.365L84.5798 509.233C90.1277 510.344 96.0983 506.746 111.368 494.154M85.9535 472.725L87.75 477.328L97.3136 469.074L85.9535 472.725ZM104.975 329.921L107.036 323.254C93.2979 318.916 60.8029 299.392 54.1454 293.148C58.5837 300.979 88.1727 322.037 104.922 329.974M108.726 452.09L106.243 445.794C89.705 452.09 75.0162 456.111 66.1395 460.873C76.8127 459.603 90.9731 458.069 108.726 452.09ZM83.8929 443.466C70.1551 446.693 58.2139 448.651 48.6503 454.736L59.0593 455.318C69.6268 449.021 76.707 447.064 83.8929 443.466ZM83.0475 435.476C68.0416 436.746 42.9439 432.831 33.2218 423.889C43.3666 417.064 65.1356 413.413 83.0475 411.455C60.2745 409.656 40.0378 407.963 20.7521 422.619C36.9732 439.921 57.7912 439.656 83.0475 435.423M98.0533 387.646C80.5641 385.529 51.7149 383.201 41.7286 383.466C51.2922 387.117 78.7676 391.296 97.5249 394.471L98.1062 387.646H98.0533ZM100.537 418.228C83.0475 420.185 57.7912 421.561 48.4918 424.101C58.9008 425.794 82.6248 426.217 101.646 425.212L100.537 418.228ZM101.91 354.894C87.75 351.826 49.0202 340.397 40.8304 338.016C49.0202 343.889 82.3078 356.164 100.378 361.455L101.91 354.894ZM82.6248 401.614C68.0416 399.392 35.8636 391.138 26.8284 381.508C37.7658 375.794 60.116 376.746 78.0279 376.482C55.8362 372.831 33.2218 366.588 12.5095 379.392C27.1983 395.688 58.161 402.249 82.5719 401.561M307.025 572.831C308.293 595.847 304.965 628.175 355.16 630.027C407.628 632.408 405.937 648.598 407.628 676.058C409.16 650.82 408.315 632.672 460.36 631.984C512.563 631.402 510.344 601.032 512.14 577.857L511.718 396.164H307.29L307.025 572.831ZM367.524 388.386H373.336C372.914 384.048 373.336 368.439 369.321 365.106C367.524 369.868 359.599 386.587 356.957 388.122H362.346C362.61 386.005 367.471 380.185 367.471 380.185C367.471 380.185 367.894 384.63 367.471 388.439M394.736 368.545C392.939 373.307 390.826 387.381 387.814 388.916H393.626C393.784 386.535 395.581 379.55 395.581 379.55C395.581 379.55 398.751 385.265 398.646 389.021L404.352 389.286C403.929 384.524 398.223 371.984 394.788 368.492M322.718 387.381C329.376 387.381 335.927 381.931 344.223 369.815C346.178 371.191 344.751 382.09 343.113 386.852C349.929 383.942 368.792 362.884 370.06 352.672C378.409 358.228 379.518 379.021 380.205 387.804C387.814 382.619 390.614 364.259 391.301 355.582C396.162 358.81 404.088 372.302 407.258 381.402C409.213 337.17 403.084 311.667 390.614 304.154C397.959 312.513 402.555 340.291 403.507 362.884C403.348 364.841 397.959 350.609 388.923 336.799C389.61 340.45 387.233 353.942 383.534 370.979C383.534 366.799 378.937 351.878 369.796 341.561C368.106 351.614 356.587 367.222 350.669 374.894C351.515 372.937 352.043 358.439 349.295 352.566C348.027 360.82 337.248 371.138 330.855 377.646C332.652 376.111 332.123 368.439 332.81 361.349C328.9 365.106 324.62 363.836 319.231 362.619C326.47 360.132 338.358 347.963 339.626 337.222C332.81 353.942 309.35 359.815 302.851 359.392C307.29 365.371 321.292 369.709 329.481 368.598C330.168 373.625 329.059 378.651 322.824 387.434M355.213 349.18C362.822 315.582 352.73 289.233 344.804 272.778C355.213 280.185 373.653 314.471 380.734 345.423C383.904 303.572 374.235 284.365 358.225 261.349C371.698 266.217 393.732 296.64 400.283 304.312C373.336 249.392 367.419 242.249 341 236.535L346.019 241.138C363.086 242.831 377.775 269.286 377.775 269.286C377.775 269.286 368.475 260.344 348.08 250.714C354.421 258.281 367.894 287.593 373.231 303.73C369.955 295.582 354.051 273.836 336.667 259.233C340.154 267.17 351.092 302.302 350.563 313.783C346.178 301.826 337.935 289.021 315.902 272.672C312.785 269.921 309.562 267.593 306.339 265.953C309.826 268.281 312.996 270.503 315.902 272.672C336.773 291.085 353.575 330.238 355.16 349.18M304.014 251.984C266.129 229.233 252.656 203.043 250.701 198.439C245.681 194.418 238.495 195.371 239.024 204.312C255.245 230.503 292.337 260.08 297.885 263.043C303.855 266.111 300.104 263.466 300.104 262.46C267.926 239.603 242.775 206.958 241.824 204.841C241.56 198.439 245.417 198.968 248.482 200.926C264.703 232.46 282.615 241.085 304.014 251.984ZM219.051 229.392C221.534 228.016 226.29 227.275 230.834 226.323C225.55 222.408 220.689 222.302 219.051 229.392ZM282.615 255.9C282.615 255.9 282.139 255.423 281.082 254.577C275.851 250.027 257.887 235.106 246.104 232.513C232.894 229.445 229.302 229.445 212.922 234.312C208.748 225.529 208.484 219.974 211.548 215.371C214.613 211.349 222.221 205.476 233.476 204.789C222.908 203.677 206.846 207.699 205.736 219.709C205.049 228.916 212.129 239.921 212.235 240.344C212.816 239.762 231.257 228.228 253.29 238.968C269.986 246.429 278.018 252.143 281.029 254.63C281.98 255.423 282.562 255.953 282.562 255.953M272.364 255.9C260.159 251.296 249.168 255.635 244.73 268.598C251.229 258.968 260 256.905 272.364 255.9ZM249.75 186.693L250.701 186.852C260.687 189.921 330.644 192.566 354.209 192.037C353.681 195.688 342.849 203.466 340.472 205.159C344.329 206.005 350.088 208.704 353.047 210.609C353.787 211.191 354.209 211.508 354.209 211.455C353.892 211.191 353.522 210.926 353.047 210.609C351.356 209.286 348.027 206.587 344.91 204.736C351.145 200.556 357.115 194.154 358.225 190.08C323.933 192.884 254.294 184.894 251.916 184.101C249.697 183.677 249.697 185.053 249.697 186.746M250.701 161.455L250.859 165.106L254.769 164.841V161.191L258.098 161.032L257.939 156.852L254.346 157.275V153.36L250.331 153.625L250.489 157.275L246.738 157.54L247.002 161.561L250.754 161.402L250.701 161.455ZM250.278 137.064H246.527L246.685 141.085L250.437 140.82L250.701 144.471L254.716 144.312L254.452 140.82L258.045 140.556L257.622 136.64L254.294 136.905L254.029 133.148H250.014L250.278 137.064ZM259.155 146.958L255.403 147.117L255.667 151.138L259.419 150.979L259.577 154.736L263.593 154.471L263.329 150.714L266.816 150.556V146.535L263.223 146.958L263.065 143.201L259.155 143.36V147.011V146.958ZM267.767 126.588L271.677 149.603L273.474 150.027L271.941 127.434L267.767 126.588ZM273.157 159.392C272.047 156.323 270.251 153.836 269.405 154.207C268.56 154.894 268.56 157.54 270.251 160.767C271.519 163.677 273.157 165.794 274.161 165.371C275.112 165.212 274.689 162.461 273.209 159.392M278.44 121.878C281.769 121.878 284.57 119.392 284.57 116.164C284.834 112.937 282.086 110.291 278.863 110.291C275.693 110.027 273.051 112.513 273.051 116.005C272.892 119.233 275.27 121.878 278.44 121.878ZM276.644 100.503V105.529H282.192V100.503H287.317V94.7886H282.192V89.7621H276.644V94.7886H271.519V100.503H276.644ZM283.883 150.185L285.521 150.027L290.382 127.011L286.63 127.857L283.83 150.185H283.883ZM290.276 149.18C290.434 151.667 292.495 153.625 295.137 153.36C297.356 153.36 299.417 151.138 299.153 148.916C299.153 146.111 296.933 144.312 294.45 144.471C291.967 144.736 290.17 146.587 290.276 149.233M292.178 137.064C292.337 139.709 294.239 141.508 296.616 141.244C299.1 141.244 301.213 139.127 301.213 136.64C301.055 134.259 298.73 132.196 296.352 132.302C293.869 132.461 291.914 134.524 292.178 137.064ZM302.323 134.841C302.587 137.487 304.701 139.603 307.342 139.18C309.72 139.021 311.517 137.064 311.517 134.418C311.252 131.931 309.033 130.08 306.814 130.08C304.331 130.238 302.217 132.302 302.376 134.841M312.732 145.582C312.468 143.201 310.513 141.138 308.029 141.244C305.387 141.244 303.749 143.466 303.855 146.005C303.855 148.651 305.916 150.45 308.452 150.185C310.935 150.027 313.049 148.069 312.732 145.582ZM255.72 175.847L255.298 181.032C265.971 184.683 289.853 184.101 301.372 182.143V176.429L255.72 175.847ZM289.695 165.794C290.382 166.217 292.337 165.371 294.292 163.572C296.511 161.455 297.356 159.55 296.933 158.81C296.405 158.122 294.292 159.392 292.337 161.455C290.276 162.99 289.166 165.212 289.695 165.794ZM289.536 154.894C288.427 154.471 286.63 156.429 285.098 159.498C283.566 162.566 283.143 165.371 284.147 165.794C285.098 166.058 287.053 164.101 288.849 161.191C289.8 158.122 290.223 155.476 289.536 154.894ZM282.35 130.926C282.35 129.127 280.977 127.434 278.863 127.434C277.172 127.17 275.534 128.81 275.534 130.767C275.534 132.461 277.225 134.259 278.863 134.418C280.818 134.418 282.35 132.725 282.35 130.926ZM281.505 140.132C281.505 138.598 280.395 137.487 278.705 137.487C277.172 137.222 275.798 138.439 275.798 140.132C275.798 141.667 277.172 142.937 278.44 142.937C280.237 142.937 281.346 141.667 281.505 140.132ZM279.286 152.566C278.335 152.566 277.331 155.476 277.225 159.127C277.225 162.778 277.912 165.847 278.916 165.847C280.29 165.847 280.977 162.778 281.294 159.127C281.452 155.476 280.448 152.566 279.339 152.566M281.241 148.492C281.241 147.117 280.29 146.111 278.863 146.111C277.912 146.111 276.644 146.958 276.644 148.069C276.644 149.445 277.753 150.556 278.863 150.556C280.237 150.556 281.241 149.603 281.241 148.439M264.174 162.566C265.971 164.63 267.926 165.794 268.613 165.212C269.299 164.63 267.926 162.566 266.235 160.609C264.28 158.492 262.219 157.275 261.532 157.804C261.11 158.492 262.219 160.609 264.174 162.566ZM260.423 170.82C260.423 172.09 269.035 173.466 279.444 173.889C289.853 174.048 298.571 173.307 298.571 171.773C298.571 170.503 290.117 168.968 279.55 168.863C268.982 168.598 260.423 169.55 260.423 170.82ZM308.822 156.746C308.558 154.259 306.761 152.566 304.225 152.566C301.583 152.566 299.628 154.789 299.945 157.17C299.945 159.55 302.006 161.614 304.648 161.614C307.025 161.455 308.928 159.392 308.822 156.746ZM386.44 237.751C373.653 236.64 349.824 225.635 344.381 221.72C348.133 226.323 361.448 233.73 368 236.482C355.9 235.529 342.321 229.392 334.554 225.318C346.072 239.815 367.419 241.508 386.44 237.751ZM320.657 206.64C317.487 206.905 275.429 201.773 261.691 198.439C259.208 201.667 264.755 210.873 268.507 212.672C273.368 205.423 314.158 208.916 320.71 206.693M321.186 237.064C327.685 241.508 338.939 251.402 342.426 255.635C342.849 247.275 331.489 225.371 324.937 220.926C333.814 221.191 346.178 215.9 346.284 215.741C339.89 217.117 322.982 217.699 314.528 217.011C322.982 222.461 334.078 234.577 335.769 245.741C325.201 233.466 307.712 223.73 300.262 222.037C308.98 226.217 323.299 244.207 324.25 250.767C318.016 245.741 294.714 227.487 284.834 226.376C291.068 232.778 306.92 246.323 308.293 250.08C306.497 245.476 301.372 238.386 300.262 237.117C306.391 240.45 327.051 255.794 330.908 259.55C330.644 254.365 324.25 239.868 321.186 237.117M335.346 186.27C347.288 188.069 364.196 185.582 373.653 179.021C373.653 188.651 352.677 204.259 352.413 204.259C352.677 204.259 360.18 206.64 364.882 206.905C369.902 206.905 367.366 210.397 365.147 211.931C362.769 213.889 354.579 215.159 349.718 219.445C366.785 232.99 385.119 232.143 401.763 229.762C399.808 238.968 381.368 244.683 373.706 246.482C380.628 255.106 399.227 287.91 412.013 319.392C424.642 290.397 444.614 258.175 451.589 249.392C444.086 247.699 425.487 241.455 423.955 232.09C440.598 235.159 458.775 236.429 476.158 221.349C471.297 216.905 463.107 215.212 461.152 213.254C458.775 211.561 456.555 208.069 461.575 208.069C466.277 208.069 473.78 205.953 473.78 205.953C473.78 205.953 452.962 189.762 453.385 180.132C462.685 186.693 479.592 189.868 492.538 188.492C469.078 182.619 443.293 169.392 431.088 157.804C424.694 160.714 422.898 160.873 413.334 160.714C404.616 160.291 403.084 159.762 396.691 157.064C383.904 168.334 357.855 181.032 335.346 186.058M347.974 180.873C366.837 173.36 388.659 158.281 399.438 144.471C395.528 144.736 392.939 145.053 389.61 145.582C384.485 153.519 363.403 172.778 347.974 180.873ZM353.258 171.085C360.18 168.281 376.137 153.095 380.734 146.958C379.624 146.27 377.405 146.799 377.141 146.958C371.751 153.519 356.587 168.598 353.258 171.085ZM377.246 106.799V102.619H373.653V98.9684H369.743V102.619H366.15V106.799H369.743V110.291H373.653V106.799H377.246ZM362.399 88.9685V92.6192H366.309V88.9685H369.902V84.9473H366.309V81.1907H362.399V84.9473H358.648V88.9685H362.399ZM363.086 70.2912H366.679V74.0478H370.695V70.2912H374.182V66.5346H370.695V62.8838H366.679V66.5346H363.086V70.2912ZM377.246 93.6774H380.998V97.3282H384.749V93.6774H388.342V89.9208H384.749V86.27H380.998V89.9208H377.246V93.6774ZM378.356 76.27H382.107V79.6034H385.859V76.27H389.452V72.2489H385.859V68.5981H382.107V72.2489H378.356V76.27ZM388.501 52.4076L398.91 95.2118L401.393 94.7886L394.154 51.8256L388.448 52.4076H388.501ZM401.393 103.043C400.125 103.73 400.125 108.598 401.235 113.625C402.767 119.339 404.986 123.519 406.518 123.254C408.473 122.831 408.051 117.804 406.941 112.355C405.409 107.17 403.031 102.884 401.393 102.99M406.148 50.1854L409.213 90.9261L411.696 90.5028L409.213 53.1484H414.761L420.573 53.5716L417.244 90.9261L419.886 91.0848L423.638 50.5029H414.919L406.201 50.2383L406.148 50.1854ZM415.131 43.0954C419.992 43.0954 424.008 39.1801 424.008 34.0478C424.008 29.2859 419.992 25.106 415.131 25.106C410.27 25.106 406.096 29.2859 406.096 34.0478C406.096 39.233 410.27 43.0954 415.131 43.0954ZM412.912 15.3177L411.115 23.5187H419.464L417.508 15.3177L425.117 17.9632V10.8732L417.773 12.4076L419.569 3.62454L411.221 3.62454L412.912 12.8309L405.409 10.4499V17.5399L412.912 15.3177ZM421.366 112.937C419.992 118.228 419.833 122.99 421.101 123.519C422.898 123.942 425.117 119.762 426.808 114.471C428.34 109.18 428.499 104.312 427.072 103.73C425.54 103.148 423.056 107.646 421.366 112.937ZM427.072 95.3706L429.872 95.7939L441.127 53.4129L435.579 52.4605L427.125 95.4235L427.072 95.3706ZM441.391 71.6669C441.391 74.3124 443.452 76.27 445.829 76.27C448.313 76.27 450.268 74.3124 450.268 71.6669C450.268 69.1801 448.313 67.0637 445.829 67.0637C443.452 67.0637 441.391 69.1801 441.391 71.6669ZM446.939 60.2383C446.939 62.8838 448.894 64.6827 451.219 64.6827C453.861 64.6827 455.921 62.8838 455.921 60.2383C455.921 57.7515 453.861 55.6351 451.219 55.6351C448.841 55.6351 446.939 57.7515 446.939 60.2383ZM453.015 79.3388C450.215 79.3388 448.313 81.1378 448.313 83.7833C448.313 86.27 450.268 88.2277 453.015 88.2277C455.393 88.2277 457.295 86.27 457.295 83.7833C457.295 81.1378 455.34 79.3388 453.015 79.3388ZM456.767 71.8256C456.767 74.3124 458.827 76.27 461.205 76.27C464.005 76.27 465.802 74.3124 465.802 71.8256C465.802 69.3388 464.005 67.3812 461.205 67.3812C458.827 67.3812 456.767 69.3388 456.767 71.8256ZM464.534 82.6722C462.05 82.6722 459.937 84.6298 459.937 87.2753C459.937 89.6563 461.998 91.614 464.534 91.614C467.176 91.614 468.814 89.6563 468.814 87.2753C468.814 84.6298 467.123 82.6722 464.534 82.6722ZM461.522 96.3229C461.522 93.942 459.461 91.9843 456.925 91.9843C454.283 91.9843 452.645 93.942 452.645 96.3229C452.645 98.9684 454.336 101.085 456.925 101.085C459.409 101.085 461.522 98.9684 461.522 96.3229ZM459.99 111.244C459.99 108.757 458.035 106.799 455.71 106.799C453.068 106.799 451.007 108.757 451.007 111.244C451.007 113.625 453.068 115.688 455.71 115.688C458.088 115.688 459.99 113.572 459.99 111.244ZM450.955 148.228C450.532 147.646 448.471 147.381 447.362 148.069C451.641 154.365 467.334 169.815 474.15 172.778C470.821 170.291 456.133 154.789 450.955 148.228ZM431.933 118.916C427.495 120.185 424.166 122.249 424.589 123.519C425.011 125.212 428.869 125.476 433.465 124.101C438.062 122.99 441.233 120.873 440.81 119.339C440.387 117.804 436.53 117.54 431.933 118.916ZM440.123 99.815C440.123 102.461 441.919 104.577 444.403 104.577C447.045 104.577 449.105 102.461 449.105 99.815C449.105 97.3282 447.045 95.3706 444.403 95.3706C441.919 95.3706 440.123 97.3282 440.123 99.815ZM443.874 89.0743C443.874 86.4288 441.814 84.6298 439.172 84.6298C436.688 84.6298 434.892 86.4288 434.892 89.0743C434.892 91.4552 436.688 93.5187 439.172 93.5187C441.814 93.5187 443.874 91.4552 443.874 89.0743ZM410.851 111.561C410.851 118.281 412.225 123.836 413.757 123.836C415.131 123.836 416.663 118.281 416.663 111.561C416.663 104.841 415.131 99.4446 413.757 99.4446C412.225 99.4446 410.851 105 410.851 111.561ZM414.338 78.069C413.07 78.069 412.278 79.3388 412.278 80.2912C412.278 81.561 413.123 82.6722 414.338 82.6722C415.554 82.6722 416.716 81.561 416.716 80.2912C416.716 79.3388 415.606 78.069 414.338 78.069ZM414.602 63.7304C416.399 63.7304 417.773 62.3547 417.773 60.397C417.773 58.5981 416.399 57.0637 414.602 57.0637C412.806 57.0637 411.432 58.5981 411.432 60.397C411.432 62.3547 412.806 63.7304 414.602 63.7304ZM412.119 69.9737C412.119 71.6669 413.07 72.778 414.602 72.778C415.871 72.778 417.244 71.6669 417.244 69.9737C417.244 68.5981 415.871 67.3282 414.602 67.3282C413.07 67.3282 412.119 68.5981 412.119 69.9737ZM394.471 123.519C398.91 124.894 402.82 124.894 403.084 123.254C403.771 121.879 400.442 119.603 396.162 118.069C391.565 116.693 387.814 116.799 387.444 118.228C386.757 119.921 390.35 122.249 394.524 123.519M376.718 132.037L377.405 135.265C386.863 134.154 403.348 132.196 413.916 132.884C424.853 132.884 441.391 135.106 450.955 136.482L451.641 133.413C447.732 132.143 426.649 129.233 413.916 129.233C401.816 128.651 380.892 130.926 376.718 132.037ZM449.264 143.466L450.373 140.397C446.094 139.127 426.755 136.058 413.863 135.953C401.235 135.794 381.949 137.91 377.775 139.603L378.884 142.513C388.025 140.979 402.767 139.603 413.704 139.709C425.381 139.868 439.912 141.931 449.211 143.466M413.757 147.54C420.679 147.699 424.166 147.699 424.166 145.582C424.166 143.783 419.463 144.312 413.757 144.312C408.473 144.048 404.035 143.201 403.929 145.265C403.929 147.487 407.258 147.328 413.757 147.487M401.552 153.783C403.507 154.736 407.258 155.159 413.757 155.476C420.415 155.741 424.166 155.212 426.121 154.365C428.076 153.254 425.962 151.984 422.951 152.566C420.045 153.254 417.667 153.254 414.497 153.254C410.217 153.095 407.998 152.672 405.197 152.143C401.869 151.455 399.491 152.566 401.604 153.836M477.69 181.138C462.526 172.249 445.882 156.27 439.33 146.958C435.737 146.799 431.405 146.27 428.499 145C438.908 158.545 458.775 173.413 477.69 181.138C478.219 181.455 478.747 181.826 479.275 182.09H479.962C479.223 181.826 478.43 181.402 477.69 181.138ZM468.55 191.614C469.395 195.953 475.366 202.355 481.336 206.693C477.69 209.127 473.463 212.408 472.407 213.095C475.048 211.508 481.706 208.175 485.774 207.381C483.555 205.423 472.988 197.328 472.565 193.836C497.98 195.106 567.778 194.101 577.87 191.349L578.716 191.191C578.716 189.498 578.716 188.122 576.655 188.704C574.594 189.286 504.215 195.371 468.55 191.614ZM525.35 165.106V161.614H528.678V157.593H525.35V153.836H521.334V157.593H517.741V161.614H521.334V165.106H525.35ZM518.534 141.085H522.127V144.736H525.984V141.085H529.577V137.064H525.984V133.307H522.127V137.064H518.534V141.085ZM530.581 147.54H526.988V151.72H530.581V155.212H534.332V151.72H537.925V147.54H534.332V143.889H530.581V147.54ZM539.087 130.662L543.526 153.677L545.322 153.836L543.103 131.667L539.087 130.714V130.662ZM540.461 164.683C541.729 167.752 543.526 169.868 544.635 169.445C545.586 169.021 545.217 166.111 543.526 163.148C542.258 160.08 540.461 157.963 539.51 158.386C538.665 158.968 539.087 161.614 540.461 164.683ZM536.446 164.683C534.649 162.725 532.694 161.455 531.743 162.037C531.32 162.725 532.43 164.683 534.385 166.799C536.446 168.757 538.401 169.868 539.087 169.445C539.616 168.757 538.506 166.535 536.446 164.683ZM530.475 175.159C530.475 176.429 538.929 177.646 549.761 177.646C560.592 177.646 568.518 176.376 568.518 175.159C568.518 173.942 560.17 172.672 549.761 172.672C539.352 172.672 530.475 173.942 530.475 175.159ZM554.04 134.577C554.04 132.778 552.402 131.244 550.553 131.244C548.704 131.244 547.224 132.778 547.224 134.577C547.224 136.376 548.757 138.069 550.553 138.069C552.35 138.069 554.04 136.376 554.04 134.577ZM553.512 143.889C553.512 142.196 552.138 141.085 550.606 141.085C548.915 141.085 547.806 142.196 547.806 143.889C547.806 145.582 548.915 146.535 550.606 146.535C552.138 146.535 553.512 145.582 553.512 143.889ZM549.761 156.164C548.493 156.164 547.806 159.074 547.806 162.725C547.806 166.376 548.493 169.55 549.761 169.55C550.87 169.55 551.557 166.482 551.557 162.725C551.557 158.968 550.87 156.164 549.761 156.164ZM552.402 152.143C552.402 150.767 551.451 149.921 550.342 149.921C548.968 149.921 547.964 150.767 547.964 152.143C547.964 153.254 548.915 154.259 550.342 154.259C551.451 154.259 552.402 153.307 552.402 152.143ZM551.293 125.635C554.463 125.635 556.841 122.831 556.841 119.762C556.841 116.693 554.463 113.889 551.293 113.889C548.123 113.889 545.322 116.535 545.322 119.762C545.322 122.99 547.964 125.635 551.293 125.635ZM548.07 104.418V109.445H553.776V104.418H558.796V98.8626H553.776V93.6774H548.07V98.8626H543.05V104.418H548.07ZM555.573 153.783L557.528 153.625L561.966 130.609L557.792 131.561L555.573 153.73V153.783ZM559.747 158.386C558.637 157.963 556.841 160.08 555.467 163.148C554.093 166.058 553.671 169.021 554.622 169.445C555.467 169.868 557.264 167.752 558.637 164.683C560.17 161.614 560.328 158.968 559.747 158.386ZM560.17 169.445C560.751 169.868 562.811 168.757 564.449 166.799C566.669 164.683 567.514 162.778 567.091 162.037C566.563 161.455 564.449 162.725 562.811 164.683C560.751 166.482 559.483 168.704 560.17 169.445ZM561.438 151.138C561.438 153.625 563.393 155.741 566.035 155.741C568.518 155.741 570.314 153.625 570.314 151.138C570.314 148.651 568.518 146.535 566.035 146.535C563.393 146.535 561.438 148.651 561.438 151.138ZM563.763 139.021C563.763 141.667 565.718 143.466 568.465 143.466C570.843 143.466 572.745 141.667 572.745 139.021C572.745 136.64 570.79 134.577 568.465 134.577C565.665 134.577 563.763 136.693 563.763 139.021ZM575.017 148.651C575.017 151.032 577.078 153.095 579.455 153.095C582.097 153.095 583.894 150.979 583.894 148.651C583.894 146.005 582.097 143.889 579.455 143.889C577.078 143.889 575.017 146.005 575.017 148.651ZM576.391 137.064C576.391 139.55 578.451 141.508 580.988 141.508C583.629 141.508 585.69 139.55 585.69 137.064C585.69 134.418 583.629 132.461 580.988 132.461C578.504 132.461 576.391 134.418 576.391 137.064ZM573.326 180.132L527.833 179.55V185.423C538.77 187.54 562.811 188.651 573.643 185.423L573.379 180.132H573.326ZM579.719 159.498C579.719 156.852 577.659 155.159 575.281 155.159C572.639 155.159 570.579 156.852 570.579 159.498C570.579 161.984 572.639 164.101 575.281 164.101C577.659 164.101 579.719 162.037 579.719 159.498ZM577.5 202.884C575.545 207.646 561.121 235.212 522.972 257.011C544.635 246.693 562.653 238.439 579.878 205.423C582.784 203.466 586.8 203.043 586.271 209.603C585.32 211.402 559.324 245.423 526.618 267.91C526.618 268.598 523.025 271.138 528.678 268.175C534.491 265.371 572.111 236.64 589.336 209.18C590.181 200.238 582.52 199.021 577.553 202.884M608.727 236.64C606.931 228.704 601.911 228.81 596.522 232.99C601.224 234.259 606.085 235.212 608.727 236.64ZM581.093 239.021C570.156 241.191 552.508 254.789 546.273 259.762C544.688 260.926 544.001 261.614 544.001 261.614C544.001 261.614 544.847 260.926 546.273 259.762C549.866 257.064 558.056 251.667 573.855 245C596.31 235.212 614.645 247.222 615.226 247.487C615.385 247.487 622.729 236.482 622.148 225.476C621.197 213.201 605.081 208.598 594.672 209.603C606.032 210.714 613.694 216.587 616.441 220.926C619.506 225.529 618.819 232.778 614.645 241.72C598.424 236.535 594.514 236.27 581.04 239.074M554.727 261.72C566.933 262.99 575.545 265.9 581.674 275.265C577.395 262.037 566.986 257.54 554.727 261.72ZM559.324 216.535C563.34 215 569.046 205.953 566.563 202.725C552.984 205.529 510.502 209.392 507.332 209.127C513.99 211.614 554.78 209.127 559.377 216.535M542.839 231.773C533.011 232.725 509.234 250.609 502.894 255.212C504.162 248.81 518.851 230.926 527.305 225.371C519.696 226.746 502.207 237.804 489.684 249.762C492.168 238.863 504.796 224.947 513.408 219.656C504.796 220.238 486.356 219.498 479.698 217.699C479.962 217.857 494.017 223.572 502.894 223.677C496.395 228.545 482.921 251.296 482.657 259.498C486.409 255.741 499.565 245.688 506.117 241.667C503.052 244.577 496.553 258.81 495.549 264.101C499.829 260.08 520.964 245.423 526.935 242.196C526.089 243.466 520.806 250.556 518.904 254.63C520.594 251.296 536.234 238.334 542.892 231.773M457.876 239.709C464.005 237.222 477.849 229.974 481.759 223.677C476.052 227.434 452.223 239.709 439.278 240.82C458.141 244.736 479.645 244.048 492.96 227.434C483.502 233.413 469.765 239.55 457.823 239.709M520.489 270.82C517.583 272.196 514.729 274.048 511.929 276.217C486.831 292.672 477.902 305.423 472.882 317.54C472.882 306.111 484.559 271.085 488.152 263.572C469.131 278.492 451.8 301.931 449.845 308.069C455.393 292.99 470.399 262.302 477.162 254.524C456.608 263.572 446.622 272.672 446.886 272.355C446.886 272.355 462.42 246.27 479.645 245.318L484.506 240.873C458.141 245.476 451.747 252.461 423.426 306.852C430.084 299.445 453.385 269.603 466.859 265C450.215 287.434 440.07 306.693 442.025 348.545C449.792 317.752 469.342 283.572 479.751 276.587C471.297 293.042 460.624 318.968 467.281 353.148C469.501 333.677 489.262 293.572 511.876 276.27C514.571 274.524 517.371 272.725 520.436 270.873M427.759 371.191C424.008 374.524 417.931 387.064 417.191 391.667H422.898C422.739 387.752 426.491 382.037 426.491 382.037C426.491 382.037 427.759 389.286 428.023 391.667H433.73C430.929 389.868 429.133 375.794 427.759 371.191ZM452.91 368.439C449 371.667 449 387.117 448.471 391.878L453.861 391.72C453.861 387.804 454.125 383.36 454.125 383.36C454.125 383.36 458.827 389.656 459.409 391.72H464.957C462.05 390.027 454.283 373.043 452.91 368.439ZM483.555 341.508C484.506 351.984 497.874 364.259 504.902 367.328C499.512 368.439 495.074 369.709 489.632 365.529C490.16 372.513 489.473 380.291 490.9 381.984C484.771 375.265 474.256 364.577 473.569 356.323C470.504 362.302 470.504 376.535 471.086 378.334C465.696 370.503 454.283 355.053 453.438 344.736C443.874 355.053 438.749 369.815 438.749 374.154C435.156 356.852 433.201 343.36 434.152 339.55C424.694 353.095 418.882 367.17 418.882 365.371C420.256 342.619 425.962 315.053 433.201 306.799C420.732 313.889 413.757 339.55 414.602 383.519C417.931 374.577 426.544 361.349 431.141 358.122C431.986 367.169 433.941 385.318 441.708 390.873C442.659 382.09 444.191 361.296 452.381 356.164C453.491 366.058 472.248 387.699 478.589 391.191C477.479 386.005 475.947 375.159 477.902 373.625C485.827 385.9 494.281 391.773 500.939 391.878C494.546 383.254 494.017 377.804 494.81 372.937C502.418 373.783 516.579 370.027 521.176 364.577C514.677 364.841 489.684 358.281 483.555 341.561M508.706 634.365C524.821 638.545 537.872 640.926 544.635 644.841C543.949 638.545 543.262 633.413 539.616 629.498C555.995 634.789 565.295 642.196 569.575 647.064C564.714 633.095 561.121 619.18 523.659 610.503C529.207 613.307 546.432 617.751 550.976 626.958C535.864 620.291 527.78 618.439 521.44 621.667C530.475 628.757 531.69 630.714 531.426 632.672C521.704 630.027 513.408 630.714 508.653 634.365M576.126 666.693C571.424 661.402 569.469 658.175 563.34 655.265C563.604 660.556 562.759 664.736 560.539 669.233C558.056 664.789 551.399 656.429 550.976 655.688C554.727 663.624 558.584 677.328 559.166 681.349C562.759 676.482 565.295 670.609 567.197 664.736C569.68 665.688 576.761 673.519 579.984 677.275C581.093 670.609 582.361 653.148 577.078 641.72C577.923 649.815 577.5 663.889 576.126 666.693ZM568.888 625.265C602.334 636.958 580.671 677.54 586.8 685.794C583.207 685.953 575.545 681.455 569.469 673.095C567.091 677.963 564.449 686.217 562.653 698.069C560.17 696.958 556.841 692.513 553.618 685.371C550.448 686.746 543.209 692.46 539.616 699.445C540.039 693.572 536.446 682.566 532.694 678.228C531.003 682.831 529.207 690.503 524.504 696.217C522.021 694.101 521.44 687.434 520.753 677.275C519.643 678.81 517.847 683.413 513.25 688.704C513.25 682.725 510.767 674.207 501.573 663.889C511.982 680.609 510.027 696.376 493.806 705.318C509.499 707.963 512.563 706.429 517.107 691.085C518.375 694.312 517.107 707.275 523.236 715.635C527.939 710.873 530.475 701.296 533.064 690.238C533.909 694.154 533.909 706.693 537.502 717.593C540.144 709.233 544.847 702.09 551.663 691.085C554.992 698.175 559.853 703.095 567.62 708.651C565.823 704.312 568.201 689.974 571.371 682.566C579.402 689.974 585.532 694.841 598.001 694.259C578.716 689.921 612.426 631.773 568.835 625.212M539.51 738.386C534.226 736.27 520.753 733.095 518.27 732.249C518.956 729.18 519.221 723.889 516.473 723.307C513.408 726.376 510.767 734.312 514.518 736.852C519.908 737.963 536.181 739.233 539.51 738.386ZM548.651 674.788C549.761 657.646 535.864 644.683 502.154 637.54C522.021 648.545 534.649 653.572 537.819 663.043C522.021 655.794 485.246 650.08 472.301 655.635C491.428 652.725 534.596 661.349 548.651 674.736M455.551 658.915C466.383 651.826 479.962 642.46 511.084 649.18C489.42 641.667 481.125 634.418 455.551 658.915ZM458.299 638.81L452.487 639.074C447.362 652.619 436.371 668.651 430.401 680.238C445.671 666.005 454.125 648.598 458.299 638.81ZM440.281 686.217C437.481 694.471 438.908 711.191 440.81 712.302C436.9 709.815 430.137 700.714 430.137 700.291C432.197 710.344 438.062 725.265 458.193 724.577C453.491 723.466 436.953 702.249 440.281 686.217ZM477.849 838.81L483.555 838.122L484.506 829.074L478.694 827.117C478.694 830.767 479.962 833.095 477.849 838.81ZM518.956 810.344C522.021 808.386 526.882 810.926 536.974 814.788C531.162 810.873 490.741 773.519 479.223 766.005C517.107 799.868 516.579 827.064 517.53 839.339C522.655 834.894 522.655 821.508 518.904 810.344M430.665 727.064C438.855 743.36 474.679 773.519 482.974 784.683C491.428 796.111 475.894 813.677 468.814 811.032C478.377 823.307 487.412 830.714 501.679 826.376C507.649 846.587 459.356 835.423 464.904 862.09C491.956 849.55 492.538 871.032 504.743 869.762C517.107 868.492 529.154 864.312 537.502 832.937C542.786 836.693 550.976 848.545 552.191 852.884C556.788 842.143 568.148 819.127 544.001 802.408C557.898 792.249 560.804 780.238 547.911 771.191C545.269 780.238 533.487 792.249 515.046 778.281C496.448 764.471 482.974 756.27 476.211 756.27C488.311 764.471 511.348 784.577 524.504 787.804C537.714 791.561 544.9 787.804 548.651 786.429C545.851 795.794 540.039 801.349 533.54 803.307C545.322 812.249 554.886 822.143 548.387 832.196C541.571 824.101 533.54 821.614 529.947 823.413C525.35 847.54 513.831 868.598 499.565 859.55C485.669 850.503 484.876 849.921 483.344 849.921C495.814 847.54 515.099 847.54 506.223 816.852C494.546 821.614 485.827 819.497 480.808 813.783C489.526 806.111 496.5 791.032 490.266 785.212C483.608 778.81 432.514 731.402 430.718 727.222M432.62 856.64C434.681 849.815 430.929 831.138 428.023 825.265C427.865 833.095 427.336 852.884 424.853 858.016L432.62 856.64ZM476.739 863.042L470.504 862.09C458.563 874.101 442.87 881.191 432.461 871.138C444.667 864.418 454.812 852.302 448.418 831.826C441.602 811.455 417.456 740.344 416.927 739.392C420.256 764.471 438.168 813.73 442.448 830.714C446.622 847.17 439.964 869.498 415.818 860.556C424.536 875.9 446.358 899.18 476.739 863.042ZM470.399 801.826L475.947 801.984C469.818 785.953 441.233 765.741 422.264 726.376C423.373 745.9 453.649 777.699 470.399 801.826ZM454.283 860.661C466.383 831.085 468.866 819.392 443.716 785.212C453.015 806.534 465.062 828.863 454.283 860.661ZM439.436 638.545L433.73 638.81C430.401 657.646 418.46 680.926 412.753 689.974C426.068 674.471 438.696 642.408 439.383 638.492M409.583 731.667C417.191 723.413 427.336 691.773 427.336 687.064L421.63 687.751C420.679 699.021 412.595 725.847 409.53 731.667M421.683 877.963L417.667 871.667C415.025 876.693 409.213 882.672 404.775 886.429C400.336 883.201 394.366 876.799 391.882 871.667L388.131 877.963C387.867 877.963 397.589 890.926 404.775 895C411.696 890.82 421.683 877.963 421.683 877.963ZM382.107 822.46C379.466 828.175 375.027 847.011 376.824 853.572L384.432 855.265C382.055 849.815 382.055 830.185 382.055 822.513M393.362 859.286C369.374 867.646 363.086 843.942 367.947 827.064C372.385 810.873 391.671 761.773 395.687 736.852C394.841 737.963 368.74 808.122 361.976 828.333C354.632 848.545 364.618 861.085 376.824 868.228C366.151 877.857 350.458 870.185 338.675 858.175L332.546 858.757C362.082 895.847 384.591 874.259 393.309 859.339M331.489 822.778L325.783 825L326.311 833.942L332.017 834.788C330.221 828.915 331.436 826.429 331.436 822.778M293.605 805.053C289.695 816.323 289.166 829.021 294.133 834.206C295.401 821.931 295.507 794.894 332.704 761.826C321.027 769.074 281.505 805.318 275.376 809.233C285.785 805.318 290.382 803.095 293.552 805.053M344.804 858.439C350.616 831.667 303.855 841.72 310.248 821.508C323.035 825.847 332.018 819.127 341.74 807.169C334.659 809.656 319.812 791.561 328.425 780.556C337.143 769.55 373.653 740.238 382.107 724.471C380.311 728.386 328.002 774.418 321.186 780.556C316.748 786.534 321.186 801.455 329.64 809.709C324.515 814.894 317.434 817.117 305.916 811.826C296.616 842.513 315.744 843.042 326.311 845.423C324.779 845.423 324.25 846.005 311.728 854.788C297.303 863.307 286.63 842.249 282.033 817.963C278.705 816.164 270.356 818.386 263.593 826.323C257.094 816.164 266.763 806.111 279.022 797.593C272.628 795.37 267.239 789.762 264.333 780.291C268.084 781.826 275.693 785.847 288.638 782.672C301.953 779.603 323.722 760.079 335.98 751.984C329.059 751.984 317.382 760.079 298.096 773.042C279.497 786.587 267.979 774.312 265.601 765.212C252.127 773.73 255.192 786.005 268.507 796.746C244.096 812.778 255.033 836.058 259.472 846.693C260.74 842.778 268.613 830.82 274.583 827.011C281.928 858.81 293.605 863.254 306.339 864.683C317.857 866.376 318.121 844.736 344.804 858.545M383.376 697.381C383.376 698.069 376.454 706.746 372.438 709.074C374.393 707.963 376.454 691.244 373.389 682.884C376.718 699.339 359.651 720.132 355.055 721.244C375.027 722.09 380.998 707.275 383.376 697.381ZM401.129 687.487C395.581 678.439 384.485 654.841 381.579 635.635L375.873 635.212C376.401 639.233 388.078 671.773 401.129 687.487ZM390.561 723.466C371.012 762.513 341.423 782.196 335.188 798.069L340.577 797.91C357.802 774.206 389.029 743.254 390.509 723.466M367.947 782.037C341.74 815.37 344.064 827.064 355.16 857.222C345.016 825 357.644 803.095 367.947 782.037ZM403.507 729.339C400.601 723.36 392.939 696.27 392.147 685.265L386.599 684.154C386.44 689.021 395.739 720.82 403.507 729.339ZM406.518 714.259C406.941 714.524 408.473 705.476 409.002 698.228L404.563 697.646C405.092 704.736 406.518 714.101 406.518 714.259ZM403.929 736.693C402.133 770.45 404.775 852.884 405.303 853.254C405.567 853.519 409.741 769.868 409.055 736.27L403.929 736.693ZM383.481 677.328C378.092 665.741 367.366 649.286 362.663 635.635L356.957 635.212C360.867 644.841 368.74 662.831 383.481 677.328ZM359.07 655.106C334.078 630.027 325.783 636.958 305.757 644.101C335.029 637.963 348.503 648.016 359.07 655.106ZM342.426 651.508C329.534 645.953 294.292 650.556 278.335 657.222C281.928 647.857 294.714 643.413 314.845 632.672C280.871 638.81 266.816 651.773 267.397 668.651C281.98 655.847 323.616 648.281 342.479 651.508M314.951 659.445C305.229 669.233 302.587 677.699 302.587 683.836C297.885 678.281 296.194 673.519 295.348 671.72C294.08 682.196 293.393 688.757 291.068 690.82C286.63 685.106 284.834 677.593 283.301 672.672C279.391 676.693 275.693 687.751 275.693 695.688C272.364 687.064 265.284 680.767 262.219 679.233C258.732 686.482 255.298 690.82 253.078 691.773C251.388 680.079 248.904 671.561 246.685 666.693C240.292 674.947 232.525 679.233 228.932 678.81C235.166 670.556 215.194 629.445 248.482 618.545C205.049 624.259 237.227 683.254 217.836 687.011C230.2 687.699 236.593 683.254 244.36 676.005C247.689 683.413 249.485 697.646 247.425 702.249C255.35 696.799 260.476 691.931 263.963 685.212C270.462 696.111 275.217 703.36 277.701 711.72C281.294 700.979 281.611 688.439 282.72 684.683C284.939 695.688 287.159 705.476 291.861 710.344C297.99 702.249 297.145 689.021 298.096 685.953C302.798 701.032 305.704 703.095 321.714 700.714C305.335 691.508 304.067 675.476 315.057 659.445M298.043 718.175C295.56 718.175 295.56 723.889 296.247 726.958C293.763 727.91 280.131 730.979 274.9 732.513C278.229 733.624 294.344 732.355 299.892 731.667C303.908 729.286 301.425 721.349 298.096 718.122M239.71 635.053C234.427 646.058 235.114 663.942 235.959 670.344C239.129 666.693 246.527 659.445 249.168 658.492C250.859 664.207 253.184 670.344 256.513 674.947C257.094 671.032 261.638 657.222 265.548 649.55C264.861 650.238 258.204 658.492 255.72 663.095C253.343 658.492 253.078 654.048 253.237 649.127C247.002 651.508 245.311 654.841 240.345 660.291C238.654 657.222 239.076 643.413 239.816 635.053M246.949 640.503C251.388 635.741 261.11 628.81 277.595 623.783C273.843 627.699 272.998 632.566 272.311 639.127C278.81 635.106 292.284 633.148 308.399 629.498C303.802 625.741 295.348 624.736 285.626 627.275C285.204 625.318 286.736 623.36 295.771 616.376C289.8 613.042 281.346 614.683 266.499 620.979C270.937 611.773 288.268 608.016 294.133 605.106C256.249 612.778 252.074 626.852 246.949 640.503ZM230.57 179.339C219.051 174.577 206.423 167.328 217.783 141.667C228.879 116.164 235.114 94.1007 216.673 98.4394C198.233 102.619 162.251 115.847 148.672 118.651C134.934 121.455 132.133 134.683 140.746 144.471C149.2 154.365 158.394 163.572 127.431 170.132C133.137 170.291 142.701 171.508 147.562 167.328C152.951 163.148 160.877 156.058 145.607 140.291C130.496 124.789 155.435 122.302 162.251 120.609C169.331 119.339 193.478 109.445 205.683 106.376C217.889 103.572 227.347 99.7092 217.889 123.677C209.012 147.646 202.46 164.841 218.311 176.958L230.517 179.339H230.57ZM162.832 173.995C162.674 185.688 147.562 186.27 152.582 202.99C153.268 191.138 168.961 187.487 162.832 173.995ZM598.477 184.365L610.682 182.143C626.903 170.873 620.827 153.572 612.479 129.286C603.761 104.894 613.06 108.916 624.948 112.143C637.154 115.371 661.195 126.111 668.222 127.487C674.721 129.286 699.713 132.513 683.915 147.593C668.486 162.937 676.306 170.344 681.273 174.63C686.293 178.968 695.962 177.857 701.827 177.857C670.864 170.609 680.48 161.244 689.04 151.931C697.917 142.302 695.433 129.339 681.801 126.111C668.222 122.884 632.557 108.386 614.222 103.677C595.888 99.0743 601.436 121.244 612.162 147.064C622.729 173.307 609.942 179.815 598.424 184.418M666.056 180.873C659.927 194.101 675.091 198.175 675.619 210.132C680.745 193.254 666.056 192.566 666.056 180.873ZM517.583 532.249L517.741 535.741C527.992 537.117 533.54 534.048 540.356 522.513C545.375 531.032 549.232 534.789 560.909 537.275C571.054 531.826 572.692 526.27 574.383 521.931C578.557 528.915 582.837 533.201 596.046 533.783C601.33 528.228 608.833 523.73 609.361 515.371C617.128 520.238 624.367 523.466 631.817 520.238C635.991 513.413 637.524 508.386 637.946 501.561C647.774 505.476 658.183 507.434 663.203 503.677C667.377 493.36 668.486 485.688 667.377 478.598C680.85 478.439 690.414 472.725 692.21 466.905C692.21 459.656 689.833 451.296 688.195 448.333C700.4 442.884 703.623 436.905 704.997 433.677C703.306 426.693 701.087 419.339 697.917 415.688C705.261 412.196 713.187 405.635 715.565 396.852C711.972 388.069 706.424 382.196 701.985 378.281C710.334 368.651 717.097 355.688 714.878 350.503C712.659 345.212 699.185 338.916 693.637 340.185C706.529 328.492 712.394 312.408 708.484 307.117C704.997 301.826 686.134 303.201 681.432 305.423C690.467 290.662 696.015 278.228 688.248 254.524C688.934 273.889 692.422 298.334 652.582 327.593C663.678 320.185 689.199 301.773 703.676 310.556C705.05 322.566 693.003 338.598 667.324 353.519C684.126 345.159 693.531 339.445 709.805 352.408C706.476 371.085 698.551 376.693 677.627 381.296C691.788 379.498 698.181 376.693 710.386 398.598C700.664 413.095 690.52 415.318 674.298 414.101C689.991 414.789 696.226 417.434 700.242 432.778C690.255 447.275 680.956 445.741 666.637 441.402C682.594 446.587 687.032 451.561 687.455 464.947C673.717 477.751 666.637 474.418 653.85 466.905C662.304 475.423 666.637 481.561 659.662 499.656C643.441 502.884 637.999 498.386 628.171 483.466C633.191 496.27 636.89 504.101 628.753 515.794C612.373 516.376 608.78 509.815 602.123 497.963C605.715 511.349 608.252 518.598 594.778 529.339C582.995 527.963 576.866 522.09 572.586 508.281C572.322 526.005 567.197 530.027 560.117 532.831C547.33 528.651 544.318 521.667 542.205 510.08C535.706 526.693 526.776 534.63 517.794 532.09M529.101 493.625C528.15 496.958 522.444 515.794 522.285 518.333C521.44 520.714 525.35 521.244 525.614 518.757C526.142 515.953 532.43 494.63 532.43 494.63C533.117 492.143 529.365 490.291 529.101 493.677M559.324 491.402C559.324 488.757 555.414 488.175 555.573 491.561C555.995 494.63 555.995 514.154 556.154 516.64C556.154 519.709 559.905 519.021 559.641 516.058C559.641 513.836 559.377 491.402 559.377 491.402M590.287 512.037C589.6 509.55 584.581 487.646 584.581 487.646C583.999 485 579.984 485.423 581.093 488.757C581.78 491.561 586.113 510.767 587.064 513.307C587.645 515.953 590.974 514.577 590.234 512.037M622.201 500.344C620.404 497.699 610.682 479.868 610.682 479.868C609.414 477.751 606.244 479.709 608.04 481.984C609.308 484.207 617.762 500.397 619.031 502.355C620.404 504.312 623.469 502.355 622.201 500.397M603.074 432.831C602.492 434.365 619.717 445.106 618.502 441.455C617.657 437.963 604.342 427.117 603.074 432.831ZM607.618 408.016C608.146 409.815 630.126 408.968 627.485 406.746C624.42 404.789 606.138 403.519 607.618 408.016ZM619.823 377.328C617.023 376.058 600.802 379.55 603.602 383.466C604.289 385.159 622.888 378.598 619.823 377.328ZM523.659 477.328C526.829 480.132 530.581 488.916 530.475 488.757C530.475 488.333 537.819 484.418 542.152 483.466C546.168 482.196 550.183 481.085 551.716 476.058C552.402 480.397 553.512 482.196 557.95 483.466C562.125 484.577 569.046 490.714 568.888 490.714C568.465 490.714 573.907 483.624 577.078 480.926C579.984 477.857 583.207 476.482 582.467 471.032C584.95 474.789 587.592 475.371 592.189 475.371C597.209 475.371 605.504 478.598 604.976 478.598C604.976 478.598 607.353 470.344 609.256 466.587C611.211 462.566 612.162 460.873 609.942 456.535C615.068 459.868 616.441 458.651 621.461 457.117C626.481 455.582 635.886 455.159 635.463 455.318C635.463 455.318 635.463 443.995 635.621 437.751C636.203 431.191 634.67 429.921 629.809 425.212C634.67 425.212 637.841 424.101 641.064 419.339C644.551 414.471 651.895 407.752 651.895 408.069C651.895 408.492 645.396 400.979 642.332 396.217C639.162 391.191 637.471 389.127 631.764 389.921C636.784 387.434 639.109 385.159 639.531 379.021C639.954 373.307 643.547 363.836 643.547 364.259C643.547 364.524 630.655 358.968 629.809 358.281C628.541 357.169 624.42 355.794 622.042 355.212C635.938 340.291 643.389 321.614 645.344 299.709L644.815 298.439C643.283 324.524 624.261 352.672 601.806 369.709C607.618 365.106 618.344 358.281 623.31 360.767C628.013 363.572 637.207 367.17 637.207 366.746C637.207 366.588 634.406 376.376 633.878 381.931C633.455 387.117 620.827 391.296 613.06 393.624C620.404 391.667 633.032 390.397 635.938 395C639.531 399.445 645.766 406.693 645.766 406.693C645.925 406.535 639.531 413.783 636.203 418.704C633.032 423.307 620.404 421.931 613.747 420.238C622.201 423.995 632.504 431.138 631.923 436.693C631.764 442.408 631.923 451.878 632.081 451.614C632.504 451.455 622.782 453.307 617.234 454.683C611.845 456.482 603.074 447.275 598.371 442.143C603.074 447.857 609.044 457.064 606.984 461.244C605.187 465.265 602.545 473.942 602.545 473.942C602.968 473.942 594.091 471.826 589.072 471.561C584.369 471.561 579.931 460.82 577.13 454.683C579.191 461.773 581.305 472.672 577.395 475.9C573.907 478.968 567.831 485.106 568.254 485.106C568.254 485.688 561.173 480.344 556.894 478.386C552.455 475.9 552.614 464.418 552.984 458.598C552.297 466.27 549.391 477.169 544.635 478.386C540.197 479.656 531.849 483.148 531.849 483.148C531.849 483.413 527.939 475.9 524.769 471.826C521.968 467.804 526.724 457.751 530.052 452.143C529.788 452.566 522.021 462.302 520.911 466.905C519.643 471.508 520.753 474.577 523.712 477.222M540.197 397.011C538.242 409.021 531.056 413.466 523.659 417.646C540.303 416.27 547.964 398.704 544.054 390.45C540.144 393.095 530.475 398.704 523.659 399.921C527.41 401.878 535.442 399.498 540.197 397.011ZM535.177 472.196C537.661 470.397 542.786 455.582 538.242 455.9C536.446 455.9 532.694 474.154 535.177 472.196ZM568.201 473.413C569.469 470.609 567.091 455.159 563.181 457.54C561.491 458.386 566.933 476.111 568.201 473.413ZM597.473 462.408C597.737 459.339 590.815 445.371 587.645 449.021C586.535 450.291 597.103 465.318 597.473 462.408ZM592.665 365.053C592.665 364.101 615.86 335.635 623.469 329.762C617.762 331.138 589.759 360.556 588.385 362.831C586.853 365.053 583.788 366.587 588.121 369.127C592.295 371.614 592.717 365.9 592.717 365.106M678.103 365.476C680.586 364.789 679.054 361.296 676.57 362.249C674.087 363.201 653.005 369.656 653.005 369.656C650.099 370.344 650.944 374.259 653.85 372.99C656.915 372.037 675.619 366.587 678.156 365.476M654.379 400.609C657.549 400.344 677.152 400.344 679.899 400.027C682.541 400.027 681.854 396.693 679.054 396.693C676.571 396.852 654.379 396.852 654.379 396.852C651.578 396.852 651.209 400.873 654.379 400.609ZM675.091 429.762C677.574 430.185 677.574 426.429 675.091 426.111C672.291 425.847 650.416 422.46 650.416 422.46C647.774 421.878 646.665 425.794 649.993 426.111C653.163 426.376 672.344 429.339 675.091 429.762ZM647.721 481.085C645.766 479.127 629.281 461.984 629.281 461.984C627.485 460.027 624.261 462.408 626.216 464.471C628.7 466.852 643.547 482.196 645.238 483.836C646.876 485.794 649.412 483.148 647.721 481.032M663.572 458.651C665.95 459.921 667.165 456.429 664.682 455.318C662.199 454.365 642.755 444.154 642.755 444.154C640.271 442.884 637.735 446.376 640.958 447.381C644.023 449.074 661.195 457.857 663.572 458.651ZM648.989 347.064C651.367 345.371 673.559 333.095 675.936 331.72C678.156 330.027 675.936 327.381 673.559 329.074C671.498 330.027 646.929 343.995 646.929 343.995C644.709 345.265 646.506 348.439 648.989 347.064ZM654.273 312.09C657.602 309.868 678.684 288.81 679.952 274.577C675.355 285.053 659.293 302.884 651.895 308.439C648.408 311.931 650.627 314.577 654.273 312.09ZM698.498 263.572L701.298 269.974C714.508 256.429 741.138 223.677 742.934 214.63C738.76 222.725 710.175 254.63 698.551 263.572M703.518 242.196C716.727 232.46 755.404 194.101 761.533 180.291C761.375 205.371 733.793 241.508 716.991 262.037C737.545 242.09 781.083 197.752 768.085 156.587C765.707 162.99 729.514 214.577 703.57 242.196M711.443 299.815L712.711 306.64C728.246 295.741 760.846 271.508 763.911 262.99C758.363 270.397 724.23 293.677 711.443 299.815ZM719.21 282.778C733.371 277.064 770.568 255.582 779.445 244.577C773.052 267.169 747.373 288.651 727.559 303.307C750.596 290.08 792.919 264.841 791.122 225.371C787.212 230.132 749.222 263.73 719.263 282.831M731.416 314.154C748.06 306.482 774.848 295.582 787.212 295.741C783.302 308.545 752.392 331.296 739.764 339.656C762.643 329.868 794.292 308.545 800.686 287.064C776.803 284.577 750.173 300.873 731.416 314.101M741.402 353.201C758.891 347.91 787.054 340.926 799.153 342.884C793.605 354.894 758.099 370.344 744.202 376.746C768.085 370.344 804.279 356.376 813.842 336.164C790.224 329.868 761.956 342.884 741.402 353.201ZM745.576 387.646C763.594 388.069 785.838 387.804 796.776 393.783C787.212 403.148 755.14 410.503 740.451 412.355C765.126 413.889 796.089 408.016 811.359 391.878C790.805 378.916 768.085 384.365 745.576 387.699M739.764 422.09C758.099 424.471 779.445 429.18 789.59 436.058C779.604 444.577 753.925 445.953 739.236 446.376C764.228 451.244 785.31 451.931 801.848 435.106C783.249 420.027 762.696 420.873 739.817 422.143M738.232 454.048C754.453 461.878 768.085 469.656 775.852 479.127C763.911 484.154 742.987 479.709 728.51 475.371C750.596 487.646 765.813 494.207 787.054 483.625C776.38 461.878 760.106 460.08 738.179 454.048M743.621 511.508C736.277 504.947 718.629 492.408 704.046 482.619L700.03 488.333C716.568 498.069 733.899 507.699 743.621 511.508ZM724.758 483.625C739.183 494.63 753.607 506.799 751.705 516.111C742.247 522.513 722.275 511.508 709.383 504.259C729.249 520.979 743.251 531.984 762.696 523.201C762.167 504.259 745.365 494.207 724.811 483.572M715.459 455.582L712.658 461.984C730.676 468.704 753.607 474.683 764.122 476.482C755.668 471.455 731.944 462.513 715.406 455.582M771.784 304.683C765.126 310.662 731.944 329.392 717.942 333.572L719.897 340.397C736.964 332.46 767.24 312.513 771.784 304.683ZM783.989 349.709C775.799 352.196 736.383 362.513 722.222 365.053L723.596 371.72C741.93 366.693 775.799 355.529 783.936 349.709M722.116 428.545L721.007 435.529C739.764 437.328 763.911 437.328 774.32 436.217C764.598 433.148 739.764 431.032 722.116 428.545ZM725.973 404.789C744.731 402.302 772.206 398.651 782.034 395.423C772.153 394.841 743.199 396.27 725.287 397.804L725.973 404.789ZM683.281 504.947L677.891 509.286C690.942 523.254 705.79 536.058 714.244 542.355C708.96 533.836 694.799 518.492 683.281 505M701.88 512.196C713.24 526.164 724.071 539.656 720.478 548.598C709.647 552.778 696.754 535.053 685.659 525.582C701.88 545.794 708.114 562.143 728.827 557.646C731.997 538.545 719.686 526.429 701.88 512.196ZM656.756 523.466L650.099 526.111C658.289 543.254 668.962 555.953 674.774 564.312C672.555 554.683 663.414 539.762 656.756 523.466ZM673.559 532.672C680.639 549.55 685.659 564.894 679.371 572.143C668.275 572.566 656.915 554.577 649.095 541.72C658.236 566.27 663.52 581.032 684.496 582.99C693.531 566.27 685.764 551.878 673.559 532.672ZM630.655 576.058C631.077 566.323 626.216 555.265 624.261 537.857L617.181 538.439C620.351 557.117 627.326 566.323 630.655 576.111M635.938 544.841C638.158 562.99 641.064 579.286 633.138 585.159C622.042 582.937 615.226 562.99 610.946 548.915C613.747 574.736 615.966 587.699 635.938 594.683C648.989 581.032 642.86 566.799 635.938 544.894M581.833 573.836C583.788 564.365 585.584 559.603 586.853 542.196L579.931 541.085C579.508 560.344 580.089 563.677 581.886 573.836M595.412 548.598C593.88 566.746 595.148 574.788 583.629 581.667C569.469 572.619 571.582 562.143 570.314 547.064C567.25 573.413 563.234 580.397 584.052 591.826C602.492 579.021 597.526 571.191 595.412 548.598ZM609.731 747.751C623.733 751.508 634.301 746.64 641.486 740.238L639.69 738.704C631.764 745.794 619.717 747.222 609.731 747.751ZM642.755 713.677C642.755 710.185 639.954 707.54 636.625 707.54C633.297 707.54 630.655 710.185 630.655 713.677C630.655 717.169 633.455 719.815 636.625 719.815C639.796 719.815 642.755 717.011 642.755 713.677ZM635.516 695.582L677.152 695L678.261 655.794C661.353 651.349 637.894 677.275 635.516 695.529M670.653 718.175C673.981 718.175 676.782 715.371 676.782 712.196C676.782 708.704 673.981 706.058 670.653 706.058C667.324 706.058 664.682 708.704 664.682 712.196C664.682 715.423 667.482 718.175 670.653 718.175ZM654.273 719.021C657.443 719.021 660.244 716.217 660.244 712.884C660.244 709.55 657.443 706.587 654.273 706.587C651.103 706.587 648.144 709.392 648.144 712.884C648.144 716.376 650.944 719.021 654.273 719.021ZM640.218 724.841C643.547 733.466 651.314 745.212 662.41 749.127L664.365 745.9C655.066 739.921 649.095 732.937 647.14 728.333C670.177 727.381 709.594 728.915 721.641 731.244C721.482 731.244 720.954 734.894 717.889 737.381L720.267 740.609C722.063 738.81 726.925 733.519 729.144 728.598C701.827 723.413 664.312 722.725 640.165 724.841M693.109 663.095C693.109 659.868 690.308 657.117 686.98 657.117C683.651 657.117 680.85 659.921 680.85 663.095C680.85 666.27 683.651 669.233 686.98 669.233C690.308 669.233 693.109 666.429 693.109 663.095ZM680.48 711.773C680.48 715.106 683.122 718.069 686.61 718.069C690.097 718.069 692.739 715.159 692.739 711.773C692.739 708.386 689.938 705.476 686.61 705.476C683.281 705.476 680.48 708.281 680.48 711.773ZM686.028 684.841C689.621 684.841 692.422 682.037 692.422 678.863C692.422 675.688 689.621 672.725 686.028 672.725C682.7 672.725 679.899 675.529 679.899 678.863C679.899 682.196 682.7 684.841 686.028 684.841ZM679.794 693.783C679.794 697.275 682.594 699.921 685.923 699.921C689.251 699.921 691.893 697.275 691.893 693.783C691.893 690.291 689.251 687.804 685.923 687.804C682.594 687.804 679.794 690.45 679.794 693.783ZM683.386 639.392L679.371 650.979H693.109L689.938 639.656L703.518 641.773V630.079L690.889 632.884L693.69 622.143H680.533L683.017 632.46L669.543 629.656V642.884L683.439 639.392H683.386ZM702.831 706.323C699.502 706.323 696.596 709.127 696.596 712.46C696.596 715.794 699.502 718.598 702.831 718.598C706.16 718.598 708.801 715.794 708.801 712.46C708.801 709.127 706.001 706.323 702.831 706.323ZM718.946 708.281C715.776 708.281 712.817 711.191 712.817 714.577C712.817 717.963 715.723 720.714 718.946 720.714C722.169 720.714 725.181 718.069 725.181 714.577C725.181 711.085 722.275 708.281 718.946 708.281ZM696.173 696.111L737.651 700.291C736.964 681.878 716.304 653.148 697.97 655.688L696.173 696.111ZM735.273 710.238C732.103 710.238 729.302 713.042 729.302 716.217C729.302 719.709 732.103 722.513 735.273 722.513C738.443 722.513 741.402 719.709 741.402 716.217C741.402 712.99 738.602 710.238 735.273 710.238ZM715.3 739.921C711.972 735.053 710.704 732.249 705.05 732.408C707.533 734.789 708.96 737.169 708.114 740.238C702.567 742.725 700.506 747.222 699.66 751.667C695.909 753.889 687.878 757.54 688.565 754.471C689.41 751.984 691.629 744.154 681.749 739.392C679.107 734.788 677.152 732.302 673.03 731.72C675.091 733.836 675.091 736.905 674.14 739.392C669.12 741.614 663.889 747.751 666.531 754.154C664.841 759.339 661.67 760.556 659.293 758.175C656.387 756.217 652.212 757.593 652.212 755.529C651.631 753.73 654.273 750.344 654.273 750.344C654.273 750.344 648.989 746.587 648.567 746.587C648.567 749.656 647.88 753.677 646.506 753.677C644.71 753.677 636.942 752.831 636.942 755.476C636.942 758.122 659.293 758.81 657.074 762.037C655.118 765.688 639.743 760.662 639.743 762.884C639.743 765.37 651.948 768.439 653.903 770.979C655.858 773.624 660.138 771.667 659.451 769.709C658.764 767.751 660.719 765.106 663.467 764.683C666.109 764.101 663.203 764.418 664.735 761.878C666.109 759.497 672.925 763.148 674.457 761.191C675.989 759.233 672.925 757.434 672.925 757.169C672.925 757.434 680.85 749.762 670.283 750.609C671.551 737.064 694.271 744.894 681.801 759.392C677.205 761.349 666.954 767.91 666.003 770.82C664.471 773.624 655.171 778.228 649.095 777.222C642.279 776.111 617.71 763.677 617.34 763.254C616.759 763.677 637.999 779.127 644.815 779.709C651.473 780.397 662.304 780.397 672.978 772.884C678.948 772.725 690.203 772.196 696.173 767.434C702.408 762.831 704.627 761.138 710.175 759.18C715.459 756.799 722.275 751.349 715.459 739.815M197.546 744.101C197.546 744.101 180.321 745.794 175.777 743.254C171.18 740.609 165.21 733.466 165.21 733.466C170.335 746.429 174.509 746.005 181.854 746.005C189.198 746.005 197.546 744.048 197.546 744.048M196.859 756.376C193.372 755.953 177.996 763.36 169.384 773.095C176.2 767.54 193.531 756.376 196.859 756.376ZM162.304 760.132C163.994 758.598 172.448 758.757 172.131 756.217C171.867 753.73 163.942 756.799 162.304 754.101C160.666 751.614 149.94 739.18 152.053 736.693C154.431 734.206 157.178 729.603 152.634 730.132C148.038 730.979 146.505 728.863 146.505 728.863C146.505 728.863 149.993 725.794 148.038 725.106C145.396 724.524 144.445 728.863 141.644 729.55C145.924 732.355 146.241 736.64 142.754 739.286C139.584 742.09 134.723 742.619 132.768 736.217C130.548 730.503 129.703 730.503 137.629 723.942C144.973 717.646 146.505 715.318 145.66 715.318C145.237 715.318 139.002 717.011 136.202 718.968C128.699 724.841 122.306 730.979 132.186 743.254C126.797 745.741 119.717 750.238 117.075 726.376C115.12 728.863 114.169 733.624 114.591 733.466C114.591 733.466 117.497 732.355 116.546 734.841C115.86 737.91 110.576 743.201 113.482 744.577C116.388 746.535 120.721 748.915 122.517 747.804C124.049 747.117 124.314 752.672 126.11 751.561C127.642 750.979 132.503 747.646 134.3 747.646C135.991 748.228 146.769 758.81 128.752 761.984C123.204 760.609 115.965 752.778 111.527 751.826C110.946 755.847 112.795 758.81 115.278 759.498C117.762 760.609 125.106 767.434 127.642 766.217C130.02 765.37 145.29 764.947 145.29 769.709C145.29 772.778 137.1 780.714 128.752 776.693C127.642 776.005 127.484 772.355 126.11 771.138C124.842 775.318 124.842 782.037 129.28 781.455C133.983 781.296 134.67 782.566 142.754 778.651C150.679 775.318 160.93 784.365 143.441 791.455C145.66 793.254 148.038 794.259 148.038 794.259C148.038 794.259 154.537 788.386 154.959 785.9C155.118 783.413 154.959 782.566 155.488 779.18C156.861 776.111 157.443 770.82 155.065 768.439C155.065 771.667 153.691 773.624 152 774.154C150.468 774.841 144.92 772.884 147.985 766.64C150.627 762.619 151.049 758.704 149.94 755.9C149.253 758.122 147.985 760.503 144.92 760.662C142.014 760.82 138.791 759.286 142.12 755.476C142.12 752.672 140.852 750.185 140.852 749.762C144.022 748.228 140.852 744.048 141.539 744.048C143.916 746.958 147.932 748.492 147.509 748.228C145.131 745.318 145.29 741.508 145.554 741.508C145.29 741.508 148.038 729.233 149.993 741.349C151.789 753.042 158.341 753.624 162.621 776.905C164.576 776.058 165.263 774.683 164.576 772.143C163.889 769.656 160.56 761.667 162.198 760.027M110.523 732.513C103.601 736.164 96.2568 742.143 107.194 749.656C104.394 743.942 101.805 740.291 110.523 732.513ZM50.4468 319.603C39.6151 311.349 18.533 283.466 14.2003 266.058C39.0339 264.947 55.1493 273.889 68.6229 279.709C26.8284 244.683 25.6132 224.365 30.8969 196.587C52.4018 218.228 118.766 273.836 118.766 273.572C118.766 273.836 85.161 236.482 60.7501 207.91C36.3392 176.958 48.5446 148.069 64.66 126.746C67.7246 141.931 106.824 206.64 139.055 234.524L141.697 228.651C142.225 236.587 164.576 268.122 177.626 280.132L179.581 274.577C186.662 285.847 226.924 322.143 243.673 340.397C260.211 358.81 253.237 376.376 242.828 385.582C232.155 394.947 227.399 404.683 239.076 421.402C250.014 438.704 282.667 437.434 297.937 418.757C267.82 405.635 271.413 386.799 278.916 371.773C296.141 398.81 307.765 387.804 323.722 374.154C307.184 373.307 298.043 364.789 292.231 352.249C323.299 357.011 331.489 345.265 336.509 326.005C341.898 306.746 324.567 284.577 302.376 268.545C301.953 268.545 296.669 271.191 293.076 270.767C289.325 270.344 284.464 264.048 279.603 261.561C256.566 257.222 244.889 267.117 246.579 290.714C238.654 286.799 237.544 272.725 240.873 264.63C243.673 256.376 250.859 255.159 250.014 253.889C248.904 253.043 239.605 258.492 231.415 266.005C223.225 273.942 205.049 273.519 197.546 269.762C190.202 265.847 186.028 253.148 184.073 243.413C189.092 253.148 203.094 258.757 211.284 258.069C219.738 257.222 236.012 245.635 250.119 242.884C238.442 232.408 222.221 239.127 210.967 247.222C190.307 218.334 206.793 206.64 218.311 201.085C229.566 195.9 232.63 200.397 235.114 198.968C237.756 197.857 240.926 193.254 246.632 191.878V188.228C224.282 186.958 213.345 177.222 203.041 168.545C192.791 159.18 196.806 137.011 201.086 125.476C204.996 114.048 197.176 112.672 193.478 114.577C189.726 116.693 169.331 123.519 169.331 123.519C169.331 123.519 167.27 124.789 165.157 132.037C162.779 139.021 163.889 142.778 166.689 147.381C169.595 151.826 177.362 161.191 177.944 173.889C178.102 186.852 168.908 193.254 167.27 201.773C166.425 210.714 176.728 215.847 176.728 215.847C176.728 215.847 173.135 218.651 167.165 217.804C161.036 217.381 149.94 209.55 146.769 200.238C143.176 190.767 155.118 179.339 155.118 179.339C155.118 179.339 148.038 183.36 142.225 183.677C136.255 184.101 137.1 181.032 131.816 182.408C126.427 183.783 125.687 191.191 125.687 191.191C125.687 191.191 121.249 187.963 119.558 181.826C117.867 175.953 116.652 163.148 132.45 162.461C148.143 161.773 145.237 156.323 136.625 146.005C128.171 135.423 128.593 118.651 145.343 115.212C162.674 111.561 170.599 103.889 176.992 93.2013C183.491 82.4605 200.03 81.9314 220.425 88.7568C241.084 95.4764 229.988 123.043 222.908 138.704C215.986 154.577 215.986 159.921 219.844 167.593C224.018 175.265 239.816 180.397 250.119 180.397L250.384 173.572C242.352 160.45 238.601 141.349 241.507 133.572C244.307 126.164 257.728 122.566 266.076 123.095C273.104 123.572 273.791 123.625 273.843 123.625C268.031 120.556 267.344 113.466 273.843 109.286V103.148H268.982V92.2489H274.108V86.9579H285.204V92.2489H290.223V103.148H284.834V109.709C290.223 114.312 289.008 120.609 284.57 123.783C284.57 123.783 284.411 123.783 292.495 123.625C300.526 123.625 314.158 128.069 316.642 135.476C319.284 143.307 314.264 162.408 306.391 174.789V183.836C335.241 179.392 341.528 175.9 373.812 144.365L373.653 138.386C355.741 94.1536 354.209 95.5822 353.681 84.4182C353.681 73.4129 355.055 49.3917 396.849 46.4817C396.849 51.3494 403.084 56.7991 407.786 44.3653C400.865 39.6034 401.129 27.7515 407.945 25.688L410.164 18.5981L402.82 20.8203V6.37587L410.428 9.44465L407.945 0.820313L424.06 0.820313L420.996 9.60338L429.027 6.95788V21.2965L421.524 18.651L423.321 26.1642C430.242 27.5399 429.555 39.7092 422.898 44.8415C427.336 57.2753 433.73 51.9314 433.888 47.0637C475.947 50.7145 476.211 75.106 475.947 86.27C475.418 97.2753 473.569 95.8997 454.706 139.55L454.283 145.265C485.774 177.91 493.859 181.508 522.444 186.799L523.025 177.752C515.099 164.947 510.819 145.953 513.461 138.281C516.367 130.609 529.841 126.693 537.872 126.852C545.903 127.117 545.798 127.117 545.798 127.117C541.095 123.783 540.091 116.535 545.217 113.148V106.852H540.197V95.9526H545.217V90.6616H557.158V96.1113H562.019V106.852H556.894V113.148C562.864 116.376 561.913 123.889 556.312 127.117C556.312 127.117 556.154 127.117 564.502 126.852C572.428 126.693 585.849 130.609 588.491 138.281C591.555 145.953 587.117 164.894 578.768 177.91V184.894C588.913 185.053 605.134 180.291 609.308 172.778C613.483 164.947 613.747 159.815 606.931 144.048C600.537 128.016 590.128 100.238 610.682 93.8362C631.764 87.5399 647.88 88.8097 654.273 99.7092C660.402 110.291 668.275 118.651 685.077 122.461C701.985 126.217 701.88 143.254 693.003 153.572C684.549 163.625 681.22 169.074 697.177 170.291C712.711 171.402 711.073 184.101 709.383 189.974C707.586 195.688 702.884 199.021 702.884 199.021C702.884 199.021 702.302 191.614 697.336 190.08C692.21 188.704 692.739 191.614 686.927 190.767C681.22 190.503 673.876 186.323 673.876 186.323C673.876 186.323 685.236 198.175 681.907 207.381C678.314 217.011 666.901 224.418 660.825 224.789C655.013 225.371 651.367 222.408 651.367 222.408C651.367 222.408 661.935 217.381 660.825 208.334C659.98 199.815 650.68 193.148 651.367 180.291C651.895 167.857 659.98 158.281 663.15 153.942C666.056 149.498 667.165 145.688 665.21 138.598C663.15 131.508 661.195 129.974 661.195 129.974C661.195 129.974 640.8 122.884 637.207 120.609C633.455 118.386 625.688 119.921 629.439 131.508C633.191 142.778 636.942 165.371 626.269 174.048C615.86 182.831 604.5 192.46 581.886 192.884V196.376C587.698 198.175 590.921 202.778 593.404 203.889C595.888 205.423 599.111 200.979 610.312 206.693C621.567 212.143 637.788 224.841 616.019 254.683C605.61 246.323 589.072 239.18 577.183 249.498C591.502 252.566 607.459 264.683 615.49 265.529C623.839 266.217 637.946 261.349 643.389 251.455C641.169 262.46 636.995 273.889 629.387 277.646C621.62 280.979 603.285 280.979 595.518 273.043C587.328 265.371 578.029 259.233 576.919 260.503C575.968 261.773 583.312 262.99 586.218 271.244C589.125 279.603 587.751 293.254 579.561 297.434C581.78 273.572 570.262 263.677 547.489 267.328C542.363 269.815 537.661 275.847 533.751 275.953C529.999 276.535 524.874 273.572 524.293 273.572C501.679 288.757 482.129 310.926 486.99 329.921C491.587 349.18 501.309 361.455 532.483 357.54C526.089 369.815 516.684 378.175 499.988 378.598C515.786 392.99 526.935 404.101 545.217 377.646C552.297 392.566 555.467 411.667 524.98 423.783C539.669 442.884 572.164 445.265 583.841 428.228C596.046 411.614 591.449 401.614 580.776 392.09C570.631 382.619 564.132 365.053 581.199 347.064C598.53 329.233 639.743 293.783 646.717 282.778L649.095 288.334C662.569 277.064 685.289 245.953 686.451 237.857L688.67 243.73C721.694 215 762.748 151.296 765.971 135.953C781.664 157.857 793.183 187.011 767.768 217.381C742.512 247.222 707.797 283.466 708.22 283.466C707.797 283.466 775.958 229.339 797.991 206.905C802.429 236.482 800.633 256.958 757.729 290.714C771.625 285.529 787.688 277.064 812.68 278.863C808.241 296.164 786.05 323.36 775.06 331.296C799.893 325.741 810.883 326.693 824.885 333.095C818.386 345.371 796.829 367.963 782.14 374.259C799.47 376.482 819.866 386.799 822.508 389.339C814.74 400.926 802.376 410.238 786.578 415.688C804.331 424.63 809.457 430.45 811.993 434.947C803.645 447.222 793.394 455.159 779.498 457.804C789.643 466.164 796.723 480.926 797.251 485.688C788.375 492.09 782.668 496.958 760.054 496.164C768.666 509.286 770.304 524.471 768.508 530.027C753.925 532.937 748.112 538.545 730.623 525C712.289 511.455 699.66 503.783 699.66 503.783C699.66 503.783 726.713 525.106 733.107 534.207C738.813 543.572 735.167 559.603 733.952 561.138C732.156 562.937 714.508 567.54 708.114 561.138C701.88 554.577 672.185 516.535 672.291 517.751C672.555 519.021 688.512 542.143 693.954 554.577C699.238 567.381 691.048 585.953 687.825 587.487C683.915 589.18 663.15 586.64 659.927 580.397C656.862 573.836 636.203 529.656 636.467 529.656C636.203 529.656 650.892 563.413 651.578 574.418C652.424 585.688 640.905 600.238 637.682 600.609C634.195 601.455 615.332 595.741 613.271 588.175C610.894 580.344 601.753 537.963 601.911 537.857C601.753 538.016 606.35 567.011 604.817 575.953C603.021 584.471 588.86 590.185 586.8 595.212C584.581 600.503 582.361 598.704 579.297 595.212C576.655 591.984 561.543 589.233 562.653 571.667C563.604 554.63 563.234 541.138 563.34 541.138C563.181 541.138 552.931 541.296 548.07 536.693C543.209 531.931 540.303 530.291 540.303 530.291C540.303 530.291 536.129 539.339 529.735 539.921C523.5 540.079 517.794 541.72 517.794 541.72L515.839 598.757C529.313 609.498 540.831 616.746 559.536 611.878L555.52 616.058C583.946 618.704 601.436 630.132 596.997 664.841C592.136 699.127 610.471 689.656 610.471 689.392C610.471 689.656 601.171 712.937 574.964 693.836C570.948 704.154 574.277 718.228 576.655 721.984C569.416 718.757 563.34 712.619 561.385 709.868C559.324 707.222 559.166 714.894 560.117 718.81C560.539 722.566 551.768 708.651 550.976 705.423C549.866 702.355 539.035 712.249 549.866 721.455C560.275 731.243 595.254 745.318 611.211 745.423C627.432 746.005 640.218 734.259 640.218 734.259C640.218 734.259 636.89 727.434 635.938 725.212C635.093 723.413 629.809 724.524 626.798 722.831C623.469 721.561 623.31 699.974 626.798 696.905C629.968 694.259 633.032 693.677 633.191 692.566C636.784 676.535 649.993 657.011 674.404 651.826L678.684 643.572L665.897 648.333V622.513L678.103 628.228L674.615 616.64H700.981L696.12 628.228L707.639 622.513V648.333L695.962 643.73L700.242 651.402C724.653 656.587 736.594 680.979 740.081 697.011C743.41 699.498 739.13 698.81 745.206 701.878C750.913 704.789 747.69 725.847 742.3 726.587C737.016 727.169 736.911 724.894 735.643 727.169C733.846 729.656 725.234 742.778 720.954 745.847C722.328 750.45 722.222 758.968 712.5 761.878C702.249 764.788 697.23 771.931 692.263 773.572C686.98 775.529 679.899 774.841 673.506 776.217C666.848 778.334 658.659 784.577 649.888 784.048C640.852 783.466 619.612 770.397 610.629 765.212C587.592 759.656 515.839 742.778 499.724 740.662C499.037 728.968 504.743 717.646 504.743 717.646C504.743 717.646 484.506 713.042 478.377 698.704C489.473 701.349 502.788 699.55 503.634 686.27C504.743 672.725 495.021 661.455 478.536 662.408C461.628 663.36 443.822 677.328 444.667 693.095C445.09 708.598 456.027 715.847 464.375 721.984C472.565 728.122 471.297 739.974 471.614 739.974C471.35 739.974 472.565 736.058 466.225 733.148C459.567 730.503 447.784 729.392 447.784 729.392C447.784 729.392 447.362 733.148 453.913 738.016C460.413 742.778 483.344 752.513 494.281 757.275C505.641 762.143 522.708 778.069 529.101 778.069C535.495 778.651 541.307 777.117 541.993 771.667C542.68 766.482 539.51 760.238 539.51 760.079C539.51 760.238 553.671 762.99 558.373 771.085C563.234 779.339 565.295 796.905 554.886 802.46C563.921 813.624 566.933 834.789 561.543 845.847C556.154 857.011 557.105 867.064 557.105 866.905C557.105 867.064 546.696 863.148 546.168 855.741C545.322 848.651 538.401 839.445 538.401 839.445C538.401 839.445 537.819 859.392 526.195 867.064C514.518 875 502.313 879.868 483.291 863.307C465.802 882.407 455.129 893.836 427.231 883.413C422.792 889.709 410.428 899.286 404.035 900.82C397.536 898.704 386.017 887.011 381.949 880.45C353.628 890.185 343.113 878.228 326.311 858.968C308.822 875 296.616 870.132 285.098 861.878C273.315 853.519 273.579 833.73 273.315 833.73C273.579 833.73 266.076 843.095 265.389 849.921C264.703 857.328 254.294 860.82 254.294 860.661C254.294 860.82 255.245 850.873 250.384 839.445C245.258 828.281 248.693 807.222 258.151 796.376C247.9 790.397 250.384 773.095 255.245 764.841C260.106 756.905 274.53 754.259 274.53 754.259C274.53 754.259 271.36 760.82 271.73 765.847C272.311 771.138 278.123 772.937 284.517 772.513C290.91 772.937 308.241 757.593 319.759 752.831C329.323 748.386 352.36 738.863 358.912 733.889C365.569 729.709 365.411 726.217 365.411 725.953C365.411 726.217 353.311 726.64 346.812 729.286C340.419 731.931 341.423 736.27 341.106 736.111C341.37 736.27 340.577 723.995 348.608 717.857C357.062 712.408 368.581 705.423 369.268 689.974C370.378 674.101 353.311 659.709 336.086 658.333C321.503 656.64 311.358 668.069 311.939 681.614C312.626 695 324.145 696.958 335.663 694.418C328.847 708.757 310.143 712.672 310.143 712.672C310.143 712.672 315.691 724.101 314.74 736.111C298.519 737.487 226.765 753.519 206.898 757.011C189.145 760.238 172.343 771.667 165.104 778.333C160.243 805.106 147.879 796.323 146.083 794.524C144.286 792.831 139.584 793.836 136.096 791.878C117.075 781.72 120.985 786.429 121.672 769.55C115.543 771.667 106.137 762.831 109.202 753.942C107.67 753.36 97.6835 750.291 98.6345 740.979C97.3664 734.841 111.263 728.439 113.905 724.683C116.546 721.455 111.527 708.069 112.267 706.852C113.112 707.963 127.801 702.672 127.959 701.138C127.959 701.138 131.711 709.762 136.995 714.683C145.607 705.476 166.531 707.275 166.531 725.423C166.531 743.572 185.552 741.296 204.415 738.228C219.104 736.111 254.399 724.577 265.178 715.476C275.746 706.535 265.442 696.217 264.227 699.445C263.382 702.672 254.241 716.164 255.086 712.408C256.354 708.651 256.196 700.82 254.241 703.466C251.863 706.535 245.628 712.249 238.442 715.159C240.82 711.243 244.255 697.434 240.397 687.275C214.031 705.423 205.578 682.09 205.155 681.984C205.578 682.143 223.172 692.037 219.474 657.699C215.986 622.566 233.793 612.09 262.219 610.027L258.204 605.582C276.961 611.032 288.321 604.207 302.323 593.466L301.477 536.693C301.477 536.693 296.088 534.894 289.8 534.312C283.566 533.889 279.55 524.577 279.391 524.577C279.55 524.577 276.591 526.27 271.624 530.714C266.605 535.476 256.354 534.894 256.196 534.894C256.354 534.894 255.615 548.122 256.196 565.582C256.883 582.99 241.613 585.529 238.971 588.439C235.906 591.931 233.687 593.889 231.362 588.281C228.456 584.788 214.718 578.228 214.137 568.334C212.446 559.709 217.889 530.662 217.73 530.662C217.889 530.662 207.585 572.937 205.102 580.45C203.041 588.281 184.02 593.413 180.533 592.566C177.362 591.984 166.372 576.958 167.218 565.794C168.327 554.63 184.02 521.614 183.756 521.614C184.02 521.614 161.987 565 158.922 571.402C155.593 577.963 134.511 579.762 130.601 577.963C127.959 576.164 119.928 557.328 125.476 544.894C131.182 532.355 147.932 509.762 147.932 508.492C148.355 507.54 117.656 544.63 110.893 551.191C104.764 557.328 86.9046 552.725 85.6365 550.344C84.3684 548.968 81.0397 532.619 87.0103 523.307C93.5093 514.789 121.143 494.312 121.143 494.312C121.143 494.312 95.4643 511.349 84.3684 517.169C82.5719 513.413 77.4467 509.074 77.2882 508.228C76.8655 507.275 96.0455 482.725 75.3332 461.931C72.2686 467.91 63.8147 481.032 61.8597 469.445C65.7696 463.889 54.7794 459.392 55.0436 457.434C54.0926 460.662 50.3411 465.106 49.7599 462.99C49.1787 460.503 38.9282 455.9 36.2863 452.249C38.664 450.027 40.5662 447.804 42.7853 445.953C28.7834 443.307 18.9028 434.789 10.6073 422.09C13.2492 417.91 18.533 412.196 36.8147 403.519C21.0163 397.804 8.75803 387.752 1.41363 376.323C4.0555 373.677 24.7149 364.207 41.94 362.249C27.5153 355.688 6.85589 332.566 0.885254 320.132C14.8872 313.836 25.8774 313.307 50.2883 319.55M378.779 497.117C382.953 515.529 388.078 533.942 380.998 542.99L382.953 544.524C385.013 539.074 386.44 538.122 390.192 539.233C393.943 540.926 403.665 542.46 406.148 541.455L405.197 538.968C396.056 538.968 388.659 537.593 387.708 535.9C387.021 534.207 386.017 530.609 387.972 531.032C390.033 531.455 401.129 531.032 402.291 530.185L401.34 527.699C395.528 528.651 386.651 529.233 386.229 527.275C385.648 525.741 384.961 519.762 387.497 520.556C390.139 521.508 398.751 521.138 398.751 521.138L397.483 518.069C387.761 520.714 385.965 517.487 382.636 497.699L378.884 497.117H378.779ZM408.368 538.704L416.822 551.508L368.528 432.143L363.509 427.275L408.315 538.704H408.368ZM370.06 451.826L369.374 449.18C356.481 451.296 356.904 444.577 357.01 434.101L355.477 432.725C354.209 445.529 353.417 452.831 370.06 451.826ZM372.967 437.593L373.548 440.08C376.877 438.704 381.738 435.741 385.066 436.164L382.424 434.789C381.051 434.63 375.503 435.741 372.967 437.593ZM377.405 449.603L377.986 452.09C385.066 451.826 386.599 449.603 388.659 455.582L391.037 455C389.082 447.487 386.017 448.704 377.458 449.55M390.192 475.794L390.773 479.127C396.585 474.789 398.698 456.535 391.724 438.81C394.63 448.281 395.634 474.789 390.192 475.741M394.63 437.169C397.272 440.08 403.242 445 404.616 448.069C402.82 440.132 399.227 438.863 394.63 437.169ZM396.532 431.296C396.796 431.296 398.064 432.672 399.174 431.561C400.125 430.291 403.084 422.778 405.145 422.196C406.677 421.349 411.274 424.683 412.225 426.535C412.912 428.228 408.737 432.09 408.051 434.048C407.1 436.005 408.737 436.005 409.689 435.582C412.066 434.207 415.818 425.847 413.968 424.312C403.031 413.307 401.076 421.402 396.479 431.296M405.831 434.683C406.096 434.259 405.673 433.307 404.563 432.725C403.612 432.143 402.608 432.143 402.503 432.566C402.08 432.725 402.661 433.677 403.612 434.259C404.563 434.841 405.673 435.106 405.831 434.683ZM406.835 478.281C406.835 478.281 408.209 477.169 409.636 473.677C407.681 475.794 402.82 475.476 402.82 475.212C402.82 475.212 409.213 485.265 403.084 481.773C396.849 478.704 393.943 479.286 404.193 485.106C399.174 485.106 392.939 485.953 404.616 489.127C408.632 499.445 414.602 513.519 410.587 519.127C413.651 522.196 416.293 528.598 415.871 538.915L419.199 538.333C419.041 532.196 417.509 520.609 414.761 518.545C415.342 512.672 408.949 488.704 408.103 485.9C408.103 483.519 406.835 478.228 406.835 478.228M411.115 487.646L412.383 493.519C413.334 493.519 413.229 493.095 415.184 493.519C422.687 506.64 420.467 511.667 416.135 512.09L417.244 515.847C422.105 516.799 422.634 512.355 422.792 506.64C430.824 521.032 424.166 521.826 419.199 522.937L420.467 526.958C429.608 526.005 432.567 516.64 426.28 506.587C420.15 496.693 416.557 485.529 415.871 480.238L413.651 481.508C416.716 493.942 413.81 491.138 411.168 487.646M411.696 477.328C411.274 478.598 417.086 474.683 419.622 474.841C422.264 475.529 422.264 470.238 422.687 468.863C422.951 467.91 421.154 465.635 419.622 466.905C418.09 468.281 414.602 468.175 412.7 466.217C412.436 465.953 412.278 476.27 411.749 477.381M422.898 474.841C436.213 483.783 452.857 492.143 456.344 492.249L455.499 489.021C451.324 488.439 435.949 480.238 423.321 471.72L422.898 474.789V474.841ZM424.166 470.662C432.514 475.265 448.577 483.095 452.91 482.672L451.377 479.339C445.407 479.339 432.25 471.826 425.857 468.757L424.166 470.714V470.662ZM430.295 458.651C427.812 461.455 426.808 464.789 427.231 466.905L428.763 468.704C434.469 452.249 440.017 439.709 456.661 438.281V436.164C451.377 435.318 443.452 437.275 440.546 440.08L443.346 440.662C440.281 441.614 434.205 445.529 433.36 447.222L436.266 448.175C431.986 450.556 428.235 456.005 427.389 457.646L430.295 458.598V458.651ZM454.019 504.947C445.671 502.037 436.688 503.572 429.714 504.947L430.559 508.016C446.094 504.789 453.332 507.593 456.661 510.503C459.99 513.572 461.364 514.259 463.16 513.73C464.692 513.148 462.05 507.169 460.36 506.64C459.409 504.154 455.499 503.73 453.966 504.947M465.115 523.201L462.315 520.714L455.921 530.079L453.544 525.476L449.951 526.058L452.857 535.265L457.031 535.106L465.062 523.254L465.115 523.201ZM460.782 437.751L467.017 443.307L469.395 437.011L460.782 437.699V437.751ZM467.44 447.064C468.708 451.244 464.957 454.471 474.256 460.027C469.553 454.577 473.305 457.222 467.44 447.064ZM467.176 460.609C466.594 459.233 465.485 458.492 464.692 458.651C464.164 459.074 464.164 460.185 464.692 461.561C465.221 462.937 466.225 463.519 466.912 463.254C467.598 462.99 467.598 461.72 467.176 460.609ZM424.853 610.926L409.741 627.117L427.072 613.043L424.853 610.926ZM420.256 607.169L417.773 604.947L395.422 619.603L420.256 607.169ZM413.334 602.672L411.274 600.027L382.002 611.455L413.387 602.672H413.334ZM407.258 596.958L405.462 594.312C398.381 593.466 380.786 598.492 371.329 603.942C387.55 597.963 405.303 596.852 407.258 596.958ZM370.747 583.995L369.057 582.46C368.106 583.572 366.679 587.328 367.683 590.132L369.902 589.445L370.747 583.995ZM370.747 600.767C370.747 600.767 369.479 596.429 369.374 593.942H367.577C367.577 596.429 368.105 601.032 368.951 601.614L370.747 600.767ZM371.434 577.857L373.389 580.08C373.918 578.968 378.514 577.857 380.998 577.857L380.417 575.635C375.978 575.212 373.072 576.587 371.381 577.857M379.043 591.402L379.307 594.471C383.058 593.889 389.029 594.312 389.029 594.312L389.188 591.931C388.659 591.667 381.579 591.349 379.043 591.349M397.8 591.984C385.013 584.471 367.947 577.487 375.873 598.545L378.514 598.122C376.982 594.894 376.559 590.185 376.559 590.185C376.559 590.185 373.389 587.117 397.8 591.984ZM438.326 592.355C440.387 598.915 443.452 607.54 442.236 610.503C446.252 608.545 440.968 594.312 438.326 592.355ZM444.033 589.868L444.984 593.36L457.612 590.132L457.348 588.016L444.033 589.815V589.868ZM458.035 598.915L457.454 596.799L444.984 595L445.407 598.069L458.035 598.915ZM445.407 599.339L446.78 603.677L473.992 612.196L445.407 599.392V599.339ZM461.628 623.889L446.199 607.593L445.354 611.931L461.575 623.942L461.628 623.889ZM364.513 598.386L363.561 595.318C360.92 596.852 355.953 599.656 351.462 600.609C357.961 600.609 362.822 599.074 364.513 598.386ZM361.448 500.503C368.105 496.482 377.986 493.677 377.986 493.677L375.925 480.556L382.583 479.709L380.522 473.836L372.597 471.032L366.785 478.281L353.469 476.058L367.207 458.228L364.988 457.963L348.186 478.333L338.622 473.889L356.111 455.635H353.469L339.468 468.757L329.904 462.46L349.612 442.672L347.393 441.72L332.81 455.265L326.839 448.863C335.452 439.815 355.689 427.381 355.689 427.381C351.409 418.757 351.515 412.302 355.002 410.926L351.409 402.408L355.002 400.45L358.912 408.281C365.569 409.656 367.26 418.175 366.52 421.508C365.569 424.736 365.569 427.804 369.426 427.804C373.601 427.804 388.184 435.741 393.045 431.826L388.871 426.958C383.745 428.757 378.197 427.381 385.7 418.175C393.045 409.127 435.949 400.873 414.708 438.81L406.254 437.275C400.284 438.122 406.941 447.169 411.379 456.111C415.976 455.265 419.728 456.27 419.833 456.111L425.804 449.709L422.475 448.439L437.058 438.704C431.933 436.746 426.491 435.9 426.491 435.9C426.491 435.9 444.825 428.228 448.683 428.916C445.777 426.429 441.867 425.265 442.025 425.265C442.025 425.265 458.14 417.169 468.232 435.159L472.829 435.423L471.297 439.868L481.442 443.201L475.207 448.651C478.536 454.101 475.63 461.085 477.268 464.418C479.223 467.91 481.442 478.386 481.178 480.185C480.755 482.302 481.178 493.307 465.643 486.164C467.863 476.535 450.955 476.799 455.499 462.037C445.512 472.778 466.753 500.662 466.33 520.185C471.878 520.027 482.287 519.603 482.287 519.603C493.964 513.73 498.931 526.323 489.896 532.302C488.945 545.953 482.287 565.053 468.55 556.164L474.256 544.048L479.275 549.074C480.544 543.519 483.978 532.778 484.295 532.778C484.031 532.778 480.808 529.868 480.966 529.868C473.886 532.09 461.681 534.736 456.555 540.027C457.506 547.963 455.71 550.609 458.616 552.037C461.522 553.413 463.636 558.863 461.522 566.111L468.866 592.619C471.931 595.106 474.15 600.556 474.15 600.556L461.786 600.714C460.677 597.91 461.786 593.466 461.786 593.201C461.786 593.466 457.189 571.296 454.706 569.762C452.064 568.386 447.203 567.646 448.207 558.175C445.988 553.572 437.957 539.074 432.514 537.699C427.389 539.074 418.512 541.191 418.777 541.032C418.512 541.191 416.293 545.053 425.698 544.788C430.824 547.011 436.794 551.614 437.798 555.265C433.096 555.847 420.732 553.466 418.512 554.312L422.792 564.894C427.917 561.244 432.514 581.508 433.624 579.815C434.892 578.281 436.953 588.598 436.953 588.598L458.193 585.688L460.148 593.095C459.567 595.476 459.039 601.614 460.571 602.143L476.369 601.72C475.947 599.074 472.354 592.778 471.773 591.826C471.086 591.243 468.866 586.27 468.866 584.577L485.51 582.09C486.884 583.783 486.884 586.111 486.461 587.117C486.303 588.228 483.661 587.804 483.661 587.804C482.287 591.561 479.91 596.164 480.755 598.122L484.665 599.074C484.823 601.191 483.978 603.677 483.397 604.101L479.117 602.831C476.317 603.413 475.101 604.63 474.414 608.281L478.324 611.085C477.902 613.73 475.947 616.111 475.154 616.27L470.716 613.201C467.387 612.355 461.575 615.688 462.103 619.18L465.855 622.513C465.168 625.159 462.685 627.117 461.152 627.117L443.505 612.619C444.033 617.222 435.579 619.339 429.767 614.841L410.745 631.296C408.262 631.296 406.994 629.603 406.571 628.492L408.368 626.005C407.839 623.783 400.442 622.09 399.755 621.561L395.739 624.048C393.098 622.672 392.411 620.291 392.675 619.603L395.739 617.381C395.211 615.159 387.285 613.201 385.172 613.201L381.579 614.894C379.783 613.783 379.201 611.667 380.047 610.714C376.718 610.714 372.702 609.18 370.483 606.958C368.792 606.693 366.573 602.937 367.841 601.931C359.229 608.757 308.188 614.63 331.066 573.201C329.957 585.635 329.798 596.64 339.943 596.217C341.634 598.333 349.084 604.154 357.697 595.635C359.757 595.635 364.196 593.254 366.573 592.143C362.663 582.09 370.853 561.191 405.303 584.207C407.945 584.048 409.9 586.852 409.9 588.651C409.9 590.609 431.405 602.196 422.528 581.561C422.951 580.185 422.951 576.376 422.264 575.159L408.262 542.408C406.571 545.635 400.336 553.148 398.963 554.101C397.272 555.212 395.898 556.905 398.54 559.392C400.759 561.878 409.372 572.778 411.009 575.847C415.448 577.804 420.837 580.873 421.841 583.677C421.841 584.101 422.37 590.344 422.37 590.344C422.105 590.767 417.244 591.614 411.802 586.852C411.644 584.894 408.209 582.09 406.941 581.667C405.409 581.508 403.612 581.244 402.925 578.757C402.238 576.111 395.158 570.238 395.317 570.238C395.158 570.238 383.64 563.148 383.376 559.762C382.689 556.429 386.017 555.159 385.753 552.672C385.33 550.556 382.266 546.799 380.734 547.646C379.043 548.333 363.086 554.63 361.606 557.011C360.074 559.392 350.246 572.884 353.681 586.852C355.055 589.074 356.164 592.831 356.164 593.519C356.164 594.207 350.616 601.349 342.162 594.471C342.162 591.826 344.381 585.265 343.536 584.577C342.955 583.624 339.098 582.619 343.113 576.746C347.393 571.191 351.039 550.503 349.084 544.524C365.199 540.185 351.039 513.73 355.477 509.815C348.133 514.683 348.556 540.767 337.988 544.101C339.943 539.762 338.939 531.667 338.939 531.667C338.939 531.667 334.765 542.99 329.64 544.788C331.859 540.185 330.591 532.09 330.591 532.09C330.591 532.09 325.888 545.212 322.824 544.788C324.356 526.217 335.716 471.878 361.554 500.556M466.225 489.18L464.428 488.069C464.428 488.757 460.941 489.603 459.567 489.445L460.413 492.513C462.896 492.09 465.115 490.556 466.225 489.18ZM714.191 745.794C708.907 742.725 705.05 744.683 703.201 752.778C700.981 755.582 697.071 757.54 688.512 760.185C680.058 762.672 676.042 767.011 672.132 769.815C672.132 769.815 673.506 772.302 676.835 770.926C680.005 769.55 692.105 768.545 695.275 765.794C698.445 763.307 703.201 759.392 706.952 757.275C711.39 758.122 719.739 748.651 714.191 745.847M140.376 796.799C139.795 802.355 141.063 811.72 149.253 811.72C158.711 813.413 166.583 808.492 170.229 805.318C173.822 801.984 170.652 793.625 166.478 789.709C158.129 804.789 151.049 800.714 140.376 796.799ZM154.272 815.106C160.666 828.228 174.509 819.974 169.807 809.55C166.478 812.46 158.129 815.106 154.272 815.106ZM701.563 659.709L700.295 693.201L733.899 697.381C729.989 681.349 716.991 660.979 701.563 659.709ZM639.531 692.937L673.4 691.984L674.668 659.656C659.24 659.656 644.815 677.381 639.584 692.99M101.805 674.947C94.0377 699.339 133.454 691.826 113.323 671.191C110.523 673.148 104.288 675.529 101.805 674.947ZM104.447 692.937C100.695 694.894 101.805 701.561 106.824 703.095C116.388 703.783 119.611 702.513 128.91 696.111C129.756 690.238 128.91 687.593 123.098 686.905C120.615 691.349 108.779 694.841 104.499 692.884M108.991 653.572L70.4193 559.603C68.6229 561.561 66.1395 561.826 64.4487 561.826L94.566 657.222C99.9555 662.408 106.243 658.915 108.991 653.572ZM72.3743 553.307C72.2158 551.191 70.1551 549.815 67.7775 549.656C64.1845 554.259 60.1689 553.307 58.7423 552.566C56.6816 553.942 56.6816 555.9 57.8969 558.545C61.6483 560.08 67.7246 561.455 72.3215 553.254M59.3235 547.751C59.3235 549.286 60.8558 550.979 62.4937 550.979C64.026 550.979 65.3998 549.286 65.3998 547.751C65.3998 546.217 64.026 544.683 62.4937 544.683C60.8029 544.683 59.3235 546.217 59.3235 547.751ZM96.7852 671.191C93.8792 669.815 93.2979 663.677 94.3019 661.455C98.5817 663.413 107.089 663.677 110.946 656.429C113.323 658.386 114.01 662.831 113.852 665.476C110.1 673.73 101.646 673.572 96.7852 671.191Z" fill="#E9F8F8"/>
</g>
</svg>
