<svg width="159" height="34" viewBox="0 0 159 34" fill="none" xmlns="http://www.w3.org/2000/svg">
<g clip-path="url(#clip0_810_45894)">
<path d="M8.00791 30.6062C8.00791 32.8642 6.66619 34.0004 3.99689 34.0004C1.34171 34.0004 0 32.8642 0 30.6062L0.0423699 19.5461C0.0423699 18.2373 0.0706165 17.2449 0.12711 16.569C0.211849 15.7492 0.353082 14.9294 0.536685 14.1239C0.720288 13.3185 1.08749 12.3405 1.6383 11.1899C2.18911 10.0393 2.88115 9.04696 3.68618 8.21278C4.49121 7.3786 5.64932 6.63071 7.16051 6.01227C8.65758 5.40821 10.3665 5.0918 12.2873 5.0918C15.7333 5.0918 18.4874 6.11295 20.5494 8.14087C22.5973 10.1832 23.6283 12.7432 23.6283 15.8211C23.6283 19.1578 22.6114 21.7754 20.5635 23.6739C18.5298 25.5867 16.0299 26.536 13.0923 26.536C11.0585 26.536 9.39199 26.1189 8.09264 25.2991H8.05027C8.05027 25.3278 8.03615 25.3422 8.00791 25.3422V30.6062ZM14.9142 19.0571C15.6486 18.1798 16.0158 17.1586 16.0158 15.9649C16.0158 14.5554 15.6769 13.448 14.9989 12.6426C14.321 11.8371 13.3606 11.4344 12.0895 11.4344C10.9173 11.4344 9.97104 11.8515 9.25076 12.7001C8.54459 13.5199 8.19151 14.6129 8.19151 15.9649C8.19151 17.2162 8.51634 18.2661 9.18014 19.1003C9.84393 19.9344 10.8043 20.3659 12.0613 20.3659C13.2335 20.3659 14.1798 19.9201 14.9142 19.0571Z" fill="#008FF3"/>
<path d="M28.9951 23.6159C27.0037 21.5448 26.001 18.9416 26.001 15.8206C26.001 12.7716 26.9755 10.1971 28.9245 8.09728C30.8735 5.99745 33.4581 4.96191 36.6641 4.96191C39.6582 4.96191 42.1298 5.81048 44.0647 7.5076C45.9996 9.20472 46.9741 11.3908 46.9741 14.0804C46.9741 16.0076 46.169 16.9712 44.5449 16.9712H33.7829C33.8676 19.3875 35.4071 20.5956 38.373 20.5956C39.6582 20.5956 41.1694 20.3079 42.8783 19.7183C43.7822 19.4162 44.5307 19.6032 45.1522 20.2936C45.7736 20.9839 46.0702 21.8325 46.0702 22.8392C46.0702 23.7597 45.6324 24.522 44.7708 25.126C43.1749 26.1903 40.8869 26.7369 37.8787 26.7369C33.9524 26.7369 30.9865 25.687 28.9951 23.6159ZM34.0089 13.0736H39.7288C39.3334 11.5203 38.3871 10.7436 36.89 10.7436C35.4212 10.7293 34.4608 11.5203 34.0089 13.0736Z" fill="#008FF3"/>
<path d="M71.1673 22.7958C71.1673 23.932 70.8424 24.8093 70.1786 25.4566C69.5148 26.1038 68.5262 26.4202 67.2127 26.4202C65.8569 26.4202 64.8541 26.0894 64.1904 25.4278C63.5266 24.7662 63.2017 23.8889 63.2017 22.7958V11.7933H57.7078V22.7958C57.7078 23.932 57.3829 24.8093 56.7191 25.4566C56.0553 26.1038 55.0667 26.4202 53.7532 26.4202C52.4398 26.4202 51.437 26.0894 50.7873 25.4278C50.1236 24.7662 49.7987 23.8889 49.7987 22.7958L49.7563 9.13253C49.7563 6.87449 50.8862 5.73828 53.1318 5.73828H67.8483C68.8369 5.73828 69.6419 6.01155 70.2492 6.55808C70.8707 7.10461 71.1673 7.96755 71.1673 9.11815V22.7958Z" fill="#008FF3"/>
<path d="M94.9367 23.012C94.9367 25.2413 93.6232 26.3631 90.9822 26.3631C88.3693 26.3631 87.07 25.2413 87.07 23.012V11.693H85.2764C84.6126 11.693 84.1889 12.1101 84.0194 12.9299L81.4489 24.2489C81.0959 25.7446 79.9519 26.4925 78.0311 26.4925C76.5623 26.4925 75.4465 26.1617 74.698 25.5001C73.9495 24.8386 73.7517 23.8174 74.119 22.4079L76.9577 11.089C77.1978 10.111 77.4238 9.36309 77.6357 8.85971C77.8475 8.35632 78.1865 7.82417 78.6667 7.24888C79.1468 6.67358 79.7965 6.28526 80.6298 6.05514C81.4489 5.82502 82.4941 5.70996 83.751 5.70996H91.6318C92.564 5.70996 93.3549 5.99761 93.9904 6.58729C94.626 7.19135 94.9367 8.02553 94.9367 9.13297V23.012Z" fill="#008FF3"/>
<path d="M120.825 22.3361C120.825 25.1119 119.709 26.507 117.492 26.507C116.136 26.507 115.246 25.9749 114.794 24.8962L114.385 23.9326C114.356 23.9326 114.314 23.9182 114.272 23.9038C114.229 23.8894 114.187 23.875 114.159 23.875C112.535 25.6728 110.261 26.5789 107.323 26.5789C104.258 26.5789 101.801 25.6441 99.9366 23.76C98.0723 21.8759 97.1401 19.3733 97.1401 16.2236C97.1401 13.1026 98.0864 10.485 99.993 8.34204C101.9 6.19906 104.498 5.13477 107.803 5.13477C110.628 5.13477 112.732 6.084 114.145 7.98248C114.173 7.98248 114.215 7.9681 114.258 7.95372C114.3 7.93933 114.342 7.92495 114.371 7.92495L114.865 6.91818C115.402 5.85389 116.334 5.30735 117.661 5.30735C119.766 5.30735 120.811 6.58739 120.811 9.16184V22.3361H120.825ZM106.08 12.7287C105.374 13.5629 105.021 14.5984 105.021 15.8209C105.021 17.2304 105.36 18.3378 106.038 19.1432C106.716 19.9486 107.662 20.3513 108.891 20.3513C110.063 20.3513 110.995 19.9343 111.701 19.1145C112.407 18.2947 112.76 17.1872 112.76 15.8209C112.76 14.5696 112.407 13.5341 111.701 12.6999C110.995 11.8801 110.063 11.463 108.891 11.463C107.718 11.463 106.786 11.8945 106.08 12.7287Z" fill="#008FF3"/>
<path d="M123.72 8.8598C123.72 7.82427 124.073 6.96133 124.779 6.29974C125.486 5.62376 126.446 5.29297 127.689 5.29297C128.946 5.29297 129.92 5.60938 130.612 6.25659C131.304 6.9038 131.643 7.76674 131.643 8.87419V13.0451H137.321V8.87419C137.321 7.83865 137.674 6.97571 138.38 6.31412C139.086 5.63815 140.075 5.30735 141.332 5.30735C142.589 5.30735 143.563 5.62376 144.241 6.27097C144.919 6.91818 145.258 7.78112 145.258 8.88857V22.8251C145.258 23.9613 144.919 24.8387 144.241 25.4859C143.563 26.1331 142.603 26.4495 141.332 26.4495C140.075 26.4495 139.086 26.1043 138.38 25.414C137.674 24.7236 137.321 23.8607 137.321 22.8251V18.381H131.643V22.8251C131.643 23.9613 131.304 24.8387 130.626 25.4859C129.949 26.1331 128.988 26.4495 127.717 26.4495C126.446 26.4495 125.471 26.1043 124.765 25.414C124.059 24.7236 123.706 23.8607 123.706 22.8251V8.8598H123.72Z" fill="#008FF3"/>
<path d="M157.362 9.93824C156.274 11.0601 154.947 11.621 153.393 11.621C151.698 11.621 150.342 11.0744 149.326 9.967C148.309 8.85956 147.8 7.46447 147.8 5.76734C147.8 4.11337 148.337 2.73266 149.424 1.63959C150.512 0.546531 151.825 0 153.393 0C154.975 0 156.303 0.546531 157.376 1.65398C158.449 2.76142 159 4.12775 159 5.78173C159 7.4357 158.449 8.81641 157.362 9.93824ZM156.458 2.56007C155.653 1.66836 154.622 1.23689 153.393 1.23689C152.179 1.23689 151.148 1.68274 150.314 2.57445C149.481 3.46616 149.057 4.53046 149.057 5.78173C149.057 7.09052 149.453 8.18359 150.258 9.06091C151.063 9.95262 152.108 10.3841 153.379 10.3841C154.636 10.3841 155.653 9.93824 156.458 9.06091C157.263 8.1692 157.658 7.07614 157.658 5.78173C157.672 4.51607 157.277 3.43739 156.458 2.56007ZM153.238 6.54399C153.181 6.42893 153.153 6.34264 153.153 6.31387C153.153 6.18443 153.224 6.08376 153.351 6.01184C153.873 5.7242 154.128 5.33587 154.128 4.83249C154.128 4.60237 154.071 4.4154 153.944 4.25719C153.831 4.09898 153.647 4.01269 153.407 4.01269C153.181 4.01269 153.012 4.09898 152.871 4.25719C152.743 4.42978 152.673 4.63113 152.673 4.87563V8.08291C152.673 8.62944 152.348 8.90271 151.712 8.90271C151.444 8.90271 151.218 8.81641 151.049 8.65821C150.865 8.5 150.78 8.31303 150.78 8.08291V5.27834C150.78 4.50169 150.978 3.82572 151.388 3.25042C151.797 2.66074 152.461 2.3731 153.365 2.3731C154.142 2.3731 154.777 2.60321 155.3 3.04907C155.808 3.49492 156.077 4.07022 156.077 4.78934C156.077 5.50846 155.808 6.09814 155.257 6.58714L156.034 7.99662C156.077 8.11168 156.105 8.22674 156.105 8.31303C156.105 8.75888 155.766 8.97462 155.074 8.97462C154.678 8.97462 154.396 8.8308 154.241 8.54315L153.238 6.54399Z" fill="#008FF3"/>
</g>
<defs>
<clipPath id="clip0_810_45894">
<rect width="159" height="34" fill="white"/>
</clipPath>
</defs>
</svg>
