<svg width="64" height="80" viewBox="0 0 64 80" fill="none" xmlns="http://www.w3.org/2000/svg">
<g opacity="0.3">
<path opacity="0.3" d="M44.6921 16.4159C42.9427 16.4141 41.2654 15.6894 40.0284 14.4008C38.7914 13.1123 38.0957 11.3651 38.094 9.54284V6.19483e-07H8.61397C7.48292 -0.000437204 6.36284 0.231204 5.31777 0.681772C4.2727 1.13234 3.32307 1.79299 2.52315 2.62593C1.72323 3.45888 1.08868 4.44782 0.655747 5.53628C0.222816 6.62473 -7.80952e-08 7.79136 0 8.96955V63.0403C-7.80952e-08 64.2185 0.222816 65.3852 0.655747 66.4736C1.08868 67.5621 1.72323 68.551 2.52315 69.384C3.32307 70.2169 4.2727 70.8775 5.31777 71.3281C6.36284 71.7786 7.48292 72.0104 8.61397 72.0099H44.0041C46.2878 72.0099 48.478 71.0649 50.0928 69.3828C51.7076 67.7006 52.6148 65.4192 52.6148 63.0403V16.4159H44.6921Z" fill="#F3FFFA"/>
</g>
<path d="M52.6151 16.4159H44.6923C42.9429 16.4141 41.2657 15.6894 40.0287 14.4008C38.7917 13.1123 38.0959 11.3651 38.0942 9.54284V0L52.6151 16.4159Z" fill="#F3FFFA"/>
<path d="M41.7899 27.9087H8.75484C8.43745 27.9087 8.13307 27.7773 7.90864 27.5435C7.68421 27.3097 7.55811 26.9927 7.55811 26.6621C7.55769 26.4981 7.58835 26.3356 7.6483 26.184C7.70825 26.0323 7.79634 25.8945 7.90751 25.7784C8.01867 25.6623 8.15071 25.5702 8.29612 25.5073C8.44152 25.4445 8.59742 25.4121 8.75484 25.4121H41.7899C42.1082 25.4121 42.4134 25.5438 42.6384 25.7782C42.8634 26.0126 42.9899 26.3305 42.9899 26.6621C42.989 26.993 42.8622 27.3101 42.6373 27.5438C42.4123 27.7775 42.1076 27.9087 41.7899 27.9087Z" fill="#F3FFFA"/>
<path d="M41.7899 35.3657H8.75484C8.43745 35.3657 8.13307 35.2343 7.90864 35.0005C7.68421 34.7668 7.55811 34.4497 7.55811 34.1191C7.55769 33.9551 7.58835 33.7926 7.6483 33.641C7.70825 33.4894 7.79634 33.3515 7.90751 33.2354C8.01867 33.1193 8.15071 33.0272 8.29612 32.9644C8.44152 32.9015 8.59742 32.8691 8.75484 32.8691H41.7899C42.1082 32.8691 42.4134 33.0008 42.6384 33.2352C42.8634 33.4696 42.9899 33.7876 42.9899 34.1191C42.989 34.45 42.8622 34.767 42.6373 35.0007C42.4123 35.2344 42.1076 35.3657 41.7899 35.3657Z" fill="#F3FFFA"/>
<path d="M41.7899 42.8217H8.75484C8.59742 42.8217 8.44152 42.7894 8.29612 42.7265C8.15071 42.6637 8.01867 42.5716 7.90751 42.4555C7.79634 42.3394 7.70825 42.2015 7.6483 42.0499C7.58835 41.8983 7.55769 41.7358 7.55811 41.5718C7.55811 41.2412 7.68421 40.9241 7.90864 40.6903C8.13307 40.4565 8.43745 40.3252 8.75484 40.3252H41.7899C42.1076 40.3252 42.4123 40.4564 42.6373 40.6901C42.8622 40.9238 42.989 41.2409 42.9899 41.5718C42.9899 41.9033 42.8634 42.2212 42.6384 42.4556C42.4134 42.69 42.1082 42.8217 41.7899 42.8217Z" fill="#F3FFFA"/>
<path d="M28.7538 50.2778H8.75484C8.59742 50.2778 8.44152 50.2454 8.29612 50.1826C8.15071 50.1197 8.01867 50.0275 7.90751 49.9114C7.79634 49.7953 7.70825 49.6576 7.6483 49.5059C7.58835 49.3543 7.55769 49.1918 7.55811 49.0279C7.55811 48.6972 7.68421 48.3801 7.90864 48.1463C8.13307 47.9125 8.43745 47.7812 8.75484 47.7813H28.7538C29.0712 47.7812 29.3756 47.9125 29.6 48.1463C29.8244 48.3801 29.9505 48.6972 29.9505 49.0279C29.951 49.1918 29.9203 49.3543 29.8603 49.5059C29.8004 49.6576 29.7123 49.7953 29.6011 49.9114C29.49 50.0275 29.3579 50.1197 29.2125 50.1826C29.0671 50.2454 28.9112 50.2778 28.7538 50.2778Z" fill="#F3FFFA"/>
<path d="M58.8611 56.8682H18.8504C16.0122 56.8682 13.7114 59.2648 13.7114 62.2212V74.6473C13.7114 77.6037 16.0122 80.0004 18.8504 80.0004H58.8611C61.6992 80.0004 64 77.6037 64 74.6473V62.2212C64 59.2648 61.6992 56.8682 58.8611 56.8682Z" fill="#F3FFFA"/>
<path d="M19.5767 71.124V73.5472H17.1672V71.124H19.5767Z" fill="#0E1821"/>
<path d="M28.8372 71.1305C28.4356 71.8876 27.8306 72.5063 27.0964 72.9104C26.2694 73.351 25.35 73.5697 24.4214 73.547H20.7864V63.5242H24.4214C25.3507 63.5007 26.2713 63.7146 27.1028 64.1475C27.8348 64.5433 28.4381 65.1556 28.8372 65.9074C29.2509 66.7075 29.4592 67.6054 29.4419 68.514C29.4584 69.4257 29.2502 70.3265 28.8372 71.1305ZM26.3349 70.6271C26.595 70.349 26.7965 70.0174 26.9266 69.6536C27.0566 69.2897 27.1123 68.9016 27.0901 68.514C27.1124 68.1269 27.0568 67.7391 26.9268 67.3758C26.7967 67.0124 26.5951 66.6814 26.3349 66.404C25.7519 65.8716 24.9905 65.6008 24.2166 65.6507H23.1159V71.3771H24.2166C24.9898 71.4265 25.7507 71.1571 26.3349 70.6271Z" fill="#0E1821"/>
<path d="M37.8062 64.0272C38.5383 64.4603 39.1434 65.0929 39.5565 65.8571C39.9895 66.6641 40.2103 67.5759 40.1964 68.5003C40.2126 69.4271 39.9917 70.3417 39.5565 71.1502C39.1442 71.9179 38.5377 72.5531 37.803 72.9867C37.0549 73.4317 36.2069 73.6618 35.3455 73.6534C34.4841 73.6618 33.6361 73.4317 32.888 72.9867C32.1533 72.5531 31.5468 71.9179 31.1345 71.1502C30.6992 70.3417 30.4783 69.4271 30.4945 68.5003C30.4779 67.5756 30.6989 66.663 31.1345 65.8571C31.5489 65.0928 32.155 64.4602 32.888 64.0272C33.6361 63.5822 34.4841 63.3522 35.3455 63.3606C36.2078 63.3527 37.0568 63.5827 37.8062 64.0272ZM33.5184 66.3937C33.0464 66.9819 32.8062 67.7348 32.8464 68.5003C32.8061 69.2628 33.0464 70.0126 33.5184 70.5969C33.7483 70.8572 34.0302 71.0619 34.3442 71.1966C34.6582 71.3314 34.9966 71.3929 35.3359 71.3768C35.674 71.3914 36.0112 71.3293 36.3239 71.1946C36.6366 71.0599 36.9175 70.856 37.147 70.5969C37.6213 70.0136 37.8639 69.2637 37.8254 68.5003C37.8638 67.7381 37.6237 66.989 37.1534 66.4037C36.9236 66.1432 36.6418 65.9384 36.3277 65.8037C36.0137 65.6689 35.6751 65.6074 35.3359 65.6237C34.9975 65.6075 34.6598 65.668 34.346 65.801C34.0322 65.9339 33.7499 66.1361 33.5184 66.3937Z" fill="#0E1821"/>
<path d="M48.9386 64.4306C49.7501 65.1185 50.3021 66.083 50.4969 67.1538H48.033C47.8668 66.71 47.5757 66.3289 47.1979 66.0605C46.7996 65.7904 46.3322 65.6522 45.8571 65.6639C45.5434 65.6534 45.2316 65.7183 44.9458 65.8536C44.66 65.9888 44.408 66.1908 44.2092 66.4439C43.7639 67.0377 43.5369 67.7777 43.5693 68.5304C43.5367 69.2802 43.7638 70.0171 44.2092 70.607C44.4096 70.8575 44.6622 71.057 44.9478 71.1904C45.2333 71.3238 45.5443 71.3876 45.8571 71.3769C46.3324 71.3901 46.8002 71.2517 47.1979 70.9803C47.5736 70.7167 47.8646 70.3416 48.033 69.9037H50.4969C50.2988 70.9713 49.7474 71.9328 48.9386 72.6203C48.0682 73.3125 46.9929 73.6662 45.8987 73.6202C45.0366 73.6391 44.1855 73.4157 43.4349 72.9735C42.7324 72.5482 42.1625 71.921 41.7934 71.167C41.3957 70.3401 41.1969 69.425 41.2142 68.5004C41.1971 67.5758 41.3958 66.6608 41.7934 65.8339C42.1625 65.0799 42.7324 64.4527 43.4349 64.0273C44.1855 63.5851 45.0366 63.3617 45.8987 63.3806C46.9986 63.3503 48.074 63.7218 48.9386 64.4306Z" fill="#0E1821"/>
<path d="M57.6422 73.5472L55.6135 70.4274L53.8728 73.5472H51.2041L54.2824 68.3875L51.1113 63.5244H53.8728L55.8471 66.5442L57.5462 63.5244H60.2021L57.1654 68.5708L60.4037 73.5472H57.6422Z" fill="#0E1821"/>
</svg>
