<svg width="64" height="80" viewBox="0 0 64 80" fill="none" xmlns="http://www.w3.org/2000/svg">
<g opacity="0.3">
<path opacity="0.3" d="M44.6858 16.4159C42.9364 16.4141 41.2591 15.6894 40.0221 14.4008C38.7851 13.1123 38.0894 11.3651 38.0877 9.54284V6.19483e-07H8.60762C7.47657 -0.000437204 6.3565 0.231204 5.31142 0.681772C4.26635 1.13234 3.31676 1.79299 2.51684 2.62593C1.71692 3.45888 1.08237 4.44782 0.649439 5.53628C0.216508 6.62473 -0.00634773 7.79136 -0.00634766 8.96955V63.0403C-0.00634773 64.2185 0.216508 65.3852 0.649439 66.4736C1.08237 67.5621 1.71692 68.551 2.51684 69.384C3.31676 70.2169 4.26635 70.8775 5.31142 71.3281C6.3565 71.7786 7.47657 72.0104 8.60762 72.0099H43.9978C45.1286 72.0099 46.2483 71.7779 47.293 71.3272C48.3377 70.8764 49.287 70.2157 50.0865 69.3828C50.8861 68.5499 51.5203 67.5611 51.9531 66.4728C52.3858 65.3846 52.6086 64.2182 52.6086 63.0403V16.4159H44.6858Z" fill="#F3FFFA"/>
</g>
<path d="M52.609 16.4159H44.6862C42.9368 16.4141 41.2595 15.6894 40.0225 14.4008C38.7855 13.1123 38.0898 11.3651 38.0881 9.54284V0L52.609 16.4159Z" fill="#F3FFFA"/>
<path d="M41.7839 27.9089H8.74874C8.43135 27.9089 8.12697 27.7775 7.90254 27.5438C7.6781 27.31 7.55201 26.9929 7.55201 26.6623C7.55159 26.4983 7.58224 26.3358 7.6422 26.1842C7.70215 26.0326 7.79023 25.8947 7.9014 25.7786C8.01257 25.6625 8.14465 25.5704 8.29005 25.5076C8.43546 25.4447 8.59131 25.4124 8.74874 25.4124H41.7839C42.1021 25.4124 42.4073 25.5441 42.6323 25.7785C42.8574 26.0129 42.9838 26.3308 42.9838 26.6623C42.983 26.9932 42.8562 27.3103 42.6312 27.544C42.4063 27.7777 42.1016 27.9089 41.7839 27.9089Z" fill="#F3FFFA"/>
<path d="M41.7839 35.3653H8.74874C8.43135 35.3653 8.12697 35.234 7.90254 35.0002C7.6781 34.7664 7.55201 34.4493 7.55201 34.1187C7.55159 33.9547 7.58224 33.7923 7.6422 33.6406C7.70215 33.489 7.79023 33.3512 7.9014 33.235C8.01257 33.1189 8.14465 33.0268 8.29005 32.964C8.43546 32.9011 8.59131 32.8688 8.74874 32.8688H41.7839C42.1021 32.8688 42.4073 33.0004 42.6323 33.2348C42.8574 33.4692 42.9838 33.7872 42.9838 34.1187C42.983 34.4496 42.8562 34.7667 42.6312 35.0003C42.4063 35.234 42.1016 35.3653 41.7839 35.3653Z" fill="#F3FFFA"/>
<path d="M41.7839 42.8216H8.74874C8.59131 42.8216 8.43546 42.7893 8.29005 42.7264C8.14465 42.6636 8.01257 42.5715 7.9014 42.4553C7.79023 42.3392 7.70215 42.2014 7.6422 42.0498C7.58224 41.8981 7.55159 41.7357 7.55201 41.5717C7.55201 41.2411 7.6781 40.924 7.90254 40.6902C8.12697 40.4564 8.43135 40.3251 8.74874 40.3251H41.7839C42.1016 40.3251 42.4063 40.4563 42.6312 40.69C42.8562 40.9237 42.983 41.2408 42.9838 41.5717C42.9838 41.9032 42.8574 42.2211 42.6323 42.4555C42.4073 42.6899 42.1021 42.8216 41.7839 42.8216Z" fill="#F3FFFA"/>
<path d="M28.7541 50.278H8.74874C8.59131 50.278 8.43546 50.2457 8.29005 50.1828C8.14465 50.12 8.01257 50.0278 7.9014 49.9117C7.79023 49.7956 7.70215 49.6578 7.6422 49.5062C7.58224 49.3546 7.55159 49.1921 7.55201 49.0281C7.55201 48.6975 7.6781 48.3803 7.90254 48.1465C8.12697 47.9128 8.43135 47.7815 8.74874 47.7815H28.7541C29.0715 47.7815 29.3759 47.9128 29.6004 48.1465C29.8248 48.3803 29.9509 48.6975 29.9509 49.0281C29.9513 49.1921 29.9207 49.3546 29.8607 49.5062C29.8007 49.6578 29.7127 49.7956 29.6015 49.9117C29.4903 50.0278 29.3582 50.12 29.2128 50.1828C29.0674 50.2457 28.9115 50.278 28.7541 50.278Z" fill="#F3FFFA"/>
<path d="M58.8547 56.8678H18.844C16.0058 56.8678 13.7051 59.2645 13.7051 62.2209V74.647C13.7051 77.6034 16.0058 80 18.844 80H58.8547C61.6929 80 63.9937 77.6034 63.9937 74.647V62.2209C63.9937 59.2645 61.6929 56.8678 58.8547 56.8678Z" fill="#F3FFFA"/>
<path d="M24.3829 71.1239V73.5471H21.9734V71.1239H24.3829Z" fill="#0E1821"/>
<path d="M33.6436 71.1305C33.2429 71.8884 32.6377 72.5073 31.9029 72.9105C31.0759 73.351 30.1564 73.5698 29.2278 73.5471H25.5928V63.5243H29.2278C30.1571 63.5003 31.0779 63.7143 31.9092 64.1475C32.6412 64.5434 33.2445 65.1556 33.6436 65.9075C34.0573 66.7076 34.2656 67.6054 34.2483 68.514C34.2648 69.4257 34.0566 70.3265 33.6436 71.1305ZM31.1413 70.6272C31.4014 70.3491 31.6029 70.0175 31.733 69.6536C31.863 69.2897 31.9187 68.9016 31.8965 68.514C31.9188 68.1269 31.8632 67.7392 31.7332 67.3758C31.6031 67.0124 31.4015 66.6815 31.1413 66.4041C30.5583 65.8716 29.7969 65.6008 29.023 65.6508H27.9255V71.3772H29.0262C29.7983 71.4257 30.5579 71.1564 31.1413 70.6272Z" fill="#0E1821"/>
<path d="M42.6126 64.0275C43.3447 64.4606 43.9497 65.0932 44.3629 65.8574C44.7958 66.6644 45.0165 67.5762 45.0028 68.5006C45.0175 69.4272 44.7967 70.3413 44.3629 71.1504C43.9484 71.9175 43.3411 72.5525 42.6062 72.987C41.8581 73.432 41.01 73.662 40.1487 73.6536C39.2873 73.6615 38.4394 73.4315 37.6912 72.987C36.9565 72.5533 36.35 71.9181 35.9377 71.1504C35.5024 70.3419 35.2816 69.4273 35.2977 68.5006C35.2811 67.5758 35.5021 66.6633 35.9377 65.8574C36.3521 65.093 36.9582 64.4605 37.6912 64.0275C38.4394 63.5829 39.2873 63.3529 40.1487 63.3608C41.0121 63.3524 41.8622 63.5824 42.6126 64.0275ZM38.3248 66.394C37.8527 66.9822 37.6126 67.7351 37.6528 68.5006C37.6125 69.263 37.8528 70.0128 38.3248 70.5971C38.5547 70.8574 38.8366 71.0621 39.1506 71.1969C39.4645 71.3316 39.8031 71.3931 40.1423 71.377C40.4805 71.3921 40.8177 71.3302 41.1305 71.1955C41.4433 71.0608 41.7242 70.8566 41.9534 70.5971C42.4277 70.0138 42.6703 69.2639 42.6317 68.5006C42.6702 67.7384 42.4301 66.9893 41.9598 66.404C41.73 66.1435 41.4481 65.9387 41.1341 65.8039C40.8201 65.6691 40.4816 65.6077 40.1423 65.624C39.8039 65.6078 39.4662 65.6683 39.1524 65.8012C38.8386 65.9341 38.5563 66.1364 38.3248 66.394Z" fill="#0E1821"/>
<path d="M53.7448 64.4309C54.5563 65.1187 55.1083 66.0833 55.3032 67.154H52.8393C52.673 66.7103 52.3819 66.3292 52.0041 66.0608C51.6058 65.7907 51.1385 65.6524 50.6634 65.6641C50.3497 65.6537 50.0378 65.7186 49.752 65.8538C49.4663 65.9891 49.2142 66.1911 49.0155 66.4441C48.5699 67.0378 48.3429 67.7779 48.3755 68.5307C48.3429 69.2804 48.57 70.0174 49.0155 70.6073C49.2158 70.8577 49.4684 71.0572 49.754 71.1906C50.0396 71.3241 50.3506 71.3878 50.6634 71.3772C51.1387 71.3904 51.6064 71.252 52.0041 70.9805C52.3798 70.717 52.6708 70.3419 52.8393 69.9039H55.3032C55.1051 70.9716 54.5536 71.933 53.7448 72.6205C52.8744 73.3127 51.7992 73.6664 50.705 73.6205C49.8428 73.6394 48.9917 73.4159 48.2411 72.9738C47.5386 72.5484 46.9687 71.9212 46.5996 71.1672C46.2029 70.3401 46.0053 69.425 46.0236 68.5007C46.0055 67.5764 46.2032 66.6613 46.5996 65.8341C46.9687 65.0801 47.5386 64.4529 48.2411 64.0276C48.9917 63.5854 49.8428 63.3619 50.705 63.3809C51.8048 63.3505 52.8802 63.722 53.7448 64.4309Z" fill="#0E1821"/>
</svg>
