<svg width="64" height="80" viewBox="0 0 64 80" fill="none" xmlns="http://www.w3.org/2000/svg">
<g opacity="0.3">
<path opacity="0.3" d="M44.6856 16.4159C42.9362 16.4141 41.259 15.6894 40.022 14.4008C38.785 13.1123 38.0893 11.3651 38.0876 9.54284V6.19483e-07H8.6075C7.47645 -0.000437204 6.35638 0.231204 5.3113 0.681772C4.26623 1.13234 3.31664 1.79299 2.51672 2.62593C1.7168 3.45888 1.08225 4.44782 0.649317 5.53628C0.216386 6.62473 -0.0064698 7.79136 -0.00646973 8.96955V63.0403C-0.0064698 64.2185 0.216386 65.3852 0.649317 66.4736C1.08225 67.5621 1.7168 68.551 2.51672 69.384C3.31664 70.2169 4.26623 70.8775 5.3113 71.3281C6.35638 71.7786 7.47645 72.0104 8.6075 72.0099H43.9977C45.1284 72.0099 46.2481 71.7779 47.2928 71.3272C48.3376 70.8764 49.2868 70.2157 50.0864 69.3828C50.886 68.5499 51.5202 67.5611 51.953 66.4728C52.3857 65.3846 52.6084 64.2182 52.6084 63.0403V16.4159H44.6856Z" fill="#008FF3"/>
</g>
<path d="M52.6087 16.4159H44.6859C42.9366 16.4141 41.2593 15.6894 40.0223 14.4008C38.7853 13.1123 38.0896 11.3651 38.0879 9.54284V0L52.6087 16.4159Z" fill="#008FF3"/>
<path d="M41.7836 27.9089H8.7485C8.4311 27.9089 8.12672 27.7775 7.90229 27.5438C7.67786 27.31 7.55176 26.9929 7.55176 26.6623C7.55134 26.4983 7.582 26.3358 7.64195 26.1842C7.70191 26.0326 7.78999 25.8947 7.90116 25.7786C8.01233 25.6625 8.14441 25.5704 8.28981 25.5076C8.43521 25.4447 8.59107 25.4124 8.7485 25.4124H41.7836C42.1019 25.4124 42.4071 25.5441 42.6321 25.7785C42.8571 26.0129 42.9836 26.3308 42.9836 26.6623C42.9827 26.9932 42.8559 27.3103 42.631 27.544C42.406 27.7777 42.1013 27.9089 41.7836 27.9089Z" fill="#008FF3"/>
<path d="M41.7836 35.3653H8.7485C8.4311 35.3653 8.12672 35.234 7.90229 35.0002C7.67786 34.7664 7.55176 34.4493 7.55176 34.1187C7.55134 33.9547 7.582 33.7923 7.64195 33.6406C7.70191 33.489 7.78999 33.3512 7.90116 33.235C8.01233 33.1189 8.14441 33.0268 8.28981 32.964C8.43521 32.9011 8.59107 32.8688 8.7485 32.8688H41.7836C42.1019 32.8688 42.4071 33.0004 42.6321 33.2348C42.8571 33.4692 42.9836 33.7872 42.9836 34.1187C42.9827 34.4496 42.8559 34.7667 42.631 35.0003C42.406 35.234 42.1013 35.3653 41.7836 35.3653Z" fill="#008FF3"/>
<path d="M41.7836 42.8216H8.7485C8.59107 42.8216 8.43521 42.7893 8.28981 42.7264C8.14441 42.6636 8.01233 42.5715 7.90116 42.4553C7.78999 42.3392 7.70191 42.2014 7.64195 42.0498C7.582 41.8981 7.55134 41.7357 7.55176 41.5717C7.55176 41.2411 7.67786 40.924 7.90229 40.6902C8.12672 40.4564 8.4311 40.3251 8.7485 40.3251H41.7836C42.1013 40.3251 42.406 40.4563 42.631 40.69C42.8559 40.9237 42.9827 41.2408 42.9836 41.5717C42.9836 41.9032 42.8571 42.2211 42.6321 42.4555C42.4071 42.6899 42.1019 42.8216 41.7836 42.8216Z" fill="#008FF3"/>
<path d="M28.7539 50.278H8.7485C8.59107 50.278 8.43521 50.2457 8.28981 50.1828C8.14441 50.12 8.01233 50.0278 7.90116 49.9117C7.78999 49.7956 7.70191 49.6578 7.64195 49.5062C7.582 49.3546 7.55134 49.1921 7.55176 49.0281C7.55176 48.6975 7.67786 48.3803 7.90229 48.1465C8.12672 47.9128 8.4311 47.7815 8.7485 47.7815H28.7539C29.0713 47.7815 29.3757 47.9128 29.6001 48.1465C29.8246 48.3803 29.9506 48.6975 29.9506 49.0281C29.951 49.1921 29.9204 49.3546 29.8605 49.5062C29.8005 49.6578 29.7124 49.7956 29.6013 49.9117C29.4901 50.0278 29.358 50.12 29.2126 50.1828C29.0672 50.2457 28.9113 50.278 28.7539 50.278Z" fill="#008FF3"/>
<path d="M58.8546 56.8678H18.8439C16.0057 56.8678 13.705 59.2645 13.705 62.2209V74.647C13.705 77.6034 16.0057 80 18.8439 80H58.8546C61.6928 80 63.9935 77.6034 63.9935 74.647V62.2209C63.9935 59.2645 61.6928 56.8678 58.8546 56.8678Z" fill="#008FF3"/>
<path d="M24.3829 71.1239V73.5471H21.9734V71.1239H24.3829Z" fill="#F3FFFA"/>
<path d="M33.6433 71.1305C33.2427 71.8884 32.6375 72.5073 31.9026 72.9105C31.0756 73.351 30.1562 73.5698 29.2275 73.5471H25.5925V63.5243H29.2275C30.1569 63.5003 31.0776 63.7143 31.909 64.1475C32.6409 64.5434 33.2443 65.1556 33.6433 65.9075C34.057 66.7076 34.2654 67.6054 34.2481 68.514C34.2646 69.4257 34.0563 70.3265 33.6433 71.1305ZM31.1411 70.6272C31.4012 70.3491 31.6027 70.0175 31.7327 69.6536C31.8628 69.2897 31.9185 68.9016 31.8962 68.514C31.9186 68.1269 31.863 67.7392 31.7329 67.3758C31.6029 67.0124 31.4013 66.6815 31.1411 66.4041C30.5581 65.8716 29.7966 65.6008 29.0228 65.6508H27.9252V71.3772H29.0259C29.7981 71.4257 30.5577 71.1564 31.1411 70.6272Z" fill="#F3FFFA"/>
<path d="M42.6124 64.0275C43.3446 64.4606 43.9496 65.0932 44.3627 65.8574C44.7956 66.6644 45.0164 67.5762 45.0027 68.5006C45.0174 69.4272 44.7966 70.3413 44.3627 71.1504C43.9483 71.9175 43.341 72.5525 42.606 72.987C41.858 73.432 41.0099 73.662 40.1485 73.6536C39.2872 73.6615 38.4393 73.4315 37.6911 72.987C36.9564 72.5533 36.3499 71.9181 35.9376 71.1504C35.5023 70.3419 35.2814 69.4273 35.2976 68.5006C35.281 67.5758 35.502 66.6633 35.9376 65.8574C36.352 65.093 36.9581 64.4605 37.6911 64.0275C38.4393 63.5829 39.2872 63.3529 40.1485 63.3608C41.012 63.3524 41.8621 63.5824 42.6124 64.0275ZM38.3247 66.394C37.8526 66.9822 37.6125 67.7351 37.6527 68.5006C37.6124 69.263 37.8527 70.0128 38.3247 70.5971C38.5546 70.8574 38.8364 71.0621 39.1504 71.1969C39.4644 71.3316 39.8029 71.3931 40.1422 71.377C40.4804 71.3921 40.8176 71.3302 41.1304 71.1955C41.4432 71.0608 41.724 70.8566 41.9533 70.5971C42.4276 70.0138 42.6702 69.2639 42.6316 68.5006C42.67 67.7384 42.43 66.9893 41.9597 66.404C41.7299 66.1435 41.448 65.9387 41.134 65.8039C40.82 65.6691 40.4814 65.6077 40.1422 65.624C39.8038 65.6078 39.466 65.6683 39.1523 65.8012C38.8385 65.9341 38.5561 66.1364 38.3247 66.394Z" fill="#F3FFFA"/>
<path d="M53.7447 64.4309C54.5562 65.1187 55.1082 66.0833 55.303 67.154H52.8391C52.6729 66.7103 52.3818 66.3292 52.004 66.0608C51.6057 65.7907 51.1384 65.6524 50.6633 65.6641C50.3495 65.6537 50.0377 65.7186 49.7519 65.8538C49.4661 65.9891 49.2141 66.1911 49.0153 66.4441C48.5698 67.0378 48.3428 67.7779 48.3754 68.5307C48.3428 69.2804 48.5699 70.0174 49.0153 70.6073C49.2157 70.8577 49.4683 71.0572 49.7539 71.1906C50.0394 71.3241 50.3505 71.3878 50.6633 71.3772C51.1385 71.3904 51.6063 71.252 52.004 70.9805C52.3797 70.717 52.6707 70.3419 52.8391 69.9039H55.303C55.105 70.9716 54.5535 71.933 53.7447 72.6205C52.8743 73.3127 51.799 73.6664 50.7048 73.6205C49.8427 73.6394 48.9916 73.4159 48.241 72.9738C47.5385 72.5484 46.9686 71.9212 46.5995 71.1672C46.2028 70.3401 46.0052 69.425 46.0235 68.5007C46.0054 67.5764 46.2031 66.6613 46.5995 65.8341C46.9686 65.0801 47.5385 64.4529 48.241 64.0276C48.9916 63.5854 49.8427 63.3619 50.7048 63.3809C51.8047 63.3505 52.8801 63.722 53.7447 64.4309Z" fill="#F3FFFA"/>
</svg>
