<svg width="64" height="80" viewBox="0 0 64 80" fill="none" xmlns="http://www.w3.org/2000/svg">
<g opacity="0.3">
<path opacity="0.3" d="M44.6921 16.4159C42.9427 16.4141 41.2654 15.6894 40.0284 14.4008C38.7914 13.1123 38.0957 11.3651 38.094 9.54284V6.19483e-07H8.61397C7.48292 -0.000437204 6.36284 0.231204 5.31777 0.681772C4.2727 1.13234 3.32307 1.79299 2.52315 2.62593C1.72323 3.45888 1.08868 4.44782 0.655747 5.53628C0.222816 6.62473 -7.80952e-08 7.79136 0 8.96955V63.0403C-7.80952e-08 64.2185 0.222816 65.3852 0.655747 66.4736C1.08868 67.5621 1.72323 68.551 2.52315 69.384C3.32307 70.2169 4.2727 70.8775 5.31777 71.3281C6.36284 71.7786 7.48292 72.0104 8.61397 72.0099H44.0041C46.2878 72.0099 48.478 71.0649 50.0928 69.3828C51.7076 67.7006 52.6148 65.4192 52.6148 63.0403V16.4159H44.6921Z" fill="#008FF3"/>
</g>
<path d="M52.6151 16.4159H44.6923C42.9429 16.4141 41.2657 15.6894 40.0287 14.4008C38.7917 13.1123 38.0959 11.3651 38.0942 9.54284V0L52.6151 16.4159Z" fill="#008FF3"/>
<path d="M41.7899 27.9087H8.75484C8.43745 27.9087 8.13307 27.7773 7.90864 27.5435C7.68421 27.3097 7.55811 26.9927 7.55811 26.6621C7.55769 26.4981 7.58835 26.3356 7.6483 26.184C7.70825 26.0323 7.79634 25.8945 7.90751 25.7784C8.01867 25.6623 8.15071 25.5702 8.29612 25.5073C8.44152 25.4445 8.59742 25.4121 8.75484 25.4121H41.7899C42.1082 25.4121 42.4134 25.5438 42.6384 25.7782C42.8634 26.0126 42.9899 26.3305 42.9899 26.6621C42.989 26.993 42.8622 27.3101 42.6373 27.5438C42.4123 27.7775 42.1076 27.9087 41.7899 27.9087Z" fill="#008FF3"/>
<path d="M41.7899 35.3657H8.75484C8.43745 35.3657 8.13307 35.2343 7.90864 35.0005C7.68421 34.7668 7.55811 34.4497 7.55811 34.1191C7.55769 33.9551 7.58835 33.7926 7.6483 33.641C7.70825 33.4894 7.79634 33.3515 7.90751 33.2354C8.01867 33.1193 8.15071 33.0272 8.29612 32.9644C8.44152 32.9015 8.59742 32.8691 8.75484 32.8691H41.7899C42.1082 32.8691 42.4134 33.0008 42.6384 33.2352C42.8634 33.4696 42.9899 33.7876 42.9899 34.1191C42.989 34.45 42.8622 34.767 42.6373 35.0007C42.4123 35.2344 42.1076 35.3657 41.7899 35.3657Z" fill="#008FF3"/>
<path d="M41.7899 42.8217H8.75484C8.59742 42.8217 8.44152 42.7894 8.29612 42.7265C8.15071 42.6637 8.01867 42.5716 7.90751 42.4555C7.79634 42.3394 7.70825 42.2015 7.6483 42.0499C7.58835 41.8983 7.55769 41.7358 7.55811 41.5718C7.55811 41.2412 7.68421 40.9241 7.90864 40.6903C8.13307 40.4565 8.43745 40.3252 8.75484 40.3252H41.7899C42.1076 40.3252 42.4123 40.4564 42.6373 40.6901C42.8622 40.9238 42.989 41.2409 42.9899 41.5718C42.9899 41.9033 42.8634 42.2212 42.6384 42.4556C42.4134 42.69 42.1082 42.8217 41.7899 42.8217Z" fill="#008FF3"/>
<path d="M28.7538 50.2778H8.75484C8.59742 50.2778 8.44152 50.2454 8.29612 50.1826C8.15071 50.1197 8.01867 50.0275 7.90751 49.9114C7.79634 49.7953 7.70825 49.6576 7.6483 49.5059C7.58835 49.3543 7.55769 49.1918 7.55811 49.0279C7.55811 48.6972 7.68421 48.3801 7.90864 48.1463C8.13307 47.9125 8.43745 47.7812 8.75484 47.7813H28.7538C29.0712 47.7812 29.3756 47.9125 29.6 48.1463C29.8244 48.3801 29.9505 48.6972 29.9505 49.0279C29.951 49.1918 29.9203 49.3543 29.8603 49.5059C29.8004 49.6576 29.7123 49.7953 29.6011 49.9114C29.49 50.0275 29.3579 50.1197 29.2125 50.1826C29.0671 50.2454 28.9112 50.2778 28.7538 50.2778Z" fill="#008FF3"/>
<path d="M58.8611 56.8682H18.8504C16.0122 56.8682 13.7114 59.2648 13.7114 62.2212V74.6473C13.7114 77.6037 16.0122 80.0004 18.8504 80.0004H58.8611C61.6992 80.0004 64 77.6037 64 74.6473V62.2212C64 59.2648 61.6992 56.8682 58.8611 56.8682Z" fill="#008FF3"/>
<path d="M19.5767 71.124V73.5472H17.1672V71.124H19.5767Z" fill="#F3FFFA"/>
<path d="M28.837 71.1305C28.4355 71.8876 27.8305 72.5063 27.0963 72.9104C26.2693 73.351 25.3499 73.5697 24.4213 73.547H20.7863V63.5242H24.4213C25.3505 63.5007 26.2712 63.7146 27.1027 64.1475C27.8347 64.5433 28.438 65.1556 28.837 65.9074C29.2508 66.7075 29.4591 67.6054 29.4418 68.514C29.4583 69.4257 29.2501 70.3265 28.837 71.1305ZM26.3348 70.6271C26.5949 70.349 26.7964 70.0174 26.9264 69.6536C27.0565 69.2897 27.1122 68.9016 27.0899 68.514C27.1123 68.1269 27.0567 67.7391 26.9266 67.3758C26.7966 67.0124 26.5949 66.6814 26.3348 66.404C25.7518 65.8716 24.9903 65.6008 24.2165 65.6507H23.1157V71.3771H24.2165C24.9897 71.4265 25.7506 71.1571 26.3348 70.6271Z" fill="#F3FFFA"/>
<path d="M37.8063 64.0272C38.5384 64.4603 39.1435 65.0929 39.5566 65.8571C39.9896 66.6641 40.2104 67.5759 40.1966 68.5003C40.2127 69.4271 39.9919 70.3417 39.5566 71.1502C39.1443 71.9179 38.5378 72.5531 37.8031 72.9867C37.0551 73.4317 36.207 73.6618 35.3456 73.6534C34.4842 73.6618 33.6362 73.4317 32.8882 72.9867C32.1534 72.5531 31.5469 71.9179 31.1346 71.1502C30.6993 70.3417 30.4785 69.4271 30.4946 68.5003C30.478 67.5756 30.699 66.663 31.1346 65.8571C31.549 65.0928 32.1552 64.4602 32.8882 64.0272C33.6362 63.5822 34.4842 63.3522 35.3456 63.3606C36.2079 63.3527 37.0569 63.5827 37.8063 64.0272ZM33.5185 66.3937C33.0465 66.9819 32.8063 67.7348 32.8466 68.5003C32.8062 69.2628 33.0465 70.0126 33.5185 70.5969C33.7484 70.8572 34.0303 71.0619 34.3443 71.1966C34.6583 71.3314 34.9968 71.3929 35.336 71.3768C35.6741 71.3914 36.0113 71.3293 36.324 71.1946C36.6368 71.0599 36.9176 70.856 37.1471 70.5969C37.6214 70.0136 37.864 69.2637 37.8255 68.5003C37.8639 67.7381 37.6238 66.989 37.1535 66.4037C36.9237 66.1432 36.6419 65.9384 36.3279 65.8037C36.0138 65.6689 35.6753 65.6074 35.336 65.6237C34.9976 65.6075 34.6599 65.668 34.3461 65.801C34.0323 65.9339 33.75 66.1361 33.5185 66.3937Z" fill="#F3FFFA"/>
<path d="M48.9386 64.4306C49.7501 65.1185 50.3021 66.083 50.4969 67.1538H48.033C47.8668 66.71 47.5757 66.3289 47.1979 66.0605C46.7996 65.7904 46.3322 65.6522 45.8571 65.6639C45.5434 65.6534 45.2316 65.7183 44.9458 65.8536C44.66 65.9888 44.408 66.1908 44.2092 66.4439C43.7639 67.0377 43.5369 67.7777 43.5693 68.5304C43.5367 69.2802 43.7638 70.0171 44.2092 70.607C44.4096 70.8575 44.6622 71.057 44.9478 71.1904C45.2333 71.3238 45.5443 71.3876 45.8571 71.3769C46.3324 71.3901 46.8002 71.2517 47.1979 70.9803C47.5736 70.7167 47.8646 70.3416 48.033 69.9037H50.4969C50.2988 70.9713 49.7474 71.9328 48.9386 72.6203C48.0682 73.3125 46.9929 73.6662 45.8987 73.6202C45.0366 73.6391 44.1855 73.4157 43.4349 72.9735C42.7324 72.5482 42.1625 71.921 41.7934 71.167C41.3957 70.3401 41.1969 69.425 41.2142 68.5004C41.1971 67.5758 41.3958 66.6608 41.7934 65.8339C42.1625 65.0799 42.7324 64.4527 43.4349 64.0273C44.1855 63.5851 45.0366 63.3617 45.8987 63.3806C46.9986 63.3503 48.074 63.7218 48.9386 64.4306Z" fill="#F3FFFA"/>
<path d="M57.6422 73.5472L55.6135 70.4274L53.8728 73.5472H51.2041L54.2824 68.3875L51.1113 63.5244H53.8728L55.8471 66.5442L57.5462 63.5244H60.2021L57.1654 68.5708L60.4037 73.5472H57.6422Z" fill="#F3FFFA"/>
</svg>
