<svg width="32" height="41" viewBox="0 0 32 41" fill="none" xmlns="http://www.w3.org/2000/svg">
<g opacity="0.3">
<path opacity="0.3" d="M22.346 8.87396C21.4713 8.87308 20.6327 8.51072 20.0142 7.86644C19.3957 7.22216 19.0478 6.34858 19.047 5.43744V0.666016H4.30698C3.74146 0.665797 3.18142 0.781618 2.65888 1.0069C2.13635 1.23219 1.66154 1.56251 1.26157 1.97898C0.861614 2.39546 0.544339 2.88993 0.327874 3.43415C0.111408 3.97838 -3.90476e-08 4.5617 0 5.15079V32.1862C-3.90476e-08 32.7753 0.111408 33.3586 0.327874 33.9028C0.544339 34.4471 0.861614 34.9415 1.26157 35.358C1.66154 35.7745 2.13635 36.1048 2.65888 36.3301C3.18142 36.5553 3.74146 36.6712 4.30698 36.671H22.0021C23.1439 36.671 24.239 36.1985 25.0464 35.3574C25.8538 34.5163 26.3074 33.3756 26.3074 32.1862V8.87396H22.346Z" fill="#0EF3BF"/>
</g>
<path d="M26.3073 8.87396H22.3459C21.4712 8.87308 20.6326 8.51072 20.0141 7.86644C19.3956 7.22216 19.0477 6.34858 19.0469 5.43744V0.666016L26.3073 8.87396Z" fill="#0EF3BF"/>
<path d="M20.8952 14.6203H4.37767C4.21897 14.6203 4.06678 14.5547 3.95456 14.4378C3.84235 14.3209 3.7793 14.1624 3.7793 13.997C3.77909 13.915 3.79442 13.8338 3.82439 13.758C3.85437 13.6822 3.89841 13.6133 3.954 13.5552C4.00958 13.4972 4.0756 13.4511 4.1483 13.4197C4.22101 13.3882 4.29895 13.3721 4.37767 13.3721H20.8952C21.0543 13.3721 21.2069 13.4379 21.3194 13.5551C21.432 13.6723 21.4952 13.8313 21.4952 13.997C21.4947 14.1625 21.4313 14.3211 21.3189 14.4379C21.2064 14.5547 21.054 14.6203 20.8952 14.6203Z" fill="#0EF3BF"/>
<path d="M20.8952 18.3489H4.37767C4.21897 18.3489 4.06678 18.2832 3.95456 18.1663C3.84235 18.0494 3.7793 17.8909 3.7793 17.7256C3.77909 17.6436 3.79442 17.5623 3.82439 17.4865C3.85437 17.4107 3.89841 17.3418 3.954 17.2837C4.00958 17.2257 4.0756 17.1796 4.1483 17.1482C4.22101 17.1168 4.29895 17.1006 4.37767 17.1006H20.8952C21.0543 17.1006 21.2069 17.1664 21.3194 17.2836C21.432 17.4008 21.4952 17.5598 21.4952 17.7256C21.4947 17.891 21.4313 18.0495 21.3189 18.1664C21.2064 18.2832 21.054 18.3489 20.8952 18.3489Z" fill="#0EF3BF"/>
<path d="M20.8952 22.0769H4.37767C4.29895 22.0769 4.22101 22.0607 4.1483 22.0293C4.0756 21.9979 4.00958 21.9518 3.954 21.8937C3.89841 21.8357 3.85437 21.7668 3.82439 21.691C3.79442 21.6151 3.77909 21.5339 3.7793 21.4519C3.7793 21.2866 3.84235 21.1281 3.95456 21.0112C4.06678 20.8943 4.21897 20.8286 4.37767 20.8286H20.8952C21.054 20.8286 21.2064 20.8942 21.3189 21.0111C21.4313 21.1279 21.4947 21.2865 21.4952 21.4519C21.4952 21.6177 21.432 21.7766 21.3194 21.8938C21.2069 22.011 21.0543 22.0769 20.8952 22.0769Z" fill="#0EF3BF"/>
<path d="M14.3771 25.8049H4.37767C4.29895 25.8049 4.22101 25.7887 4.1483 25.7573C4.0756 25.7259 4.00958 25.6798 3.954 25.6217C3.89841 25.5637 3.85437 25.4948 3.82439 25.419C3.79442 25.3432 3.77909 25.2619 3.7793 25.1799C3.7793 25.0146 3.84235 24.8561 3.95456 24.7392C4.06678 24.6223 4.21897 24.5566 4.37767 24.5566H14.3771C14.5358 24.5566 14.688 24.6223 14.8002 24.7392C14.9125 24.8561 14.9755 25.0146 14.9755 25.1799C14.9757 25.2619 14.9604 25.3432 14.9304 25.419C14.9004 25.4948 14.8564 25.5637 14.8008 25.6217C14.7452 25.6798 14.6792 25.7259 14.6065 25.7573C14.5338 25.7887 14.4559 25.8049 14.3771 25.8049Z" fill="#0EF3BF"/>
<path d="M29.4303 29.1001H9.42493C8.00586 29.1001 6.85547 30.2984 6.85547 31.7766V37.9897C6.85547 39.4679 8.00586 40.6662 9.42493 40.6662H29.4303C30.8494 40.6662 31.9998 39.4679 31.9998 37.9897V31.7766C31.9998 30.2984 30.8494 29.1001 29.4303 29.1001Z" fill="#0EF3BF"/>
<path d="M9.78871 36.228V37.4396H8.58398V36.228H9.78871Z" fill="#E9F8F8"/>
<path d="M14.4189 36.2312C14.2182 36.6098 13.9157 36.9191 13.5486 37.1212C13.1351 37.3415 12.6754 37.4509 12.2111 37.4395H10.3936V32.4281H12.2111C12.6757 32.4164 13.136 32.5233 13.5518 32.7398C13.9178 32.9377 14.2194 33.2438 14.4189 33.6197C14.6258 34.0198 14.73 34.4687 14.7213 34.923C14.7296 35.3788 14.6255 35.8293 14.4189 36.2312ZM13.1678 35.9796C13.2979 35.8405 13.3986 35.6747 13.4636 35.4928C13.5287 35.3109 13.5565 35.1168 13.5454 34.923C13.5566 34.7294 13.5288 34.5356 13.4637 34.3539C13.3987 34.1722 13.2979 34.0067 13.1678 33.868C12.8763 33.6018 12.4956 33.4664 12.1087 33.4914H11.5583V36.3546H12.1087C12.4953 36.3793 12.8757 36.2446 13.1678 35.9796Z" fill="#E9F8F8"/>
<path d="M18.9033 32.6796C19.2694 32.8962 19.5719 33.2125 19.7785 33.5946C19.995 33.9981 20.1054 34.454 20.0985 34.9162C20.1066 35.3796 19.9961 35.8369 19.7785 36.2411C19.5723 36.6249 19.2691 36.9426 18.9017 37.1594C18.5277 37.3819 18.1037 37.4969 17.673 37.4927C17.2423 37.4969 16.8183 37.3819 16.4443 37.1594C16.0769 36.9426 15.7736 36.6249 15.5675 36.2411C15.3499 35.8369 15.2394 35.3796 15.2475 34.9162C15.2392 34.4538 15.3497 33.9975 15.5675 33.5946C15.7747 33.2124 16.0778 32.8961 16.4443 32.6796C16.8183 32.4571 17.2423 32.3421 17.673 32.3463C18.1041 32.3424 18.5286 32.4574 18.9033 32.6796ZM16.7594 33.8629C16.5234 34.157 16.4033 34.5334 16.4235 34.9162C16.4033 35.2974 16.5234 35.6723 16.7594 35.9645C16.8744 36.0946 17.0153 36.197 17.1723 36.2643C17.3293 36.3317 17.4986 36.3624 17.6682 36.3544C17.8372 36.3617 18.0058 36.3307 18.1622 36.2633C18.3186 36.196 18.459 36.094 18.5737 35.9645C18.8109 35.6728 18.9322 35.2978 18.9129 34.9162C18.9321 34.5351 18.8121 34.1605 18.5769 33.8679C18.462 33.7376 18.3211 33.6352 18.1641 33.5678C18.0071 33.5005 17.8378 33.4697 17.6682 33.4779C17.499 33.4698 17.3301 33.5 17.1732 33.5665C17.0164 33.633 16.8752 33.7341 16.7594 33.8629Z" fill="#E9F8F8"/>
<path d="M24.4692 32.8813C24.8749 33.2253 25.1509 33.7075 25.2483 34.2429H24.0164C23.9333 34.021 23.7877 33.8305 23.5988 33.6963C23.3997 33.5612 23.166 33.4921 22.9284 33.498C22.7716 33.4927 22.6157 33.5252 22.4728 33.5928C22.3299 33.6604 22.2039 33.7614 22.1045 33.888C21.8818 34.1848 21.7683 34.5549 21.7845 34.9312C21.7682 35.3061 21.8818 35.6746 22.1045 35.9695C22.2047 36.0947 22.331 36.1945 22.4738 36.2612C22.6165 36.3279 22.772 36.3598 22.9284 36.3545C23.1661 36.3611 23.4 36.2919 23.5988 36.1562C23.7867 36.0244 23.9322 35.8368 24.0164 35.6179H25.2483C25.1493 36.1517 24.8736 36.6324 24.4692 36.9761C24.034 37.3223 23.4963 37.4991 22.9492 37.4761C22.5182 37.4856 22.0926 37.3739 21.7173 37.1528C21.3661 36.9401 21.0811 36.6265 20.8966 36.2495C20.6977 35.8361 20.5984 35.3785 20.607 34.9162C20.5984 34.4539 20.6978 33.9964 20.8966 33.583C21.0811 33.2059 21.3661 32.8923 21.7173 32.6797C22.0926 32.4586 22.5182 32.3469 22.9492 32.3563C23.4992 32.3412 24.0369 32.5269 24.4692 32.8813Z" fill="#E9F8F8"/>
<path d="M28.8211 37.4396L27.8067 35.8797L26.9364 37.4396H25.6021L27.1412 34.8597L25.5557 32.4282H26.9364L27.9235 33.9381L28.7731 32.4282H30.101L28.5827 34.9514L30.2018 37.4396H28.8211Z" fill="#E9F8F8"/>
</svg>
