<svg width="64" height="80" viewBox="0 0 64 80" fill="none" xmlns="http://www.w3.org/2000/svg">
<g opacity="0.3">
<path opacity="0.3" d="M44.7023 16.4133C42.9525 16.4124 41.2747 15.688 40.0374 14.3992C38.8002 13.1104 38.1047 11.3626 38.1038 9.54V0H8.61906C7.48795 -8.13533e-08 6.36794 0.232112 5.32297 0.683105C4.278 1.1341 3.32849 1.79512 2.52883 2.62842C1.72916 3.46171 1.09499 4.45096 0.662422 5.53963C0.229857 6.62831 0.00739276 7.79511 0.00781309 8.97335V63.0433C0.00739276 64.2216 0.229857 65.3883 0.662422 66.477C1.09499 67.5657 1.72916 68.5549 2.52883 69.3882C3.32849 70.2215 4.278 70.8825 5.32297 71.3335C6.36794 71.7845 7.48795 72.0167 8.61906 72.0167H44.011C45.1421 72.0167 46.2621 71.7845 47.3071 71.3335C48.3521 70.8825 49.3015 70.2215 50.1012 69.3882C50.9008 68.5549 51.5351 67.5657 51.9677 66.477C52.4002 65.3883 52.6227 64.2216 52.6223 63.0433V16.4167L44.7023 16.4133Z" fill="#F3FFFA"/>
</g>
<path d="M52.6222 16.4133H44.7022C42.9525 16.4124 41.2746 15.688 40.0374 14.3992C38.8001 13.1104 38.1046 11.3626 38.1038 9.54V0L52.6222 16.4133Z" fill="#F3FFFA"/>
<path d="M58.8686 56.8667H18.8558C16.0175 56.8667 13.7166 59.2635 13.7166 62.2201V74.6467C13.7166 77.6033 16.0175 80 18.8558 80H58.8686C61.7069 80 64.0077 77.6033 64.0077 74.6467V62.2201C64.0077 59.2635 61.7069 56.8667 58.8686 56.8667Z" fill="#F3FFFA"/>
<path d="M26.9584 71.1233V73.55H24.5488V71.1233H26.9584Z" fill="#0E1821"/>
<path d="M34.1103 63.5266V70.3733C34.1103 71.4244 33.8361 72.2322 33.2879 72.7966C32.9818 73.0906 32.6221 73.3173 32.2301 73.4634C31.8382 73.6094 31.4219 73.6717 31.0063 73.6466C30.5511 73.672 30.0956 73.6033 29.6661 73.4442C29.2366 73.2852 28.8415 73.039 28.5039 72.72C27.8874 72.1 27.5781 71.2111 27.5759 70.0533H29.8767C29.8767 70.99 30.2191 71.4566 30.8975 71.4566C31.4895 71.4566 31.7839 71.0966 31.7839 70.38V63.5333L34.1103 63.5266Z" fill="#0E1821"/>
<path d="M37.9695 70.0333V73.55H35.6431V63.5266H39.4127C40.554 63.5266 41.4244 63.8211 42.0238 64.41C42.3272 64.7196 42.5642 65.0927 42.7192 65.5046C42.8741 65.9166 42.9437 66.358 42.9231 66.8C42.9318 67.3824 42.7939 67.957 42.5231 68.4666C42.2444 68.9635 41.83 69.3627 41.3327 69.6133C40.7336 69.9095 40.0756 70.0535 39.4127 70.0333H37.9695ZM40.555 66.8C40.555 65.9111 40.0879 65.4666 39.1535 65.4666H37.9695V68.0766H39.1535C40.0879 68.0855 40.555 67.66 40.555 66.8Z" fill="#0E1821"/>
<path d="M51.5535 64.3334C52.3282 64.9403 52.8495 65.8341 53.0095 66.83H50.5455C50.3787 66.4812 50.1157 66.1922 49.7903 66C49.4238 65.7733 49.0036 65.6578 48.5774 65.6667C48.2466 65.6527 47.9168 65.7147 47.6115 65.8483C47.3062 65.982 47.0329 66.184 46.811 66.44C46.3417 67.0231 46.1027 67.7702 46.1423 68.53C46.1423 69.4834 46.3759 70.2156 46.8431 70.7267C47.1058 70.9921 47.4188 71.1974 47.7621 71.3294C48.1054 71.4614 48.4714 71.5173 48.8367 71.4934C49.3588 71.5033 49.8699 71.336 50.2927 71.0167C50.7244 70.6809 51.0363 70.2046 51.1791 69.6634H48.2382V67.92H53.1246V70.3167C52.938 70.9133 52.6424 71.4668 52.2542 71.9467C51.8339 72.4639 51.3109 72.8801 50.7214 73.1667C50.055 73.4875 49.3275 73.647 48.5935 73.6334C47.7006 73.6578 46.8174 73.4358 46.0335 72.99C45.3163 72.5699 44.7324 71.9409 44.3535 71.1801C43.9463 70.3563 43.7428 69.4397 43.7614 68.5134C43.7454 67.5927 43.9489 66.6821 44.3535 65.8634C44.7318 65.1043 45.313 64.4756 46.0271 64.0534C46.7996 63.6111 47.6705 63.3891 48.5518 63.41C49.6231 63.3614 50.6794 63.6863 51.5535 64.3334Z" fill="#0E1821"/>
<path d="M33.3839 48.8033H19.2495C17.8658 48.8016 16.5392 48.2282 15.5608 47.209C14.5824 46.1898 14.032 44.808 14.0303 43.3667V28.6434C14.032 27.202 14.5824 25.8202 15.5608 24.801C16.5392 23.7818 17.8658 23.2084 19.2495 23.2067H33.3839C34.7673 23.2084 36.0935 23.7819 37.0714 24.8012C38.0493 25.8205 38.599 27.2023 38.5999 28.6434V43.3667C38.599 44.8077 38.0493 46.1895 37.0714 47.2088C36.0935 48.2281 34.7673 48.8016 33.3839 48.8033ZM19.2495 25.61C18.4774 25.6109 17.7372 25.9308 17.1913 26.4994C16.6454 27.0681 16.3383 27.8391 16.3375 28.6434V43.3667C16.3383 44.1709 16.6454 44.9419 17.1913 45.5106C17.7372 46.0792 18.4774 46.3991 19.2495 46.4H33.3839C34.1556 46.3991 34.8955 46.0791 35.4409 45.5104C35.9863 44.9416 36.2927 44.1706 36.2927 43.3667V28.6434C36.2927 27.8394 35.9863 27.0684 35.4409 26.4996C34.8955 25.9309 34.1556 25.6109 33.3839 25.61H19.2495Z" fill="#F3FFFA"/>
<path d="M37.4479 40.5666V43.3666C37.447 44.4891 37.0186 45.5653 36.2566 46.359C35.4947 47.1528 34.4615 47.5991 33.3839 47.6H19.2495C18.1717 47.6 17.138 47.1539 16.3759 46.36C15.6137 45.5661 15.1855 44.4894 15.1855 43.3666V38.6666C17.4479 38.16 20.8943 37.9999 25.0767 39.7399L27.6688 37.1666L29.4351 41.8333C29.4351 41.8333 29.9087 40.1166 31.4383 40.3599C32.9679 40.6033 35.4447 41.4666 36.5039 40.7299C36.7893 40.5585 37.1246 40.5004 37.4479 40.5666Z" fill="#F3FFFA"/>
<path d="M32.4974 31.65C33.3652 31.65 34.0687 30.9173 34.0687 30.0134C34.0687 29.1095 33.3652 28.3767 32.4974 28.3767C31.6297 28.3767 30.9263 29.1095 30.9263 30.0134C30.9263 30.9173 31.6297 31.65 32.4974 31.65Z" fill="#F3FFFA"/>
</svg>
