<svg width="64" height="80" viewBox="0 0 64 80" fill="none" xmlns="http://www.w3.org/2000/svg">
<g opacity="0.3">
<path opacity="0.3" d="M44.7024 16.4133C42.9526 16.4124 41.2748 15.688 40.0375 14.3992C38.8003 13.1104 38.1048 11.3626 38.104 9.54V0H8.61919C7.48808 -8.13533e-08 6.36806 0.232112 5.32309 0.683105C4.27812 1.1341 3.32862 1.79512 2.52895 2.62842C1.72929 3.46171 1.09511 4.45096 0.662545 5.53963C0.229979 6.62831 0.00751483 7.79511 0.00793516 8.97335V63.0433C0.00751483 64.2216 0.229979 65.3883 0.662545 66.477C1.09511 67.5657 1.72929 68.5549 2.52895 69.3882C3.32862 70.2215 4.27812 70.8825 5.32309 71.3335C6.36806 71.7845 7.48808 72.0167 8.61919 72.0167H44.0111C45.1422 72.0167 46.2623 71.7845 47.3072 71.3335C48.3522 70.8825 49.3016 70.2215 50.1013 69.3882C50.901 68.5549 51.5352 67.5657 51.9678 66.477C52.4003 65.3883 52.6228 64.2216 52.6224 63.0433V16.4167L44.7024 16.4133Z" fill="#008FF3"/>
</g>
<path d="M52.6223 16.4133H44.7023C42.9526 16.4124 41.2747 15.688 40.0375 14.3992C38.8002 13.1104 38.1047 11.3626 38.1039 9.54V0L52.6223 16.4133Z" fill="#008FF3"/>
<path d="M58.8687 56.8667H18.8559C16.0176 56.8667 13.7167 59.2635 13.7167 62.2201V74.6467C13.7167 77.6033 16.0176 80 18.8559 80H58.8687C61.707 80 64.0078 77.6033 64.0078 74.6467V62.2201C64.0078 59.2635 61.707 56.8667 58.8687 56.8667Z" fill="#008FF3"/>
<path d="M26.9584 71.1233V73.55H24.5488V71.1233H26.9584Z" fill="#F3FFFA"/>
<path d="M34.1104 63.5266V70.3733C34.1104 71.4244 33.8363 72.2322 33.288 72.7966C32.9819 73.0906 32.6223 73.3173 32.2303 73.4634C31.8383 73.6094 31.422 73.6717 31.0064 73.6466C30.5512 73.672 30.0957 73.6033 29.6662 73.4442C29.2367 73.2852 28.8417 73.039 28.504 72.72C27.8875 72.1 27.5782 71.2111 27.576 70.0533H29.8768C29.8768 70.99 30.2192 71.4566 30.8976 71.4566C31.4896 71.4566 31.784 71.0966 31.784 70.38V63.5333L34.1104 63.5266Z" fill="#F3FFFA"/>
<path d="M37.9696 70.0333V73.55H35.6432V63.5266H39.4128C40.5541 63.5266 41.4245 63.8211 42.024 64.41C42.3273 64.7196 42.5643 65.0927 42.7193 65.5046C42.8743 65.9166 42.9438 66.358 42.9232 66.8C42.9319 67.3824 42.794 67.957 42.5232 68.4666C42.2445 68.9635 41.8301 69.3627 41.3328 69.6133C40.7337 69.9095 40.0757 70.0535 39.4128 70.0333H37.9696ZM40.5551 66.8C40.5551 65.9111 40.088 65.4666 39.1536 65.4666H37.9696V68.0766H39.1536C40.088 68.0855 40.5551 67.66 40.5551 66.8Z" fill="#F3FFFA"/>
<path d="M51.5536 64.3334C52.3284 64.9403 52.8496 65.8341 53.0096 66.83H50.5456C50.3788 66.4812 50.1158 66.1922 49.7904 66C49.4239 65.7733 49.0038 65.6578 48.5776 65.6667C48.2467 65.6527 47.9169 65.7147 47.6116 65.8483C47.3064 65.982 47.0331 66.184 46.8112 66.44C46.3418 67.0231 46.1028 67.7702 46.1424 68.53C46.1424 69.4834 46.376 70.2156 46.8432 70.7267C47.1059 70.9921 47.419 71.1974 47.7623 71.3294C48.1056 71.4614 48.4716 71.5173 48.8368 71.4934C49.3589 71.5033 49.87 71.336 50.2928 71.0167C50.7245 70.6809 51.0365 70.2046 51.1792 69.6634H48.2383V67.92H53.1248V70.3167C52.9381 70.9133 52.6425 71.4668 52.2544 71.9467C51.834 72.4639 51.311 72.8801 50.7216 73.1667C50.0551 73.4875 49.3276 73.647 48.5936 73.6334C47.7007 73.6578 46.8175 73.4358 46.0336 72.99C45.3164 72.5699 44.7325 71.9409 44.3536 71.1801C43.9464 70.3563 43.7429 69.4397 43.7616 68.5134C43.7456 67.5927 43.949 66.6821 44.3536 65.8634C44.7319 65.1043 45.3132 64.4756 46.0272 64.0534C46.7997 63.6111 47.6706 63.3891 48.5519 63.41C49.6232 63.3614 50.6795 63.6863 51.5536 64.3334Z" fill="#F3FFFA"/>
<path d="M33.384 48.8033H19.2496C17.8659 48.8016 16.5394 48.2282 15.5609 47.209C14.5825 46.1898 14.0321 44.808 14.0304 43.3667V28.6434C14.0321 27.202 14.5825 25.8202 15.5609 24.801C16.5394 23.7818 17.8659 23.2084 19.2496 23.2067H33.384C34.7674 23.2084 36.0936 23.7819 37.0715 24.8012C38.0494 25.8205 38.5992 27.2023 38.6 28.6434V43.3667C38.5992 44.8077 38.0494 46.1895 37.0715 47.2088C36.0936 48.2281 34.7674 48.8016 33.384 48.8033ZM19.2496 25.61C18.4776 25.6109 17.7373 25.9308 17.1914 26.4994C16.6455 27.0681 16.3384 27.8391 16.3376 28.6434V43.3667C16.3384 44.1709 16.6455 44.9419 17.1914 45.5106C17.7373 46.0792 18.4776 46.3991 19.2496 46.4H33.384C34.1557 46.3991 34.8956 46.0791 35.441 45.5104C35.9864 44.9416 36.2928 44.1706 36.2928 43.3667V28.6434C36.2928 27.8394 35.9864 27.0684 35.441 26.4996C34.8956 25.9309 34.1557 25.6109 33.384 25.61H19.2496Z" fill="#008FF3"/>
<path d="M37.4479 40.5666V43.3666C37.447 44.4891 37.0186 45.5653 36.2566 46.359C35.4947 47.1528 34.4615 47.5991 33.3839 47.6H19.2495C18.1717 47.6 17.138 47.1539 16.3759 46.36C15.6137 45.5661 15.1855 44.4894 15.1855 43.3666V38.6666C17.4479 38.16 20.8943 37.9999 25.0767 39.7399L27.6688 37.1666L29.4351 41.8333C29.4351 41.8333 29.9087 40.1166 31.4383 40.3599C32.9679 40.6033 35.4447 41.4666 36.5039 40.7299C36.7893 40.5585 37.1246 40.5004 37.4479 40.5666Z" fill="#008FF3"/>
<path d="M32.4976 31.65C33.3653 31.65 34.0688 30.9173 34.0688 30.0134C34.0688 29.1095 33.3653 28.3767 32.4976 28.3767C31.6298 28.3767 30.9264 29.1095 30.9264 30.0134C30.9264 30.9173 31.6298 31.65 32.4976 31.65Z" fill="#008FF3"/>
</svg>
