<svg width="120" height="120" viewBox="0 0 120 120" fill="none" xmlns="http://www.w3.org/2000/svg">
<g id="Real Asset_contract 1" style="mix-blend-mode:multiply">
<g id="Group">
<g id="Group_2">
<path id="Vector" d="M76.6523 18H33.9961C33.6697 18 33.3568 18.1296 33.126 18.3604L18.3603 33.126C18.1296 33.3567 18 33.6697 18 33.9961V100.77C18 101.449 18.5508 102 19.2305 102H76.6523C77.332 102 77.8828 101.449 77.8828 100.77V19.2305C77.8828 18.5509 77.332 18 76.6523 18ZM32.3858 22.5809L31.4568 30.9413C31.3413 31.9814 30.4651 32.7656 29.4187 32.7656H22.2011L32.3858 22.5809ZM75.4219 99.5391H20.4609V35.2266H29.4187C31.7208 35.2266 33.6486 33.5011 33.9027 31.213L35.0974 20.4609H75.4219V99.5391Z" fill="#949494"/>
<path id="Vector_2" d="M67.6289 85.5938H56.9648C54.9294 85.5938 53.2734 87.2497 53.2734 89.2852V91.7461C53.2734 93.7816 54.9294 95.4375 56.9648 95.4375H67.6289C69.6643 95.4375 71.3203 93.7816 71.3203 91.7461V89.2852C71.3203 87.2497 69.6643 85.5938 67.6289 85.5938ZM68.8594 91.7461C68.8594 92.4246 68.3074 92.9766 67.6289 92.9766H56.9648C56.2863 92.9766 55.7344 92.4246 55.7344 91.7461V89.2852C55.7344 88.6066 56.2863 88.0547 56.9648 88.0547H67.6289C68.3074 88.0547 68.8594 88.6066 68.8594 89.2852V91.7461Z" fill="#949494"/>
<path id="Vector_3" d="M98.3086 31.125H94.6172V29.0742C94.6172 28.3947 94.0664 27.8438 93.3867 27.8438V21.2812C93.3867 19.472 91.9148 18 90.1055 18C88.2961 18 86.8242 19.472 86.8242 21.2812V27.8438C86.1446 27.8438 85.5938 28.3947 85.5938 29.0742V60.2356C85.1161 60.4047 84.7734 60.859 84.7734 61.3945V87.665C84.7734 91.1131 85.9892 94.4707 88.1965 97.1195L88.875 97.9338V100.77C88.875 101.449 89.4258 102 90.1055 102C90.7851 102 91.3359 101.449 91.3359 100.77V97.9338L92.0145 97.1195C94.2216 94.4708 95.4375 91.1128 95.4375 87.665V61.3945C95.4375 60.859 95.0948 60.4047 94.6172 60.2356V38.5078H99.5391V52.043C99.5391 52.7225 100.09 53.2734 100.77 53.2734C101.449 53.2734 102 52.7225 102 52.043V34.8164C102 32.7809 100.344 31.125 98.3086 31.125ZM92.1562 60.1641H88.0547V30.3047H92.1562V60.1641ZM92.9766 66.7266H87.2344V62.625H92.9766V66.7266ZM89.2852 21.2812C89.2852 20.829 89.6532 20.4609 90.1055 20.4609C90.5578 20.4609 90.9258 20.829 90.9258 21.2812V27.8438H89.2852V21.2812ZM90.1239 95.5441L90.1055 95.5662L90.087 95.5441C88.2474 93.3367 87.2344 90.5385 87.2344 87.665V69.1875H92.9766V87.665C92.9766 90.5385 91.9635 93.3367 90.1239 95.5441ZM94.6172 33.5859H98.3086C98.9871 33.5859 99.5391 34.1379 99.5391 34.8164V36.0469H94.6172V33.5859Z" fill="#949494"/>
<path id="Vector_4" d="M47.9414 85.5938H25.793C25.1133 85.5938 24.5625 86.1447 24.5625 86.8242C24.5625 87.5038 25.1133 88.0547 25.793 88.0547H47.9414C48.621 88.0547 49.1719 87.5038 49.1719 86.8242C49.1719 86.1447 48.621 85.5938 47.9414 85.5938Z" fill="#949494"/>
<path id="Vector_5" d="M47.9414 92.9766H25.793C25.1133 92.9766 24.5625 93.5275 24.5625 94.207C24.5625 94.8866 25.1133 95.4375 25.793 95.4375H47.9414C48.621 95.4375 49.1719 94.8866 49.1719 94.207C49.1719 93.5275 48.621 92.9766 47.9414 92.9766Z" fill="#949494"/>
<path id="Vector_6" d="M32.3555 78.2109C31.6758 78.2109 31.125 78.7618 31.125 79.4414C31.125 80.121 31.6758 80.6719 32.3555 80.6719H70.0898C70.7695 80.6719 71.3203 80.121 71.3203 79.4414C71.3203 78.7618 70.7695 78.2109 70.0898 78.2109H32.3555Z" fill="#949494"/>
<path id="Vector_7" d="M25.793 80.6719H27.4336C28.1132 80.6719 28.6641 80.121 28.6641 79.4414C28.6641 78.7618 28.1132 78.2109 27.4336 78.2109H25.793C25.1133 78.2109 24.5625 78.7618 24.5625 79.4414C24.5625 80.121 25.1133 80.6719 25.793 80.6719Z" fill="#949494"/>
</g>
<g id="Group_3">
<path id="Vector_8" d="M67.6289 68.3672H28.2539C26.2185 68.3672 24.5625 70.0231 24.5625 72.0586C24.5625 74.0941 26.2185 75.75 28.2539 75.75H67.6289C69.6643 75.75 71.3203 74.0941 71.3203 72.0586C71.3203 70.0231 69.6643 68.3672 67.6289 68.3672Z" fill="#F32100"/>
<path id="Vector_9" d="M48.5243 36.6131L63.9375 44.9045V39.8063C63.9375 39.3534 63.6887 38.9372 63.2899 38.7227L48.5243 30.7797C48.1606 30.5839 47.7222 30.5839 47.3585 30.7797L32.5929 38.7227C32.1941 38.9372 31.9453 39.3534 31.9453 39.8063V44.9045L47.3585 36.6131C47.7222 36.4173 48.1606 36.4173 48.5243 36.6131Z" fill="#F32100"/>
<path id="Vector_10" d="M31.5352 64.2656H64.3477C65.0273 64.2656 65.5781 63.7147 65.5781 63.0352C65.5781 62.3556 65.0273 61.8047 64.3477 61.8047H31.5352C30.8555 61.8047 30.3047 62.3556 30.3047 63.0352C30.3047 63.7147 30.8555 64.2656 31.5352 64.2656Z" fill="#F32100"/>
<path id="Vector_11" d="M46.3322 48.4277C45.1841 48.4277 44.25 49.3618 44.25 50.51V59.3445H51.6328V50.51C51.6328 49.3618 50.6987 48.4277 49.5506 48.4277H46.3322Z" fill="#F32100"/>
<path id="Vector_12" d="M60.6562 59.3436V45.9336L47.9414 39.0938L35.2266 45.9336V59.3436H41.7891V50.5091C41.7891 48.0039 43.827 45.9659 46.3322 45.9659H49.5506C52.0558 45.9659 54.0938 48.0039 54.0938 50.5091V59.3436H60.6562Z" fill="#F32100"/>
</g>
</g>
</g>
</svg>
