<svg width="40" height="41" viewBox="0 0 40 41" fill="none" xmlns="http://www.w3.org/2000/svg">
<g id="&#209;&#128;&#208;&#181;&#208;&#191;&#208;&#187;&#208;&#176;&#208;&#189;-&#208;&#184;&#208;&#186;&#208;&#190;&#208;&#189;&#208;&#186;&#208;&#184;_&#209;&#128;&#208;&#176;&#209;&#129;&#209;&#136;&#208;&#184;&#209;&#128;&#208;&#181;&#208;&#189;&#208;&#184;&#208;&#181;_&#208;&#186;&#209;&#131;&#209;&#133;&#208;&#189;&#208;&#184; 1" style="mix-blend-mode:multiply">
<g id="Group">
<g id="Group_2">
<g id="Group_3">
<path id="Vector" d="M3.98608 21.2246H1.79004C1.57428 21.2246 1.39941 21.0497 1.39941 20.834C1.39941 20.6182 1.57428 20.4434 1.79004 20.4434H3.98608C4.20184 20.4434 4.37671 20.6182 4.37671 20.834C4.37671 21.0497 4.20184 21.2246 3.98608 21.2246Z" fill="#0E1821"/>
</g>
<g id="Group_4">
<path id="Vector_2" d="M2.40829 22.4611C2.30835 22.4611 2.20833 22.423 2.13211 22.3467L0.895691 21.1103C0.743103 20.9577 0.743103 20.7104 0.895691 20.5579L2.13211 19.3215C2.28455 19.1689 2.53204 19.1689 2.68448 19.3215C2.83707 19.474 2.83707 19.7213 2.68448 19.8738L1.72432 20.8341L2.68448 21.7943C2.83707 21.9468 2.83707 22.1942 2.68448 22.3467C2.60826 22.423 2.50824 22.4611 2.40829 22.4611Z" fill="#0E1821"/>
</g>
</g>
<g id="Group_5">
<g id="Group_6">
<path id="Vector_3" d="M38.2097 21.2246H36.0137C35.7979 21.2246 35.623 21.0497 35.623 20.834C35.623 20.6182 35.7979 20.4434 36.0137 20.4434H38.2097C38.4255 20.4434 38.6003 20.6182 38.6003 20.834C38.6003 21.0497 38.4255 21.2246 38.2097 21.2246Z" fill="#0E1821"/>
</g>
<g id="Group_7">
<path id="Vector_4" d="M37.5918 22.4611C37.4919 22.4611 37.3918 22.423 37.3156 22.3467C37.163 22.1942 37.163 21.9468 37.3156 21.7943L38.2758 20.8341L37.3156 19.8738C37.163 19.7213 37.163 19.474 37.3156 19.3215C37.468 19.1689 37.7155 19.1689 37.868 19.3215L39.1044 20.5579C39.257 20.7104 39.257 20.9577 39.1044 21.1103L37.868 22.3467C37.7918 22.423 37.6917 22.4611 37.5918 22.4611Z" fill="#0E1821"/>
</g>
</g>
<g id="Group_8">
<g id="Group_9">
<path id="Vector_5" d="M33.5898 21.4355H29.6171L29.1479 19.5587C29.1023 19.3761 28.9382 19.248 28.75 19.248H22.1875C21.9993 19.248 21.8352 19.3761 21.7896 19.5587L21.3204 21.4355H6.41016C6.18364 21.4355 6 21.6192 6 21.8457V34.4238C6 34.6504 6.18364 34.834 6.41016 34.834H33.5898C33.8164 34.834 34 34.6504 34 34.4238V21.8457C34 21.6192 33.8164 21.4355 33.5898 21.4355ZM22.5077 20.0684H28.4298L28.7716 21.4355H22.1659L22.5077 20.0684ZM33.1797 22.2559V23.0762H6.82031V22.2559H33.1797ZM16.9375 23.8965V34.0137H12.2891V23.8965H16.9375ZM17.7578 23.8965H33.1797V24.7168H17.7578V23.8965ZM6.82031 23.8965H11.4688V34.0137H6.82031V23.8965ZM17.7578 34.0137V25.5371H33.1797V34.0137H17.7578Z" fill="#0E1821"/>
<path id="Vector_6" d="M31.4023 26.9043H19.5352C19.3086 26.9043 19.125 27.0879 19.125 27.3145V32.2363C19.125 32.4629 19.3086 32.6465 19.5352 32.6465H31.4023C31.6289 32.6465 31.8125 32.4629 31.8125 32.2363V27.3145C31.8125 27.0879 31.6289 26.9043 31.4023 26.9043ZM30.9922 31.8262H19.9453V27.7246H30.9922V31.8262Z" fill="#0E1821"/>
<path id="Vector_7" d="M13.5195 30.0488C13.7461 30.0488 13.9297 29.8652 13.9297 29.6387V28.2715C13.9297 28.0449 13.7461 27.8613 13.5195 27.8613C13.293 27.8613 13.1094 28.0449 13.1094 28.2715V29.6387C13.1094 29.8652 13.293 30.0488 13.5195 30.0488Z" fill="#0E1821"/>
<path id="Vector_8" d="M10.2383 27.8613C10.0118 27.8613 9.82812 28.0449 9.82812 28.2715V29.6387C9.82812 29.8652 10.0118 30.0488 10.2383 30.0488C10.4648 30.0488 10.6484 29.8652 10.6484 29.6387V28.2715C10.6484 28.0449 10.4648 27.8613 10.2383 27.8613Z" fill="#0E1821"/>
<path id="Vector_9" d="M23.6914 30.7324H27.2461C27.4726 30.7324 27.6562 30.5488 27.6562 30.3223V29.2285C27.6562 29.002 27.4726 28.8184 27.2461 28.8184C27.0196 28.8184 26.8359 29.002 26.8359 29.2285V29.9121H24.1016V29.2285C24.1016 29.002 23.9179 28.8184 23.6914 28.8184C23.4649 28.8184 23.2812 29.002 23.2812 29.2285V30.3223C23.2812 30.5488 23.4649 30.7324 23.6914 30.7324Z" fill="#0E1821"/>
<path id="Vector_10" d="M19.4531 17.334H31.4844C31.7109 17.334 31.8945 17.1504 31.8945 16.9238V14.1895C31.8945 14.0428 31.8173 13.9145 31.7016 13.842L31.7018 13.8416L27.5195 11.2277V7.6543H28.75C28.9765 7.6543 29.1602 7.47069 29.1602 7.24414C29.1602 7.01759 28.9765 6.83398 28.75 6.83398H22.1875C21.961 6.83398 21.7773 7.01759 21.7773 7.24414C21.7773 7.47069 21.961 7.6543 22.1875 7.6543H23.418V11.2277L19.2357 13.8416L19.236 13.842C19.1202 13.9145 19.043 14.0428 19.043 14.1895V16.9238C19.043 17.1504 19.2266 17.334 19.4531 17.334ZM31.0742 16.5137H19.8633V14.5996H31.0742V16.5137ZM24.0455 11.8029C24.1654 11.7279 24.2383 11.5965 24.2383 11.4551V7.6543H26.6992V11.4551C26.6992 11.5965 26.7721 11.7279 26.892 11.8029L30.0542 13.7793H20.8833L24.0455 11.8029Z" fill="#0E1821"/>
</g>
<g id="Group_10">
<path id="Vector_11" d="M17.3477 6.83398H9.00781V12.7676H17.7578V7.24414C17.7578 7.01762 17.5742 6.83398 17.3477 6.83398ZM16.1172 10.6039C16.1172 10.8285 15.9441 11.0243 15.7197 11.0311C15.4874 11.038 15.2969 10.8518 15.2969 10.6211V9.80078C15.2969 9.57004 15.4874 9.38384 15.7197 9.39081C15.9441 9.39755 16.1172 9.59339 16.1172 9.81796V10.6039Z" fill="#CFCBFF"/>
<path id="Vector_12" d="M6 7.92773V18.4277C6 19.0318 6.48969 19.5215 7.09375 19.5215H8.1875V6.83398H7.09375C6.48969 6.83398 6 7.32367 6 7.92773Z" fill="#CFCBFF"/>
<path id="Vector_13" d="M9.00781 19.5215H17.3477C17.5742 19.5215 17.7578 19.3378 17.7578 19.1113V13.5879H9.00781V19.5215ZM15.2969 15.7516C15.2969 15.527 15.4699 15.3311 15.6944 15.3244C15.9267 15.3174 16.1172 15.5036 16.1172 15.7344V16.5547C16.1172 16.7854 15.9267 16.9716 15.6944 16.9647C15.4699 16.9579 15.2969 16.7621 15.2969 16.5375V15.7516Z" fill="#CFCBFF"/>
</g>
</g>
</g>
</g>
</svg>
