<svg width="40" height="41" viewBox="0 0 40 41" fill="none" xmlns="http://www.w3.org/2000/svg">
<g id="&#209;&#128;&#208;&#181;&#208;&#191;&#208;&#187;&#208;&#176;&#208;&#189;-&#208;&#184;&#208;&#186;&#208;&#190;&#208;&#189;&#208;&#186;&#208;&#184;_&#208;&#188;&#208;&#190;&#208;&#186;&#209;&#128;&#208;&#176;&#209;&#143;_&#209;&#130;&#208;&#190;&#209;&#135;&#208;&#186;&#208;&#176; 1" style="mix-blend-mode:multiply">
<g id="Group">
<path id="Vector" d="M27.26 13.5707C27.8756 13.7903 28.286 14.2499 28.3159 15.1546H23.0363C23.1017 14.1247 23.1042 13.8727 23.8283 13.5707L18.0207 9.87501H15.3809V8.29113H19.0766L24.3562 11.3227V8.93302L19.6046 5.9153L20.3965 4.85938L24.6202 7.49919H26.0763C26.73 7.49919 27.26 8.02915 27.26 8.68293V13.5707Z" fill="#CFCBFF"/>
<path id="Vector_2" d="M24.0925 22.5459H15.9091C12.2643 22.5459 9.83753 19.6421 9.30957 17.2662V16.7383H30.692V17.2662C30.1641 19.6421 27.7373 22.5459 24.0925 22.5459Z" fill="#CFCBFF"/>
<g id="Group_2">
<path id="Vector_3" d="M24.2241 22.8101H15.7767C11.9194 22.8101 8.78125 19.6719 8.78125 15.8146V15.2866C8.78125 15.068 8.95862 14.8906 9.17722 14.8906H30.8237C31.0423 14.8906 31.2196 15.068 31.2196 15.2866V15.8146C31.2196 19.6719 28.0815 22.8101 24.2241 22.8101ZM9.57319 15.6826V15.8146C9.57319 19.2352 12.3561 22.0181 15.7767 22.0181H24.2241C27.6448 22.0181 30.4277 19.2352 30.4277 15.8146V15.6826H9.57319Z" fill="#F3FFFA"/>
</g>
<g id="Group_3">
<path id="Vector_4" d="M23.9596 11.4594C23.8921 11.4594 23.824 11.4424 23.7614 11.4061L18.8378 8.55561H15.9018C15.76 8.55561 15.6445 8.67111 15.6445 8.81289V9.61154H16.3044C16.523 9.61154 16.7004 9.78891 16.7004 10.0075C16.7004 10.2261 16.523 10.4035 16.3044 10.4035H15.2485C15.0299 10.4035 14.8525 10.2261 14.8525 10.0075V8.81289C14.8525 8.2344 15.3233 7.76367 15.9018 7.76367H18.9442C19.0139 7.76367 19.0824 7.78197 19.1428 7.81702L24.1584 10.7208C24.3476 10.8304 24.4121 11.0725 24.3025 11.2619C24.2293 11.3885 24.0963 11.4594 23.9596 11.4594Z" fill="#F3FFFA"/>
</g>
<g id="Group_4">
<path id="Vector_5" d="M23.9105 13.7778C23.8409 13.7778 23.7703 13.7595 23.7064 13.7208L18.203 10.4033H17.6245C17.4059 10.4033 17.2285 10.2259 17.2285 10.0073C17.2285 9.7887 17.4059 9.61133 17.6245 9.61133H18.3131C18.385 9.61133 18.4559 9.63092 18.5175 9.6683L24.1152 13.0428C24.3027 13.1557 24.3627 13.3988 24.2498 13.5862C24.1755 13.7095 24.0446 13.7778 23.9105 13.7778Z" fill="#F3FFFA"/>
</g>
<g id="Group_5">
<path id="Vector_6" d="M17.6247 11.7232H15.7768C15.5582 11.7232 15.3809 11.5458 15.3809 11.3272V10.2713C15.3809 10.0527 15.5582 9.87531 15.7768 9.87531C15.9954 9.87531 16.1728 10.0527 16.1728 10.2713V10.9312H17.2287V10.0073C17.2287 9.7887 17.4061 9.61133 17.6247 9.61133C17.8433 9.61133 18.0207 9.7887 18.0207 10.0073V11.3272C18.0207 11.5458 17.8433 11.7232 17.6247 11.7232Z" fill="#F3FFFA"/>
</g>
<g id="Group_6">
<path id="Vector_7" d="M28.3895 15.3964C28.1709 15.3964 27.9935 15.219 27.9935 15.0004C27.9935 14.3577 27.4708 13.8349 26.8281 13.8349H24.6332C23.9905 13.8349 23.4677 14.3577 23.4677 15.0004C23.4677 15.219 23.2904 15.3964 23.0718 15.3964C22.8532 15.3964 22.6758 15.219 22.6758 15.0004C22.6758 13.921 23.5538 13.043 24.6332 13.043H26.8281C27.9075 13.043 28.7855 13.921 28.7855 15.0004C28.7855 15.219 28.6081 15.3964 28.3895 15.3964Z" fill="#F3FFFA"/>
</g>
<g id="Group_7">
<path id="Vector_8" d="M27.3919 13.8342C27.1733 13.8342 26.9959 13.6568 26.9959 13.4382V8.90597C26.9959 8.27567 26.4829 7.76265 25.8526 7.76265H25.7634C25.1331 7.76265 24.6201 8.27567 24.6201 8.90597V11.8544C24.6201 12.073 24.4427 12.2503 24.2241 12.2503C24.0055 12.2503 23.8281 12.073 23.8281 11.8544V8.90597C23.8281 7.83896 24.6964 6.9707 25.7634 6.9707H25.8526C26.9196 6.9707 27.7878 7.83896 27.7878 8.90597V13.4382C27.7878 13.6568 27.6105 13.8342 27.3919 13.8342Z" fill="#F3FFFA"/>
</g>
<g id="Group_8">
<path id="Vector_9" d="M27.1283 10.6669H25.5444C25.3258 10.6669 25.1484 10.4896 25.1484 10.271C25.1484 10.0524 25.3258 9.875 25.5444 9.875H27.1283C27.3469 9.875 27.5243 10.0524 27.5243 10.271C27.5243 10.4896 27.3469 10.6669 27.1283 10.6669Z" fill="#F3FFFA"/>
</g>
<g id="Group_9">
<path id="Vector_10" d="M23.9107 9.20853C23.8334 9.20853 23.7553 9.18611 23.6867 9.13894L19.7816 6.45452C19.5409 6.28876 19.3821 6.03869 19.3346 5.75048C19.2874 5.46176 19.3578 5.17405 19.5334 4.93998L19.5713 4.88919C19.9149 4.43187 20.5524 4.32643 21.0247 4.65126L24.9749 7.36686C25.1551 7.49085 25.2007 7.73731 25.077 7.9175C24.953 8.09769 24.7065 8.14334 24.5263 8.01958L20.5759 5.30372C20.4555 5.22072 20.2928 5.24778 20.2049 5.3643L20.167 5.41509C20.1222 5.47491 20.1041 5.54838 20.1163 5.62211C20.1284 5.69584 20.1688 5.75951 20.2302 5.8018L24.1353 8.48619C24.3155 8.61019 24.3611 8.85664 24.2373 9.03683C24.1605 9.14847 24.0365 9.20853 23.9107 9.20853Z" fill="#F3FFFA"/>
</g>
<g id="Group_10">
<path id="Vector_11" d="M22.6398 24.923H17.8882C17.6696 24.923 17.4922 24.7456 17.4922 24.527V22.6792C17.4922 22.4606 17.6696 22.2832 17.8882 22.2832C18.1068 22.2832 18.2841 22.4606 18.2841 22.6792V24.1311H22.2438V22.6792C22.2438 22.4606 22.4212 22.2832 22.6398 22.2832C22.8584 22.2832 23.0358 22.4606 23.0358 22.6792V24.527C23.0358 24.7456 22.8584 24.923 22.6398 24.923Z" fill="#F3FFFA"/>
</g>
<g id="Group_11">
<path id="Vector_12" d="M18.945 29.4091C18.7264 29.4091 18.549 29.2317 18.549 29.0131V25.9781L18.0311 24.942C17.9334 24.7464 18.0126 24.5084 18.2082 24.4107C18.4041 24.3135 18.6418 24.3924 18.7395 24.5878L19.2992 25.7074C19.3268 25.7623 19.341 25.8232 19.341 25.8845V29.0131C19.341 29.2317 19.1636 29.4091 18.945 29.4091Z" fill="#F3FFFA"/>
</g>
<g id="Group_12">
<path id="Vector_13" d="M21.3208 28.6171C21.1022 28.6171 20.9248 28.4398 20.9248 28.2212V25.8845C20.9248 25.8232 20.939 25.7623 20.9666 25.7074L21.5262 24.5878C21.6242 24.3924 21.8621 24.3135 22.0575 24.4107C22.2532 24.5084 22.3324 24.7464 22.2347 24.942L21.7167 25.9781V28.2212C21.7167 28.4398 21.5394 28.6171 21.3208 28.6171Z" fill="#F3FFFA"/>
</g>
<g id="Group_13">
<path id="Vector_14" d="M21.5843 29.6748H18.4165C18.1979 29.6748 18.0205 29.4974 18.0205 29.2788C18.0205 29.0602 18.1979 28.8828 18.4165 28.8828H21.5843C21.8029 28.8828 21.9802 29.0602 21.9802 29.2788C21.9802 29.4974 21.8029 29.6748 21.5843 29.6748Z" fill="#F3FFFA"/>
</g>
<g id="Group_14">
<path id="Vector_15" d="M21.5843 31.2587H18.4165C18.1979 31.2587 18.0205 31.0814 18.0205 30.8628C18.0205 30.6442 18.1979 30.4668 18.4165 30.4668H21.5843C21.8029 30.4668 21.9802 30.6442 21.9802 30.8628C21.9802 31.0814 21.8029 31.2587 21.5843 31.2587Z" fill="#F3FFFA"/>
</g>
<g id="Group_15">
<path id="Vector_16" d="M26.5999 31.2587H23.4321C23.2135 31.2587 23.0361 31.0814 23.0361 30.8628C23.0361 30.6442 23.2135 30.4668 23.4321 30.4668H26.5999C26.8185 30.4668 26.9958 30.6442 26.9958 30.8628C26.9958 31.0814 26.8185 31.2587 26.5999 31.2587Z" fill="#F3FFFA"/>
</g>
<g id="Group_16">
<path id="Vector_17" d="M26.5999 33.1064H23.4321C23.2135 33.1064 23.0361 32.929 23.0361 32.7104C23.0361 32.4918 23.2135 32.3145 23.4321 32.3145H26.5999C26.8185 32.3145 26.9958 32.4918 26.9958 32.7104C26.9958 32.929 26.8185 33.1064 26.5999 33.1064Z" fill="#F3FFFA"/>
</g>
<g id="Group_17">
<path id="Vector_18" d="M23.1128 36.538H22.1682C20.1724 36.538 18.5488 34.9145 18.5488 32.9186V31.1264C18.5488 30.9078 18.7262 30.7305 18.9448 30.7305C19.1634 30.7305 19.3408 30.9078 19.3408 31.1264V32.9186C19.3408 34.4778 20.6091 35.7461 22.1682 35.7461H23.1128C24.6719 35.7461 25.9403 34.4778 25.9403 32.9186V32.7103C25.9403 32.4917 26.1177 32.3144 26.3363 32.3144C26.5549 32.3144 26.7322 32.4917 26.7322 32.7103V32.9186C26.7322 34.9145 25.1087 36.538 23.1128 36.538Z" fill="#F3FFFA"/>
</g>
<g id="Group_18">
<path id="Vector_19" d="M23.1686 34.1622H22.1127C21.4577 34.1622 20.9248 33.6293 20.9248 32.9743V31.1264C20.9248 30.9078 21.1022 30.7305 21.3208 30.7305C21.5394 30.7305 21.7167 30.9078 21.7167 31.1264V32.9743C21.7167 33.1926 21.8944 33.3703 22.1127 33.3703H23.1686C23.387 33.3703 23.5646 33.1926 23.5646 32.9743C23.5646 32.7557 23.742 32.5783 23.9606 32.5783C24.1792 32.5783 24.3566 32.7557 24.3566 32.9743C24.3566 33.6293 23.8237 34.1622 23.1686 34.1622Z" fill="#F3FFFA"/>
</g>
<g id="Group_19">
<path id="Vector_20" d="M23.6958 30.9931C23.4772 30.9931 23.2998 30.8158 23.2998 30.5972V28.5364C23.2998 26.6887 24.803 25.1855 26.6506 25.1855H27.9195C28.1381 25.1855 28.3154 25.3629 28.3154 25.5815C28.3154 25.8001 28.1381 25.9775 27.9195 25.9775H26.6506C25.2397 25.9775 24.0917 27.1254 24.0917 28.5364V30.5972C24.0917 30.8158 23.9144 30.9931 23.6958 30.9931Z" fill="#F3FFFA"/>
</g>
<g id="Group_20">
<path id="Vector_21" d="M26.0718 30.7303C25.8532 30.7303 25.6758 30.5529 25.6758 30.3343V28.8365C25.6758 28.134 26.2473 27.5625 26.9498 27.5625H27.6556C27.8742 27.5625 28.0516 27.7399 28.0516 27.9585C28.0516 28.1771 27.8742 28.3544 27.6556 28.3544H26.9498C26.684 28.3544 26.4677 28.5707 26.4677 28.8365V30.3343C26.4677 30.5529 26.2904 30.7303 26.0718 30.7303Z" fill="#F3FFFA"/>
</g>
<g id="Group_21">
<path id="Vector_22" d="M29.7679 28.8819H28.1841C27.9655 28.8819 27.7881 28.7045 27.7881 28.4859V25.0542C27.7881 24.8356 27.9655 24.6582 28.1841 24.6582H29.7679C29.9865 24.6582 30.1639 24.8356 30.1639 25.0542V28.4859C30.1639 28.7045 29.9865 28.8819 29.7679 28.8819ZM28.58 28.09H29.372V25.4501H28.58V28.09Z" fill="#F3FFFA"/>
</g>
</g>
</g>
</svg>
