<svg width="40" height="41" viewBox="0 0 40 41" fill="none" xmlns="http://www.w3.org/2000/svg">
<g id="Architecture_paint roller 1" style="mix-blend-mode:multiply">
<g id="Group">
<g id="Group_2">
<path id="Vector" d="M31.4023 10.8751H30.1719V10.1915C30.1719 9.965 29.9882 9.78136 29.7617 9.78136H27.9822C27.959 9.17715 27.5 8.67617 26.895 8.60665C26.3456 8.54328 25.7865 8.48501 25.2334 8.43342C25.008 8.41249 24.808 8.57821 24.7869 8.80374C24.7659 9.02927 24.9317 9.22917 25.1572 9.25021C25.7045 9.30124 26.2575 9.35889 26.8012 9.42159C27.0081 9.44536 27.1641 9.62048 27.1641 9.82894V12.7416C27.1641 12.8424 27.1272 12.9393 27.0603 13.0144C26.993 13.0898 26.9012 13.1376 26.801 13.149C26.2575 13.2116 25.7045 13.2693 25.1572 13.3203C24.9317 13.3414 24.7659 13.5413 24.7869 13.7668C24.8068 13.9794 24.9855 14.1389 25.1948 14.1389C25.2076 14.1389 25.2204 14.1383 25.2334 14.1371C25.7865 14.0855 26.3456 14.0273 26.8943 13.964C27.1945 13.9298 27.4709 13.7865 27.6726 13.5602C27.8631 13.3465 27.9712 13.0742 27.9822 12.7892H29.7617C29.9882 12.7892 30.1719 12.6055 30.1719 12.379V11.6954H31.4023C32.3824 11.6954 33.1797 12.4927 33.1797 13.4728V20.5001C33.1797 21.4801 32.3824 22.2775 31.4023 22.2775H19.7266C18.5957 22.2775 17.6758 23.1974 17.6758 24.3282V25.0118H16.1719C15.4934 25.0118 14.9414 25.5638 14.9414 26.2423V27.0626C14.9414 27.2891 15.125 27.4728 15.3516 27.4728H16.3086V32.9962C16.3086 33.8255 16.9832 34.5001 17.8125 34.5001H18.3594C19.1886 34.5001 19.8633 33.8255 19.8633 32.9962V27.4728H20.8203C21.0468 27.4728 21.2305 27.2891 21.2305 27.0626V26.2423C21.2305 25.5638 20.6785 25.0118 20 25.0118H18.4961V24.3282C18.4961 23.6497 19.0481 23.0978 19.7266 23.0978H31.4023C32.8347 23.0978 34 21.9325 34 20.5001V13.4728C34 12.0404 32.8347 10.8751 31.4023 10.8751ZM29.3516 11.9689H27.9844V10.6017H29.3516V11.9689ZM18.3594 33.6798H17.8125C17.4356 33.6798 17.1289 33.3731 17.1289 32.9962V31.7657H19.043V32.9962C19.043 33.3731 18.7363 33.6798 18.3594 33.6798ZM19.043 30.9454H17.1289V27.4728H19.043V30.9454ZM20.4102 26.2423V26.6525H15.7617V26.2423C15.7617 26.0161 15.9457 25.8321 16.1719 25.8321H20C20.2262 25.8321 20.4102 26.0161 20.4102 26.2423Z" fill="#F3FFFA"/>
<path id="Vector_2" d="M9.11161 9.55613C9.17884 9.48072 9.27068 9.43295 9.37089 9.42157C9.91438 9.3589 10.4674 9.30125 11.0146 9.25022C11.2402 9.22918 11.406 9.02928 11.385 8.80375C11.3639 8.57822 11.1642 8.41244 10.9385 8.43343C10.3854 8.48502 9.82631 8.54329 9.27756 8.60657C8.97734 8.6407 8.70094 8.78407 8.49923 9.01032C8.30882 9.22403 8.20069 9.49634 8.18968 9.78137H6.41016C6.18364 9.78137 6 9.965 6 10.1915V12.379C6 12.6055 6.18364 12.7892 6.41016 12.7892H8.18972C8.21291 13.3934 8.67184 13.8944 9.2769 13.9639C9.82631 14.0273 10.3854 14.0855 10.9385 14.1371C10.9514 14.1383 10.9643 14.1389 10.977 14.1389C11.1864 14.1389 11.3651 13.9794 11.385 13.7668C11.406 13.5413 11.2402 13.3414 11.0146 13.3203C10.4674 13.2693 9.91438 13.2116 9.3707 13.1489C9.16381 13.1252 9.00781 12.9501 9.00781 12.7416V9.82895C9.00781 9.72815 9.04472 9.63122 9.11161 9.55613ZM6.82031 10.6017H8.1875V11.9689H6.82031V10.6017Z" fill="#F3FFFA"/>
</g>
<path id="Vector_3" d="M22.3242 6.5H13.8477C12.9416 6.5 12.207 7.23453 12.207 8.14062V18.2578C12.207 18.8619 12.6967 19.3516 13.3008 19.3516C13.9048 19.3516 14.3945 18.8619 14.3945 18.2578V16.6172C14.3945 16.0131 14.8842 15.5234 15.4883 15.5234H16.582V13.7633C16.582 13.5387 16.7551 13.3429 16.9796 13.3361C17.2118 13.3292 17.4023 13.5154 17.4023 13.7461V20.4453C17.4023 21.0494 17.892 21.5391 18.4961 21.5391C19.1002 21.5391 19.5898 21.0494 19.5898 20.4453V16.6172C19.5898 16.0131 20.0795 15.5234 20.6836 15.5234C21.2877 15.5234 21.7773 16.0131 21.7773 16.6172V17.1641C21.7773 17.7681 22.267 18.2578 22.8711 18.2578C23.4752 18.2578 23.9648 17.7681 23.9648 17.1641V8.14062C23.9648 7.23453 23.2303 6.5 22.3242 6.5ZM17.4023 11.832C17.4023 12.0586 17.2187 12.2422 16.9922 12.2422C16.7657 12.2422 16.582 12.0586 16.582 11.832V11.5586C16.582 11.3321 16.7657 11.1484 16.9922 11.1484C17.2187 11.1484 17.4023 11.3321 17.4023 11.5586V11.832ZM19.1797 8.96094H18.6328C18.4063 8.96094 18.2227 8.7773 18.2227 8.55078C18.2227 8.32426 18.4063 8.14062 18.6328 8.14062H19.1797C19.4062 8.14062 19.5898 8.32426 19.5898 8.55078C19.5898 8.7773 19.4062 8.96094 19.1797 8.96094ZM21.3672 8.96094H20.8203C20.5938 8.96094 20.4102 8.7773 20.4102 8.55078C20.4102 8.32426 20.5938 8.14062 20.8203 8.14062H21.3672C21.5937 8.14062 21.7773 8.32426 21.7773 8.55078C21.7773 8.7773 21.5937 8.96094 21.3672 8.96094Z" fill="#CFCBFF"/>
</g>
</g>
</svg>
