<svg width="120" height="120" viewBox="0 0 120 120" fill="none" xmlns="http://www.w3.org/2000/svg">
<g id="Law and Justice_police 1" style="mix-blend-mode:multiply">
<g id="Group">
<path id="Vector" d="M60 27.3555C61.1326 27.3555 62.0508 26.4373 62.0508 25.3047C62.0508 24.1721 61.1326 23.2539 60 23.2539C58.8674 23.2539 57.9492 24.1721 57.9492 25.3047C57.9492 26.4373 58.8674 27.3555 60 27.3555Z" fill="#F32100"/>
<path id="Vector_2" d="M43.0762 35.0693H44.6627L51.0267 34.3168C56.981 33.6128 63.0186 33.6128 68.9729 34.3168L75.3369 35.0693H76.9234L78.4485 30.0404C79.0716 27.9861 78.0582 25.7881 76.0914 24.9274L60.493 18.1031C60.1786 17.9656 59.821 17.9656 59.5067 18.1031L43.9081 24.9274C41.9414 25.7881 40.928 27.9861 41.5511 30.0404L43.0762 35.0693ZM59.9998 20.7923C62.4875 20.7923 64.5115 22.8164 64.5115 25.3041C64.5115 27.7918 62.4875 29.8158 59.9998 29.8158C57.5121 29.8158 55.4881 27.7918 55.4881 25.3041C55.4881 22.8164 57.5121 20.7923 59.9998 20.7923Z" fill="#F32100"/>
<path id="Vector_3" d="M72.4735 42.8635C74.5818 41.7888 76.0072 39.8097 76.3878 37.5305H75.2643C75.2161 37.5305 75.1677 37.5276 75.1198 37.522L68.6837 36.761C62.9213 36.0796 57.0779 36.0797 51.3155 36.761L44.8794 37.522C44.8315 37.5276 44.7831 37.5305 44.7349 37.5305H43.6113C43.992 39.8097 45.4177 41.7889 47.5279 42.8646L47.5917 42.897C51.4163 44.8467 55.7067 45.8772 59.9996 45.8772C64.2924 45.8772 68.5829 44.8467 72.4052 42.8981L72.4735 42.8635Z" fill="#F32100"/>
<path id="Vector_4" d="M71.8945 49.1715V45.8579C68.1575 47.4833 64.0801 48.3376 60 48.3376C55.9217 48.3376 51.8454 47.4836 48.1055 45.8574V49.1715C48.1055 53.306 50.227 56.953 53.4375 59.0853V63.2995L60 66.5807L66.5625 63.2995V59.0853C69.773 56.953 71.8945 53.306 71.8945 49.1715Z" fill="#F32100"/>
<path id="Vector_5" d="M74.3555 44.6211V48.524C77.1344 48.1246 79.2773 45.729 79.2773 42.8414C79.2773 41.7705 78.8774 40.7918 78.22 40.0449C77.4528 41.9144 76.1159 43.5189 74.3555 44.6211Z" fill="#F32100"/>
<path id="Vector_6" d="M45.6445 48.5243V44.6207C43.8837 43.5172 42.5473 41.9131 41.7803 40.0449C41.1228 40.7919 40.7227 41.7706 40.7227 42.8417C40.7227 45.7293 42.8656 48.1249 45.6445 48.5243Z" fill="#F32100"/>
<path id="Vector_7" d="M84.855 70.1385L84.1992 69.8957V67.5058C84.1992 66.9762 83.8604 66.5059 83.3579 66.3385L73.5142 63.0572C73.1383 62.9323 72.7262 62.9951 72.4055 63.2264C72.0847 63.4576 71.8945 63.829 71.8945 64.2246V65.3384L69.6505 64.5073L65.7567 66.4542L66.6162 69.7327L62.8099 67.9276L60.5503 69.0574C60.3772 69.1441 60.1886 69.1873 60 69.1873C59.8114 69.1873 59.6228 69.1441 59.4497 69.0574L57.1901 67.9276L53.3838 69.7327L54.2433 66.4542L50.3495 64.5073L48.1055 65.3384V64.2246C48.1055 63.829 47.9153 63.4576 47.5945 63.2264C47.2736 62.9951 46.8611 62.9324 46.4858 63.0572L36.6421 66.3385C36.1396 66.5059 35.8008 66.9762 35.8008 67.5058V69.8956L35.1449 70.1385C32.1026 71.2655 30.0586 74.2023 30.0586 77.4465V100.77C30.0586 101.449 30.6094 102 31.2891 102H88.7109C89.3906 102 89.9414 101.449 89.9414 100.77V77.4465C89.9414 74.2023 87.8974 71.2655 84.855 70.1385ZM74.3555 65.9317L81.7383 68.3926V70.7206L74.3555 68.2597V65.9317ZM63.1733 99.539H56.8267L55.516 94.9519L58.5884 75.7498H61.4116L64.484 94.9519L63.1733 99.539ZM60 69.3187L62.4609 70.4857V73.2889H57.5391V70.4857L60 69.3187ZM38.2617 68.3926L45.6445 65.9317V68.2597L38.2617 70.7206V68.3926ZM32.5195 77.4465C32.5195 75.2969 33.8333 73.348 35.8067 72.5265C35.8356 72.8844 36.0179 73.2141 36.3117 73.4259C36.524 73.5789 36.7763 73.6582 37.0314 73.6582C37.162 73.6582 37.2934 73.6374 37.4204 73.5951L47.2642 70.3138C47.7666 70.1464 48.1055 69.6761 48.1055 69.1465V67.9627L51.6476 66.6508L50.3331 71.6646C50.2118 72.1275 50.3698 72.6187 50.738 72.9239C50.9633 73.1107 51.242 73.2072 51.5235 73.2072C51.7025 73.2072 51.8826 73.1681 52.0507 73.0885L55.0781 71.6527V74.5194C55.0781 75.1274 55.5194 75.6311 56.0991 75.7307L53.0427 94.8328C53.0144 95.0105 53.0253 95.1922 53.0746 95.3652L54.2671 99.539H41.543V92.5664C41.543 91.8867 40.9921 91.3359 40.3125 91.3359C39.6329 91.3359 39.082 91.8867 39.082 92.5664V99.539H32.5195V77.4465ZM87.4805 99.539H80.918V92.5664C80.918 91.8867 80.3671 91.3359 79.6875 91.3359C79.0079 91.3359 78.457 91.8867 78.457 92.5664V99.539H65.7329L66.9254 95.3652C66.9747 95.1922 66.9856 95.0105 66.9573 94.8328L63.9009 75.7307C64.4806 75.6311 64.9219 75.1274 64.9219 74.5194V71.6527L67.9493 73.0885C68.1174 73.1682 68.2975 73.2072 68.4765 73.2072C68.758 73.2072 69.0367 73.1107 69.262 72.9239C69.6302 72.6187 69.7882 72.1275 69.6669 71.6646L68.3524 66.6508L71.8945 67.9627V69.1465C71.8945 69.6761 72.2334 70.1464 72.7358 70.3138L82.5796 73.5951C82.7068 73.6374 82.838 73.6582 82.9686 73.6582C83.2237 73.6582 83.476 73.5789 83.6883 73.4259C83.9821 73.2141 84.1644 72.8844 84.1933 72.5266C86.1668 73.3481 87.4805 75.297 87.4805 77.4465V99.539Z" fill="#949494"/>
</g>
</g>
</svg>
