<svg width="40" height="41" viewBox="0 0 40 41" fill="none" xmlns="http://www.w3.org/2000/svg">
<g id="Architecture_modern house 1" style="mix-blend-mode:multiply">
<g id="Group">
<g id="Group_2">
<path id="Vector" d="M33.5898 15.7754C33.8164 15.7754 34 15.5918 34 15.3652V12.6309C34 12.4043 33.8164 12.2207 33.5898 12.2207H27.7383C27.5118 12.2207 27.3281 12.4043 27.3281 12.6309C27.3281 12.8574 27.5118 13.041 27.7383 13.041H33.1797V14.9551H27.7383C27.5118 14.9551 27.3281 15.1387 27.3281 15.3652C27.3281 15.5918 27.5118 15.7754 27.7383 15.7754H31.0742V18.8652H27.7383C27.5118 18.8652 27.3281 19.0488 27.3281 19.2754C27.3281 19.5019 27.5118 19.6855 27.7383 19.6855H28.6555V23.2402H24.8672V23.1035C24.8672 22.877 24.6836 22.6934 24.457 22.6934C24.2305 22.6934 24.0469 22.877 24.0469 23.1035V24.5254H16.8008C16.5743 24.5254 16.3906 24.709 16.3906 24.9355V29.3105C16.3906 29.5371 16.5743 29.7207 16.8008 29.7207H24.0469V32.373H15.0234V24.0332C15.0234 23.8067 14.8398 23.623 14.6133 23.623H10.2383C10.0118 23.623 9.82812 23.8067 9.82812 24.0332V32.373H8.46094V23.1035C8.46094 22.877 8.2773 22.6934 8.05078 22.6934C7.82426 22.6934 7.64062 22.877 7.64062 23.1035V32.373H6.41016C6.18364 32.373 6 32.5567 6 32.7832V34.4238C6 34.6504 6.18364 34.834 6.41016 34.834H33.5898C33.8164 34.834 34 34.6504 34 34.4238V32.7832C34 32.5567 33.8164 32.373 33.5898 32.373H31.8945V25.7012H33.5898C33.8164 25.7012 34 25.5176 34 25.291V19.2754C34 19.0488 33.8164 18.8652 33.5898 18.8652H31.8945V15.7754H33.5898ZM31.0742 30.2676H29.4746V27.8066H31.0742V30.2676ZM28.6543 30.2676H27.2871V27.8066H28.6543V30.2676ZM26.4668 30.2676H24.8672V27.8066H26.4668V30.2676ZM21.5859 25.3457V28.9004H19.6719V25.3457H21.5859ZM17.2109 25.3457H18.8516V28.9004H17.2109V25.3457ZM22.4062 28.9004V25.3457H24.0469V28.9004H22.4062ZM10.6484 24.4434H14.2031V32.373H10.6484V24.4434ZM33.1797 34.0137H6.82031V33.1934H33.1797V34.0137ZM24.8672 32.373V31.0879H31.0742V32.373H24.8672ZM31.0742 26.9863H24.8672V25.7012H31.0742V26.9863ZM33.1797 24.8809H24.8672V24.0605H33.1797V24.8809ZM33.1797 23.2402H29.4758V19.6855H33.1797V23.2402Z" fill="#0E1821"/>
<path id="Vector_2" d="M13.5195 27.1777C13.293 27.1777 13.1094 27.3613 13.1094 27.5879V29.2285C13.1094 29.4551 13.293 29.6387 13.5195 29.6387C13.7461 29.6387 13.9297 29.4551 13.9297 29.2285V27.5879C13.9297 27.3613 13.7461 27.1777 13.5195 27.1777Z" fill="#0E1821"/>
</g>
<g id="Group_3">
<path id="Vector_3" d="M21.3125 9.8418H17.7578V17.2246H21.3125V9.8418Z" fill="#CFCBFF"/>
<path id="Vector_4" d="M26.5078 9.8418H22.1328V17.2246H26.5078V9.8418Z" fill="#CFCBFF"/>
<path id="Vector_5" d="M16.9375 9.8418H13.3828V17.2246H16.9375V9.8418Z" fill="#CFCBFF"/>
<path id="Vector_6" d="M26.5078 18.0449H9.00781V18.8652H26.5078V18.0449Z" fill="#CFCBFF"/>
<path id="Vector_7" d="M7.50391 6.83398C6.67333 6.83398 6 7.5073 6 8.33789V20.3691C6 21.1997 6.67333 21.873 7.50391 21.873H26.5078V19.6855H8.59766C8.37114 19.6855 8.1875 19.5019 8.1875 19.2754V9.43164C8.1875 9.20512 8.37114 9.02148 8.59766 9.02148H26.5078V6.83398H7.50391Z" fill="#CFCBFF"/>
<path id="Vector_8" d="M12.5625 9.8418H9.00781V17.2246H12.5625V9.8418Z" fill="#CFCBFF"/>
</g>
</g>
</g>
</svg>
