<svg width="40" height="41" viewBox="0 0 40 41" fill="none" xmlns="http://www.w3.org/2000/svg">
<g id="&#209;&#128;&#208;&#181;&#208;&#191;&#208;&#187;&#208;&#176;&#208;&#189;-&#208;&#184;&#208;&#186;&#208;&#190;&#208;&#189;&#208;&#186;&#208;&#184;_&#208;&#188;&#208;&#190;&#208;&#186;&#209;&#128;&#208;&#176;&#209;&#143;_&#209;&#130;&#208;&#190;&#209;&#135;&#208;&#186;&#208;&#176; 1" style="mix-blend-mode:multiply">
<g id="Group">
<path id="Vector" d="M27.26 13.9047C27.8756 14.1243 28.286 14.5839 28.3159 15.4886H23.0363C23.1017 14.4587 23.1042 14.2067 23.8283 13.9047L18.0207 10.209H15.3809V8.62511H19.0766L24.3562 11.6567V9.26701L19.6046 6.24928L20.3965 5.19336L24.6202 7.83317H26.0763C26.73 7.83317 27.26 8.36314 27.26 9.01691V13.9047Z" fill="#CFCBFF"/>
<path id="Vector_2" d="M24.0925 22.8798H15.9091C12.2643 22.8798 9.83753 19.9761 9.30957 17.6002V17.0723H30.692V17.6002C30.1641 19.9761 27.7373 22.8798 24.0925 22.8798Z" fill="#CFCBFF"/>
<g id="Group_2">
<path id="Vector_3" d="M24.2241 23.144H15.7767C11.9194 23.144 8.78125 20.0059 8.78125 16.1485V15.6206C8.78125 15.402 8.95862 15.2246 9.17722 15.2246H30.8237C31.0423 15.2246 31.2196 15.402 31.2196 15.6206V16.1485C31.2196 20.0059 28.0815 23.144 24.2241 23.144ZM9.57319 16.0166V16.1485C9.57319 19.5692 12.3561 22.3521 15.7767 22.3521H24.2241C27.6448 22.3521 30.4277 19.5692 30.4277 16.1485V16.0166H9.57319Z" fill="#0E1821"/>
</g>
<g id="Group_3">
<path id="Vector_4" d="M23.9596 11.7934C23.8921 11.7934 23.824 11.7764 23.7614 11.74L18.8378 8.8896H15.9018C15.76 8.8896 15.6445 9.00509 15.6445 9.14688V9.94552H16.3044C16.523 9.94552 16.7004 10.1229 16.7004 10.3415C16.7004 10.5601 16.523 10.7375 16.3044 10.7375H15.2485C15.0299 10.7375 14.8525 10.5601 14.8525 10.3415V9.14688C14.8525 8.56839 15.3233 8.09766 15.9018 8.09766H18.9442C19.0139 8.09766 19.0824 8.11595 19.1428 8.15101L24.1584 11.0548C24.3476 11.1644 24.4121 11.4064 24.3025 11.5959C24.2293 11.7225 24.0963 11.7934 23.9596 11.7934Z" fill="#0E1821"/>
</g>
<g id="Group_4">
<path id="Vector_5" d="M23.9105 14.1118C23.8409 14.1118 23.7703 14.0935 23.7064 14.0548L18.203 10.7373H17.6245C17.4059 10.7373 17.2285 10.5599 17.2285 10.3413C17.2285 10.1227 17.4059 9.94531 17.6245 9.94531H18.3131C18.385 9.94531 18.4559 9.9649 18.5175 10.0023L24.1152 13.3768C24.3027 13.4897 24.3627 13.7328 24.2498 13.9202C24.1755 14.0435 24.0446 14.1118 23.9105 14.1118Z" fill="#0E1821"/>
</g>
<g id="Group_5">
<path id="Vector_6" d="M17.6247 12.0572H15.7768C15.5582 12.0572 15.3809 11.8798 15.3809 11.6612V10.6053C15.3809 10.3867 15.5582 10.2093 15.7768 10.2093C15.9954 10.2093 16.1728 10.3867 16.1728 10.6053V11.2652H17.2287V10.3413C17.2287 10.1227 17.4061 9.94531 17.6247 9.94531C17.8433 9.94531 18.0207 10.1227 18.0207 10.3413V11.6612C18.0207 11.8798 17.8433 12.0572 17.6247 12.0572Z" fill="#0E1821"/>
</g>
<g id="Group_6">
<path id="Vector_7" d="M28.3895 15.7303C28.1709 15.7303 27.9935 15.553 27.9935 15.3344C27.9935 14.6917 27.4708 14.1689 26.8281 14.1689H24.6332C23.9905 14.1689 23.4677 14.6917 23.4677 15.3344C23.4677 15.553 23.2904 15.7303 23.0718 15.7303C22.8532 15.7303 22.6758 15.553 22.6758 15.3344C22.6758 14.255 23.5538 13.377 24.6332 13.377H26.8281C27.9075 13.377 28.7855 14.255 28.7855 15.3344C28.7855 15.553 28.6081 15.7303 28.3895 15.7303Z" fill="#0E1821"/>
</g>
<g id="Group_7">
<path id="Vector_8" d="M27.3919 14.1682C27.1733 14.1682 26.9959 13.9908 26.9959 13.7722V9.23996C26.9959 8.60965 26.4829 8.09663 25.8526 8.09663H25.7634C25.1331 8.09663 24.6201 8.60965 24.6201 9.23996V12.1883C24.6201 12.4069 24.4427 12.5843 24.2241 12.5843C24.0055 12.5843 23.8281 12.4069 23.8281 12.1883V9.23996C23.8281 8.17295 24.6964 7.30469 25.7634 7.30469H25.8526C26.9196 7.30469 27.7878 8.17295 27.7878 9.23996V13.7722C27.7878 13.9908 27.6105 14.1682 27.3919 14.1682Z" fill="#0E1821"/>
</g>
<g id="Group_8">
<path id="Vector_9" d="M27.1283 11.0009H25.5444C25.3258 11.0009 25.1484 10.8236 25.1484 10.605C25.1484 10.3864 25.3258 10.209 25.5444 10.209H27.1283C27.3469 10.209 27.5243 10.3864 27.5243 10.605C27.5243 10.8236 27.3469 11.0009 27.1283 11.0009Z" fill="#0E1821"/>
</g>
<g id="Group_9">
<path id="Vector_10" d="M23.9107 9.54251C23.8334 9.54251 23.7553 9.5201 23.6867 9.47292L19.7816 6.7885C19.5409 6.62275 19.3821 6.37268 19.3346 6.08446C19.2874 5.79575 19.3578 5.50804 19.5334 5.27396L19.5713 5.22317C19.9149 4.76585 20.5524 4.66042 21.0247 4.98525L24.9749 7.70085C25.1551 7.82484 25.2007 8.07129 25.077 8.25148C24.953 8.43168 24.7065 8.47732 24.5263 8.35357L20.5759 5.6377C20.4555 5.55471 20.2928 5.58177 20.2049 5.69829L20.167 5.74908C20.1222 5.80889 20.1041 5.88236 20.1163 5.95609C20.1284 6.02982 20.1688 6.09349 20.2302 6.13578L24.1353 8.82018C24.3155 8.94417 24.3611 9.19062 24.2373 9.37082C24.1605 9.48245 24.0365 9.54251 23.9107 9.54251Z" fill="#0E1821"/>
</g>
<g id="Group_10">
<path id="Vector_11" d="M22.6398 25.257H17.8882C17.6696 25.257 17.4922 25.0796 17.4922 24.861V23.0132C17.4922 22.7946 17.6696 22.6172 17.8882 22.6172C18.1068 22.6172 18.2841 22.7946 18.2841 23.0132V24.4651H22.2438V23.0132C22.2438 22.7946 22.4212 22.6172 22.6398 22.6172C22.8584 22.6172 23.0358 22.7946 23.0358 23.0132V24.861C23.0358 25.0796 22.8584 25.257 22.6398 25.257Z" fill="#0E1821"/>
</g>
<g id="Group_11">
<path id="Vector_12" d="M18.945 29.7431C18.7264 29.7431 18.549 29.5657 18.549 29.3471V26.3121L18.0311 25.276C17.9334 25.0804 18.0126 24.8424 18.2082 24.7447C18.4041 24.6475 18.6418 24.7264 18.7395 24.9218L19.2992 26.0414C19.3268 26.0963 19.341 26.1572 19.341 26.2185V29.3471C19.341 29.5657 19.1636 29.7431 18.945 29.7431Z" fill="#0E1821"/>
</g>
<g id="Group_12">
<path id="Vector_13" d="M21.3208 28.9511C21.1022 28.9511 20.9248 28.7738 20.9248 28.5552V26.2185C20.9248 26.1572 20.939 26.0963 20.9666 26.0414L21.5262 24.9218C21.6242 24.7264 21.8621 24.6475 22.0575 24.7447C22.2532 24.8424 22.3324 25.0804 22.2347 25.276L21.7167 26.3121V28.5552C21.7167 28.7738 21.5394 28.9511 21.3208 28.9511Z" fill="#0E1821"/>
</g>
<g id="Group_13">
<path id="Vector_14" d="M21.5843 30.0087H18.4165C18.1979 30.0087 18.0205 29.8314 18.0205 29.6128C18.0205 29.3942 18.1979 29.2168 18.4165 29.2168H21.5843C21.8029 29.2168 21.9802 29.3942 21.9802 29.6128C21.9802 29.8314 21.8029 30.0087 21.5843 30.0087Z" fill="#0E1821"/>
</g>
<g id="Group_14">
<path id="Vector_15" d="M21.5843 31.5927H18.4165C18.1979 31.5927 18.0205 31.4154 18.0205 31.1968C18.0205 30.9782 18.1979 30.8008 18.4165 30.8008H21.5843C21.8029 30.8008 21.9802 30.9782 21.9802 31.1968C21.9802 31.4154 21.8029 31.5927 21.5843 31.5927Z" fill="#0E1821"/>
</g>
<g id="Group_15">
<path id="Vector_16" d="M26.5999 31.5927H23.4321C23.2135 31.5927 23.0361 31.4154 23.0361 31.1968C23.0361 30.9782 23.2135 30.8008 23.4321 30.8008H26.5999C26.8185 30.8008 26.9958 30.9782 26.9958 31.1968C26.9958 31.4154 26.8185 31.5927 26.5999 31.5927Z" fill="#0E1821"/>
</g>
<g id="Group_16">
<path id="Vector_17" d="M26.5999 33.4404H23.4321C23.2135 33.4404 23.0361 33.263 23.0361 33.0444C23.0361 32.8258 23.2135 32.6484 23.4321 32.6484H26.5999C26.8185 32.6484 26.9958 32.8258 26.9958 33.0444C26.9958 33.263 26.8185 33.4404 26.5999 33.4404Z" fill="#0E1821"/>
</g>
<g id="Group_17">
<path id="Vector_18" d="M23.1128 36.872H22.1682C20.1724 36.872 18.5488 35.2484 18.5488 33.2526V31.4604C18.5488 31.2418 18.7262 31.0645 18.9448 31.0645C19.1634 31.0645 19.3408 31.2418 19.3408 31.4604V33.2526C19.3408 34.8117 20.6091 36.0801 22.1682 36.0801H23.1128C24.6719 36.0801 25.9403 34.8117 25.9403 33.2526V33.0443C25.9403 32.8257 26.1177 32.6483 26.3363 32.6483C26.5549 32.6483 26.7322 32.8257 26.7322 33.0443V33.2526C26.7322 35.2484 25.1087 36.872 23.1128 36.872Z" fill="#0E1821"/>
</g>
<g id="Group_18">
<path id="Vector_19" d="M23.1686 34.4962H22.1127C21.4577 34.4962 20.9248 33.9633 20.9248 33.3083V31.4604C20.9248 31.2418 21.1022 31.0645 21.3208 31.0645C21.5394 31.0645 21.7167 31.2418 21.7167 31.4604V33.3083C21.7167 33.5266 21.8944 33.7043 22.1127 33.7043H23.1686C23.387 33.7043 23.5646 33.5266 23.5646 33.3083C23.5646 33.0897 23.742 32.9123 23.9606 32.9123C24.1792 32.9123 24.3566 33.0897 24.3566 33.3083C24.3566 33.9633 23.8237 34.4962 23.1686 34.4962Z" fill="#0E1821"/>
</g>
<g id="Group_19">
<path id="Vector_20" d="M23.6958 31.3271C23.4772 31.3271 23.2998 31.1497 23.2998 30.9311V28.8703C23.2998 27.0227 24.803 25.5195 26.6506 25.5195H27.9195C28.1381 25.5195 28.3154 25.6969 28.3154 25.9155C28.3154 26.1341 28.1381 26.3115 27.9195 26.3115H26.6506C25.2397 26.3115 24.0917 27.4594 24.0917 28.8703V30.9311C24.0917 31.1497 23.9144 31.3271 23.6958 31.3271Z" fill="#0E1821"/>
</g>
<g id="Group_20">
<path id="Vector_21" d="M26.0718 31.0643C25.8532 31.0643 25.6758 30.8869 25.6758 30.6683V29.1705C25.6758 28.468 26.2473 27.8965 26.9498 27.8965H27.6556C27.8742 27.8965 28.0516 28.0739 28.0516 28.2925C28.0516 28.5111 27.8742 28.6884 27.6556 28.6884H26.9498C26.684 28.6884 26.4677 28.9047 26.4677 29.1705V30.6683C26.4677 30.8869 26.2904 31.0643 26.0718 31.0643Z" fill="#0E1821"/>
</g>
<g id="Group_21">
<path id="Vector_22" d="M29.7679 29.2159H28.1841C27.9655 29.2159 27.7881 29.0385 27.7881 28.8199V25.3882C27.7881 25.1696 27.9655 24.9922 28.1841 24.9922H29.7679C29.9865 24.9922 30.1639 25.1696 30.1639 25.3882V28.8199C30.1639 29.0385 29.9865 29.2159 29.7679 29.2159ZM28.58 28.4239H29.372V25.7841H28.58V28.4239Z" fill="#0E1821"/>
</g>
</g>
</g>
</svg>
