<svg width="40" height="41" viewBox="0 0 40 41" fill="none" xmlns="http://www.w3.org/2000/svg">
<g id="&#209;&#128;&#208;&#181;&#208;&#191;&#208;&#187;&#208;&#176;&#208;&#189;-&#208;&#184;&#208;&#186;&#208;&#190;&#208;&#189;&#208;&#186;&#208;&#184;_&#208;&#183;&#208;&#176;&#208;&#188;&#208;&#181;&#208;&#189;&#208;&#176;_&#208;&#191;&#208;&#176;&#209;&#128;&#208;&#186;&#208;&#181;&#209;&#130;&#208;&#176; 1" style="mix-blend-mode:multiply">
<g id="Group">
<g id="Group_2">
<path id="Vector" d="M13.6972 30.199H6.00977L10.9694 22.0156H15.4331L13.6972 30.199Z" fill="#CFCBFF"/>
<path id="Vector_2" d="M23.4656 30.199H15.2822L16.7701 22.0156H22.2257L23.4656 30.199Z" fill="#CFCBFF"/>
<path id="Vector_3" d="M32.4889 30.199H25.0494L23.5615 22.0156H28.0252L32.4889 30.199Z" fill="#CFCBFF"/>
<g id="Group_3">
<path id="Vector_4" d="M34.1234 35.7431H5.87742C5.65881 35.7431 5.48145 35.5658 5.48145 35.3472V30.3315C5.48145 30.1129 5.65881 29.9355 5.87742 29.9355H34.1234C34.342 29.9355 34.5194 30.1129 34.5194 30.3315V35.3472C34.5194 35.5658 34.342 35.7431 34.1234 35.7431ZM6.27339 34.9512H33.7274V30.7275H6.27339V34.9512Z" fill="#0E1821"/>
</g>
<g id="Group_4">
<path id="Vector_5" d="M34.0377 30.7276H5.96234C5.82032 30.7276 5.6891 30.6516 5.61872 30.5283C5.54808 30.4048 5.54911 30.2533 5.62104 30.1308L10.5903 21.6834C10.6614 21.5625 10.7913 21.4883 10.9316 21.4883H29.0684C29.2087 21.4883 29.3386 21.5625 29.4097 21.6834L34.379 30.1308C34.4509 30.2533 34.4519 30.4048 34.3813 30.5283C34.3109 30.6516 34.1797 30.7276 34.0377 30.7276ZM6.65479 29.9357H33.3452L28.8421 22.2802H11.1579L6.65479 29.9357Z" fill="#0E1821"/>
</g>
<g id="Group_5">
<path id="Vector_6" d="M15.1105 30.5886C15.0863 30.5886 15.0618 30.5865 15.037 30.5818C14.822 30.5414 14.6805 30.3346 14.7207 30.1196L16.2254 22.0948C16.2659 21.8798 16.4722 21.7377 16.6877 21.7785C16.9027 21.8189 17.0442 22.0257 17.004 22.2407L15.4992 30.2655C15.4634 30.4558 15.2971 30.5886 15.1105 30.5886Z" fill="#0E1821"/>
</g>
<g id="Group_6">
<path id="Vector_7" d="M24.8905 30.5884C24.7039 30.5884 24.5376 30.4557 24.5018 30.2654L22.9971 22.2405C22.9568 22.0255 23.0984 21.8188 23.3134 21.7783C23.5281 21.7381 23.7351 21.8796 23.7756 22.0946L25.2803 30.1195C25.3205 30.3345 25.179 30.5412 24.964 30.5817C24.9393 30.5864 24.9148 30.5884 24.8905 30.5884Z" fill="#0E1821"/>
</g>
<g id="Group_7">
<path id="Vector_8" d="M15.1167 35.7428C14.8981 35.7428 14.7207 35.5655 14.7207 35.3468V34.0269C14.7207 33.8083 14.8981 33.631 15.1167 33.631H16.4523C16.6619 33.631 16.8326 33.4603 16.8326 33.2507V32.6913C16.8326 32.4817 16.6619 32.3111 16.4523 32.3111H15.1167C14.8981 32.3111 14.7207 32.1337 14.7207 31.9151V30.5952C14.7207 30.3766 14.8981 30.1992 15.1167 30.1992C15.3353 30.1992 15.5126 30.3766 15.5126 30.5952V31.5191H16.4523C17.0986 31.5191 17.6245 32.045 17.6245 32.6913V33.2507C17.6245 33.897 17.0986 34.4229 16.4523 34.4229H15.5126V35.3468C15.5126 35.5655 15.3353 35.7428 15.1167 35.7428Z" fill="#0E1821"/>
</g>
<g id="Group_8">
<path id="Vector_9" d="M24.8843 35.7428C24.6656 35.7428 24.4883 35.5655 24.4883 35.3468V34.0269C24.4883 33.8083 24.6656 33.631 24.8843 33.631H26.2199C26.4295 33.631 26.6001 33.4603 26.6001 33.2507V32.6913C26.6001 32.4817 26.4295 32.3111 26.2199 32.3111H24.8843C24.6656 32.3111 24.4883 32.1337 24.4883 31.9151V30.5952C24.4883 30.3766 24.6656 30.1992 24.8843 30.1992C25.1029 30.1992 25.2802 30.3766 25.2802 30.5952V31.5191H26.2199C26.8662 31.5191 27.3921 32.045 27.3921 32.6913V33.2507C27.3921 33.897 26.8662 34.4229 26.2199 34.4229H25.2802V35.3468C25.2802 35.5655 25.1029 35.7428 24.8843 35.7428Z" fill="#0E1821"/>
</g>
<g id="Group_9">
<path id="Vector_10" d="M11.0979 26.5768C11.0412 26.5768 10.9834 26.5647 10.9285 26.5387C10.7311 26.4451 10.6468 26.2089 10.7403 26.0112L11.8687 23.6289C11.962 23.4315 12.1974 23.3467 12.3962 23.4408C12.5936 23.5343 12.6779 23.7705 12.5844 23.968L11.456 26.3505C11.3884 26.4933 11.2461 26.5768 11.0979 26.5768Z" fill="#0E1821"/>
</g>
<g id="Group_10">
<path id="Vector_11" d="M12.3514 29.3344C12.3153 29.3344 12.2787 29.3295 12.2424 29.3192C12.032 29.2591 11.9104 29.04 11.9704 28.8297L12.4718 27.0744C12.5319 26.8637 12.7515 26.7426 12.9614 26.8024C13.1717 26.8624 13.2934 27.0816 13.2333 27.2919L12.7319 29.0472C12.6822 29.2213 12.5236 29.3344 12.3514 29.3344Z" fill="#0E1821"/>
</g>
<g id="Group_11">
<path id="Vector_12" d="M28.9036 26.5767C28.7553 26.5767 28.613 26.4932 28.5455 26.3504L27.4171 23.9678C27.3235 23.7704 27.4078 23.5342 27.6053 23.4407C27.8038 23.3468 28.0394 23.4314 28.1328 23.6288L29.2611 26.0111C29.3547 26.2088 29.2704 26.445 29.0729 26.5386C29.018 26.5646 28.9603 26.5767 28.9036 26.5767Z" fill="#0E1821"/>
</g>
<g id="Group_12">
<path id="Vector_13" d="M27.6492 29.3345C27.477 29.3345 27.3185 29.2214 27.2687 29.0473L26.7673 27.292C26.7072 27.0817 26.8289 26.8625 27.0393 26.8025C27.2486 26.7424 27.4685 26.8638 27.5288 27.0745L28.0302 28.8298C28.0903 29.0401 27.9686 29.2592 27.7582 29.3193C27.7219 29.3296 27.6853 29.3345 27.6492 29.3345Z" fill="#0E1821"/>
</g>
<g id="Group_13">
<path id="Vector_14" d="M19.0766 25.4478C18.858 25.4478 18.6807 25.2704 18.6807 25.0518V23.7319C18.6807 23.5133 18.858 23.3359 19.0766 23.3359C19.2952 23.3359 19.4726 23.5133 19.4726 23.7319V25.0518C19.4726 25.2704 19.2952 25.4478 19.0766 25.4478Z" fill="#0E1821"/>
</g>
<g id="Group_14">
<path id="Vector_15" d="M21.188 28.8796C20.9694 28.8796 20.792 28.7023 20.792 28.4837V25.3159C20.792 25.0973 20.9694 24.9199 21.188 24.9199C21.4066 24.9199 21.5839 25.0973 21.5839 25.3159V28.4837C21.5839 28.7023 21.4066 28.8796 21.188 28.8796Z" fill="#0E1821"/>
</g>
</g>
<g id="Group_15">
<path id="Vector_16" d="M21.3902 8.15233C21.3295 7.84665 21.2726 7.55811 21.2148 7.26975C21.164 7.01617 21.1123 6.76276 21.0608 6.50932C21.0178 6.29742 21.0771 6.12394 21.2595 6.00245C21.4288 5.88961 21.6392 5.89785 21.8169 6.02965C23.2498 7.09245 24.6825 8.15559 26.1125 9.22223C26.387 9.42694 26.3709 9.78408 26.084 9.99788C25.1354 10.705 24.185 11.4097 23.2352 12.1153C22.7641 12.4654 22.2943 12.8173 21.8209 13.1644C21.5723 13.3467 21.2575 13.2882 21.1093 13.0418C21.029 12.9084 21.0425 12.7684 21.0716 12.625C21.1672 12.1543 21.2611 11.6832 21.3554 11.2122C21.3661 11.1586 21.3749 11.1046 21.3876 11.0341C21.3264 11.0341 21.2766 11.0341 21.2268 11.0341C19.5812 11.0341 17.9356 11.0365 16.29 11.0327C15.7662 11.0315 15.3382 11.2276 14.9957 11.6179C14.7487 11.8993 14.5052 12.1838 14.2601 12.4669C14.1435 12.6014 14.0248 12.644 13.8961 12.5901C13.7545 12.5308 13.7053 12.4171 13.7061 12.2678C13.709 11.7037 13.7032 11.1396 13.7082 10.5756C13.7203 9.21187 14.7685 8.15964 16.1317 8.15416C17.8235 8.14735 19.5153 8.1524 21.2071 8.15233C21.2616 8.15233 21.3162 8.15233 21.3902 8.15233Z" fill="#CFCBFF"/>
<path id="Vector_17" d="M19.2019 18.2652C19.2721 18.627 19.3374 18.9706 19.4056 19.3137C19.4835 19.7048 19.347 20.0459 19.0272 20.2514C18.7235 20.4466 18.3434 20.4272 18.0276 20.1932C16.7984 19.2822 15.5705 18.3695 14.3421 17.4575C14.2345 17.3775 14.1265 17.2981 14.0191 17.2179C13.5189 16.8444 13.514 16.1962 14.0148 15.8173C14.6157 15.3627 15.2216 14.9149 15.8255 14.4643C16.559 13.917 17.2921 13.3691 18.0265 12.823C18.3509 12.5817 18.7079 12.5611 19.0218 12.7604C19.3479 12.9673 19.4837 13.3067 19.4041 13.7085C19.3369 14.0473 19.2723 14.3865 19.2023 14.7472C19.2664 14.7472 19.3153 14.7472 19.3643 14.7472C20.7419 14.7472 22.1195 14.7447 23.4971 14.7487C23.9033 14.7499 24.232 14.6079 24.4896 14.2896C24.696 14.0346 24.9143 13.7891 25.1286 13.5404C25.354 13.2788 25.6232 13.2045 25.9225 13.3188C26.2103 13.4287 26.3561 13.6526 26.3538 13.9909C26.3496 14.615 26.3825 15.2424 26.3286 15.8622C26.211 17.2158 25.0672 18.2509 23.7066 18.2617C22.269 18.2732 20.8312 18.2649 19.3935 18.2652C19.3348 18.2653 19.2761 18.2652 19.2019 18.2652ZM18.5641 19.5752C18.5784 19.5668 18.5927 19.5584 18.6069 19.5501C18.5994 19.4976 18.5945 19.4446 18.5839 19.3927C18.489 18.9265 18.3927 18.4605 18.2976 17.9944C18.2576 17.7982 18.3147 17.6195 18.4726 17.536C18.5658 17.4868 18.682 17.4598 18.788 17.4595C20.4382 17.4543 22.0885 17.4631 23.7386 17.4515C24.6764 17.4449 25.4722 16.693 25.53 15.7595C25.5584 15.2997 25.5294 14.8364 25.5253 14.3747C25.5253 14.3707 25.5117 14.3668 25.499 14.3598C25.3391 14.5437 25.1807 14.7304 25.0174 14.9127C24.6436 15.33 24.1761 15.564 23.6152 15.5666C21.9836 15.5743 20.3518 15.5709 18.7201 15.5687C18.4139 15.5683 18.2349 15.3389 18.2958 15.0416C18.3923 14.571 18.4896 14.1005 18.5857 13.6299C18.596 13.5792 18.6011 13.5275 18.6085 13.4762C18.5956 13.4678 18.5826 13.4594 18.5697 13.451C17.201 14.467 15.8323 15.483 14.4421 16.5149C15.8313 17.5463 17.1977 18.5608 18.5641 19.5752Z" fill="#0E1821"/>
</g>
</g>
</g>
</svg>
