<svg width="40" height="41" viewBox="0 0 40 41" fill="none" xmlns="http://www.w3.org/2000/svg">
<g id="Architecture_paint roller 1" style="mix-blend-mode:multiply">
<g id="Group">
<g id="Group_2">
<path id="Vector" d="M31.4023 11.2091H30.1719V10.5255C30.1719 10.299 29.9882 10.1153 29.7617 10.1153H27.9822C27.959 9.51113 27.5 9.01015 26.895 8.94063C26.3456 8.87727 25.7865 8.819 25.2334 8.76741C25.008 8.74647 24.808 8.91219 24.7869 9.13772C24.7659 9.36326 24.9317 9.56315 25.1572 9.5842C25.7045 9.63523 26.2575 9.69288 26.8012 9.75558C27.0081 9.77934 27.1641 9.95446 27.1641 10.1629V13.0756C27.1641 13.1764 27.1272 13.2733 27.0603 13.3484C26.993 13.4238 26.9012 13.4716 26.801 13.483C26.2575 13.5456 25.7045 13.6033 25.1572 13.6543C24.9317 13.6753 24.7659 13.8752 24.7869 14.1008C24.8068 14.3134 24.9855 14.4729 25.1948 14.4729C25.2076 14.4729 25.2204 14.4723 25.2334 14.4711C25.7865 14.4195 26.3456 14.3612 26.8943 14.2979C27.1945 14.2638 27.4709 14.1205 27.6726 13.8942C27.8631 13.6805 27.9712 13.4082 27.9822 13.1232H29.7617C29.9882 13.1232 30.1719 12.9395 30.1719 12.713V12.0294H31.4023C32.3824 12.0294 33.1797 12.8267 33.1797 13.8068V20.8341C33.1797 21.8141 32.3824 22.6114 31.4023 22.6114H19.7266C18.5957 22.6114 17.6758 23.5314 17.6758 24.6622V25.3458H16.1719C15.4934 25.3458 14.9414 25.8978 14.9414 26.5763V27.3966C14.9414 27.6231 15.125 27.8068 15.3516 27.8068H16.3086V33.3302C16.3086 34.1594 16.9832 34.8341 17.8125 34.8341H18.3594C19.1886 34.8341 19.8633 34.1594 19.8633 33.3302V27.8068H20.8203C21.0468 27.8068 21.2305 27.6231 21.2305 27.3966V26.5763C21.2305 25.8978 20.6785 25.3458 20 25.3458H18.4961V24.6622C18.4961 23.9837 19.0481 23.4318 19.7266 23.4318H31.4023C32.8347 23.4318 34 22.2664 34 20.8341V13.8068C34 12.3744 32.8347 11.2091 31.4023 11.2091ZM29.3516 12.3028H27.9844V10.9357H29.3516V12.3028ZM18.3594 34.0138H17.8125C17.4356 34.0138 17.1289 33.7071 17.1289 33.3302V32.0997H19.043V33.3302C19.043 33.7071 18.7363 34.0138 18.3594 34.0138ZM19.043 31.2794H17.1289V27.8068H19.043V31.2794ZM20.4102 26.5763V26.9864H15.7617V26.5763C15.7617 26.3501 15.9457 26.1661 16.1719 26.1661H20C20.2262 26.1661 20.4102 26.3501 20.4102 26.5763Z" fill="#0E1821"/>
<path id="Vector_2" d="M9.11161 9.89011C9.17884 9.8147 9.27068 9.76693 9.37089 9.75556C9.91438 9.69289 10.4674 9.63523 11.0146 9.58421C11.2402 9.56316 11.406 9.36327 11.385 9.13773C11.3639 8.9122 11.1642 8.74643 10.9385 8.76742C10.3854 8.81901 9.82631 8.87727 9.27756 8.94056C8.97734 8.97469 8.70094 9.11805 8.49923 9.34431C8.30882 9.55801 8.20069 9.83033 8.18968 10.1154H6.41016C6.18364 10.1154 6 10.299 6 10.5255V12.713C6 12.9395 6.18364 13.1232 6.41016 13.1232H8.18972C8.21291 13.7274 8.67184 14.2284 9.2769 14.2979C9.82631 14.3612 10.3854 14.4195 10.9385 14.4711C10.9514 14.4723 10.9643 14.4729 10.977 14.4729C11.1864 14.4729 11.3651 14.3134 11.385 14.1008C11.406 13.8753 11.2402 13.6754 11.0146 13.6543C10.4674 13.6033 9.91438 13.5456 9.3707 13.4829C9.16381 13.4592 9.00781 13.284 9.00781 13.0756V10.1629C9.00781 10.0621 9.04472 9.9652 9.11161 9.89011ZM6.82031 10.9357H8.1875V12.3029H6.82031V10.9357Z" fill="#0E1821"/>
</g>
<path id="Vector_3" d="M22.3242 6.83398H13.8477C12.9416 6.83398 12.207 7.56852 12.207 8.47461V18.5918C12.207 19.1959 12.6967 19.6855 13.3008 19.6855C13.9048 19.6855 14.3945 19.1959 14.3945 18.5918V16.9512C14.3945 16.3471 14.8842 15.8574 15.4883 15.8574H16.582V14.0973C16.582 13.8727 16.7551 13.6769 16.9796 13.6701C17.2118 13.6631 17.4023 13.8494 17.4023 14.0801V20.7793C17.4023 21.3834 17.892 21.873 18.4961 21.873C19.1002 21.873 19.5898 21.3834 19.5898 20.7793V16.9512C19.5898 16.3471 20.0795 15.8574 20.6836 15.8574C21.2877 15.8574 21.7773 16.3471 21.7773 16.9512V17.498C21.7773 18.1021 22.267 18.5918 22.8711 18.5918C23.4752 18.5918 23.9648 18.1021 23.9648 17.498V8.47461C23.9648 7.56852 23.2303 6.83398 22.3242 6.83398ZM17.4023 12.166C17.4023 12.3925 17.2187 12.5762 16.9922 12.5762C16.7657 12.5762 16.582 12.3925 16.582 12.166V11.8926C16.582 11.6661 16.7657 11.4824 16.9922 11.4824C17.2187 11.4824 17.4023 11.6661 17.4023 11.8926V12.166ZM19.1797 9.29492H18.6328C18.4063 9.29492 18.2227 9.11129 18.2227 8.88477C18.2227 8.65824 18.4063 8.47461 18.6328 8.47461H19.1797C19.4062 8.47461 19.5898 8.65824 19.5898 8.88477C19.5898 9.11129 19.4062 9.29492 19.1797 9.29492ZM21.3672 9.29492H20.8203C20.5938 9.29492 20.4102 9.11129 20.4102 8.88477C20.4102 8.65824 20.5938 8.47461 20.8203 8.47461H21.3672C21.5937 8.47461 21.7773 8.65824 21.7773 8.88477C21.7773 9.11129 21.5937 9.29492 21.3672 9.29492Z" fill="#CFCBFF"/>
</g>
</g>
</svg>
