<svg width="40" height="41" viewBox="0 0 40 41" fill="none" xmlns="http://www.w3.org/2000/svg">
<g id="&#209;&#128;&#208;&#181;&#208;&#191;&#208;&#187;&#208;&#176;&#208;&#189;-&#208;&#184;&#208;&#186;&#208;&#190;&#208;&#189;&#208;&#186;&#208;&#184;_&#208;&#186;&#209;&#131;&#208;&#178;&#208;&#176;&#208;&#187;&#208;&#180;&#208;&#176; 1" style="mix-blend-mode:multiply" clip-path="url(#clip0_2413_47174)">
<g id="Group">
<path id="Vector" d="M22.3834 9.05078C20.5925 10.8417 19.5349 11.8993 17.7539 13.6802C18.6307 14.5564 19.5253 15.4504 20.4058 16.3303C22.1898 14.5462 23.2533 13.4827 25.034 11.702C24.1532 10.8209 23.2588 9.92639 22.3834 9.05078Z" fill="#CFCBFF"/>
<g id="Group_2">
<g id="Group_3">
<path id="Vector_2" d="M29.0358 32.6268H6.33347C6.11487 32.6268 5.9375 32.4494 5.9375 32.2308V9.79246C5.9375 9.57385 6.11487 9.39648 6.33347 9.39648H13.9889C14.2075 9.39648 14.3849 9.57385 14.3849 9.79246C14.3849 10.0111 14.2075 10.1884 13.9889 10.1884H6.72944V31.8349H28.6399V24.507C28.6399 24.2884 28.8172 24.111 29.0358 24.111C29.2544 24.111 29.4318 24.2884 29.4318 24.507V32.2308C29.4318 32.4494 29.2544 32.6268 29.0358 32.6268Z" fill="#0E1821"/>
</g>
<g id="Group_4">
<path id="Vector_3" d="M28.3064 26.6259H6.39597C6.17737 26.6259 6 26.4486 6 26.23C6 26.0114 6.17737 25.834 6.39597 25.834H28.3064C28.525 25.834 28.7024 26.0114 28.7024 26.23C28.7024 26.4486 28.525 26.6259 28.3064 26.6259Z" fill="#0E1821"/>
</g>
<g id="Group_5">
<path id="Vector_4" d="M26.3964 21.54H6.86179C6.64319 21.54 6.46582 21.3626 6.46582 21.144C6.46582 20.9254 6.64319 20.748 6.86179 20.748H26.3964C26.615 20.748 26.7924 20.9254 26.7924 21.144C26.7924 21.3626 26.615 21.54 26.3964 21.54Z" fill="#0E1821"/>
</g>
<g id="Group_6">
<path id="Vector_5" d="M15.8371 15.7314H6.86179C6.64319 15.7314 6.46582 15.554 6.46582 15.3354C6.46582 15.1168 6.64319 14.9395 6.86179 14.9395H15.8371C16.0557 14.9395 16.2331 15.1168 16.2331 15.3354C16.2331 15.554 16.0557 15.7314 15.8371 15.7314Z" fill="#0E1821"/>
</g>
<g id="Group_7">
<path id="Vector_6" d="M11.8774 15.2034C11.6588 15.2034 11.4814 15.0261 11.4814 14.8075V10.3198C11.4814 10.1012 11.6588 9.92383 11.8774 9.92383C12.096 9.92383 12.2734 10.1012 12.2734 10.3198V14.8075C12.2734 15.0261 12.096 15.2034 11.8774 15.2034Z" fill="#0E1821"/>
</g>
<g id="Group_8">
<path id="Vector_7" d="M11.8774 26.555C11.6588 26.555 11.4814 26.3776 11.4814 26.159V21.6714C11.4814 21.4528 11.6588 21.2754 11.8774 21.2754C12.096 21.2754 12.2734 21.4528 12.2734 21.6714V26.159C12.2734 26.3776 12.096 26.555 11.8774 26.555Z" fill="#0E1821"/>
</g>
<g id="Group_9">
<path id="Vector_8" d="M22.9643 26.555C22.7457 26.555 22.5684 26.3776 22.5684 26.159V21.6714C22.5684 21.4528 22.7457 21.2754 22.9643 21.2754C23.1829 21.2754 23.3603 21.4528 23.3603 21.6714V26.159C23.3603 26.3776 23.1829 26.555 22.9643 26.555Z" fill="#0E1821"/>
</g>
<g id="Group_10">
<path id="Vector_9" d="M17.685 32.098C17.4664 32.098 17.2891 31.9206 17.2891 31.702V27.2143C17.2891 26.9957 17.4664 26.8184 17.685 26.8184C17.9036 26.8184 18.081 26.9957 18.081 27.2143V31.702C18.081 31.9206 17.9036 32.098 17.685 32.098Z" fill="#0E1821"/>
</g>
<g id="Group_11">
<path id="Vector_10" d="M17.685 21.2759C17.4664 21.2759 17.2891 21.0985 17.2891 20.8799V19.56C17.2891 19.3414 17.4664 19.1641 17.685 19.1641C17.9036 19.1641 18.081 19.3414 18.081 19.56V20.8799C18.081 21.0985 17.9036 21.2759 17.685 21.2759Z" fill="#0E1821"/>
</g>
</g>
<g id="Group_12">
<path id="Vector_11" d="M22.5655 15.2307C21.9982 15.7986 21.4554 16.3422 20.9122 16.8853C20.5298 17.2677 20.3031 17.2686 19.9236 16.8892C19.0067 15.9727 18.09 15.0561 17.1736 14.1391C16.8137 13.7791 16.8133 13.5414 17.1718 13.1825C17.6671 12.6865 18.1617 12.1899 18.6604 11.6972C18.7185 11.6398 18.8001 11.606 18.8646 11.5651C18.3098 10.8924 18.4452 10.2307 18.9719 9.76849C19.1019 9.65437 19.2149 9.52104 19.342 9.40335C19.8102 8.9699 20.3683 8.94668 20.8773 9.33532C20.9003 9.35289 20.9256 9.36756 20.9629 9.39227C21.5079 8.84683 22.0506 8.30344 22.5935 7.76033C22.9865 7.36728 23.2079 7.36656 23.5983 7.75691C24.5151 8.6735 25.4319 9.59002 26.3482 10.507C26.6975 10.8566 26.6981 11.0983 26.3505 11.4469C25.8078 11.9914 25.2642 12.535 24.7214 13.0795C24.7114 13.0895 24.7075 13.1056 24.6935 13.133C24.7395 13.1822 24.7877 13.2369 24.8391 13.2883C29.3101 17.7603 33.7815 22.2318 38.251 26.7051C38.3513 26.8055 38.4321 26.8709 38.5965 26.8285C38.8359 26.7666 39.0593 26.8487 39.2387 27.0234C39.4384 27.218 39.639 27.4121 39.8296 27.6155C40.1338 27.9403 40.1418 28.3489 39.8314 28.6677C39.2637 29.2509 38.6879 29.8265 38.1048 30.3944C37.7866 30.7043 37.3769 30.6958 37.0531 30.3916C36.8554 30.206 36.6657 30.0115 36.4772 29.8165C36.2993 29.6325 36.205 29.4081 36.2674 29.1565C36.3079 28.9931 36.2391 28.9094 36.1384 28.8087C32.1127 24.7868 28.0888 20.7631 24.0652 16.7392C23.5698 16.2438 23.0772 15.7456 22.5655 15.2307ZM23.1138 8.31825C21.3229 10.1091 19.5341 11.8979 17.7531 13.6788C18.6299 14.555 19.5245 15.4491 20.405 16.329C22.1891 14.5448 23.9837 12.7501 25.7644 10.9694C24.8836 10.0884 23.9893 9.19386 23.1138 8.31825ZM33.0988 22.611C30.4952 20.0072 27.8923 17.404 25.304 14.8156C24.9583 15.161 24.599 15.52 24.2616 15.8572C26.8525 18.448 29.4581 21.0535 32.0574 23.6527C32.3955 23.3145 32.7516 22.9582 33.0988 22.611ZM32.585 24.1938C33.9903 25.5991 35.3948 27.0036 36.8389 28.4476C36.9379 28.3316 37.0377 28.1854 37.1662 28.0716C37.3138 27.9407 37.4906 27.9452 37.6347 28.0859C37.7785 28.2261 37.7863 28.3932 37.6618 28.5541C37.6023 28.6311 37.531 28.6997 37.4605 28.7673C37.2889 28.9319 37.1145 29.0936 36.9663 29.233C37.2035 29.474 37.4023 29.6761 37.5877 29.8645C38.1562 29.2963 38.7359 28.7168 39.2893 28.1636C39.1006 27.965 38.9018 27.7558 38.7025 27.5459C38.401 27.7557 38.2912 27.7469 38.0253 27.4812C36.6238 26.0802 35.2228 24.6787 33.8212 23.2778C33.765 23.2217 33.7051 23.1694 33.655 23.1228C33.286 23.4921 32.93 23.8484 32.585 24.1938ZM23.6604 15.2949C24.0271 14.929 24.3854 14.5713 24.6993 14.2581C24.5293 14.0751 24.3381 13.8695 24.163 13.681C23.8138 14.03 23.459 14.3846 23.1206 14.7228C23.3033 14.9164 23.497 15.1217 23.6604 15.2949ZM19.3276 10.962C19.6841 10.6041 20.042 10.2448 20.3981 9.88728C20.2076 9.73453 20.051 9.72613 19.861 9.89843C19.6772 10.0652 19.501 10.2417 19.3343 10.4256C19.1618 10.6159 19.1712 10.7737 19.3276 10.962Z" fill="#0E1821"/>
<path id="Vector_12" d="M21.9524 10.0879C22.2752 10.0876 22.4509 10.3556 22.3413 10.5827C22.3064 10.6551 22.2491 10.7199 22.1915 10.7777C21.6238 11.3482 21.0544 11.9169 20.4839 12.4847C20.4312 12.5371 20.3732 12.5888 20.3086 12.624C20.1586 12.706 20.0138 12.6799 19.8973 12.5593C19.7809 12.4387 19.7568 12.2939 19.8461 12.1461C19.8844 12.0827 19.9374 12.0269 19.9902 11.974C20.553 11.4093 21.1152 10.8438 21.683 10.2841C21.7749 10.1935 21.8935 10.13 21.9524 10.0879Z" fill="#0E1821"/>
<path id="Vector_13" d="M23.4517 9.37772C23.4455 9.59626 23.0391 9.99381 22.825 9.99087C22.603 9.98782 22.394 9.742 22.5038 9.55903C22.6249 9.35728 22.8088 9.16858 23.0094 9.04631C23.2013 8.92931 23.4584 9.14718 23.4517 9.37772Z" fill="#0E1821"/>
</g>
<g id="Group_13">
<path id="Vector_14" d="M15.1427 7.6257L17.3601 9.84307C17.5147 9.99765 17.5147 10.2485 17.3601 10.4031C17.2055 10.5576 16.9547 10.5576 16.8001 10.4031L14.5827 8.18569C14.4282 8.03111 14.4282 7.78027 14.5827 7.6257C14.7373 7.47112 14.9881 7.47112 15.1427 7.6257Z" fill="#CFCBFF"/>
</g>
<g id="Group_14">
<path id="Vector_15" d="M14.1589 18.7942L16.3763 16.5769C16.5309 16.4223 16.7817 16.4223 16.9363 16.5769C17.0908 16.7314 17.0908 16.9823 16.9363 17.1369L14.7189 19.3542C14.5643 19.5088 14.3135 19.5088 14.1589 19.3542C14.0043 19.1997 14.0043 18.9488 14.1589 18.7942Z" fill="#CFCBFF"/>
</g>
<g id="Group_15">
<path id="Vector_16" d="M13.7817 12.5449H15.1516C15.3703 12.5449 15.5476 12.7223 15.5476 12.9409C15.5476 13.1595 15.3703 13.3369 15.1516 13.3369H13.7817C13.5631 13.3369 13.3857 13.1595 13.3857 12.9409C13.3857 12.7223 13.5631 12.5449 13.7817 12.5449Z" fill="#CFCBFF"/>
</g>
<g id="Group_16">
<path id="Vector_17" d="M19.001 19.5393V18.1694C19.001 17.9508 19.1783 17.7734 19.3969 17.7734C19.6156 17.7734 19.7929 17.9508 19.7929 18.1694V19.5393C19.7929 19.7579 19.6156 19.9353 19.3969 19.9353C19.1783 19.9353 19.001 19.7579 19.001 19.5393Z" fill="#CFCBFF"/>
</g>
<g id="Group_17">
<path id="Vector_18" d="M19.7929 6.43894V7.80887C19.7929 8.02748 19.6156 8.20485 19.3969 8.20485C19.1783 8.20485 19.001 8.02748 19.001 7.80887V6.43894C19.001 6.22034 19.1783 6.04297 19.3969 6.04297C19.6156 6.04297 19.7929 6.22034 19.7929 6.43894Z" fill="#CFCBFF"/>
</g>
</g>
</g>
<defs>
<clipPath id="clip0_2413_47174">
<rect width="40" height="40" fill="white" transform="translate(0 0.333984)"/>
</clipPath>
</defs>
</svg>
