<svg width="120" height="120" viewBox="0 0 120 120" fill="none" xmlns="http://www.w3.org/2000/svg">
<g id="Law and Justice_hammer 1" style="mix-blend-mode:multiply">
<g id="Group">
<path id="Vector" d="M38.4448 43.3332C37.4832 44.3021 37.4863 45.8657 38.4515 46.8309L38.4801 46.8595C39.4478 47.8272 41.0167 47.8272 41.9844 46.8595L63.4222 25.4217C64.3899 24.454 64.3899 22.8851 63.4222 21.9174C62.4569 20.9521 60.8933 20.9489 59.9246 21.9107C52.0215 29.7574 43.251 38.4909 38.4448 43.3332Z" fill="#F32100"/>
<path id="Vector_2" d="M60.0254 64.9005L81.4632 43.4627C82.4309 42.495 82.4309 40.9261 81.4632 39.9584C80.498 38.9932 78.9343 38.9899 77.9656 39.9517C70.0625 47.7984 61.292 56.5319 56.4858 61.3743C55.5242 62.3431 55.5273 63.9067 56.4925 64.8719L56.5211 64.9005C57.4888 65.8682 59.0577 65.8682 60.0254 64.9005Z" fill="#F32100"/>
<path id="Vector_3" d="M45.3955 46.8136L56.4771 57.8952C61.4377 52.9115 68.7664 45.6194 74.4848 39.9399L63.4043 28.8594C56.8668 35.3533 49.9875 42.2048 45.3955 46.8136Z" fill="#F32100"/>
<path id="Vector_4" d="M38.4355 39.8545C43.3961 34.8708 50.7249 27.5788 56.4433 21.8993L53.8633 19.3193C52.1043 17.5602 49.2419 17.5602 47.4828 19.3193L35.8818 30.9203C34.1227 32.6794 34.1227 35.5418 35.8818 37.3008L38.4355 39.8545Z" fill="#F32100"/>
<path id="Vector_5" d="M63.377 64.796L66.0445 67.4636C67.8036 69.2226 70.6659 69.2227 72.425 67.4636L84.026 55.8626C85.7851 54.1034 85.7851 51.2411 84.026 49.4821L81.3857 46.8418C74.8483 53.3357 67.9689 60.1872 63.377 64.796Z" fill="#F32100"/>
<g id="Group_2">
<path id="Vector_6" d="M50.843 55.2849L41.5623 64.5656L39.2422 62.2455L48.5229 52.9648L46.7827 51.2246L37.502 60.5052C37.2712 60.2745 36.9583 60.1449 36.632 60.1449C36.3056 60.1449 35.9927 60.2746 35.7618 60.5054L18.3603 77.9068C18.1296 78.1375 18 78.4505 18 78.7769C18 79.1032 18.1296 79.4162 18.3603 79.6469L24.1608 85.4474C24.3917 85.6782 24.7046 85.8078 25.031 85.8078C25.3573 85.8078 25.6702 85.6782 25.9011 85.4474L43.3025 68.046C43.783 67.5655 43.783 66.7864 43.3025 66.3059L52.5832 57.0251L50.843 55.2849ZM25.031 82.8372L20.9706 78.7769L36.632 63.1155L40.6922 67.1759L25.031 82.8372Z" fill="#949494"/>
<path id="Vector_7" d="M98.3086 94.6172H97.0781V87.6445C97.0781 86.965 96.5273 86.4141 95.8477 86.4141H63.0352C62.3555 86.4141 61.8047 86.965 61.8047 87.6445V94.6172H60.5742C58.5388 94.6172 56.8828 96.2731 56.8828 98.3086V100.77C56.8828 101.449 57.4336 102 58.1133 102H100.77C101.449 102 102 101.449 102 100.77V98.3086C102 96.2731 100.344 94.6172 98.3086 94.6172ZM64.2656 88.875H94.6172V94.6172H64.2656V88.875ZM99.5391 99.5391H59.3438V98.3086C59.3438 97.6301 59.8957 97.0781 60.5742 97.0781H98.3086C98.9871 97.0781 99.5391 97.6301 99.5391 98.3086V99.5391Z" fill="#949494"/>
<path id="Vector_8" d="M93.1093 77.5368C93.3526 77.8268 93.7013 77.9763 94.0525 77.9763C94.3316 77.9763 94.6123 77.8819 94.8428 77.6884L99.8259 73.5071C100.346 73.0703 100.414 72.2941 99.9775 71.7736C99.5407 71.253 98.7646 71.185 98.2439 71.622L93.2608 75.8033C92.7403 76.2401 92.6723 77.0162 93.1093 77.5368Z" fill="#949494"/>
<path id="Vector_9" d="M90.4818 75.6486C90.6276 75.7049 90.7774 75.7316 90.9248 75.7316C91.4186 75.7316 91.8843 75.4323 92.0729 74.9442L93.9274 70.1431C94.1722 69.5091 93.8569 68.7967 93.2229 68.5519C92.5883 68.3067 91.8766 68.6224 91.6318 69.2563L89.7773 74.0575C89.5325 74.6914 89.8478 75.4038 90.4818 75.6486Z" fill="#949494"/>
<path id="Vector_10" d="M94.5116 80.4508C94.627 81.0375 95.1414 81.4442 95.7177 81.4442C95.7964 81.4442 95.8762 81.4365 95.9563 81.4208L101.006 80.4281C101.673 80.297 102.108 79.6502 101.977 78.9834C101.846 78.3166 101.199 77.8831 100.532 78.0133L95.4817 79.006C94.8149 79.1372 94.3806 79.784 94.5116 80.4508Z" fill="#949494"/>
</g>
</g>
</g>
</svg>
