<svg width="40" height="41" viewBox="0 0 40 41" fill="none" xmlns="http://www.w3.org/2000/svg">
<g id="Architecture_blueprint 1" style="mix-blend-mode:multiply">
<g id="Group">
<g id="Group_2">
<path id="Vector" d="M31.9492 15.0859H30.3086C30.082 15.0859 29.8984 15.2696 29.8984 15.4961V17.8203H10.1016V15.4961C10.1016 15.2696 9.91795 15.0859 9.69141 15.0859H8.05078C6.91997 15.0859 6 16.0059 6 17.1367V32.4492C6 33.58 6.91997 34.5 8.05078 34.5H31.9492C33.08 34.5 34 33.58 34 32.4492V17.1367C34 16.0059 33.08 15.0859 31.9492 15.0859ZM30.7188 15.9062H31.9492C32.6277 15.9062 33.1797 16.4582 33.1797 17.1367V30.2991C32.8367 30.0469 32.4105 29.8971 31.9492 29.8971H30.7188V15.9062ZM6.82031 17.1367C6.82031 16.4582 7.37231 15.9062 8.05078 15.9062H9.28125V29.8971H8.05078C7.58952 29.8971 7.16328 30.0469 6.82031 30.2991V17.1367ZM33.1797 32.4492C33.1797 33.1277 32.6277 33.6797 31.9492 33.6797H8.05078C7.37231 33.6797 6.82031 33.1277 6.82031 32.4492V31.9023C6.82031 31.249 7.37231 30.7175 8.05078 30.7175H9.69141C9.91795 30.7175 10.1016 30.5338 10.1016 30.3073V18.6406H29.8984V30.3073C29.8984 30.5338 30.082 30.7175 30.3086 30.7175H31.9492C32.6277 30.7175 33.1797 31.249 33.1797 31.9023V32.4492Z" fill="#F3FFFA"/>
<path id="Vector_2" d="M32.7695 6.5H7.23047C6.552 6.5 6 7.05197 6 7.73047V12.9258C6 13.1523 6.18361 13.3359 6.41016 13.3359H33.5898C33.8164 13.3359 34 13.1523 34 12.9258V7.73047C34 7.05197 33.448 6.5 32.7695 6.5ZM7.23047 7.32031H32.7695C32.9957 7.32031 33.1797 7.5043 33.1797 7.73047V8.6875H6.82031V7.73047C6.82031 7.5043 7.0043 7.32031 7.23047 7.32031ZM31.8125 12.5156V11.832C31.8125 11.6055 31.6289 11.4219 31.4023 11.4219C31.1758 11.4219 30.9922 11.6055 30.9922 11.832V12.5156H29.2787V11.2852C29.2787 11.0586 29.0951 10.875 28.8685 10.875C28.642 10.875 28.4584 11.0586 28.4584 11.2852V12.5156H26.7448V11.832C26.7448 11.6055 26.5612 11.4219 26.3346 11.4219C26.1081 11.4219 25.9245 11.6055 25.9245 11.832V12.5156H24.2109V11.2852C24.2109 11.0586 24.0273 10.875 23.8008 10.875C23.5742 10.875 23.3906 11.0586 23.3906 11.2852V12.5156H21.6771V11.832C21.6771 11.6055 21.4935 11.4219 21.2669 11.4219C21.0404 11.4219 20.8568 11.6055 20.8568 11.832V12.5156H19.1432V11.2852C19.1432 11.0586 18.9596 10.875 18.7331 10.875C18.5065 10.875 18.3229 11.0586 18.3229 11.2852V12.5156H16.6094V11.832C16.6094 11.6055 16.4258 11.4219 16.1992 11.4219C15.9727 11.4219 15.7891 11.6055 15.7891 11.832V12.5156H14.0755V11.2852C14.0755 11.0586 13.8919 10.875 13.6654 10.875C13.4388 10.875 13.2552 11.0586 13.2552 11.2852V12.5156H11.5416V11.832C11.5416 11.6055 11.358 11.4219 11.1315 11.4219C10.9049 11.4219 10.7213 11.6055 10.7213 11.832V12.5156H9.00781V11.2852C9.00781 11.0586 8.8242 10.875 8.59766 10.875C8.37111 10.875 8.1875 11.0586 8.1875 11.2852V12.5156H6.82031V9.50781H33.1797V12.5156H31.8125Z" fill="#F3FFFA"/>
</g>
<g id="Group_3">
<path id="Vector_3" d="M13.6562 25.3398V23.6992C13.6562 23.473 13.4723 23.2891 13.2461 23.2891H11.4688V25.75H13.2461C13.4723 25.75 13.6562 25.566 13.6562 25.3398Z" fill="#CFCBFF"/>
<path id="Vector_4" d="M22.1875 29.0313C21.9568 29.0313 21.7706 28.8407 21.7775 28.6085C21.7843 28.384 21.9801 28.2109 22.2047 28.2109H28.5312V24.1094H28.1211C26.0824 24.1094 24.4297 22.4567 24.4297 20.418V20.0078H12.5625C11.9584 20.0078 11.4688 20.4975 11.4688 21.1016V22.4688H13.2461C13.9257 22.4688 14.4766 23.0197 14.4766 23.6992V25.3398C14.4766 26.0194 13.9257 26.5703 13.2461 26.5703H11.4688V27.9375C11.4688 28.5416 11.9584 29.0313 12.5625 29.0313H16.8554V27.5273C16.8554 26.3947 17.7736 25.4766 18.9062 25.4766H19.5898V23.1695C19.5898 22.9449 19.7629 22.7491 19.9874 22.7424C20.2197 22.7354 20.4102 22.9217 20.4102 23.1523V31.2188C20.4102 31.8228 20.8998 32.3125 21.5039 32.3125H27.4375C28.0416 32.3125 28.5312 31.8228 28.5312 31.2188V29.0313H22.1875ZM21.2305 25.6133V23.1523C21.2305 22.9258 21.4141 22.7422 21.6406 22.7422C21.8672 22.7422 22.0508 22.9258 22.0508 23.1523V25.6133C22.0508 25.9902 22.3574 26.2969 22.7344 26.2969H23.8281C24.0547 26.2969 24.2383 26.4805 24.2383 26.707C24.2383 26.9336 24.0547 27.1172 23.8281 27.1172H22.7344C21.9051 27.1172 21.2305 26.4425 21.2305 25.6133ZM24.293 30.6719H23.7461C23.5195 30.6719 23.3359 30.4882 23.3359 30.2617C23.3359 30.0352 23.5195 29.8516 23.7461 29.8516H24.293C24.5195 29.8516 24.7031 30.0352 24.7031 30.2617C24.7031 30.4882 24.5195 30.6719 24.293 30.6719ZM26.4805 30.6719H25.9336C25.707 30.6719 25.5234 30.4882 25.5234 30.2617C25.5234 30.0352 25.707 29.8516 25.9336 29.8516H26.4805C26.707 29.8516 26.8906 30.0352 26.8906 30.2617C26.8906 30.4882 26.707 30.6719 26.4805 30.6719Z" fill="#CFCBFF"/>
<path id="Vector_5" d="M17.6758 27.5273V29.0312H19.5899V26.2969H18.9062C18.2278 26.2969 17.6758 26.8488 17.6758 27.5273Z" fill="#CFCBFF"/>
<path id="Vector_6" d="M25.25 20.418C25.25 22.0036 26.5354 23.2891 28.1211 23.2891H28.5312V21.1016C28.5312 20.4975 28.0416 20.0078 27.4375 20.0078H25.25V20.418Z" fill="#CFCBFF"/>
</g>
</g>
</g>
</svg>
