<svg width="40" height="41" viewBox="0 0 40 41" fill="none" xmlns="http://www.w3.org/2000/svg">
<g id="Architecture_modern house 1" style="mix-blend-mode:multiply">
<g id="Group">
<g id="Group_2">
<path id="Vector" d="M33.5898 15.4414C33.8164 15.4414 34 15.2578 34 15.0312V12.2969C34 12.0703 33.8164 11.8867 33.5898 11.8867H27.7383C27.5118 11.8867 27.3281 12.0703 27.3281 12.2969C27.3281 12.5234 27.5118 12.707 27.7383 12.707H33.1797V14.6211H27.7383C27.5118 14.6211 27.3281 14.8047 27.3281 15.0312C27.3281 15.2578 27.5118 15.4414 27.7383 15.4414H31.0742V18.5312H27.7383C27.5118 18.5312 27.3281 18.7149 27.3281 18.9414C27.3281 19.168 27.5118 19.3516 27.7383 19.3516H28.6555V22.9062H24.8672V22.7695C24.8672 22.543 24.6836 22.3594 24.457 22.3594C24.2305 22.3594 24.0469 22.543 24.0469 22.7695V24.1914H16.8008C16.5743 24.1914 16.3906 24.375 16.3906 24.6016V28.9766C16.3906 29.2031 16.5743 29.3867 16.8008 29.3867H24.0469V32.0391H15.0234V23.6992C15.0234 23.4727 14.8398 23.2891 14.6133 23.2891H10.2383C10.0118 23.2891 9.82812 23.4727 9.82812 23.6992V32.0391H8.46094V22.7695C8.46094 22.543 8.2773 22.3594 8.05078 22.3594C7.82426 22.3594 7.64062 22.543 7.64062 22.7695V32.0391H6.41016C6.18364 32.0391 6 32.2227 6 32.4492V34.0898C6 34.3164 6.18364 34.5 6.41016 34.5H33.5898C33.8164 34.5 34 34.3164 34 34.0898V32.4492C34 32.2227 33.8164 32.0391 33.5898 32.0391H31.8945V25.3672H33.5898C33.8164 25.3672 34 25.1836 34 24.957V18.9414C34 18.7149 33.8164 18.5312 33.5898 18.5312H31.8945V15.4414H33.5898ZM31.0742 29.9336H29.4746V27.4727H31.0742V29.9336ZM28.6543 29.9336H27.2871V27.4727H28.6543V29.9336ZM26.4668 29.9336H24.8672V27.4727H26.4668V29.9336ZM21.5859 25.0117V28.5664H19.6719V25.0117H21.5859ZM17.2109 25.0117H18.8516V28.5664H17.2109V25.0117ZM22.4062 28.5664V25.0117H24.0469V28.5664H22.4062ZM10.6484 24.1094H14.2031V32.0391H10.6484V24.1094ZM33.1797 33.6797H6.82031V32.8594H33.1797V33.6797ZM24.8672 32.0391V30.7539H31.0742V32.0391H24.8672ZM31.0742 26.6523H24.8672V25.3672H31.0742V26.6523ZM33.1797 24.5469H24.8672V23.7266H33.1797V24.5469ZM33.1797 22.9062H29.4758V19.3516H33.1797V22.9062Z" fill="#F3FFFA"/>
<path id="Vector_2" d="M13.5195 26.8438C13.293 26.8438 13.1094 27.0274 13.1094 27.2539V28.8945C13.1094 29.1211 13.293 29.3047 13.5195 29.3047C13.7461 29.3047 13.9297 29.1211 13.9297 28.8945V27.2539C13.9297 27.0274 13.7461 26.8438 13.5195 26.8438Z" fill="#F3FFFA"/>
</g>
<g id="Group_3">
<path id="Vector_3" d="M21.3125 9.50781H17.7578V16.8906H21.3125V9.50781Z" fill="#CFCBFF"/>
<path id="Vector_4" d="M26.5078 9.50781H22.1328V16.8906H26.5078V9.50781Z" fill="#CFCBFF"/>
<path id="Vector_5" d="M16.9375 9.50781H13.3828V16.8906H16.9375V9.50781Z" fill="#CFCBFF"/>
<path id="Vector_6" d="M26.5078 17.7109H9.00781V18.5312H26.5078V17.7109Z" fill="#CFCBFF"/>
<path id="Vector_7" d="M7.50391 6.5C6.67333 6.5 6 7.17332 6 8.00391V20.0352C6 20.8657 6.67333 21.5391 7.50391 21.5391H26.5078V19.3516H8.59766C8.37114 19.3516 8.1875 19.1679 8.1875 18.9414V9.09766C8.1875 8.87113 8.37114 8.6875 8.59766 8.6875H26.5078V6.5H7.50391Z" fill="#CFCBFF"/>
<path id="Vector_8" d="M12.5625 9.50781H9.00781V16.8906H12.5625V9.50781Z" fill="#CFCBFF"/>
</g>
</g>
</g>
</svg>
