<svg width="40" height="41" viewBox="0 0 40 41" fill="none" xmlns="http://www.w3.org/2000/svg">
<g id="&#209;&#128;&#208;&#181;&#208;&#191;&#208;&#187;&#208;&#176;&#208;&#189;-&#208;&#184;&#208;&#186;&#208;&#190;&#208;&#189;&#208;&#186;&#208;&#184;_&#208;&#183;&#208;&#176;&#208;&#188;&#208;&#181;&#208;&#189;&#208;&#176;_&#208;&#191;&#208;&#176;&#209;&#128;&#208;&#186;&#208;&#181;&#209;&#130;&#208;&#176; 1" style="mix-blend-mode:multiply">
<g id="Group">
<g id="Group_2">
<path id="Vector" d="M13.6972 29.8651H6.00977L10.9694 21.6816H15.4331L13.6972 29.8651Z" fill="#CFCBFF"/>
<path id="Vector_2" d="M23.4656 29.8651H15.2822L16.7701 21.6816H22.2257L23.4656 29.8651Z" fill="#CFCBFF"/>
<path id="Vector_3" d="M32.4889 29.8651H25.0494L23.5615 21.6816H28.0252L32.4889 29.8651Z" fill="#CFCBFF"/>
<g id="Group_3">
<path id="Vector_4" d="M34.1234 35.4091H5.87742C5.65881 35.4091 5.48145 35.2318 5.48145 35.0132V29.9975C5.48145 29.7789 5.65881 29.6016 5.87742 29.6016H34.1234C34.342 29.6016 34.5194 29.7789 34.5194 29.9975V35.0132C34.5194 35.2318 34.342 35.4091 34.1234 35.4091ZM6.27339 34.6172H33.7274V30.3935H6.27339V34.6172Z" fill="#F3FFFA"/>
</g>
<g id="Group_4">
<path id="Vector_5" d="M34.0377 30.3936H5.96234C5.82032 30.3936 5.6891 30.3176 5.61872 30.1944C5.54808 30.0709 5.54911 29.9193 5.62104 29.7968L10.5903 21.3494C10.6614 21.2285 10.7913 21.1543 10.9316 21.1543H29.0684C29.2087 21.1543 29.3386 21.2285 29.4097 21.3494L34.379 29.7968C34.4509 29.9193 34.4519 30.0709 34.3813 30.1944C34.3109 30.3176 34.1797 30.3936 34.0377 30.3936ZM6.65479 29.6017H33.3452L28.8421 21.9462H11.1579L6.65479 29.6017Z" fill="#F3FFFA"/>
</g>
<g id="Group_5">
<path id="Vector_6" d="M15.1105 30.2546C15.0863 30.2546 15.0618 30.2525 15.037 30.2479C14.822 30.2074 14.6805 30.0006 14.7207 29.7856L16.2254 21.7608C16.2659 21.5458 16.4722 21.4037 16.6877 21.4445C16.9027 21.4849 17.0442 21.6917 17.004 21.9067L15.4992 29.9316C15.4634 30.1218 15.2971 30.2546 15.1105 30.2546Z" fill="#F3FFFA"/>
</g>
<g id="Group_6">
<path id="Vector_7" d="M24.8905 30.2544C24.7039 30.2544 24.5376 30.1217 24.5018 29.9314L22.9971 21.9065C22.9568 21.6915 23.0984 21.4848 23.3134 21.4443C23.5281 21.4041 23.7351 21.5456 23.7756 21.7606L25.2803 29.7855C25.3205 30.0005 25.179 30.2073 24.964 30.2477C24.9393 30.2524 24.9148 30.2544 24.8905 30.2544Z" fill="#F3FFFA"/>
</g>
<g id="Group_7">
<path id="Vector_8" d="M15.1167 35.4088C14.8981 35.4088 14.7207 35.2315 14.7207 35.0129V33.693C14.7207 33.4744 14.8981 33.297 15.1167 33.297H16.4523C16.6619 33.297 16.8326 33.1263 16.8326 32.9167V32.3573C16.8326 32.1477 16.6619 31.9771 16.4523 31.9771H15.1167C14.8981 31.9771 14.7207 31.7997 14.7207 31.5811V30.2612C14.7207 30.0426 14.8981 29.8652 15.1167 29.8652C15.3353 29.8652 15.5126 30.0426 15.5126 30.2612V31.1851H16.4523C17.0986 31.1851 17.6245 31.711 17.6245 32.3573V32.9167C17.6245 33.563 17.0986 34.0889 16.4523 34.0889H15.5126V35.0129C15.5126 35.2315 15.3353 35.4088 15.1167 35.4088Z" fill="#F3FFFA"/>
</g>
<g id="Group_8">
<path id="Vector_9" d="M24.8843 35.4088C24.6656 35.4088 24.4883 35.2315 24.4883 35.0129V33.693C24.4883 33.4744 24.6656 33.297 24.8843 33.297H26.2199C26.4295 33.297 26.6001 33.1263 26.6001 32.9167V32.3573C26.6001 32.1477 26.4295 31.9771 26.2199 31.9771H24.8843C24.6656 31.9771 24.4883 31.7997 24.4883 31.5811V30.2612C24.4883 30.0426 24.6656 29.8652 24.8843 29.8652C25.1029 29.8652 25.2802 30.0426 25.2802 30.2612V31.1851H26.2199C26.8662 31.1851 27.3921 31.711 27.3921 32.3573V32.9167C27.3921 33.563 26.8662 34.0889 26.2199 34.0889H25.2802V35.0129C25.2802 35.2315 25.1029 35.4088 24.8843 35.4088Z" fill="#F3FFFA"/>
</g>
<g id="Group_9">
<path id="Vector_10" d="M11.0979 26.2428C11.0412 26.2428 10.9834 26.2307 10.9285 26.2047C10.7311 26.1111 10.6468 25.875 10.7403 25.6772L11.8687 23.295C11.962 23.0975 12.1974 23.0127 12.3962 23.1068C12.5936 23.2004 12.6779 23.4365 12.5844 23.634L11.456 26.0165C11.3884 26.1593 11.2461 26.2428 11.0979 26.2428Z" fill="#F3FFFA"/>
</g>
<g id="Group_10">
<path id="Vector_11" d="M12.3514 29.0004C12.3153 29.0004 12.2787 28.9955 12.2424 28.9852C12.032 28.9252 11.9104 28.7061 11.9704 28.4957L12.4718 26.7404C12.5319 26.5297 12.7515 26.4086 12.9614 26.4684C13.1717 26.5285 13.2934 26.7476 13.2333 26.9579L12.7319 28.7133C12.6822 28.8873 12.5236 29.0004 12.3514 29.0004Z" fill="#F3FFFA"/>
</g>
<g id="Group_11">
<path id="Vector_12" d="M28.9036 26.2427C28.7553 26.2427 28.613 26.1592 28.5455 26.0164L27.4171 23.6339C27.3235 23.4364 27.4078 23.2002 27.6053 23.1067C27.8038 23.0128 28.0394 23.0974 28.1328 23.2949L29.2611 25.6771C29.3547 25.8749 29.2704 26.111 29.0729 26.2046C29.018 26.2306 28.9603 26.2427 28.9036 26.2427Z" fill="#F3FFFA"/>
</g>
<g id="Group_12">
<path id="Vector_13" d="M27.6492 29.0005C27.477 29.0005 27.3185 28.8874 27.2687 28.7134L26.7673 26.958C26.7072 26.7477 26.8289 26.5285 27.0393 26.4685C27.2486 26.4084 27.4685 26.5298 27.5288 26.7405L28.0302 28.4958C28.0903 28.7062 27.9686 28.9253 27.7582 28.9853C27.7219 28.9956 27.6853 29.0005 27.6492 29.0005Z" fill="#F3FFFA"/>
</g>
<g id="Group_13">
<path id="Vector_14" d="M19.0766 25.1138C18.858 25.1138 18.6807 24.9364 18.6807 24.7178V23.3979C18.6807 23.1793 18.858 23.002 19.0766 23.002C19.2952 23.002 19.4726 23.1793 19.4726 23.3979V24.7178C19.4726 24.9364 19.2952 25.1138 19.0766 25.1138Z" fill="#F3FFFA"/>
</g>
<g id="Group_14">
<path id="Vector_15" d="M21.188 28.5457C20.9694 28.5457 20.792 28.3683 20.792 28.1497V24.9819C20.792 24.7633 20.9694 24.5859 21.188 24.5859C21.4066 24.5859 21.5839 24.7633 21.5839 24.9819V28.1497C21.5839 28.3683 21.4066 28.5457 21.188 28.5457Z" fill="#F3FFFA"/>
</g>
</g>
<g id="Group_15">
<path id="Vector_16" d="M21.3902 7.81835C21.3295 7.51266 21.2726 7.22413 21.2148 6.93577C21.164 6.68218 21.1123 6.42877 21.0608 6.17533C21.0178 5.96344 21.0771 5.78996 21.2595 5.66846C21.4288 5.55562 21.6392 5.56387 21.8169 5.69567C23.2498 6.75846 24.6825 7.82161 26.1125 8.88825C26.387 9.09296 26.3709 9.45009 26.084 9.66389C25.1354 10.371 24.185 11.0758 23.2352 11.7814C22.7641 12.1314 22.2943 12.4833 21.8209 12.8304C21.5723 13.0127 21.2575 12.9542 21.1093 12.7079C21.029 12.5744 21.0425 12.4345 21.0716 12.2911C21.1672 11.8203 21.2611 11.3492 21.3554 10.8782C21.3661 10.8246 21.3749 10.7706 21.3876 10.7001C21.3264 10.7001 21.2766 10.7001 21.2268 10.7001C19.5812 10.7001 17.9356 10.7025 16.29 10.6987C15.7662 10.6975 15.3382 10.8936 14.9957 11.2839C14.7487 11.5653 14.5052 11.8498 14.2601 12.1329C14.1435 12.2674 14.0248 12.3101 13.8961 12.2561C13.7545 12.1969 13.7053 12.0831 13.7061 11.9338C13.709 11.3697 13.7032 10.8056 13.7082 10.2416C13.7203 8.87789 14.7685 7.82566 16.1317 7.82017C17.8235 7.81337 19.5153 7.81842 21.2071 7.81835C21.2616 7.81835 21.3162 7.81835 21.3902 7.81835Z" fill="#CFCBFF"/>
<path id="Vector_17" d="M19.2019 17.9313C19.2721 18.293 19.3374 18.6366 19.4056 18.9797C19.4835 19.3708 19.347 19.7119 19.0272 19.9174C18.7235 20.1126 18.3434 20.0932 18.0276 19.8592C16.7984 18.9482 15.5705 18.0355 14.3421 17.1235C14.2345 17.0436 14.1265 16.9641 14.0191 16.8839C13.5189 16.5104 13.514 15.8622 14.0148 15.4833C14.6157 15.0287 15.2216 14.5809 15.8255 14.1303C16.559 13.583 17.2921 13.0351 18.0265 12.489C18.3509 12.2477 18.7079 12.2271 19.0218 12.4264C19.3479 12.6333 19.4837 12.9727 19.4041 13.3745C19.3369 13.7133 19.2723 14.0526 19.2023 14.4132C19.2664 14.4132 19.3153 14.4132 19.3643 14.4132C20.7419 14.4132 22.1195 14.4108 23.4971 14.4148C23.9033 14.4159 24.232 14.2739 24.4896 13.9556C24.696 13.7006 24.9143 13.4551 25.1286 13.2064C25.354 12.9448 25.6232 12.8705 25.9225 12.9848C26.2103 13.0947 26.3561 13.3186 26.3538 13.657C26.3496 14.281 26.3825 14.9084 26.3286 15.5283C26.211 16.8818 25.0672 17.9169 23.7066 17.9277C22.269 17.9392 20.8312 17.9309 19.3935 17.9313C19.3348 17.9313 19.2761 17.9313 19.2019 17.9313ZM18.5641 19.2412C18.5784 19.2328 18.5927 19.2245 18.6069 19.2161C18.5994 19.1636 18.5945 19.1106 18.5839 19.0587C18.489 18.5925 18.3927 18.1266 18.2976 17.6604C18.2576 17.4643 18.3147 17.2855 18.4726 17.202C18.5658 17.1528 18.682 17.1258 18.788 17.1255C20.4382 17.1203 22.0885 17.1291 23.7386 17.1175C24.6764 17.1109 25.4722 16.359 25.53 15.4255C25.5584 14.9657 25.5294 14.5024 25.5253 14.0408C25.5253 14.0367 25.5117 14.0328 25.499 14.0259C25.3391 14.2098 25.1807 14.3965 25.0174 14.5787C24.6436 14.996 24.1761 15.23 23.6152 15.2326C21.9836 15.2403 20.3518 15.2369 18.7201 15.2347C18.4139 15.2343 18.2349 15.0049 18.2958 14.7076C18.3923 14.237 18.4896 13.7666 18.5857 13.2959C18.596 13.2452 18.6011 13.1935 18.6085 13.1422C18.5956 13.1338 18.5826 13.1254 18.5697 13.117C17.201 14.133 15.8323 15.149 14.4421 16.181C15.8313 17.2124 17.1977 18.2268 18.5641 19.2412Z" fill="#F3FFFA"/>
</g>
</g>
</g>
</svg>
