<svg width="40" height="41" viewBox="0 0 40 41" fill="none" xmlns="http://www.w3.org/2000/svg">
<g id="Architecture_blueprint 1" style="mix-blend-mode:multiply">
<g id="Group">
<g id="Group_2">
<path id="Vector" d="M31.9492 15.4199H30.3086C30.082 15.4199 29.8984 15.6036 29.8984 15.8301V18.1543H10.1016V15.8301C10.1016 15.6036 9.91795 15.4199 9.69141 15.4199H8.05078C6.91997 15.4199 6 16.3399 6 17.4707V32.7832C6 33.914 6.91997 34.834 8.05078 34.834H31.9492C33.08 34.834 34 33.914 34 32.7832V17.4707C34 16.3399 33.08 15.4199 31.9492 15.4199ZM30.7188 16.2402H31.9492C32.6277 16.2402 33.1797 16.7922 33.1797 17.4707V30.6331C32.8367 30.3809 32.4105 30.2311 31.9492 30.2311H30.7188V16.2402ZM6.82031 17.4707C6.82031 16.7922 7.37231 16.2402 8.05078 16.2402H9.28125V30.2311H8.05078C7.58952 30.2311 7.16328 30.3809 6.82031 30.6331V17.4707ZM33.1797 32.7832C33.1797 33.4617 32.6277 34.0137 31.9492 34.0137H8.05078C7.37231 34.0137 6.82031 33.4617 6.82031 32.7832V32.2363C6.82031 31.583 7.37231 31.0514 8.05078 31.0514H9.69141C9.91795 31.0514 10.1016 30.8678 10.1016 30.6413V18.9746H29.8984V30.6413C29.8984 30.8678 30.082 31.0514 30.3086 31.0514H31.9492C32.6277 31.0514 33.1797 31.583 33.1797 32.2363V32.7832Z" fill="#0E1821"/>
<path id="Vector_2" d="M32.7695 6.83398H7.23047C6.552 6.83398 6 7.38596 6 8.06445V13.2598C6 13.4863 6.18361 13.6699 6.41016 13.6699H33.5898C33.8164 13.6699 34 13.4863 34 13.2598V8.06445C34 7.38596 33.448 6.83398 32.7695 6.83398ZM7.23047 7.6543H32.7695C32.9957 7.6543 33.1797 7.83828 33.1797 8.06445V9.02148H6.82031V8.06445C6.82031 7.83828 7.0043 7.6543 7.23047 7.6543ZM31.8125 12.8496V12.166C31.8125 11.9395 31.6289 11.7559 31.4023 11.7559C31.1758 11.7559 30.9922 11.9395 30.9922 12.166V12.8496H29.2787V11.6191C29.2787 11.3926 29.0951 11.209 28.8685 11.209C28.642 11.209 28.4584 11.3926 28.4584 11.6191V12.8496H26.7448V12.166C26.7448 11.9395 26.5612 11.7559 26.3346 11.7559C26.1081 11.7559 25.9245 11.9395 25.9245 12.166V12.8496H24.2109V11.6191C24.2109 11.3926 24.0273 11.209 23.8008 11.209C23.5742 11.209 23.3906 11.3926 23.3906 11.6191V12.8496H21.6771V12.166C21.6771 11.9395 21.4935 11.7559 21.2669 11.7559C21.0404 11.7559 20.8568 11.9395 20.8568 12.166V12.8496H19.1432V11.6191C19.1432 11.3926 18.9596 11.209 18.7331 11.209C18.5065 11.209 18.3229 11.3926 18.3229 11.6191V12.8496H16.6094V12.166C16.6094 11.9395 16.4258 11.7559 16.1992 11.7559C15.9727 11.7559 15.7891 11.9395 15.7891 12.166V12.8496H14.0755V11.6191C14.0755 11.3926 13.8919 11.209 13.6654 11.209C13.4388 11.209 13.2552 11.3926 13.2552 11.6191V12.8496H11.5416V12.166C11.5416 11.9395 11.358 11.7559 11.1315 11.7559C10.9049 11.7559 10.7213 11.9395 10.7213 12.166V12.8496H9.00781V11.6191C9.00781 11.3926 8.8242 11.209 8.59766 11.209C8.37111 11.209 8.1875 11.3926 8.1875 11.6191V12.8496H6.82031V9.8418H33.1797V12.8496H31.8125Z" fill="#0E1821"/>
</g>
<g id="Group_3">
<path id="Vector_3" d="M13.6562 25.6738V24.0332C13.6562 23.807 13.4723 23.623 13.2461 23.623H11.4688V26.084H13.2461C13.4723 26.084 13.6562 25.9 13.6562 25.6738Z" fill="#CFCBFF"/>
<path id="Vector_4" d="M22.1875 29.3652C21.9568 29.3652 21.7706 29.1747 21.7775 28.9425C21.7843 28.718 21.9801 28.5449 22.2047 28.5449H28.5312V24.4434H28.1211C26.0824 24.4434 24.4297 22.7907 24.4297 20.752V20.3418H12.5625C11.9584 20.3418 11.4688 20.8315 11.4688 21.4355V22.8027H13.2461C13.9257 22.8027 14.4766 23.3536 14.4766 24.0332V25.6738C14.4766 26.3534 13.9257 26.9043 13.2461 26.9043H11.4688V28.2715C11.4688 28.8755 11.9584 29.3652 12.5625 29.3652H16.8554V27.8613C16.8554 26.7287 17.7736 25.8105 18.9062 25.8105H19.5898V23.5035C19.5898 23.2789 19.7629 23.0831 19.9874 23.0764C20.2197 23.0694 20.4102 23.2556 20.4102 23.4863V31.5527C20.4102 32.1568 20.8998 32.6465 21.5039 32.6465H27.4375C28.0416 32.6465 28.5312 32.1568 28.5312 31.5527V29.3652H22.1875ZM21.2305 25.9473V23.4863C21.2305 23.2598 21.4141 23.0762 21.6406 23.0762C21.8672 23.0762 22.0508 23.2598 22.0508 23.4863V25.9473C22.0508 26.3242 22.3574 26.6309 22.7344 26.6309H23.8281C24.0547 26.6309 24.2383 26.8145 24.2383 27.041C24.2383 27.2675 24.0547 27.4512 23.8281 27.4512H22.7344C21.9051 27.4512 21.2305 26.7765 21.2305 25.9473ZM24.293 31.0059H23.7461C23.5195 31.0059 23.3359 30.8222 23.3359 30.5957C23.3359 30.3692 23.5195 30.1855 23.7461 30.1855H24.293C24.5195 30.1855 24.7031 30.3692 24.7031 30.5957C24.7031 30.8222 24.5195 31.0059 24.293 31.0059ZM26.4805 31.0059H25.9336C25.707 31.0059 25.5234 30.8222 25.5234 30.5957C25.5234 30.3692 25.707 30.1855 25.9336 30.1855H26.4805C26.707 30.1855 26.8906 30.3692 26.8906 30.5957C26.8906 30.8222 26.707 31.0059 26.4805 31.0059Z" fill="#CFCBFF"/>
<path id="Vector_5" d="M17.6758 27.8613V29.3652H19.5899V26.6309H18.9062C18.2278 26.6309 17.6758 27.1828 17.6758 27.8613Z" fill="#CFCBFF"/>
<path id="Vector_6" d="M25.25 20.752C25.25 22.3376 26.5354 23.623 28.1211 23.623H28.5312V21.4355C28.5312 20.8315 28.0416 20.3418 27.4375 20.3418H25.25V20.752Z" fill="#CFCBFF"/>
</g>
</g>
</g>
</svg>
