<svg width="40" height="41" viewBox="0 0 40 41" fill="none" xmlns="http://www.w3.org/2000/svg">
<g id="Architecture01_window 1" style="mix-blend-mode:multiply">
<g id="Group">
<g id="Group_2">
<path id="Vector" d="M33.5898 9.8418C33.8164 9.8418 34 9.65816 34 9.43164V7.24414C34 7.01762 33.8164 6.83398 33.5898 6.83398H6.41016C6.18361 6.83398 6 7.01762 6 7.24414V9.43164C6 9.65816 6.18361 9.8418 6.41016 9.8418H7.01172V31.8262H6.41016C6.18361 31.8262 6 32.0098 6 32.2363V34.4238C6 34.6503 6.18361 34.834 6.41016 34.834H33.5898C33.8164 34.834 34 34.6503 34 34.4238V32.2363C34 32.0098 33.8164 31.8262 33.5898 31.8262H32.9883V9.8418H33.5898ZM33.1797 32.6465V34.0137H6.82031V32.6465H33.1797ZM7.83203 31.8262V9.8418H8.65234V31.8262H7.83203ZM19.4597 24.5615C19.2788 24.9131 18.9934 25.2057 18.6344 25.3972C18.4659 25.4871 18.3818 25.6815 18.4315 25.8659C18.4667 25.9967 18.4846 26.1323 18.4846 26.2688C18.4846 27.121 17.7913 27.8143 16.9392 27.8143C16.8903 27.8143 16.8413 27.8121 16.7935 27.8078C16.6394 27.7939 16.4909 27.8676 16.4088 27.9986C15.8075 28.9591 14.7728 29.5326 13.6409 29.5326C12.4628 29.5326 11.3977 28.908 10.8186 27.9099C10.9848 27.8385 11.1787 27.7372 11.3821 27.5943C11.6498 27.8125 12.1052 28.0834 12.8023 28.2006C12.8253 28.2045 12.8482 28.2064 12.8708 28.2064C13.0674 28.2064 13.2411 28.0645 13.2748 27.8642C13.3123 27.6408 13.1617 27.4292 12.9383 27.3917C12.4909 27.3165 12.1883 27.163 11.999 27.0317C12.1286 26.8805 12.2544 26.7085 12.3713 26.5113C12.4868 26.3165 12.4226 26.0649 12.2277 25.9493C12.0328 25.8338 11.7813 25.8981 11.6657 26.093C11.0723 27.0937 10.152 27.2658 10.1457 27.2673C9.93392 27.3182 9.7156 27.344 9.49674 27.344C9.48867 27.344 9.48071 27.3436 9.47266 27.3436V24.5615H19.4597ZM9.47266 23.7412V9.8418H30.5273V23.7412H9.47266ZM10.0032 28.1285C10.6982 29.4903 12.0917 30.3529 13.6409 30.3529C14.9765 30.3529 16.204 29.7149 16.9705 28.6344C18.2606 28.6176 19.3049 27.5629 19.3049 26.2688C19.3049 26.1656 19.2982 26.0627 19.2849 25.9608C19.7831 25.6203 20.1546 25.1301 20.348 24.5615H30.5273V28.2239C30.3508 28.2229 30.1721 28.2343 29.9968 28.2591C29.3019 26.8974 27.9083 26.0348 26.3591 26.0348C25.0235 26.0348 23.796 26.6728 23.0295 27.7533C21.7394 27.77 20.6951 28.8248 20.6951 30.1188C20.6951 30.222 20.7018 30.3249 20.7151 30.4268C20.2169 30.7673 19.8454 31.2576 19.652 31.8262H9.47266V28.1637C9.64926 28.1648 9.82795 28.1534 10.0032 28.1285ZM21.5685 30.5218C21.5333 30.3909 21.5154 30.2554 21.5154 30.1188C21.5154 29.2666 22.2087 28.5734 23.0608 28.5734C23.1099 28.5734 23.1588 28.5756 23.2063 28.5799C23.3594 28.5938 23.5091 28.5201 23.5912 28.3891C24.1925 27.4285 25.2272 26.8551 26.3591 26.8551C27.5372 26.8551 28.6023 27.4796 29.1814 28.4777C29.0152 28.5492 28.8213 28.6504 28.6179 28.7933C28.3502 28.5751 27.8948 28.3042 27.1977 28.187C26.9744 28.1495 26.7628 28.3001 26.7252 28.5235C26.6877 28.7468 26.8383 28.9584 27.0617 28.9959C27.5091 29.0712 27.8117 29.2246 28.001 29.3559C27.8715 29.5071 27.7456 29.6791 27.6287 29.8763C27.5132 30.0711 27.5774 30.3227 27.7723 30.4383C27.8379 30.4772 27.91 30.4957 27.9811 30.4957C28.1212 30.4957 28.2577 30.4239 28.3343 30.2947C28.9277 29.294 29.8479 29.1219 29.8543 29.1204C30.0661 29.0695 30.2844 29.0437 30.5033 29.0437C30.5113 29.0437 30.5193 29.044 30.5273 29.0441V31.8262H20.5403C20.7212 31.4745 21.0066 31.1819 21.3656 30.9904C21.5341 30.9005 21.6182 30.7062 21.5685 30.5218ZM31.3477 31.8262V9.8418H32.168V31.8262H31.3477ZM6.82031 9.02148V7.6543H33.1797V9.02148H6.82031Z" fill="#0E1821"/>
<path id="Vector_2" d="M23.185 30.9136C23.2294 30.9288 23.2745 30.936 23.3189 30.936C23.4888 30.936 23.6472 30.83 23.7054 30.6601C23.7067 30.6566 23.8352 30.3088 24.1226 30.1816C24.2929 30.1062 24.4964 30.1192 24.745 30.2214C24.9547 30.3077 25.1941 30.2075 25.2803 29.9981C25.3665 29.7886 25.2665 29.5489 25.057 29.4628C24.5926 29.2717 24.1629 29.2628 23.7799 29.4363C23.1791 29.7084 22.9542 30.322 22.9305 30.3911C22.8571 30.6054 22.9707 30.8402 23.185 30.9136Z" fill="#0E1821"/>
<path id="Vector_3" d="M14.9427 26.9244C15.1862 27.0246 15.4201 27.0747 15.6428 27.0747C15.8448 27.0747 16.0376 27.0334 16.2198 26.9509C16.8207 26.6788 17.0455 26.0652 17.0692 25.9962C17.1426 25.7819 17.029 25.5471 16.8147 25.4736C16.6003 25.4001 16.3677 25.5128 16.2943 25.7271C16.293 25.7306 16.1645 26.0784 15.8771 26.2056C15.7067 26.281 15.5032 26.268 15.2547 26.1658C15.0453 26.0796 14.8057 26.1797 14.7194 26.3891C14.6333 26.5986 14.7332 26.8383 14.9427 26.9244Z" fill="#0E1821"/>
</g>
<g id="Group_3">
<path id="Vector_4" d="M29.707 20.4599V10.6621H10.293V20.4599H29.707ZM22.0674 14.4507C22.2276 14.6108 22.2276 14.8705 22.0674 15.0307L20.9736 16.1245C20.8935 16.2045 20.7885 16.2446 20.6836 16.2446C20.5787 16.2446 20.4737 16.2045 20.3935 16.1245C20.2334 15.9643 20.2334 15.7046 20.3935 15.5444L21.4873 14.4507C21.6475 14.2905 21.9072 14.2905 22.0674 14.4507ZM17.9326 15.271L20.667 12.5366C20.8272 12.3764 21.0869 12.3764 21.2471 12.5366C21.4072 12.6968 21.4072 12.9565 21.2471 13.1166L18.5127 15.851C18.4326 15.9311 18.3276 15.9711 18.2227 15.9711C18.1177 15.9711 18.0127 15.9311 17.9326 15.851C17.7724 15.6908 17.7724 15.4311 17.9326 15.271ZM17.1289 18.1357V18.8193H22.8711V18.1357C22.8711 17.9092 23.0547 17.7255 23.2812 17.7255C23.5078 17.7255 23.6914 17.9092 23.6914 18.1357V19.2294C23.6914 19.456 23.5078 19.6396 23.2812 19.6396H16.7188C16.4922 19.6396 16.3086 19.456 16.3086 19.2294V18.1357C16.3086 17.9092 16.4922 17.7255 16.7188 17.7255C16.9453 17.7255 17.1289 17.9092 17.1289 18.1357ZM15.625 12.8496H16.4453C16.6719 12.8496 16.8555 13.0332 16.8555 13.2598C16.8555 13.4863 16.6719 13.6699 16.4453 13.6699H15.625C15.3985 13.6699 15.2148 13.4863 15.2148 13.2598C15.2148 13.0332 15.3985 12.8496 15.625 12.8496ZM12.8906 12.8496H13.7109C13.9375 12.8496 14.1211 13.0332 14.1211 13.2598C14.1211 13.4863 13.9375 13.6699 13.7109 13.6699H12.8906C12.6641 13.6699 12.4805 13.4863 12.4805 13.2598C12.4805 13.0332 12.6641 12.8496 12.8906 12.8496Z" fill="#CFCBFF"/>
<path id="Vector_5" d="M29.707 21.2793H10.293V22.9199H29.707V21.2793Z" fill="#CFCBFF"/>
</g>
</g>
</g>
</svg>
