<svg width="40" height="41" viewBox="0 0 40 41" fill="none" xmlns="http://www.w3.org/2000/svg">
<g id="&#209;&#128;&#208;&#181;&#208;&#191;&#208;&#187;&#208;&#176;&#208;&#189;-&#208;&#184;&#208;&#186;&#208;&#190;&#208;&#189;&#208;&#186;&#208;&#184;_&#209;&#128;&#208;&#176;&#209;&#129;&#209;&#136;&#208;&#184;&#209;&#128;&#208;&#181;&#208;&#189;&#208;&#184;&#208;&#181;_&#208;&#186;&#209;&#131;&#209;&#133;&#208;&#189;&#208;&#184; 1">
<g id="Group">
<g id="Group_2">
<g id="Group_3">
<path id="Vector" d="M3.98608 20.8906H1.79004C1.57428 20.8906 1.39941 20.7158 1.39941 20.5C1.39941 20.2842 1.57428 20.1094 1.79004 20.1094H3.98608C4.20184 20.1094 4.37671 20.2842 4.37671 20.5C4.37671 20.7158 4.20184 20.8906 3.98608 20.8906Z" fill="#F3FFFA"/>
</g>
<g id="Group_4">
<path id="Vector_2" d="M2.40829 22.1271C2.30835 22.1271 2.20833 22.089 2.13211 22.0127L0.895691 20.7763C0.743103 20.6238 0.743103 20.3764 0.895691 20.2239L2.13211 18.9875C2.28455 18.8349 2.53204 18.8349 2.68448 18.9875C2.83707 19.14 2.83707 19.3873 2.68448 19.5399L1.72432 20.5001L2.68448 21.4603C2.83707 21.6128 2.83707 21.8602 2.68448 22.0127C2.60826 22.089 2.50824 22.1271 2.40829 22.1271Z" fill="#F3FFFA"/>
</g>
</g>
<g id="Group_5">
<g id="Group_6">
<path id="Vector_3" d="M38.2097 20.8906H36.0137C35.7979 20.8906 35.623 20.7158 35.623 20.5C35.623 20.2842 35.7979 20.1094 36.0137 20.1094H38.2097C38.4255 20.1094 38.6003 20.2842 38.6003 20.5C38.6003 20.7158 38.4255 20.8906 38.2097 20.8906Z" fill="#F3FFFA"/>
</g>
<g id="Group_7">
<path id="Vector_4" d="M37.5918 22.1271C37.4919 22.1271 37.3918 22.089 37.3156 22.0127C37.163 21.8602 37.163 21.6128 37.3156 21.4603L38.2758 20.5001L37.3156 19.5399C37.163 19.3873 37.163 19.14 37.3156 18.9875C37.468 18.8349 37.7155 18.8349 37.868 18.9875L39.1044 20.2239C39.257 20.3764 39.257 20.6238 39.1044 20.7763L37.868 22.0127C37.7918 22.089 37.6917 22.1271 37.5918 22.1271Z" fill="#F3FFFA"/>
</g>
</g>
<g id="Group_8">
<g id="Group_9">
<path id="Vector_5" d="M33.5898 21.1016H29.6171L29.1479 19.2247C29.1023 19.0421 28.9382 18.9141 28.75 18.9141H22.1875C21.9993 18.9141 21.8352 19.0421 21.7896 19.2247L21.3204 21.1016H6.41016C6.18364 21.1016 6 21.2852 6 21.5117V34.0898C6 34.3164 6.18364 34.5 6.41016 34.5H33.5898C33.8164 34.5 34 34.3164 34 34.0898V21.5117C34 21.2852 33.8164 21.1016 33.5898 21.1016ZM22.5077 19.7344H28.4298L28.7716 21.1016H22.1659L22.5077 19.7344ZM33.1797 21.9219V22.7422H6.82031V21.9219H33.1797ZM16.9375 23.5625V33.6797H12.2891V23.5625H16.9375ZM17.7578 23.5625H33.1797V24.3828H17.7578V23.5625ZM6.82031 23.5625H11.4688V33.6797H6.82031V23.5625ZM17.7578 33.6797V25.2031H33.1797V33.6797H17.7578Z" fill="#F3FFFA"/>
<path id="Vector_6" d="M31.4023 26.5703H19.5352C19.3086 26.5703 19.125 26.7539 19.125 26.9805V31.9023C19.125 32.1289 19.3086 32.3125 19.5352 32.3125H31.4023C31.6289 32.3125 31.8125 32.1289 31.8125 31.9023V26.9805C31.8125 26.7539 31.6289 26.5703 31.4023 26.5703ZM30.9922 31.4922H19.9453V27.3906H30.9922V31.4922Z" fill="#F3FFFA"/>
<path id="Vector_7" d="M13.5195 29.7148C13.7461 29.7148 13.9297 29.5312 13.9297 29.3047V27.9375C13.9297 27.711 13.7461 27.5273 13.5195 27.5273C13.293 27.5273 13.1094 27.711 13.1094 27.9375V29.3047C13.1094 29.5312 13.293 29.7148 13.5195 29.7148Z" fill="#F3FFFA"/>
<path id="Vector_8" d="M10.2383 27.5273C10.0118 27.5273 9.82812 27.711 9.82812 27.9375V29.3047C9.82812 29.5312 10.0118 29.7148 10.2383 29.7148C10.4648 29.7148 10.6484 29.5312 10.6484 29.3047V27.9375C10.6484 27.711 10.4648 27.5273 10.2383 27.5273Z" fill="#F3FFFA"/>
<path id="Vector_9" d="M23.6914 30.3984H27.2461C27.4726 30.3984 27.6562 30.2148 27.6562 29.9883V28.8945C27.6562 28.668 27.4726 28.4844 27.2461 28.4844C27.0196 28.4844 26.8359 28.668 26.8359 28.8945V29.5781H24.1016V28.8945C24.1016 28.668 23.9179 28.4844 23.6914 28.4844C23.4649 28.4844 23.2812 28.668 23.2812 28.8945V29.9883C23.2812 30.2148 23.4649 30.3984 23.6914 30.3984Z" fill="#F3FFFA"/>
<path id="Vector_10" d="M19.4531 17H31.4844C31.7109 17 31.8945 16.8164 31.8945 16.5898V13.8555C31.8945 13.7088 31.8173 13.5805 31.7016 13.508L31.7018 13.5076L27.5195 10.8937V7.32031H28.75C28.9765 7.32031 29.1602 7.1367 29.1602 6.91016C29.1602 6.68361 28.9765 6.5 28.75 6.5H22.1875C21.961 6.5 21.7773 6.68361 21.7773 6.91016C21.7773 7.1367 21.961 7.32031 22.1875 7.32031H23.418V10.8937L19.2357 13.5076L19.236 13.508C19.1202 13.5805 19.043 13.7088 19.043 13.8555V16.5898C19.043 16.8164 19.2266 17 19.4531 17ZM31.0742 16.1797H19.8633V14.2656H31.0742V16.1797ZM24.0455 11.4689C24.1654 11.3939 24.2383 11.2625 24.2383 11.1211V7.32031H26.6992V11.1211C26.6992 11.2625 26.7721 11.3939 26.892 11.4689L30.0542 13.4453H20.8833L24.0455 11.4689Z" fill="#F3FFFA"/>
</g>
<g id="Group_10">
<path id="Vector_11" d="M17.3477 6.5H9.00781V12.4336H17.7578V6.91016C17.7578 6.68364 17.5742 6.5 17.3477 6.5ZM16.1172 10.2699C16.1172 10.4945 15.9441 10.6903 15.7197 10.6971C15.4874 10.704 15.2969 10.5178 15.2969 10.2871V9.4668C15.2969 9.23606 15.4874 9.04986 15.7197 9.05683C15.9441 9.06357 16.1172 9.25941 16.1172 9.48398V10.2699Z" fill="#CFCBFF"/>
<path id="Vector_12" d="M6 7.59375V18.0938C6 18.6978 6.48969 19.1875 7.09375 19.1875H8.1875V6.5H7.09375C6.48969 6.5 6 6.98969 6 7.59375Z" fill="#CFCBFF"/>
<path id="Vector_13" d="M9.00781 19.1875H17.3477C17.5742 19.1875 17.7578 19.0039 17.7578 18.7773V13.2539H9.00781V19.1875ZM15.2969 15.4176C15.2969 15.193 15.4699 14.9972 15.6944 14.9904C15.9267 14.9835 16.1172 15.1697 16.1172 15.4004V16.2207C16.1172 16.4514 15.9267 16.6376 15.6944 16.6307C15.4699 16.6239 15.2969 16.4281 15.2969 16.2035V15.4176Z" fill="#CFCBFF"/>
</g>
</g>
</g>
</g>
</svg>
