<svg width="24" height="24" viewBox="0 0 24 24" fill="none" xmlns="http://www.w3.org/2000/svg">
<g id="Icon/Outline/star" clip-path="url(#clip0_2413_47146)">
<g id="Icon" style="mix-blend-mode:multiply">
<path d="M11.0416 3.2161C11.3255 2.26354 12.6745 2.26354 12.9584 3.2161L13.4512 4.86986C13.6511 5.54082 14.4608 5.80393 15.017 5.37863L16.3877 4.33037C17.1773 3.72657 18.2686 4.5195 17.9384 5.45698L17.365 7.08457C17.1324 7.7449 17.6328 8.43372 18.3327 8.41654L20.0578 8.37417C21.0515 8.34978 21.4684 9.63276 20.6501 10.1971L19.2296 11.1768C18.6533 11.5743 18.6533 12.4257 19.2296 12.8232L20.6501 13.8029C21.4684 14.3672 21.0515 15.6502 20.0578 15.6258L18.3327 15.5835C17.6328 15.5663 17.1324 16.2551 17.365 16.9154L17.9384 18.543C18.2686 19.4805 17.1773 20.2734 16.3877 19.6696L15.017 18.6214C14.4608 18.1961 13.6511 18.4592 13.4512 19.1301L12.9584 20.7839C12.6745 21.7365 11.3255 21.7365 11.0416 20.7839L10.5488 19.1301C10.3489 18.4592 9.53915 18.1961 8.98302 18.6214L7.61228 19.6696C6.82274 20.2734 5.73136 19.4805 6.06163 18.543L6.635 16.9154C6.86763 16.2551 6.36717 15.5663 5.66727 15.5835L3.94216 15.6258C2.94851 15.6502 2.53164 14.3672 3.34987 13.8029L4.7704 12.8232C5.34674 12.4257 5.34674 11.5743 4.77041 11.1768L3.34987 10.1971C2.53164 9.63276 2.94851 8.34978 3.94216 8.37417L5.66727 8.41654C6.36717 8.43372 6.86763 7.7449 6.635 7.08457L6.06163 5.45698C5.73136 4.5195 6.82273 3.72657 7.61228 4.33037L8.98302 5.37863C9.53915 5.80393 10.3489 5.54082 10.5488 4.86986L11.0416 3.2161Z" stroke="#CFCBFF" stroke-width="2"/>
</g>
</g>
<defs>
<clipPath id="clip0_2413_47146">
<rect width="24" height="24" fill="white"/>
</clipPath>
</defs>
</svg>
