<svg width="40" height="40" viewBox="0 0 40 40" fill="none" xmlns="http://www.w3.org/2000/svg">
<g id="&#209;&#128;&#208;&#181;&#208;&#191;&#208;&#187;&#208;&#176;&#208;&#189;-&#208;&#184;&#208;&#186;&#208;&#190;&#208;&#189;&#208;&#186;&#208;&#184;_&#208;&#186;&#209;&#131;&#208;&#178;&#208;&#176;&#208;&#187;&#208;&#180;&#208;&#176; 1" clip-path="url(#clip0_2519_49625)">
<g id="Group">
<path id="Vector" d="M22.3834 8.7168C20.5925 10.5077 19.5349 11.5653 17.7539 13.3462C18.6307 14.2224 19.5253 15.1164 20.4058 15.9963C22.1898 14.2122 23.2533 13.1487 25.034 11.368C24.1532 10.4869 23.2588 9.59241 22.3834 8.7168Z" fill="#CFCBFF"/>
<g id="Group_2">
<g id="Group_3">
<path id="Vector_2" d="M29.0358 32.2928H6.33347C6.11487 32.2928 5.9375 32.1155 5.9375 31.8969V9.45847C5.9375 9.23987 6.11487 9.0625 6.33347 9.0625H13.9889C14.2075 9.0625 14.3849 9.23987 14.3849 9.45847C14.3849 9.67707 14.2075 9.85444 13.9889 9.85444H6.72944V31.5009H28.6399V24.173C28.6399 23.9544 28.8172 23.7771 29.0358 23.7771C29.2544 23.7771 29.4318 23.9544 29.4318 24.173V31.8969C29.4318 32.1155 29.2544 32.2928 29.0358 32.2928Z" fill="#F3FFFA"/>
</g>
<g id="Group_4">
<path id="Vector_3" d="M28.3064 26.2919H6.39597C6.17737 26.2919 6 26.1146 6 25.896C6 25.6774 6.17737 25.5 6.39597 25.5H28.3064C28.525 25.5 28.7024 25.6774 28.7024 25.896C28.7024 26.1146 28.525 26.2919 28.3064 26.2919Z" fill="#F3FFFA"/>
</g>
<g id="Group_5">
<path id="Vector_4" d="M26.3964 21.206H6.86179C6.64319 21.206 6.46582 21.0286 6.46582 20.81C6.46582 20.5914 6.64319 20.4141 6.86179 20.4141H26.3964C26.615 20.4141 26.7924 20.5914 26.7924 20.81C26.7924 21.0286 26.615 21.206 26.3964 21.206Z" fill="#F3FFFA"/>
</g>
<g id="Group_6">
<path id="Vector_5" d="M15.8371 15.3974H6.86179C6.64319 15.3974 6.46582 15.22 6.46582 15.0014C6.46582 14.7828 6.64319 14.6055 6.86179 14.6055H15.8371C16.0557 14.6055 16.2331 14.7828 16.2331 15.0014C16.2331 15.22 16.0557 15.3974 15.8371 15.3974Z" fill="#F3FFFA"/>
</g>
<g id="Group_7">
<path id="Vector_6" d="M11.8774 14.8695C11.6588 14.8695 11.4814 14.6921 11.4814 14.4735V9.98582C11.4814 9.76721 11.6588 9.58984 11.8774 9.58984C12.096 9.58984 12.2734 9.76721 12.2734 9.98582V14.4735C12.2734 14.6921 12.096 14.8695 11.8774 14.8695Z" fill="#F3FFFA"/>
</g>
<g id="Group_8">
<path id="Vector_7" d="M11.8774 26.221C11.6588 26.221 11.4814 26.0437 11.4814 25.8251V21.3374C11.4814 21.1188 11.6588 20.9414 11.8774 20.9414C12.096 20.9414 12.2734 21.1188 12.2734 21.3374V25.8251C12.2734 26.0437 12.096 26.221 11.8774 26.221Z" fill="#F3FFFA"/>
</g>
<g id="Group_9">
<path id="Vector_8" d="M22.9643 26.221C22.7457 26.221 22.5684 26.0437 22.5684 25.8251V21.3374C22.5684 21.1188 22.7457 20.9414 22.9643 20.9414C23.1829 20.9414 23.3603 21.1188 23.3603 21.3374V25.8251C23.3603 26.0437 23.1829 26.221 22.9643 26.221Z" fill="#F3FFFA"/>
</g>
<g id="Group_10">
<path id="Vector_9" d="M17.685 31.764C17.4664 31.764 17.2891 31.5866 17.2891 31.368V26.8803C17.2891 26.6617 17.4664 26.4844 17.685 26.4844C17.9036 26.4844 18.081 26.6617 18.081 26.8803V31.368C18.081 31.5866 17.9036 31.764 17.685 31.764Z" fill="#F3FFFA"/>
</g>
<g id="Group_11">
<path id="Vector_10" d="M17.685 20.9419C17.4664 20.9419 17.2891 20.7646 17.2891 20.546V19.226C17.2891 19.0074 17.4664 18.8301 17.685 18.8301C17.9036 18.8301 18.081 19.0074 18.081 19.226V20.546C18.081 20.7646 17.9036 20.9419 17.685 20.9419Z" fill="#F3FFFA"/>
</g>
</g>
<g id="Group_12">
<path id="Vector_11" d="M22.5655 14.8968C21.9982 15.4646 21.4554 16.0082 20.9122 16.5514C20.5298 16.9337 20.3031 16.9346 19.9236 16.5552C19.0067 15.6387 18.09 14.7221 17.1736 13.8052C16.8137 13.4451 16.8133 13.2074 17.1718 12.8485C17.6671 12.3525 18.1617 11.8559 18.6604 11.3632C18.7185 11.3058 18.8001 11.272 18.8646 11.2311C18.3098 10.5584 18.4452 9.89676 18.9719 9.4345C19.1019 9.32038 19.2149 9.18705 19.342 9.06936C19.8102 8.63591 20.3683 8.6127 20.8773 9.00133C20.9003 9.0189 20.9256 9.03357 20.9629 9.05829C21.5079 8.51284 22.0506 7.96945 22.5935 7.42635C22.9865 7.0333 23.2079 7.03258 23.5983 7.42292C24.5151 8.33952 25.4319 9.25603 26.3482 10.1731C26.6975 10.5226 26.6981 10.7643 26.3505 11.113C25.8078 11.6574 25.2642 12.201 24.7214 12.7455C24.7114 12.7555 24.7075 12.7716 24.6935 12.799C24.7395 12.8482 24.7877 12.9029 24.8391 12.9543C29.3101 17.4263 33.7815 21.8978 38.251 26.3712C38.3513 26.4715 38.4321 26.5369 38.5965 26.4945C38.8359 26.4326 39.0593 26.5147 39.2387 26.6894C39.4384 26.884 39.639 27.0781 39.8296 27.2815C40.1338 27.6063 40.1418 28.0149 39.8314 28.3337C39.2637 28.9169 38.6879 29.4925 38.1048 30.0604C37.7866 30.3703 37.3769 30.3618 37.0531 30.0577C36.8554 29.872 36.6657 29.6775 36.4772 29.4825C36.2993 29.2985 36.205 29.0741 36.2674 28.8225C36.3079 28.6591 36.2391 28.5754 36.1384 28.4747C32.1127 24.4528 28.0888 20.4291 24.0652 16.4052C23.5698 15.9098 23.0772 15.4116 22.5655 14.8968ZM23.1138 7.98426C21.3229 9.77514 19.5341 11.5639 17.7531 13.3448C18.6299 14.221 19.5245 15.1151 20.405 15.995C22.1891 14.2109 23.9837 12.4162 25.7644 10.6354C24.8836 9.7544 23.9893 8.85988 23.1138 7.98426ZM33.0988 22.277C30.4952 19.6732 27.8923 17.0701 25.304 14.4816C24.9583 14.827 24.599 15.186 24.2616 15.5232C26.8525 18.114 29.4581 20.7195 32.0574 23.3187C32.3955 22.9805 32.7516 22.6242 33.0988 22.277ZM32.585 23.8598C33.9903 25.2651 35.3948 26.6696 36.8389 28.1136C36.9379 27.9976 37.0377 27.8514 37.1662 27.7376C37.3138 27.6067 37.4906 27.6112 37.6347 27.7519C37.7785 27.8921 37.7863 28.0592 37.6618 28.2201C37.6023 28.2971 37.531 28.3657 37.4605 28.4333C37.2889 28.5979 37.1145 28.7597 36.9663 28.899C37.2035 29.14 37.4023 29.3421 37.5877 29.5305C38.1562 28.9623 38.7359 28.3828 39.2893 27.8297C39.1006 27.631 38.9018 27.4218 38.7025 27.212C38.401 27.4217 38.2912 27.4129 38.0253 27.1472C36.6238 25.7462 35.2228 24.3448 33.8212 22.9438C33.765 22.8877 33.7051 22.8354 33.655 22.7888C33.286 23.1581 32.93 23.5144 32.585 23.8598ZM23.6604 14.9609C24.0271 14.595 24.3854 14.2373 24.6993 13.9241C24.5293 13.7411 24.3381 13.5355 24.163 13.3471C23.8138 13.696 23.459 14.0506 23.1206 14.3888C23.3033 14.5825 23.497 14.7877 23.6604 14.9609ZM19.3276 10.628C19.6841 10.2701 20.042 9.91077 20.3981 9.5533C20.2076 9.40054 20.051 9.39214 19.861 9.56445C19.6772 9.7312 19.501 9.90775 19.3343 10.0916C19.1618 10.282 19.1712 10.4397 19.3276 10.628Z" fill="#F3FFFA"/>
<path id="Vector_12" d="M21.9524 9.75391C22.2752 9.75358 22.4509 10.0216 22.3413 10.2487C22.3064 10.3211 22.2491 10.3859 22.1915 10.4437C21.6238 11.0142 21.0544 11.583 20.4839 12.1507C20.4312 12.2032 20.3732 12.2548 20.3086 12.2901C20.1586 12.372 20.0138 12.346 19.8973 12.2253C19.7809 12.1048 19.7568 11.9599 19.8461 11.8121C19.8844 11.7487 19.9374 11.6929 19.9902 11.64C20.553 11.0753 21.1152 10.5099 21.683 9.95016C21.7749 9.85955 21.8935 9.79603 21.9524 9.75391Z" fill="#F3FFFA"/>
<path id="Vector_13" d="M23.4517 9.04374C23.4455 9.26228 23.0391 9.65983 22.825 9.65689C22.603 9.65384 22.394 9.40802 22.5038 9.22505C22.6249 9.02329 22.8088 8.8346 23.0094 8.71232C23.2013 8.59533 23.4584 8.8132 23.4517 9.04374Z" fill="#F3FFFA"/>
</g>
<g id="Group_13">
<path id="Vector_14" d="M15.1427 7.29171L17.3601 9.50909C17.5147 9.66366 17.5147 9.9145 17.3601 10.0691C17.2055 10.2237 16.9547 10.2237 16.8001 10.0691L14.5827 7.8517C14.4282 7.69713 14.4282 7.44629 14.5827 7.29171C14.7373 7.13714 14.9881 7.13714 15.1427 7.29171Z" fill="#CFCBFF"/>
</g>
<g id="Group_14">
<path id="Vector_15" d="M14.1589 18.4603L16.3763 16.2429C16.5309 16.0883 16.7817 16.0883 16.9363 16.2429C17.0908 16.3975 17.0908 16.6483 16.9363 16.8029L14.7189 19.0202C14.5643 19.1748 14.3135 19.1748 14.1589 19.0202C14.0043 18.8657 14.0043 18.6148 14.1589 18.4603Z" fill="#CFCBFF"/>
</g>
<g id="Group_15">
<path id="Vector_16" d="M13.7817 12.2109H15.1516C15.3703 12.2109 15.5476 12.3883 15.5476 12.6069C15.5476 12.8255 15.3703 13.0029 15.1516 13.0029H13.7817C13.5631 13.0029 13.3857 12.8255 13.3857 12.6069C13.3857 12.3883 13.5631 12.2109 13.7817 12.2109Z" fill="#CFCBFF"/>
</g>
<g id="Group_16">
<path id="Vector_17" d="M19.001 19.2054V17.8354C19.001 17.6168 19.1783 17.4395 19.3969 17.4395C19.6156 17.4395 19.7929 17.6168 19.7929 17.8354V19.2054C19.7929 19.424 19.6156 19.6013 19.3969 19.6013C19.1783 19.6013 19.001 19.424 19.001 19.2054Z" fill="#CFCBFF"/>
</g>
<g id="Group_17">
<path id="Vector_18" d="M19.7929 6.10496V7.47489C19.7929 7.69349 19.6156 7.87086 19.3969 7.87086C19.1783 7.87086 19.001 7.69349 19.001 7.47489V6.10496C19.001 5.88635 19.1783 5.70898 19.3969 5.70898C19.6156 5.70898 19.7929 5.88635 19.7929 6.10496Z" fill="#CFCBFF"/>
</g>
</g>
</g>
<defs>
<clipPath id="clip0_2519_49625">
<rect width="40" height="40" fill="white"/>
</clipPath>
</defs>
</svg>
