<svg width="40" height="41" viewBox="0 0 40 41" fill="none" xmlns="http://www.w3.org/2000/svg">
<g id="Architecture01_window 1" style="mix-blend-mode:multiply">
<g id="Group">
<g id="Group_2">
<path id="Vector" d="M33.5898 9.50781C33.8164 9.50781 34 9.32418 34 9.09766V6.91016C34 6.68364 33.8164 6.5 33.5898 6.5H6.41016C6.18361 6.5 6 6.68364 6 6.91016V9.09766C6 9.32418 6.18361 9.50781 6.41016 9.50781H7.01172V31.4922H6.41016C6.18361 31.4922 6 31.6758 6 31.9023V34.0898C6 34.3164 6.18361 34.5 6.41016 34.5H33.5898C33.8164 34.5 34 34.3164 34 34.0898V31.9023C34 31.6758 33.8164 31.4922 33.5898 31.4922H32.9883V9.50781H33.5898ZM33.1797 32.3125V33.6797H6.82031V32.3125H33.1797ZM7.83203 31.4922V9.50781H8.65234V31.4922H7.83203ZM19.4597 24.2275C19.2788 24.5791 18.9934 24.8717 18.6344 25.0633C18.4659 25.1532 18.3818 25.3475 18.4315 25.5319C18.4667 25.6627 18.4846 25.7983 18.4846 25.9348C18.4846 26.787 17.7913 27.4803 16.9392 27.4803C16.8903 27.4803 16.8413 27.4781 16.7935 27.4738C16.6394 27.4599 16.4909 27.5336 16.4088 27.6646C15.8075 28.6251 14.7728 29.1986 13.6409 29.1986C12.4628 29.1986 11.3977 28.574 10.8186 27.576C10.9848 27.5045 11.1787 27.4032 11.3821 27.2603C11.6498 27.4785 12.1052 27.7495 12.8023 27.8667C12.8253 27.8705 12.8482 27.8724 12.8708 27.8724C13.0674 27.8724 13.2411 27.7306 13.2748 27.5302C13.3123 27.3068 13.1617 27.0953 12.9383 27.0577C12.4909 26.9825 12.1883 26.829 11.999 26.6977C12.1286 26.5465 12.2544 26.3745 12.3713 26.1774C12.4868 25.9825 12.4226 25.7309 12.2277 25.6154C12.0328 25.4998 11.7813 25.5641 11.6657 25.759C11.0723 26.7597 10.152 26.9318 10.1457 26.9333C9.93392 26.9842 9.7156 27.01 9.49674 27.01C9.48867 27.01 9.48071 27.0096 9.47266 27.0096V24.2275H19.4597ZM9.47266 23.4072V9.50781H30.5273V23.4072H9.47266ZM10.0032 27.7946C10.6982 29.1563 12.0917 30.0189 13.6409 30.0189C14.9765 30.0189 16.204 29.3809 16.9705 28.3004C18.2606 28.2836 19.3049 27.2289 19.3049 25.9348C19.3049 25.8316 19.2982 25.7287 19.2849 25.6268C19.7831 25.2863 20.1546 24.7961 20.348 24.2275H30.5273V27.8899C30.3508 27.8889 30.1721 27.9003 29.9968 27.9251C29.3019 26.5634 27.9083 25.7008 26.3591 25.7008C25.0235 25.7008 23.796 26.3388 23.0295 27.4193C21.7394 27.436 20.6951 28.4908 20.6951 29.7848C20.6951 29.888 20.7018 29.991 20.7151 30.0928C20.2169 30.4334 19.8454 30.9236 19.652 31.4922H9.47266V27.8297C9.64926 27.8308 9.82795 27.8194 10.0032 27.7946ZM21.5685 30.1878C21.5333 30.057 21.5154 29.9214 21.5154 29.7848C21.5154 28.9327 22.2087 28.2394 23.0608 28.2394C23.1099 28.2394 23.1588 28.2416 23.2063 28.2459C23.3594 28.2599 23.5091 28.1861 23.5912 28.0551C24.1925 27.0945 25.2272 26.5211 26.3591 26.5211C27.5372 26.5211 28.6023 27.1456 29.1814 28.1437C29.0152 28.2152 28.8213 28.3164 28.6179 28.4593C28.3502 28.2411 27.8948 27.9702 27.1977 27.853C26.9744 27.8155 26.7628 27.9661 26.7252 28.1895C26.6877 28.4129 26.8383 28.6244 27.0617 28.662C27.5091 28.7372 27.8117 28.8906 28.001 29.0219C27.8715 29.1731 27.7456 29.3451 27.6287 29.5423C27.5132 29.7371 27.5774 29.9888 27.7723 30.1043C27.8379 30.1432 27.91 30.1617 27.9811 30.1617C28.1212 30.1617 28.2577 30.0899 28.3343 29.9607C28.9277 28.96 29.8479 28.7879 29.8543 28.7864C30.0661 28.7355 30.2844 28.7097 30.5033 28.7097C30.5113 28.7097 30.5193 28.71 30.5273 28.7101V31.4922H20.5403C20.7212 31.1405 21.0066 30.8479 21.3656 30.6564C21.5341 30.5665 21.6182 30.3722 21.5685 30.1878ZM31.3477 31.4922V9.50781H32.168V31.4922H31.3477ZM6.82031 8.6875V7.32031H33.1797V8.6875H6.82031Z" fill="#F3FFFA"/>
<path id="Vector_2" d="M23.185 30.5796C23.2294 30.5948 23.2745 30.602 23.3189 30.602C23.4888 30.602 23.6472 30.496 23.7054 30.3261C23.7067 30.3226 23.8352 29.9748 24.1226 29.8476C24.2929 29.7722 24.4964 29.7852 24.745 29.8874C24.9547 29.9737 25.1941 29.8736 25.2803 29.6641C25.3665 29.4546 25.2665 29.2149 25.057 29.1288C24.5926 28.9377 24.1629 28.9288 23.7799 29.1023C23.1791 29.3744 22.9542 29.988 22.9305 30.0571C22.8571 30.2714 22.9707 30.5062 23.185 30.5796Z" fill="#F3FFFA"/>
<path id="Vector_3" d="M14.9427 26.5905C15.1862 26.6906 15.4201 26.7407 15.6428 26.7407C15.8448 26.7407 16.0376 26.6995 16.2198 26.617C16.8207 26.3449 17.0455 25.7312 17.0692 25.6622C17.1426 25.4479 17.029 25.2131 16.8147 25.1396C16.6003 25.0662 16.3677 25.1788 16.2943 25.3931C16.293 25.3966 16.1645 25.7444 15.8771 25.8716C15.7067 25.947 15.5032 25.934 15.2547 25.8318C15.0453 25.7456 14.8057 25.8457 14.7194 26.0551C14.6333 26.2646 14.7332 26.5043 14.9427 26.5905Z" fill="#F3FFFA"/>
</g>
<g id="Group_3">
<path id="Vector_4" d="M29.707 20.1259V10.3281H10.293V20.1259H29.707ZM22.0674 14.1167C22.2276 14.2768 22.2276 14.5366 22.0674 14.6967L20.9736 15.7905C20.8935 15.8705 20.7885 15.9106 20.6836 15.9106C20.5787 15.9106 20.4737 15.8705 20.3935 15.7905C20.2334 15.6303 20.2334 15.3706 20.3935 15.2104L21.4873 14.1167C21.6475 13.9565 21.9072 13.9565 22.0674 14.1167ZM17.9326 14.937L20.667 12.2026C20.8272 12.0424 21.0869 12.0424 21.2471 12.2026C21.4072 12.3628 21.4072 12.6225 21.2471 12.7827L18.5127 15.517C18.4326 15.5971 18.3276 15.6372 18.2227 15.6372C18.1177 15.6372 18.0127 15.5971 17.9326 15.517C17.7724 15.3569 17.7724 15.0972 17.9326 14.937ZM17.1289 17.8017V18.4853H22.8711V17.8017C22.8711 17.5752 23.0547 17.3915 23.2812 17.3915C23.5078 17.3915 23.6914 17.5752 23.6914 17.8017V18.8954C23.6914 19.122 23.5078 19.3056 23.2812 19.3056H16.7188C16.4922 19.3056 16.3086 19.122 16.3086 18.8954V17.8017C16.3086 17.5752 16.4922 17.3915 16.7188 17.3915C16.9453 17.3915 17.1289 17.5752 17.1289 17.8017ZM15.625 12.5156H16.4453C16.6719 12.5156 16.8555 12.6993 16.8555 12.9258C16.8555 13.1523 16.6719 13.3359 16.4453 13.3359H15.625C15.3985 13.3359 15.2148 13.1523 15.2148 12.9258C15.2148 12.6993 15.3985 12.5156 15.625 12.5156ZM12.8906 12.5156H13.7109C13.9375 12.5156 14.1211 12.6993 14.1211 12.9258C14.1211 13.1523 13.9375 13.3359 13.7109 13.3359H12.8906C12.6641 13.3359 12.4805 13.1523 12.4805 12.9258C12.4805 12.6993 12.6641 12.5156 12.8906 12.5156Z" fill="#CFCBFF"/>
<path id="Vector_5" d="M29.707 20.9453H10.293V22.5859H29.707V20.9453Z" fill="#CFCBFF"/>
</g>
</g>
</g>
</svg>
