<svg width="64" height="80" viewBox="0 0 64 80" fill="none" xmlns="http://www.w3.org/2000/svg">
<g opacity="0.3">
<path opacity="0.3" d="M44.6944 16.416C42.9449 16.4142 41.2676 15.6895 40.0305 14.4009C38.7934 13.1124 38.0977 11.3652 38.096 9.5429V0H8.61119C6.32736 0 4.13708 0.945038 2.52217 2.62717C0.907254 4.3093 0 6.5907 0 8.9696V63.0407C0.00339148 65.4173 0.912134 67.6953 2.52668 69.3745C4.14122 71.0538 6.32957 71.997 8.61119 71.997H44.0064C46.288 71.997 48.4764 71.0538 50.0909 69.3745C51.7055 67.6953 52.6142 65.4173 52.6176 63.0407V16.416H44.6944Z" fill="#008FF3"/>
</g>
<path d="M52.6181 16.4167H44.6946C42.9451 16.4149 41.2676 15.6901 40.0305 14.4015C38.7934 13.1129 38.0976 11.3657 38.0959 9.54329V0L52.6181 16.4167Z" fill="#008FF3"/>
<path d="M41.792 50.2778H8.75518C8.43692 50.2778 8.13168 50.1461 7.90664 49.9117C7.6816 49.6773 7.55518 49.3594 7.55518 49.0279C7.55602 48.6969 7.68282 48.3798 7.90777 48.1461C8.13273 47.9125 8.43747 47.7812 8.75518 47.7813H41.792C42.1094 47.7813 42.4138 47.9125 42.6382 48.1463C42.8627 48.3801 42.9888 48.6972 42.9888 49.0279C42.9892 49.1918 42.9585 49.3543 42.8986 49.506C42.8386 49.6576 42.7505 49.7953 42.6394 49.9115C42.5282 50.0276 42.3961 50.1197 42.2507 50.1826C42.1053 50.2455 41.9494 50.2778 41.792 50.2778Z" fill="#008FF3"/>
<path d="M41.792 36.1987H8.75518C8.43747 36.1987 8.13273 36.0674 7.90777 35.8337C7.68282 35.6 7.55602 35.283 7.55518 34.9521C7.55518 34.6206 7.6816 34.3026 7.90664 34.0682C8.13168 33.8338 8.43692 33.7021 8.75518 33.7021H41.792C41.9494 33.7021 42.1053 33.7345 42.2507 33.7974C42.3961 33.8602 42.5282 33.9523 42.6394 34.0684C42.7505 34.1845 42.8386 34.3224 42.8986 34.474C42.9585 34.6256 42.9892 34.7881 42.9888 34.9521C42.9888 35.2827 42.8627 35.5998 42.6382 35.8336C42.4138 36.0674 42.1094 36.1987 41.792 36.1987Z" fill="#008FF3"/>
<path d="M41.792 43.2378H8.75518C8.43692 43.2378 8.13168 43.1061 7.90664 42.8717C7.6816 42.6372 7.55518 42.3193 7.55518 41.9878C7.55602 41.6569 7.68282 41.3398 7.90777 41.1061C8.13273 40.8724 8.43747 40.7412 8.75518 40.7412H41.792C42.1094 40.7412 42.4138 40.8726 42.6382 41.1063C42.8627 41.3401 42.9888 41.6572 42.9888 41.9878C42.9892 42.1518 42.9585 42.3143 42.8986 42.4659C42.8386 42.6175 42.7505 42.7554 42.6394 42.8715C42.5282 42.9876 42.3961 43.0797 42.2507 43.1426C42.1053 43.2054 41.9494 43.2378 41.792 43.2378Z" fill="#008FF3"/>
<path d="M28.7616 29.1587H8.75518C8.43747 29.1587 8.13273 29.0275 7.90777 28.7938C7.68282 28.5601 7.55602 28.243 7.55518 27.9121C7.55518 27.5806 7.6816 27.2626 7.90664 27.0282C8.13168 26.7938 8.43692 26.6621 8.75518 26.6621H28.7616C29.0793 26.663 29.3837 26.795 29.608 27.0294C29.8324 27.2637 29.9584 27.5811 29.9584 27.9121C29.9575 28.2424 29.8312 28.559 29.6069 28.7926C29.3827 29.0261 29.0787 29.1578 28.7616 29.1587Z" fill="#008FF3"/>
<path d="M28.7616 22.1186H8.75518C8.43747 22.1186 8.13273 21.9873 7.90777 21.7537C7.68282 21.52 7.55602 21.2029 7.55518 20.872C7.55518 20.5405 7.6816 20.2225 7.90664 19.9881C8.13168 19.7537 8.43692 19.6221 8.75518 19.6221H28.7616C29.0793 19.623 29.3837 19.755 29.608 19.9893C29.8324 20.2236 29.9584 20.5411 29.9584 20.872C29.9575 21.2024 29.8312 21.5189 29.6069 21.7525C29.3827 21.9861 29.0787 22.1178 28.7616 22.1186Z" fill="#008FF3"/>
<path d="M58.8607 56.8672H18.8479C16.0096 56.8672 13.7087 59.2639 13.7087 62.2203V74.6464C13.7087 77.6029 16.0096 79.9996 18.8479 79.9996H58.8607C61.699 79.9996 63.9999 77.6029 63.9999 74.6464V62.2203C63.9999 59.2639 61.699 56.8672 58.8607 56.8672Z" fill="#008FF3"/>
<path d="M26.8352 71.124V73.5474H24.4287V71.124H26.8352Z" fill="#F3FFFA"/>
<path d="M30.3745 70.0311V73.5477H28.048V63.5244H31.8177C32.9602 63.5244 33.8338 63.8211 34.4322 64.4111C34.7351 64.721 34.9714 65.0942 35.1259 65.5061C35.2803 65.918 35.3493 66.3593 35.3283 66.801C35.3399 67.3838 35.2018 67.9592 34.9283 68.4677C34.6489 68.9648 34.2347 69.365 33.7378 69.6178C33.1384 69.9128 32.4804 70.0556 31.8177 70.0344L30.3745 70.0311ZM32.9602 66.801C32.9602 65.9121 32.493 65.4677 31.5585 65.4677H30.3745V68.0777H31.5585C32.493 68.0866 32.9602 67.661 32.9602 66.801Z" fill="#F3FFFA"/>
<path d="M44.522 71.1309C44.1213 71.8888 43.516 72.5078 42.7811 72.911C41.9541 73.3519 41.0346 73.5708 40.1058 73.5476H36.4736V63.5243H40.1058C41.0352 63.5 41.9562 63.714 42.7875 64.1476C43.5204 64.5422 44.1241 65.1548 44.522 65.9076C44.9383 66.7068 45.1479 67.6052 45.13 68.5143C45.1473 69.4266 44.9379 70.3279 44.522 71.1309ZM42.0195 70.6276C42.2796 70.3495 42.4811 70.0179 42.6112 69.654C42.7412 69.2901 42.7969 68.9019 42.7747 68.5143C42.7971 68.1272 42.7414 67.7394 42.6114 67.3761C42.4813 67.0127 42.2797 66.6817 42.0195 66.4043C41.4374 65.8723 40.6771 65.6015 39.9042 65.651H38.8001V71.3776H39.9042C40.6765 71.4265 41.4362 71.1571 42.0195 70.6276Z" fill="#F3FFFA"/>
<path d="M52.7235 63.5244V65.4544H48.7777V67.651H51.8242V69.4944H48.7777V73.5477H46.448V63.5244H52.7235Z" fill="#F3FFFA"/>
<path d="M41.2067 19.6221H35.5488C34.5626 19.6221 33.7632 20.4548 33.7632 21.4821V27.3754C33.7632 28.4027 34.5626 29.2354 35.5488 29.2354H41.2067C42.1929 29.2354 42.9924 28.4027 42.9924 27.3754V21.4821C42.9924 20.4548 42.1929 19.6221 41.2067 19.6221Z" fill="#008FF3"/>
</svg>
