<svg width="64" height="80" viewBox="0 0 64 80" fill="none" xmlns="http://www.w3.org/2000/svg">
<g opacity="0.3">
<path opacity="0.3" d="M44.6944 16.4133C42.9449 16.4116 41.2676 15.6869 40.0305 14.3982C38.7934 13.1096 38.0977 11.3624 38.096 9.54V0H8.61119C6.32736 0 4.13708 0.945057 2.52217 2.62726C0.907255 4.30946 0 6.591 0 8.96999V63.0433C0.00339148 65.42 0.912134 67.6981 2.52668 69.3775C4.14122 71.0568 6.32957 72 8.61119 72H44.0064C46.2886 72 48.4774 71.0563 50.092 69.3763C51.7067 67.6962 52.615 65.4173 52.6176 63.04V16.4133H44.6944Z" fill="#008FF3"/>
</g>
<path d="M52.6177 16.4133H44.6945C42.945 16.4116 41.2676 15.6869 40.0306 14.3982C38.7935 13.1096 38.0978 11.3624 38.0961 9.54V0L52.6177 16.4133Z" fill="#008FF3"/>
<path d="M58.8608 56.8666H18.848C16.0097 56.8666 13.7088 59.2634 13.7088 62.2199V74.6466C13.7088 77.6031 16.0097 79.9999 18.848 79.9999H58.8608C61.6991 79.9999 64 77.6031 64 74.6466V62.2199C64 59.2634 61.6991 56.8666 58.8608 56.8666Z" fill="#008FF3"/>
<path d="M25.2992 71.1233V73.5466H22.8896V71.1233H25.2992Z" fill="#F3FFFA"/>
<path d="M28.8384 70.0333V73.5467H26.5088V63.5233H30.2784C31.424 63.5233 32.2955 63.8189 32.8928 64.41C33.196 64.7198 33.4329 65.0929 33.5879 65.5048C33.7428 65.9167 33.8124 66.3581 33.792 66.8C33.802 67.383 33.6629 67.9582 33.3888 68.4667C33.1109 68.9642 32.6963 69.3636 32.1984 69.6133C31.5997 69.9108 30.9414 70.0548 30.2784 70.0333H28.8384ZM31.424 66.8C31.424 65.9111 30.9568 65.4667 30.0224 65.4667H28.8384V68.0766H30.0224C30.9568 68.0855 31.424 67.66 31.424 66.8Z" fill="#F3FFFA"/>
<path d="M43.4816 73.5467H41.1552L37.2576 67.3933V73.5467H34.9312V63.5233H37.2576L41.152 69.7333V63.5233H43.4784L43.4816 73.5467Z" fill="#F3FFFA"/>
<path d="M52.5727 64.3333C53.3492 64.9385 53.8709 65.8332 54.0287 66.83H51.5647C51.4031 66.4729 51.1437 66.1737 50.8191 65.97C50.4525 65.7435 50.0325 65.6281 49.6063 65.6366C49.2753 65.6224 48.9452 65.6839 48.6395 65.817C48.3337 65.95 48.0597 66.1513 47.8367 66.4066C47.3692 66.9919 47.1314 67.7397 47.1711 68.5C47.1711 69.4533 47.4047 70.1855 47.8719 70.6966C48.1345 70.9622 48.4475 71.1676 48.7909 71.2996C49.1342 71.4316 49.5003 71.4874 49.8655 71.4633C50.3876 71.4727 50.8985 71.3054 51.3215 70.9866C51.7524 70.6506 52.0633 70.1743 52.2047 69.6333H49.2671V67.89H54.1535V70.3333C53.9643 70.9295 53.6678 71.4826 53.2799 71.9633C52.861 72.4807 52.3391 72.897 51.7503 73.1833C51.0828 73.5043 50.3542 73.6638 49.6191 73.65C48.726 73.6735 47.8427 73.4504 47.0591 73.0033C46.3421 72.5845 45.7581 71.9565 45.3791 71.1966C44.9735 70.3782 44.7701 69.4675 44.7871 68.5466C44.7679 67.6202 44.9714 66.7035 45.3791 65.88C45.7576 65.1219 46.3389 64.4943 47.0527 64.0733C47.825 63.6302 48.6961 63.4082 49.5775 63.43C50.6446 63.3755 51.6986 63.6934 52.5727 64.3333Z" fill="#F3FFFA"/>
<path d="M17.504 22.24H13.104V26.8233H17.504V22.24Z" fill="#008FF3"/>
<path d="M21.9072 26.8234H17.5072V31.4067H21.9072V26.8234Z" fill="#008FF3"/>
<path d="M26.3072 22.24H21.9072V26.8233H26.3072V22.24Z" fill="#008FF3"/>
<path d="M30.7071 26.8234H26.3071V31.4067H30.7071V26.8234Z" fill="#008FF3"/>
<path d="M35.1136 22.24H30.7136V26.8233H35.1136V22.24Z" fill="#008FF3"/>
<path d="M39.5136 26.8234H35.1136V31.4067H39.5136V26.8234Z" fill="#008FF3"/>
<path d="M17.504 31.4H13.104V35.9834H17.504V31.4Z" fill="#008FF3"/>
<path d="M21.9072 35.9833H17.5072V40.5666H21.9072V35.9833Z" fill="#008FF3"/>
<path d="M26.3072 31.4H21.9072V35.9834H26.3072V31.4Z" fill="#008FF3"/>
<path d="M30.7071 35.9833H26.3071V40.5666H30.7071V35.9833Z" fill="#008FF3"/>
<path d="M35.1136 31.4H30.7136V35.9834H35.1136V31.4Z" fill="#008FF3"/>
<path d="M39.5136 35.9833H35.1136V40.5666H39.5136V35.9833Z" fill="#008FF3"/>
<path d="M17.504 40.6034H13.104V45.1867H17.504V40.6034Z" fill="#008FF3"/>
<path d="M21.9072 45.1866H17.5072V49.77H21.9072V45.1866Z" fill="#008FF3"/>
<path d="M26.3072 40.6034H21.9072V45.1867H26.3072V40.6034Z" fill="#008FF3"/>
<path d="M30.7071 45.1866H26.3071V49.77H30.7071V45.1866Z" fill="#008FF3"/>
<path d="M35.1136 40.6034H30.7136V45.1867H35.1136V40.6034Z" fill="#008FF3"/>
<path d="M39.5136 45.1866H35.1136V49.77H39.5136V45.1866Z" fill="#008FF3"/>
</svg>
