<svg width="32" height="41" viewBox="0 0 32 41" fill="none" xmlns="http://www.w3.org/2000/svg">
<g opacity="0.3">
<path opacity="0.3" d="M22.3472 8.87401C21.4725 8.87313 20.6338 8.51076 20.0152 7.86648C19.3967 7.2222 19.0488 6.34862 19.048 5.43746V0.666016H4.30559C3.16368 0.666016 2.06854 1.13853 1.26108 1.9796C0.453627 2.82067 0 3.96137 0 5.15081V32.1863C0.00169574 33.3746 0.456067 34.5137 1.26334 35.3533C2.07061 36.1929 3.16479 36.6645 4.30559 36.6645H22.0032C23.144 36.6645 24.2382 36.1929 25.0455 35.3533C25.8527 34.5137 26.3071 33.3746 26.3088 32.1863V8.87401H22.3472Z" fill="#0EF3BF"/>
</g>
<path d="M26.309 8.87435H22.3472C21.4724 8.87347 20.6337 8.51109 20.0151 7.86678C19.3966 7.22247 19.0487 6.34885 19.0479 5.43766V0.666016L26.309 8.87435Z" fill="#0EF3BF"/>
<path d="M20.8957 25.8049H4.37734C4.21821 25.8049 4.0656 25.7391 3.95308 25.6219C3.84055 25.5047 3.77734 25.3457 3.77734 25.1799C3.77777 25.0145 3.84117 24.8559 3.95364 24.7391C4.06612 24.6222 4.21849 24.5566 4.37734 24.5566H20.8957C21.0544 24.5566 21.2067 24.6223 21.3189 24.7392C21.4311 24.8561 21.4941 25.0146 21.4941 25.1799C21.4943 25.2619 21.479 25.3432 21.4491 25.419C21.4191 25.4948 21.375 25.5637 21.3194 25.6217C21.2639 25.6798 21.1978 25.7259 21.1251 25.7573C21.0524 25.7887 20.9745 25.8049 20.8957 25.8049Z" fill="#0EF3BF"/>
<path d="M20.8957 18.7654H4.37734C4.21849 18.7654 4.06612 18.6997 3.95364 18.5829C3.84117 18.466 3.77777 18.3075 3.77734 18.1421C3.77734 17.9763 3.84055 17.8173 3.95308 17.7001C4.0656 17.5829 4.21821 17.5171 4.37734 17.5171H20.8957C20.9745 17.5171 21.0524 17.5333 21.1251 17.5647C21.1978 17.5961 21.2639 17.6422 21.3194 17.7002C21.375 17.7583 21.4191 17.8272 21.4491 17.903C21.479 17.9788 21.4943 18.0601 21.4941 18.1421C21.4941 18.3074 21.4311 18.4659 21.3189 18.5828C21.2067 18.6997 21.0544 18.7654 20.8957 18.7654Z" fill="#0EF3BF"/>
<path d="M20.8957 22.2849H4.37734C4.21821 22.2849 4.0656 22.219 3.95308 22.1018C3.84055 21.9846 3.77734 21.8257 3.77734 21.6599C3.77777 21.4945 3.84117 21.3359 3.95364 21.2191C4.06612 21.1022 4.21849 21.0366 4.37734 21.0366H20.8957C21.0544 21.0366 21.2067 21.1023 21.3189 21.2192C21.4311 21.3361 21.4941 21.4946 21.4941 21.6599C21.4943 21.7419 21.479 21.8232 21.4491 21.899C21.4191 21.9748 21.375 22.0437 21.3194 22.1018C21.2639 22.1598 21.1978 22.2059 21.1251 22.2373C21.0524 22.2687 20.9745 22.2849 20.8957 22.2849Z" fill="#0EF3BF"/>
<path d="M14.3805 15.2453H4.37734C4.21849 15.2454 4.06612 15.1797 3.95364 15.0629C3.84117 14.9461 3.77777 14.7875 3.77734 14.622C3.77734 14.4563 3.84055 14.2973 3.95308 14.1801C4.0656 14.0629 4.21821 13.9971 4.37734 13.9971H14.3805C14.5394 13.9975 14.6916 14.0635 14.8038 14.1807C14.916 14.2979 14.9789 14.4566 14.9789 14.622C14.9785 14.7872 14.9153 14.9455 14.8032 15.0623C14.6911 15.1791 14.5391 15.2449 14.3805 15.2453Z" fill="#0EF3BF"/>
<path d="M14.3805 11.7253H4.37734C4.21849 11.7253 4.06612 11.6597 3.95364 11.5428C3.84117 11.426 3.77777 11.2675 3.77734 11.102C3.77734 10.9363 3.84055 10.7773 3.95308 10.6601C4.0656 10.5429 4.21821 10.4771 4.37734 10.4771H14.3805C14.5394 10.4775 14.6916 10.5435 14.8038 10.6607C14.916 10.7778 14.9789 10.9366 14.9789 11.102C14.9785 11.2672 14.9153 11.4255 14.8032 11.5423C14.6911 11.6591 14.5391 11.7249 14.3805 11.7253Z" fill="#0EF3BF"/>
<path d="M29.4305 29.0996H9.42409C8.00494 29.0996 6.85449 30.2979 6.85449 31.7762V37.9892C6.85449 39.4675 8.00494 40.6658 9.42409 40.6658H29.4305C30.8496 40.6658 32.0001 39.4675 32.0001 37.9892V31.7762C32.0001 30.2979 30.8496 29.0996 29.4305 29.0996Z" fill="#0EF3BF"/>
<path d="M13.4181 36.228V37.4397H12.2148V36.228H13.4181Z" fill="#E9F8F8"/>
<path d="M15.1877 35.6816V37.4399H14.0244V32.4282H15.9093C16.4805 32.4282 16.9173 32.5765 17.2165 32.8715C17.368 33.0265 17.4862 33.2131 17.5634 33.4191C17.6406 33.625 17.6751 33.8457 17.6646 34.0665C17.6704 34.3579 17.6013 34.6456 17.4646 34.8999C17.3249 35.1484 17.1178 35.3485 16.8693 35.4749C16.5696 35.6224 16.2406 35.6938 15.9093 35.6832L15.1877 35.6816ZM16.4805 34.0665C16.4805 33.6221 16.2469 33.3999 15.7797 33.3999H15.1877V34.7049H15.7797C16.2469 34.7093 16.4805 34.4965 16.4805 34.0665Z" fill="#E9F8F8"/>
<path d="M22.2605 36.2315C22.0602 36.6104 21.7575 36.9199 21.3901 37.1215C20.9766 37.342 20.5168 37.4514 20.0524 37.4398H18.2363V32.4282H20.0524C20.5171 32.416 20.9776 32.523 21.3933 32.7398C21.7597 32.9371 22.0616 33.2434 22.2605 33.6198C22.4687 34.0194 22.5735 34.4686 22.5645 34.9232C22.5732 35.3793 22.4685 35.83 22.2605 36.2315ZM21.0092 35.9798C21.1393 35.8408 21.2401 35.675 21.3051 35.493C21.3701 35.311 21.398 35.117 21.3869 34.9232C21.398 34.7296 21.3702 34.5357 21.3052 34.354C21.2402 34.1724 21.1394 34.0069 21.0092 33.8682C20.7182 33.6022 20.3381 33.4668 19.9516 33.4915H19.3996V36.3548H19.9516C20.3377 36.3793 20.7176 36.2446 21.0092 35.9798Z" fill="#E9F8F8"/>
<path d="M26.3614 32.4282V33.3932H24.3885V34.4915H25.9118V35.4132H24.3885V37.4399H23.2236V32.4282H26.3614Z" fill="#E9F8F8"/>
<path d="M20.6036 10.4771H17.7747C17.2816 10.4771 16.8818 10.8934 16.8818 11.4071V14.3537C16.8818 14.8673 17.2816 15.2837 17.7747 15.2837H20.6036C21.0967 15.2837 21.4964 14.8673 21.4964 14.3537V11.4071C21.4964 10.8934 21.0967 10.4771 20.6036 10.4771Z" fill="#0EF3BF"/>
</svg>
