<svg width="80" height="40" viewBox="0 0 80 40" fill="none" xmlns="http://www.w3.org/2000/svg">
<rect width="80" height="40" rx="12" fill="#FFBB83"/>
<path d="M15.2089 24V13.71H23.8889V24H22.4889V14.97H16.6089V24H15.2089ZM28.9602 16.118C30.8922 16.118 32.5442 17.896 32.5442 20.08C32.5442 22.264 30.8922 24.042 28.5402 24.042C27.9942 24.042 27.2522 23.86 26.5522 23.51V27.038H25.1522V16.16H26.2722L26.4402 17C27.1822 16.496 28.2322 16.118 28.9602 16.118ZM28.6802 17.518C27.9102 17.532 27.2522 17.812 26.5522 18.288V21.998C27.2522 22.446 27.8962 22.642 28.6802 22.642C30.0942 22.642 31.1442 21.508 31.1442 20.08C31.1442 18.68 30.1082 17.518 28.6802 17.518ZM37.2929 16.118C39.4629 16.118 41.3529 17.896 41.3529 20.066C41.3529 22.264 39.4629 24.042 37.2929 24.042C35.1089 24.042 33.2189 22.264 33.2189 20.066C33.2189 17.896 35.1089 16.118 37.2929 16.118ZM37.2929 17.518C35.8649 17.518 34.6189 18.666 34.6189 20.066C34.6189 21.494 35.8649 22.642 37.2929 22.642C38.7209 22.642 39.9529 21.494 39.9529 20.066C39.9529 18.666 38.7209 17.518 37.2929 17.518ZM45.9543 22.684C47.2983 22.684 47.9843 21.984 48.2223 21.704L49.0763 22.782C48.9083 22.992 47.9703 24.042 45.9543 24.042C43.7703 24.042 42.0203 22.306 42.0203 20.066C42.0203 17.896 43.7423 16.118 45.9263 16.118C48.0263 16.118 49.7203 17.826 49.7203 20.066C49.7203 20.234 49.7063 20.472 49.6923 20.57H43.4623C43.7143 21.774 44.7223 22.684 45.9543 22.684ZM45.9263 17.518C44.7503 17.518 43.7983 18.26 43.5183 19.268H48.1943C48.0263 18.33 47.0743 17.518 45.9263 17.518ZM54.547 20.57H52.181V24H50.781V16.16H52.181V19.268H54.575C54.771 19.24 55.009 18.988 55.135 18.652L55.611 17.42C55.975 16.608 56.675 16.16 57.431 16.16L57.977 16.3V17.56H57.431C57.207 17.56 56.983 17.756 56.843 18.106L56.367 19.338C56.283 19.562 55.947 19.842 55.821 19.912C55.947 19.954 56.241 20.234 56.339 20.43L57.109 22.096C57.263 22.446 57.473 22.642 57.697 22.642H58.243V23.902L57.697 24.042C56.927 24.042 56.255 23.594 55.877 22.782L55.107 21.116C54.953 20.794 54.771 20.598 54.547 20.57ZM63.1365 24H61.7365V17.462H58.9365V16.16H65.9365V17.462H63.1365V24Z" fill="#0E1845"/>
</svg>
