<svg width="176" height="80" viewBox="0 0 176 80" fill="none" xmlns="http://www.w3.org/2000/svg">
<rect width="176" height="80" rx="12" fill="#CFCBFF"/>
<path d="M59.342 45.06H58.542L56.722 44.66V43.06H59.342C59.662 43.06 60.102 42.76 60.242 42.28L60.762 40.58H58.162C56.762 40.58 55.922 39.68 55.582 38.58L53.082 30.3H55.082L57.402 38.06C57.522 38.44 57.902 38.78 58.282 38.78H61.302L63.842 30.3H65.842L61.942 43.26C61.602 44.38 60.422 45.06 59.342 45.06ZM72.3469 35.74C70.3069 35.74 68.6269 37.18 68.6269 39.38C68.6269 41.62 70.3069 43.06 72.3469 43.06C74.8669 43.06 75.8869 41.68 75.8869 41.72L77.1469 43.3C77.0469 43.4 75.3869 45.06 72.3469 45.06C69.2269 45.06 66.6269 42.72 66.6269 39.38C66.6269 36.08 69.2269 33.74 72.3469 33.74C74.8869 33.74 76.4469 34.86 76.5069 34.9V36.88H75.0469L74.7669 36.22C74.2469 36 73.4069 35.74 72.3469 35.74ZM80.2527 35.66V33.8H89.2927V45H87.2927V35.66H83.4327L81.8527 43.26C81.6127 44.44 80.3327 45.06 79.2527 45.06L78.2727 44.86V43.06H79.2527C79.5727 43.06 79.9927 42.78 80.0927 42.28L81.4527 35.66H80.2527ZM93.8945 45L90.5545 33.8H92.5545L95.3145 43H96.7745L99.5345 33.8H101.535L97.4345 47.54C97.0945 48.7 95.9145 49.34 94.8345 49.34L93.6545 49.14V47.34H94.8345C95.1545 47.34 95.5945 47.08 95.6945 46.58L96.1545 45H93.8945ZM105.199 45H103.199V33.8H111.359V35.66H105.199V45ZM112.75 41.44C112.75 39.44 114.17 37.82 116.55 37.82C118.53 37.82 119.81 38.08 120.91 38.62V37.92C120.91 36.4 119.61 35.6 118.15 35.6C116.93 35.6 116.25 35.72 115.45 36.14L115.33 36.94H113.73V34.98C115.09 34.2 116.19 33.74 118.15 33.74C120.91 33.74 122.91 35.18 122.91 38.3V45H121.31L120.99 43.34C119.89 44.22 118.57 45.06 116.55 45.06C114.17 45.06 112.75 43.44 112.75 41.44ZM114.69 41.44C114.69 42.36 115.43 43.28 116.95 43.28C118.53 43.28 119.83 42.42 120.91 41.38V40.4C119.85 39.88 118.33 39.6 116.75 39.6C115.23 39.6 114.69 40.52 114.69 41.44Z" fill="#0E1845"/>
</svg>
