<svg width="176" height="80" viewBox="0 0 176 80" fill="none" xmlns="http://www.w3.org/2000/svg">
<rect width="176" height="80" rx="12" fill="#E9F8F8"/>
<path d="M51.4676 43.2H52.1476C52.5076 43.2 53.0876 42.66 53.2876 41.74L55.2476 32.1L53.8276 31.9V30.3H64.6676V43.2H66.0676V48H64.2676L64.0676 45H53.4676L53.2676 48H51.4676V43.2ZM54.6476 43.2H62.6676V32.1H57.2476L55.3076 41.74C55.1876 42.28 54.9276 42.78 54.6476 43.2ZM73.6998 33.74C76.4598 33.74 78.8198 36.28 78.8198 39.4C78.8198 42.52 76.4598 45.06 73.0998 45.06C72.3198 45.06 71.2598 44.8 70.2598 44.3V49.34H68.2598V33.8H69.8598L70.0998 35C71.1598 34.28 72.6598 33.74 73.6998 33.74ZM73.2998 35.74C72.1998 35.76 71.2598 36.16 70.2598 36.84V42.14C71.2598 42.78 72.1798 43.06 73.2998 43.06C75.3198 43.06 76.8198 41.44 76.8198 39.4C76.8198 37.4 75.3398 35.74 73.2998 35.74ZM83.4082 45L80.0682 33.8H82.0682L84.8282 43H86.2882L89.0482 33.8H91.0482L86.9482 47.54C86.6082 48.7 85.4282 49.34 84.3482 49.34L83.1682 49.14V47.34H84.3482C84.6682 47.34 85.1082 47.08 85.2082 46.58L85.6682 45H83.4082ZM94.7129 45H92.7129V33.8H100.873V35.66H94.7129V45ZM107.664 33.74C110.764 33.74 113.464 36.28 113.464 39.38C113.464 42.52 110.764 45.06 107.664 45.06C104.544 45.06 101.844 42.52 101.844 39.38C101.844 36.28 104.544 33.74 107.664 33.74ZM107.664 35.74C105.624 35.74 103.844 37.38 103.844 39.38C103.844 41.42 105.624 43.06 107.664 43.06C109.704 43.06 111.464 41.42 111.464 39.38C111.464 37.38 109.704 35.74 107.664 35.74ZM120.437 43.12C122.357 43.12 123.337 42.12 123.677 41.72L124.897 43.26C124.657 43.56 123.317 45.06 120.437 45.06C117.317 45.06 114.817 42.58 114.817 39.38C114.817 36.28 117.277 33.74 120.397 33.74C123.397 33.74 125.817 36.18 125.817 39.38C125.817 39.62 125.797 39.96 125.777 40.1H116.877C117.237 41.82 118.677 43.12 120.437 43.12ZM120.397 35.74C118.717 35.74 117.357 36.8 116.957 38.24H123.637C123.397 36.9 122.037 35.74 120.397 35.74Z" fill="#0E1845"/>
</svg>
