<svg width="80" height="40" viewBox="0 0 80 40" fill="none" xmlns="http://www.w3.org/2000/svg">
<rect width="80" height="40" rx="12" fill="#CFCBFF"/>
<path d="M21.1394 24.042H20.5794L19.3054 23.762V22.642H21.1394C21.3634 22.642 21.6714 22.432 21.7694 22.096L22.1334 20.906H20.3134C19.3334 20.906 18.7454 20.276 18.5074 19.506L16.7574 13.71H18.1574L19.7814 19.142C19.8654 19.408 20.1314 19.646 20.3974 19.646H22.5114L24.2894 13.71H25.6894L22.9594 22.782C22.7214 23.566 21.8954 24.042 21.1394 24.042ZM29.9628 17.518C28.5348 17.518 27.3588 18.526 27.3588 20.066C27.3588 21.634 28.5348 22.642 29.9628 22.642C31.7268 22.642 32.4408 21.676 32.4408 21.704L33.3228 22.81C33.2528 22.88 32.0908 24.042 29.9628 24.042C27.7788 24.042 25.9588 22.404 25.9588 20.066C25.9588 17.756 27.7788 16.118 29.9628 16.118C31.7408 16.118 32.8328 16.902 32.8748 16.93V18.316H31.8528L31.6568 17.854C31.2928 17.7 30.7048 17.518 29.9628 17.518ZM35.2169 17.462V16.16H41.5449V24H40.1449V17.462H37.4429L36.3369 22.782C36.1689 23.608 35.2729 24.042 34.5169 24.042L33.8309 23.902V22.642H34.5169C34.7409 22.642 35.0349 22.446 35.1049 22.096L36.0569 17.462H35.2169ZM44.4862 24L42.1482 16.16H43.5482L45.4802 22.6H46.5022L48.4342 16.16H49.8342L46.9642 25.778C46.7262 26.59 45.9002 27.038 45.1442 27.038L44.3182 26.898V25.638H45.1442C45.3682 25.638 45.6762 25.456 45.7462 25.106L46.0682 24H44.4862ZM52.1195 24H50.7195V16.16H56.4315V17.462H52.1195V24ZM57.125 21.508C57.125 20.108 58.119 18.974 59.785 18.974C61.171 18.974 62.067 19.156 62.837 19.534V19.044C62.837 17.98 61.927 17.42 60.905 17.42C60.051 17.42 59.575 17.504 59.015 17.798L58.931 18.358H57.811V16.986C58.763 16.44 59.533 16.118 60.905 16.118C62.837 16.118 64.237 17.126 64.237 19.31V24H63.117L62.893 22.838C62.123 23.454 61.199 24.042 59.785 24.042C58.119 24.042 57.125 22.908 57.125 21.508ZM58.483 21.508C58.483 22.152 59.001 22.796 60.065 22.796C61.171 22.796 62.081 22.194 62.837 21.466V20.78C62.095 20.416 61.031 20.22 59.925 20.22C58.861 20.22 58.483 20.864 58.483 21.508Z" fill="#0E1845"/>
</svg>
