<svg width="80" height="40" viewBox="0 0 80 40" fill="none" xmlns="http://www.w3.org/2000/svg">
<rect width="80" height="40" rx="12" fill="#3BFFD0"/>
<path d="M14.9755 13.71H19.9035C21.4575 13.71 22.6895 14.956 22.6895 16.51C22.6895 17.336 22.1855 18.26 21.6115 18.582C22.4235 18.918 23.1095 20.024 23.1095 21.06C23.1095 22.684 21.7935 24 20.1695 24H14.9755V13.71ZM16.3755 22.74H20.1695C21.0235 22.74 21.7095 21.914 21.7095 21.06C21.7095 20.206 21.0235 19.338 20.1695 19.338H16.3755V22.74ZM16.3755 18.078H19.9035C20.6735 18.064 21.2895 17.266 21.2895 16.51C21.2895 15.726 20.6735 14.97 19.9035 14.97H16.3755V18.078ZM28.2887 16.118C30.4587 16.118 32.3487 17.896 32.3487 20.066C32.3487 22.264 30.4587 24.042 28.2887 24.042C26.1047 24.042 24.2147 22.264 24.2147 20.066C24.2147 17.896 26.1047 16.118 28.2887 16.118ZM28.2887 17.518C26.8607 17.518 25.6147 18.666 25.6147 20.066C25.6147 21.494 26.8607 22.642 28.2887 22.642C29.7167 22.642 30.9487 21.494 30.9487 20.066C30.9487 18.666 29.7167 17.518 28.2887 17.518ZM34.5701 24H33.1701V16.16H40.2821V24H38.8821V17.462H34.5701V24ZM45.2157 16.118C47.1477 16.118 48.7997 17.896 48.7997 20.08C48.7997 22.264 47.1477 24.042 44.7957 24.042C44.2497 24.042 43.5077 23.86 42.8077 23.51V27.038H41.4077V16.16H42.5277L42.6957 17C43.4377 16.496 44.4877 16.118 45.2157 16.118ZM44.9357 17.518C44.1657 17.532 43.5077 17.812 42.8077 18.288V21.998C43.5077 22.446 44.1517 22.642 44.9357 22.642C46.3497 22.642 47.3997 21.508 47.3997 20.08C47.3997 18.68 46.3637 17.518 44.9357 17.518ZM53.5483 16.118C55.7183 16.118 57.6083 17.896 57.6083 20.066C57.6083 22.264 55.7183 24.042 53.5483 24.042C51.3643 24.042 49.4743 22.264 49.4743 20.066C49.4743 17.896 51.3643 16.118 53.5483 16.118ZM53.5483 17.518C52.1203 17.518 50.8743 18.666 50.8743 20.066C50.8743 21.494 52.1203 22.642 53.5483 22.642C54.9763 22.642 56.2083 21.494 56.2083 20.066C56.2083 18.666 54.9763 17.518 53.5483 17.518ZM62.1397 17.518C60.7117 17.518 59.5357 18.526 59.5357 20.066C59.5357 21.634 60.7117 22.642 62.1397 22.642C63.9037 22.642 64.6177 21.676 64.6177 21.704L65.4997 22.81C65.4297 22.88 64.2677 24.042 62.1397 24.042C59.9557 24.042 58.1357 22.404 58.1357 20.066C58.1357 17.756 59.9557 16.118 62.1397 16.118C63.9177 16.118 65.0097 16.902 65.0517 16.93V18.316H64.0297L63.8337 17.854C63.4697 17.7 62.8817 17.518 62.1397 17.518Z" fill="#0E1845"/>
</svg>
