<svg width="80" height="40" viewBox="0 0 80 40" fill="none" xmlns="http://www.w3.org/2000/svg">
<rect width="80" height="40" rx="12" fill="#E9F8F8"/>
<path d="M15.2773 22.74H15.7533C16.0053 22.74 16.4113 22.362 16.5513 21.718L17.9233 14.97L16.9293 14.83V13.71H24.5173V22.74H25.4973V26.1H24.2373L24.0973 24H16.6773L16.5373 26.1H15.2773V22.74ZM17.5033 22.74H23.1173V14.97H19.3233L17.9653 21.718C17.8813 22.096 17.6993 22.446 17.5033 22.74ZM30.5598 16.118C32.4918 16.118 34.1438 17.896 34.1438 20.08C34.1438 22.264 32.4918 24.042 30.1398 24.042C29.5938 24.042 28.8518 23.86 28.1518 23.51V27.038H26.7518V16.16H27.8718L28.0398 17C28.7818 16.496 29.8318 16.118 30.5598 16.118ZM30.2798 17.518C29.5098 17.532 28.8518 17.812 28.1518 18.288V21.998C28.8518 22.446 29.4958 22.642 30.2798 22.642C31.6938 22.642 32.7438 21.508 32.7438 20.08C32.7438 18.68 31.7078 17.518 30.2798 17.518ZM37.0757 24L34.7377 16.16H36.1377L38.0697 22.6H39.0917L41.0237 16.16H42.4237L39.5537 25.778C39.3157 26.59 38.4897 27.038 37.7337 27.038L36.9077 26.898V25.638H37.7337C37.9577 25.638 38.2657 25.456 38.3357 25.106L38.6577 24H37.0757ZM44.709 24H43.309V16.16H49.021V17.462H44.709V24ZM53.4946 16.118C55.6646 16.118 57.5546 17.896 57.5546 20.066C57.5546 22.264 55.6646 24.042 53.4946 24.042C51.3106 24.042 49.4206 22.264 49.4206 20.066C49.4206 17.896 51.3106 16.118 53.4946 16.118ZM53.4946 17.518C52.0666 17.518 50.8206 18.666 50.8206 20.066C50.8206 21.494 52.0666 22.642 53.4946 22.642C54.9226 22.642 56.1546 21.494 56.1546 20.066C56.1546 18.666 54.9226 17.518 53.4946 17.518ZM62.156 22.684C63.5 22.684 64.186 21.984 64.424 21.704L65.278 22.782C65.11 22.992 64.172 24.042 62.156 24.042C59.972 24.042 58.222 22.306 58.222 20.066C58.222 17.896 59.944 16.118 62.128 16.118C64.228 16.118 65.922 17.826 65.922 20.066C65.922 20.234 65.908 20.472 65.894 20.57H59.664C59.916 21.774 60.924 22.684 62.156 22.684ZM62.128 17.518C60.952 17.518 60 18.26 59.72 19.268H64.396C64.228 18.33 63.276 17.518 62.128 17.518Z" fill="#0E1845"/>
</svg>
