<svg width="176" height="80" viewBox="0 0 176 80" fill="none" xmlns="http://www.w3.org/2000/svg">
<rect width="176" height="80" rx="12" fill="#FFBB83"/>
<path d="M51.3699 45V30.3H63.7699V45H61.7699V32.1H53.3699V45H51.3699ZM71.4146 33.74C74.1746 33.74 76.5346 36.28 76.5346 39.4C76.5346 42.52 74.1746 45.06 70.8146 45.06C70.0346 45.06 68.9746 44.8 67.9746 44.3V49.34H65.9746V33.8H67.5746L67.8146 35C68.8746 34.28 70.3746 33.74 71.4146 33.74ZM71.0146 35.74C69.9146 35.76 68.9746 36.16 67.9746 36.84V42.14C68.9746 42.78 69.8946 43.06 71.0146 43.06C73.0346 43.06 74.5346 41.44 74.5346 39.4C74.5346 37.4 73.0546 35.74 71.0146 35.74ZM83.7184 33.74C86.8184 33.74 89.5184 36.28 89.5184 39.38C89.5184 42.52 86.8184 45.06 83.7184 45.06C80.5984 45.06 77.8984 42.52 77.8984 39.38C77.8984 36.28 80.5984 33.74 83.7184 33.74ZM83.7184 35.74C81.6784 35.74 79.8984 37.38 79.8984 39.38C79.8984 41.42 81.6784 43.06 83.7184 43.06C85.7584 43.06 87.5184 41.42 87.5184 39.38C87.5184 37.38 85.7584 35.74 83.7184 35.74ZM96.4918 43.12C98.4118 43.12 99.3918 42.12 99.7318 41.72L100.952 43.26C100.712 43.56 99.3718 45.06 96.4918 45.06C93.3718 45.06 90.8718 42.58 90.8718 39.38C90.8718 36.28 93.3318 33.74 96.4518 33.74C99.4518 33.74 101.872 36.18 101.872 39.38C101.872 39.62 101.852 39.96 101.832 40.1H92.9318C93.2918 41.82 94.7318 43.12 96.4918 43.12ZM96.4518 35.74C94.7718 35.74 93.4118 36.8 93.0118 38.24H99.6918C99.4518 36.9 98.0918 35.74 96.4518 35.74ZM109.167 40.1H105.787V45H103.787V33.8H105.787V38.24H109.207C109.487 38.2 109.827 37.84 110.007 37.36L110.687 35.6C111.207 34.44 112.207 33.8 113.287 33.8L114.067 34V35.8H113.287C112.967 35.8 112.647 36.08 112.447 36.58L111.767 38.34C111.647 38.66 111.167 39.06 110.987 39.16C111.167 39.22 111.587 39.62 111.727 39.9L112.827 42.28C113.047 42.78 113.347 43.06 113.667 43.06H114.447V44.86L113.667 45.06C112.567 45.06 111.607 44.42 111.067 43.26L109.967 40.88C109.747 40.42 109.487 40.14 109.167 40.1ZM121.838 45H119.838V35.66H115.838V33.8H125.838V35.66H121.838V45Z" fill="#0E1845"/>
</svg>
