<svg width="176" height="80" viewBox="0 0 176 80" fill="none" xmlns="http://www.w3.org/2000/svg">
<rect width="176" height="80" rx="12" fill="#6EFFF6"/>
<path d="M63.3082 34.08L63.0682 32.8C62.2082 32.38 61.1882 32.22 60.0682 32.22C57.3082 32.22 54.4682 34.42 54.4682 37.64C54.4682 40.86 57.3082 43.06 60.0682 43.06C61.8682 43.06 63.4082 42.24 64.4082 41.04L65.8282 42.46C64.4082 44.04 62.3282 45.06 60.0682 45.06C55.9882 45.06 52.4682 41.74 52.4682 37.64C52.4682 33.54 55.9882 30.22 60.0682 30.22C61.8282 30.22 63.4682 30.66 65.0682 31.66V34.08H63.3082ZM73.0957 45H71.0957V35.66H67.0957V33.8H77.0957V35.66H73.0957V45ZM78.0918 41.44C78.0918 39.44 79.5118 37.82 81.8918 37.82C83.8718 37.82 85.1518 38.08 86.2518 38.62V37.92C86.2518 36.4 84.9518 35.6 83.4918 35.6C82.2718 35.6 81.5918 35.72 80.7918 36.14L80.6718 36.94H79.0718V34.98C80.4318 34.2 81.5318 33.74 83.4918 33.74C86.2518 33.74 88.2518 35.18 88.2518 38.3V45H86.6518L86.3318 43.34C85.2318 44.22 83.9118 45.06 81.8918 45.06C79.5118 45.06 78.0918 43.44 78.0918 41.44ZM80.0318 41.44C80.0318 42.36 80.7718 43.28 82.2918 43.28C83.8718 43.28 85.1718 42.42 86.2518 41.38V40.4C85.1918 39.88 83.6718 39.6 82.0918 39.6C80.5718 39.6 80.0318 40.52 80.0318 41.44ZM95.8691 45H93.8691V35.66H89.8691V33.8H99.8691V35.66H95.8691V45ZM101.861 45V33.8H103.861V37.84H108.521C110.501 37.84 112.121 39.42 112.121 41.4C112.121 43.4 110.501 45 108.521 45H101.861ZM103.861 43.06H108.521C109.441 43.06 110.181 42.32 110.181 41.4C110.181 40.48 109.441 39.78 108.521 39.78H103.861V43.06ZM114.956 45.06L113.976 44.86V43.06H114.956C115.196 43.06 115.396 42.96 115.536 42.64L116.376 40.82C114.856 40.42 113.736 39.02 113.736 37.36C113.736 35.42 115.336 33.8 117.276 33.8H123.596V45H121.596V40.94H118.556L117.256 43.68C116.856 44.52 115.976 45.06 114.956 45.06ZM115.736 37.36C115.736 38.24 116.436 38.94 117.276 38.94H121.596V35.8H117.316C116.456 35.8 115.736 36.5 115.736 37.36Z" fill="#0E1845"/>
</svg>
