<svg width="176" height="80" viewBox="0 0 176 80" fill="none" xmlns="http://www.w3.org/2000/svg">
<rect width="176" height="80" rx="12" fill="#3BFFD0"/>
<path d="M51.2508 30.3H58.2908C60.5108 30.3 62.2708 32.08 62.2708 34.3C62.2708 35.48 61.5508 36.8 60.7308 37.26C61.8908 37.74 62.8708 39.32 62.8708 40.8C62.8708 43.12 60.9908 45 58.6708 45H51.2508V30.3ZM53.2508 43.2H58.6708C59.8908 43.2 60.8708 42.02 60.8708 40.8C60.8708 39.58 59.8908 38.34 58.6708 38.34H53.2508V43.2ZM53.2508 36.54H58.2908C59.3908 36.52 60.2708 35.38 60.2708 34.3C60.2708 33.18 59.3908 32.1 58.2908 32.1H53.2508V36.54ZM70.6695 33.74C73.7695 33.74 76.4695 36.28 76.4695 39.38C76.4695 42.52 73.7695 45.06 70.6695 45.06C67.5495 45.06 64.8495 42.52 64.8495 39.38C64.8495 36.28 67.5495 33.74 70.6695 33.74ZM70.6695 35.74C68.6295 35.74 66.8495 37.38 66.8495 39.38C66.8495 41.42 68.6295 43.06 70.6695 43.06C72.7095 43.06 74.4695 41.42 74.4695 39.38C74.4695 37.38 72.7095 35.74 70.6695 35.74ZM80.043 45H78.043V33.8H88.203V45H86.203V35.66H80.043V45ZM95.6509 33.74C98.4109 33.74 100.771 36.28 100.771 39.4C100.771 42.52 98.4109 45.06 95.0509 45.06C94.2709 45.06 93.2109 44.8 92.2109 44.3V49.34H90.2109V33.8H91.8109L92.0509 35C93.1109 34.28 94.6109 33.74 95.6509 33.74ZM95.2509 35.74C94.1509 35.76 93.2109 36.16 92.2109 36.84V42.14C93.2109 42.78 94.1309 43.06 95.2509 43.06C97.2709 43.06 98.7709 41.44 98.7709 39.4C98.7709 37.4 97.2909 35.74 95.2509 35.74ZM107.955 33.74C111.055 33.74 113.755 36.28 113.755 39.38C113.755 42.52 111.055 45.06 107.955 45.06C104.835 45.06 102.135 42.52 102.135 39.38C102.135 36.28 104.835 33.74 107.955 33.74ZM107.955 35.74C105.915 35.74 104.135 37.38 104.135 39.38C104.135 41.42 105.915 43.06 107.955 43.06C109.995 43.06 111.755 41.42 111.755 39.38C111.755 37.38 109.995 35.74 107.955 35.74ZM120.628 35.74C118.588 35.74 116.908 37.18 116.908 39.38C116.908 41.62 118.588 43.06 120.628 43.06C123.148 43.06 124.168 41.68 124.168 41.72L125.428 43.3C125.328 43.4 123.668 45.06 120.628 45.06C117.508 45.06 114.908 42.72 114.908 39.38C114.908 36.08 117.508 33.74 120.628 33.74C123.168 33.74 124.728 34.86 124.788 34.9V36.88H123.328L123.048 36.22C122.528 36 121.688 35.74 120.628 35.74Z" fill="#0E1845"/>
</svg>
