<svg width="80" height="40" viewBox="0 0 80 40" fill="none" xmlns="http://www.w3.org/2000/svg">
<rect width="80" height="40" rx="12" fill="#6EFFF6"/>
<path d="M23.4157 16.356L23.2477 15.46C22.6457 15.166 21.9317 15.054 21.1477 15.054C19.2157 15.054 17.2277 16.594 17.2277 18.848C17.2277 21.102 19.2157 22.642 21.1477 22.642C22.4077 22.642 23.4857 22.068 24.1857 21.228L25.1797 22.222C24.1857 23.328 22.7297 24.042 21.1477 24.042C18.2917 24.042 15.8277 21.718 15.8277 18.848C15.8277 15.978 18.2917 13.654 21.1477 13.654C22.3797 13.654 23.5277 13.962 24.6477 14.662V16.356H23.4157ZM29.987 24H28.587V17.462H25.787V16.16H32.787V17.462H29.987V24ZM33.2043 21.508C33.2043 20.108 34.1983 18.974 35.8643 18.974C37.2503 18.974 38.1463 19.156 38.9163 19.534V19.044C38.9163 17.98 38.0063 17.42 36.9843 17.42C36.1303 17.42 35.6543 17.504 35.0943 17.798L35.0103 18.358H33.8903V16.986C34.8423 16.44 35.6123 16.118 36.9843 16.118C38.9163 16.118 40.3163 17.126 40.3163 19.31V24H39.1963L38.9723 22.838C38.2023 23.454 37.2783 24.042 35.8643 24.042C34.1983 24.042 33.2043 22.908 33.2043 21.508ZM34.5623 21.508C34.5623 22.152 35.0803 22.796 36.1443 22.796C37.2503 22.796 38.1603 22.194 38.9163 21.466V20.78C38.1743 20.416 37.1103 20.22 36.0043 20.22C34.9403 20.22 34.5623 20.864 34.5623 21.508ZM45.3684 24H43.9684V17.462H41.1684V16.16H48.1684V17.462H45.3684V24ZM49.2829 24V16.16H50.6829V18.988H53.9449C55.3309 18.988 56.4649 20.094 56.4649 21.48C56.4649 22.88 55.3309 24 53.9449 24H49.2829ZM50.6829 22.642H53.9449C54.5889 22.642 55.1069 22.124 55.1069 21.48C55.1069 20.836 54.5889 20.346 53.9449 20.346H50.6829V22.642ZM58.1694 24.042L57.4834 23.902V22.642H58.1694C58.3374 22.642 58.4774 22.572 58.5754 22.348L59.1634 21.074C58.0994 20.794 57.3154 19.814 57.3154 18.652C57.3154 17.294 58.4354 16.16 59.7934 16.16H64.2174V24H62.8174V21.158H60.6894L59.7794 23.076C59.4994 23.664 58.8834 24.042 58.1694 24.042ZM58.7154 18.652C58.7154 19.268 59.2054 19.758 59.7934 19.758H62.8174V17.56H59.8214C59.2194 17.56 58.7154 18.05 58.7154 18.652Z" fill="#0E1845"/>
</svg>
