<svg width="120" height="120" viewBox="0 0 120 120" fill="none" xmlns="http://www.w3.org/2000/svg">
<path d="M60 12C86.5097 12 108 33.4903 108 60C108 86.5097 86.5097 108 60 108C33.4903 108 12 86.5097 12 60C12 33.4903 33.4903 12 60 12ZM57.3281 43.0078C55.487 41.7804 53.1199 41.6659 51.1689 42.71C49.218 43.7541 48 45.7872 48 48V72C48 74.2128 49.218 76.2459 51.1689 77.29C53.1199 78.3341 55.487 78.2196 57.3281 76.9922L75.3281 64.9922C76.9973 63.8794 78 62.0061 78 60C78 57.9939 76.9973 56.1206 75.3281 55.0078L57.3281 43.0078Z" fill="url(#paint0_linear_3389_47166)"/>
<path d="M60 12C86.5097 12 108 33.4903 108 60C108 86.5097 86.5097 108 60 108C33.4903 108 12 86.5097 12 60C12 33.4903 33.4903 12 60 12ZM57.3281 43.0078C55.487 41.7804 53.1199 41.6659 51.1689 42.71C49.218 43.7541 48 45.7872 48 48V72C48 74.2128 49.218 76.2459 51.1689 77.29C53.1199 78.3341 55.487 78.2196 57.3281 76.9922L75.3281 64.9922C76.9973 63.8794 78 62.0061 78 60C78 57.9939 76.9973 56.1206 75.3281 55.0078L57.3281 43.0078Z" stroke="#0EF3BF"/>
<defs>
<linearGradient id="paint0_linear_3389_47166" x1="37.8261" y1="108" x2="151.24" y2="79.5795" gradientUnits="userSpaceOnUse">
<stop stop-color="#0EF3BF"/>
<stop offset="1" stop-color="#008FF3"/>
</linearGradient>
</defs>
</svg>
