<svg width="368" height="240" viewBox="0 0 368 240" fill="none" xmlns="http://www.w3.org/2000/svg">
<rect width="368" height="240" rx="24" fill="#F3FFFA"/>
<path d="M118.457 130.02L91.0346 136.877C88.878 137.417 86.6673 136.125 86.1168 134.011L80.1252 110.962C79.5748 108.847 80.8922 106.68 83.0398 106.14L89.257 104.583C90.1503 104.361 91.5309 104.556 92.316 105.016L94.3553 106.202C95.1494 106.662 96.53 106.857 97.4143 106.635L111.464 103.123C113.621 102.583 115.831 103.875 116.382 105.989L121.372 125.198C121.922 127.313 120.614 129.48 118.457 130.02Z" fill="#008FF3"/>
<path d="M122.373 129.056L98.867 134.931C96.7104 135.471 94.4996 134.179 93.9492 132.064L91.0707 120.987C90.7278 119.677 91.3053 117.89 92.343 117.005L102.603 108.308C103.442 107.591 105.021 107.202 106.104 107.432L119.359 110.254C120.704 110.537 122.076 111.847 122.418 113.148L125.297 124.225C125.847 126.34 124.53 128.516 122.373 129.056Z" fill="#008FF3"/>
<path d="M93.9586 132.064L91.8831 124.092L91.071 120.987C90.7281 119.677 91.3056 117.89 92.3434 117.005L83.6172 124.411L86.1168 134.011C86.6673 136.126 88.8782 137.409 91.0349 136.878L91.1341 136.851C93.2367 136.276 94.5001 134.153 93.9586 132.064Z" fill="#0EE0BF"/>
<path d="M92.2979 117.057C92.316 117.039 92.334 117.022 92.3521 117.004L102.612 108.307C103.451 107.59 105.03 107.201 106.113 107.431L117.392 109.837L116.391 105.997C115.84 103.883 113.63 102.6 111.473 103.131L97.4143 106.643C96.5209 106.864 95.1403 106.67 94.3553 106.21L92.316 105.024C91.5219 104.564 90.1413 104.369 89.257 104.59L83.0398 106.139C80.8922 106.679 79.5748 108.846 80.1252 110.961L83.6173 124.41L92.343 117.004C92.325 117.022 92.316 117.039 92.2979 117.057Z" fill="#0EF3BF"/>
<path d="M115.75 116.377L118.105 115.793C118.538 115.687 118.8 115.253 118.692 114.828L117.392 109.838L112.971 108.9L114.766 115.819C114.875 116.235 115.317 116.492 115.75 116.377Z" fill="#F32100"/>
<path d="M144.382 133.303C144.382 135.577 142.983 136.718 140.186 136.718C137.388 136.718 135.99 135.577 135.99 133.303L136.035 122.155C136.035 120.828 136.062 119.828 136.125 119.156C136.215 118.324 136.36 117.501 136.549 116.687C136.739 115.873 137.127 114.882 137.704 113.732C138.282 112.582 139.004 111.573 139.843 110.732C140.691 109.883 141.9 109.157 143.47 108.538C145.04 107.919 146.827 107.618 148.839 107.618C152.449 107.618 155.327 108.644 157.484 110.688C159.631 112.732 160.714 115.316 160.714 118.421C160.714 121.774 159.649 124.42 157.511 126.34C155.372 128.269 152.773 129.224 149.696 129.224C147.558 129.224 145.816 128.809 144.472 127.977H144.427C144.427 128.003 144.409 128.021 144.382 128.021V133.303ZM151.618 121.668C152.385 120.792 152.774 119.748 152.774 118.554C152.774 117.138 152.422 116.023 151.718 115.209C151.014 114.395 149.994 113.988 148.677 113.988C147.45 113.988 146.466 114.413 145.708 115.262C144.95 116.112 144.58 117.209 144.58 118.563C144.58 119.828 144.923 120.881 145.618 121.721C146.313 122.571 147.314 122.995 148.632 122.995C149.85 122.987 150.842 122.544 151.618 121.668Z" fill="#0E1821"/>
<path d="M166.345 126.26C164.261 124.163 163.214 121.553 163.214 118.412C163.214 115.333 164.234 112.74 166.273 110.626C168.312 108.52 171.01 107.458 174.376 107.458C177.516 107.458 180.097 108.316 182.127 110.024C184.148 111.732 185.168 113.943 185.168 116.651C185.168 118.589 184.32 119.562 182.623 119.562H171.371C171.461 121.995 173.068 123.207 176.172 123.207C177.525 123.207 179.095 122.915 180.882 122.331C181.82 122.022 182.614 122.216 183.264 122.906C183.905 123.596 184.23 124.455 184.23 125.472C184.23 126.392 183.778 127.162 182.867 127.782C181.207 128.861 178.797 129.401 175.657 129.401C171.534 129.401 168.429 128.357 166.345 126.26ZM171.597 115.642H177.579C177.173 114.076 176.181 113.289 174.611 113.289C173.077 113.289 172.066 114.067 171.597 115.642Z" fill="#0E1821"/>
<path d="M210.479 125.429C210.479 126.57 210.136 127.464 209.441 128.11C208.746 128.756 207.718 129.083 206.337 129.083C204.92 129.083 203.874 128.756 203.179 128.092C202.484 127.429 202.141 126.544 202.141 125.438V114.351H196.393V125.438C196.393 126.579 196.05 127.473 195.355 128.119C194.661 128.765 193.632 129.092 192.251 129.092C190.871 129.092 189.833 128.765 189.147 128.101C188.461 127.437 188.11 126.553 188.11 125.447L188.064 111.688C188.064 109.405 189.238 108.273 191.593 108.273H206.996C208.034 108.273 208.873 108.547 209.513 109.105C210.154 109.662 210.479 110.52 210.479 111.688V125.429V125.429Z" fill="#0E1821"/>
<path d="M235.357 125.667C235.357 127.915 233.977 129.038 231.215 129.038C228.481 129.038 227.119 127.915 227.119 125.667V114.254H225.233C224.538 114.254 224.105 114.67 223.915 115.501L221.226 126.906C220.847 128.419 219.656 129.171 217.644 129.171C216.101 129.171 214.946 128.844 214.161 128.18C213.376 127.517 213.168 126.481 213.547 125.066L216.516 113.661C216.769 112.679 217.003 111.927 217.22 111.422C217.436 110.918 217.797 110.378 218.303 109.803C218.808 109.237 219.485 108.83 220.351 108.6C221.217 108.37 222.309 108.255 223.627 108.255H231.865C232.84 108.255 233.661 108.547 234.337 109.131C235.014 109.715 235.348 110.564 235.348 111.67V125.667H235.357Z" fill="#0E1821"/>
<path d="M262.445 124.968C262.445 127.773 261.281 129.171 258.962 129.171C257.546 129.171 256.607 128.631 256.138 127.552L255.714 126.579C255.687 126.579 255.642 126.57 255.596 126.552C255.551 126.535 255.506 126.526 255.479 126.526C253.783 128.339 251.401 129.251 248.324 129.251C245.12 129.251 242.548 128.304 240.599 126.411C238.65 124.517 237.676 121.987 237.676 118.81C237.676 115.669 238.668 113.024 240.663 110.865C242.657 108.706 245.382 107.635 248.838 107.635C251.789 107.635 253.999 108.591 255.479 110.502C255.506 110.502 255.551 110.493 255.596 110.476C255.642 110.458 255.687 110.449 255.714 110.449L256.228 109.432C256.797 108.352 257.771 107.812 259.152 107.812C261.353 107.812 262.445 109.104 262.445 111.688V124.968ZM247.015 115.298C246.275 116.147 245.905 117.182 245.905 118.412C245.905 119.828 246.257 120.943 246.961 121.757C247.665 122.571 248.666 122.978 249.948 122.978C251.175 122.978 252.15 122.562 252.889 121.73C253.629 120.898 253.999 119.792 253.999 118.403C253.999 117.138 253.629 116.094 252.889 115.262C252.15 114.431 251.166 114.015 249.948 114.015C248.739 114.024 247.755 114.448 247.015 115.298Z" fill="#0E1821"/>
<path d="M265.478 111.396C265.478 110.352 265.847 109.485 266.587 108.812C267.327 108.131 268.338 107.795 269.628 107.795C270.946 107.795 271.965 108.122 272.687 108.768C273.409 109.414 273.77 110.29 273.77 111.405V115.607H279.708V111.396C279.708 110.352 280.078 109.485 280.818 108.812C281.557 108.131 282.586 107.795 283.904 107.795C285.221 107.795 286.232 108.122 286.944 108.768C287.648 109.414 288 110.29 288 111.405V125.446C288 126.588 287.648 127.481 286.944 128.127C286.241 128.773 285.221 129.1 283.904 129.1C282.586 129.1 281.557 128.755 280.818 128.065C280.078 127.375 279.708 126.499 279.708 125.455V120.978H273.77V125.455C273.77 126.596 273.418 127.49 272.714 128.136C272.011 128.782 270.991 129.109 269.673 129.109C268.356 129.109 267.327 128.764 266.587 128.074C265.847 127.384 265.478 126.508 265.478 125.464V111.396Z" fill="#0E1821"/>
</svg>
