<svg width="112" height="24" viewBox="0 0 112 24" fill="none" xmlns="http://www.w3.org/2000/svg">
<g clip-path="url(#clip0_801_60851)">
<path d="M6.09042 21.6041C6.09042 23.1981 5.15376 24.0001 3.29028 24.0001C1.43667 24.0001 0.5 23.1981 0.5 21.6041L0.529579 13.797C0.529579 12.8732 0.549298 12.1727 0.588737 11.6955C0.647895 11.1168 0.746491 10.5382 0.874667 9.96963C1.00284 9.4011 1.25919 8.71075 1.64372 7.89856C2.02825 7.08638 2.51137 6.38587 3.07337 5.79704C3.63537 5.20821 4.44386 4.68029 5.49885 4.24374C6.54397 3.81734 7.73699 3.59399 9.0779 3.59399C11.4837 3.59399 13.4063 4.31481 14.8458 5.74628C16.2754 7.1879 16.9952 8.99501 16.9952 11.1676C16.9952 13.5229 16.2853 15.3706 14.8557 16.7107C13.4359 18.061 11.6907 18.7311 9.6399 18.7311C8.22011 18.7311 7.05667 18.4366 6.14958 17.858H6.12C6.12 17.8783 6.11014 17.8884 6.09042 17.8884V21.6041ZM10.9118 13.4519C11.4245 12.8326 11.6808 12.1118 11.6808 11.2691C11.6808 10.2742 11.4442 9.49247 10.971 8.92394C10.4977 8.35542 9.82723 8.07115 8.93987 8.07115C8.12151 8.07115 7.46092 8.36557 6.95807 8.96455C6.46509 9.54323 6.2186 10.3148 6.2186 11.2691C6.2186 12.1524 6.44537 12.8935 6.90878 13.4823C7.37218 14.0712 8.04264 14.3757 8.92015 14.3757C9.7385 14.3757 10.3991 14.061 10.9118 13.4519Z" fill="#0E1821"/>
<path d="M20.7421 16.67C19.3519 15.208 18.6519 13.3705 18.6519 11.1674C18.6519 9.01513 19.3322 7.19787 20.6928 5.71564C22.0534 4.23341 23.8578 3.50244 26.0959 3.50244C28.1861 3.50244 29.9116 4.10143 31.2624 5.2994C32.6131 6.49737 33.2934 8.04051 33.2934 9.93899C33.2934 11.2994 32.7314 11.9796 31.5976 11.9796H24.0845C24.1437 13.6852 25.2184 14.538 27.2889 14.538C28.1861 14.538 29.2411 14.3349 30.4341 13.9187C31.0652 13.7055 31.5877 13.8375 32.0215 14.3248C32.4554 14.8121 32.6624 15.4111 32.6624 16.1217C32.6624 16.7715 32.3568 17.3095 31.7553 17.7359C30.6412 18.4872 29.0439 18.873 26.9438 18.873C24.2028 18.873 22.1323 18.1319 20.7421 16.67ZM24.2423 9.22833H28.2354C27.9594 8.13188 27.2988 7.58366 26.2537 7.58366C25.2282 7.57351 24.5578 8.13188 24.2423 9.22833Z" fill="#0E1821"/>
<path d="M50.1826 16.0914C50.1826 16.8934 49.9558 17.5127 49.4924 17.9696C49.029 18.4264 48.3388 18.6498 47.4219 18.6498C46.4754 18.6498 45.7753 18.4163 45.3119 17.9493C44.8485 17.4823 44.6217 16.863 44.6217 16.0914V8.32489H40.7863V16.0914C40.7863 16.8934 40.5596 17.5127 40.0962 17.9696C39.6328 18.4264 38.9426 18.6498 38.0256 18.6498C37.1087 18.6498 36.4087 18.4163 35.9551 17.9493C35.4917 17.4823 35.2649 16.863 35.2649 16.0914L35.2354 6.44672C35.2354 4.85281 36.0241 4.05078 37.5918 4.05078H47.8656C48.5557 4.05078 49.1177 4.24367 49.5417 4.62946C49.9755 5.01525 50.1826 5.62439 50.1826 6.43657V16.0914Z" fill="#0E1821"/>
<path d="M66.7766 16.2437C66.7766 17.8173 65.8597 18.6092 64.0159 18.6092C62.1919 18.6092 61.2848 17.8173 61.2848 16.2437V8.25387H60.0326C59.5692 8.25387 59.2734 8.54828 59.1551 9.12696L57.3606 17.1168C57.1141 18.1726 56.3155 18.7006 54.9746 18.7006C53.9492 18.7006 53.1703 18.4671 52.6477 18.0001C52.1252 17.5331 51.9871 16.8122 52.2435 15.8173L54.2253 7.82747C54.3929 7.13712 54.5506 6.6092 54.6985 6.25387C54.8464 5.89854 55.0831 5.5229 55.4183 5.11681C55.7535 4.71072 56.2071 4.43661 56.7888 4.27417C57.3606 4.11174 58.0903 4.03052 58.9678 4.03052H64.4694C65.1202 4.03052 65.6723 4.23356 66.116 4.64981C66.5597 5.0762 66.7766 5.66504 66.7766 6.44676V16.2437Z" fill="#0E1821"/>
<path d="M84.8496 15.7664C84.8496 17.7258 84.0707 18.7106 82.5227 18.7106C81.5762 18.7106 80.955 18.3349 80.6395 17.5735L80.3536 16.8933C80.3339 16.8933 80.3043 16.8832 80.2747 16.873C80.2451 16.8628 80.2155 16.8527 80.1958 16.8527C79.062 18.1217 77.4746 18.7613 75.4238 18.7613C73.2842 18.7613 71.5686 18.1014 70.2672 16.7715C68.9657 15.4415 68.3149 13.675 68.3149 11.4517C68.3149 9.24863 68.9755 7.40092 70.3066 5.88823C71.6376 4.37554 73.4518 3.62427 75.759 3.62427C77.7309 3.62427 79.2 4.29432 80.186 5.63442C80.2057 5.63442 80.2353 5.62427 80.2648 5.61412C80.2944 5.60396 80.324 5.59381 80.3437 5.59381L80.6888 4.88315C81.0635 4.13188 81.7142 3.7461 82.641 3.7461C84.1101 3.7461 84.8397 4.64965 84.8397 6.46691V15.7664H84.8496ZM74.5561 8.98467C74.0631 9.57351 73.8166 10.3045 73.8166 11.1674C73.8166 12.1623 74.0533 12.9441 74.5265 13.5126C74.9998 14.0811 75.6604 14.3654 76.5182 14.3654C77.3365 14.3654 77.9873 14.071 78.4802 13.4923C78.9732 12.9136 79.2197 12.1319 79.2197 11.1674C79.2197 10.2842 78.9732 9.5532 78.4802 8.96437C77.9873 8.38569 77.3365 8.09127 76.5182 8.09127C75.6998 8.09127 75.0491 8.39584 74.5561 8.98467Z" fill="#0E1821"/>
<path d="M86.8707 6.25385C86.8707 5.52289 87.1172 4.91375 87.6102 4.44674C88.1032 3.96959 88.7736 3.73608 89.6413 3.73608C90.5188 3.73608 91.1991 3.95943 91.6822 4.41629C92.1653 4.87314 92.402 5.48228 92.402 6.264V9.20817H96.3656V6.264C96.3656 5.53304 96.612 4.9239 97.105 4.4569C97.598 3.97974 98.2882 3.74624 99.1657 3.74624C100.043 3.74624 100.724 3.96959 101.197 4.42644C101.67 4.88329 101.907 5.49243 101.907 6.27415V16.1117C101.907 16.9137 101.67 17.533 101.197 17.9899C100.724 18.4467 100.053 18.6701 99.1657 18.6701C98.2882 18.6701 97.598 18.4264 97.105 17.9391C96.612 17.4518 96.3656 16.8427 96.3656 16.1117V12.9747H92.402V16.1117C92.402 16.9137 92.1653 17.533 91.6921 17.9899C91.2188 18.4467 90.5484 18.6701 89.661 18.6701C88.7736 18.6701 88.0933 18.4264 87.6003 17.9391C87.1073 17.4518 86.8608 16.8427 86.8608 16.1117V6.25385H86.8707Z" fill="#0E1821"/>
<path d="M110.356 7.01523C109.597 7.80711 108.67 8.20304 107.586 8.20304C106.402 8.20304 105.456 7.81726 104.746 7.03553C104.036 6.25381 103.681 5.26904 103.681 4.07107C103.681 2.90355 104.056 1.92893 104.815 1.15736C105.574 0.385787 106.491 0 107.586 0C108.69 0 109.617 0.385787 110.366 1.16751C111.115 1.94924 111.5 2.91371 111.5 4.08122C111.5 5.24873 111.115 6.22335 110.356 7.01523ZM109.725 1.80711C109.163 1.17766 108.443 0.873096 107.586 0.873096C106.738 0.873096 106.018 1.18782 105.436 1.81726C104.854 2.4467 104.559 3.19797 104.559 4.08122C104.559 5.00508 104.835 5.77665 105.397 6.39594C105.959 7.02538 106.688 7.32995 107.576 7.32995C108.453 7.32995 109.163 7.01523 109.725 6.39594C110.287 5.7665 110.563 4.99492 110.563 4.08122C110.573 3.18782 110.297 2.4264 109.725 1.80711ZM107.477 4.61929C107.438 4.53807 107.418 4.47716 107.418 4.45685C107.418 4.36548 107.467 4.29442 107.556 4.24365C107.921 4.04061 108.098 3.7665 108.098 3.41117C108.098 3.24873 108.059 3.11675 107.97 3.00508C107.891 2.8934 107.763 2.83249 107.595 2.83249C107.438 2.83249 107.319 2.8934 107.221 3.00508C107.132 3.1269 107.083 3.26904 107.083 3.44162V5.70558C107.083 6.09137 106.856 6.28426 106.412 6.28426C106.225 6.28426 106.067 6.22335 105.949 6.11167C105.821 6 105.762 5.86802 105.762 5.70558V3.72589C105.762 3.17766 105.9 2.70051 106.186 2.29442C106.471 1.87817 106.935 1.67513 107.566 1.67513C108.108 1.67513 108.552 1.83756 108.917 2.15228C109.272 2.467 109.459 2.8731 109.459 3.38071C109.459 3.88832 109.272 4.30457 108.887 4.64975L109.429 5.64467C109.459 5.72589 109.479 5.80711 109.479 5.86802C109.479 6.18274 109.242 6.33502 108.759 6.33502C108.483 6.33502 108.286 6.2335 108.177 6.03046L107.477 4.61929Z" fill="#0E1821"/>
</g>
<defs>
<clipPath id="clip0_801_60851">
<rect width="111" height="24" fill="white" transform="translate(0.5)"/>
</clipPath>
</defs>
</svg>
