<svg width="209" height="34" viewBox="0 0 209 34" fill="none" xmlns="http://www.w3.org/2000/svg">
<path d="M38.4674 27.0202L11.0449 33.8773C8.88827 34.417 6.6775 33.1252 6.12707 31.0106L0.13545 7.96192C-0.414985 5.84728 0.902449 3.67956 3.05005 3.13984L9.26726 1.58262C10.1606 1.36143 11.5412 1.55608 12.3262 2.01617L14.3655 3.20178C15.1596 3.66187 16.5402 3.85652 17.4245 3.63532L31.4741 0.122726C33.6308 -0.416993 35.8415 0.874793 36.392 2.98943L41.382 22.1981C41.9324 24.3127 40.624 26.4805 38.4674 27.0202Z" fill="#008FF3"/>
<path d="M42.3835 26.0559L18.8773 31.9309C16.7206 32.4706 14.5099 31.1788 13.9594 29.0642L11.0809 17.9867C10.7381 16.6772 11.3156 14.8899 12.3533 14.0052L22.613 5.30772C23.4522 4.59104 25.0313 4.20174 26.1141 4.43178L39.3697 7.25424C40.7142 7.53738 42.0858 8.84686 42.4287 10.1475L45.3072 21.225C45.8576 23.3396 44.5402 25.5162 42.3835 26.0559Z" fill="#008FF3"/>
<path d="M13.9694 29.0645L11.8939 21.0926L11.0817 17.987C10.7388 16.6775 11.3163 14.8903 12.3541 14.0055L3.62793 21.4111L6.12757 31.0111C6.67803 33.1257 8.8889 34.4086 11.0456 33.8778L11.1449 33.8512C13.2475 33.2761 14.5108 31.1526 13.9694 29.0645Z" fill="#0EE0BF"/>
<path d="M12.3082 14.0571C12.3262 14.0394 12.3443 14.0217 12.3623 14.004L22.6221 5.30654C23.4613 4.58987 25.0404 4.20056 26.1232 4.43061L37.4026 6.83722L36.401 2.99726C35.8506 0.882619 33.6398 -0.400319 31.4832 0.130552L17.4245 3.64315C16.5312 3.86435 15.1506 3.66969 14.3655 3.2096L12.3262 2.02399C11.5322 1.5639 10.1516 1.36925 9.26725 1.59045L3.05005 3.13882C0.902449 3.67854 -0.414985 5.84626 0.13545 7.9609L3.62755 21.4096L12.3533 14.004C12.3353 14.0217 12.3262 14.0394 12.3082 14.0571Z" fill="#0EF3BF"/>
<path d="M35.7603 13.3767L38.1156 12.7928C38.5487 12.6866 38.8104 12.2531 38.7021 11.8284L37.4027 6.83817L32.981 5.9003L34.7767 12.8193C34.885 13.2352 35.3272 13.4918 35.7603 13.3767Z" fill="#F32100"/>
<path d="M64.3919 30.3031C64.3919 32.577 62.9932 33.7184 60.1959 33.7184C57.3986 33.7184 56 32.577 56 30.3031L56.0451 19.1548C56.0451 17.8277 56.0722 16.8279 56.1354 16.1554C56.2256 15.3237 56.37 14.5009 56.5595 13.6869C56.749 12.8729 57.137 11.8819 57.7145 10.7317C58.292 9.58147 59.0139 8.57282 59.853 7.73227C60.7013 6.88288 61.9104 6.15735 63.4805 5.538C65.0506 4.91866 66.8373 4.61783 68.8495 4.61783C72.4589 4.61783 75.3374 5.64418 77.494 7.68803C79.6416 9.73189 80.7245 12.3155 80.7245 15.4211C80.7245 18.7744 79.6597 21.4199 77.5211 23.3399C75.3825 25.2687 72.7838 26.2243 69.7067 26.2243C67.5682 26.2243 65.8266 25.8084 64.4821 24.9767H64.437C64.437 25.0033 64.4189 25.021 64.3919 25.021V30.3031ZM71.6287 18.6682C72.3957 17.7923 72.7838 16.7482 72.7838 15.5538C72.7838 14.1381 72.4318 13.0233 71.728 12.2093C71.0242 11.3953 70.0045 10.9883 68.6871 10.9883C67.4599 10.9883 66.4763 11.413 65.7183 12.2624C64.9604 13.1118 64.5904 14.2089 64.5904 15.5626C64.5904 16.8279 64.9333 17.8808 65.6281 18.7213C66.3229 19.5707 67.3245 19.9954 68.642 19.9954C69.8601 19.9865 70.8527 19.5442 71.6287 18.6682Z" fill="white"/>
<path d="M86.3553 23.2597C84.2709 21.1628 83.2241 18.5527 83.2241 15.4117C83.2241 12.3326 84.2438 9.74021 86.2831 7.62557C88.3224 5.51978 91.0204 4.45804 94.3862 4.45804C97.5264 4.45804 100.107 5.31628 102.137 7.02391C104.159 8.73155 105.178 10.9435 105.178 13.651C105.178 15.5886 104.33 16.5619 102.634 16.5619H91.3814C91.4716 18.9951 93.0778 20.2072 96.1819 20.2072C97.5354 20.2072 99.1055 19.9152 100.892 19.3313C101.831 19.0216 102.625 19.2163 103.274 19.9064C103.915 20.5965 104.24 21.4548 104.24 22.4723C104.24 23.3924 103.789 24.1622 102.877 24.7816C101.217 25.861 98.8077 26.4007 95.6676 26.4007C91.5438 26.4007 88.4397 25.3567 86.3553 23.2597ZM91.607 12.6423H97.5896C97.1835 11.0762 96.1909 10.2888 94.6208 10.2888C93.0868 10.2888 92.0762 11.0674 91.607 12.6423Z" fill="white"/>
<path d="M130.489 22.4291C130.489 23.5704 130.146 24.4641 129.451 25.11C128.757 25.7558 127.728 26.0832 126.347 26.0832C124.931 26.0832 123.884 25.7558 123.189 25.0923C122.494 24.4287 122.151 23.5439 122.151 22.4379V11.3515H116.403V22.4379C116.403 23.5793 116.061 24.4729 115.366 25.1188C114.671 25.7647 113.642 26.0921 112.262 26.0921C110.881 26.0921 109.843 25.7647 109.158 25.1011C108.472 24.4375 108.12 23.5527 108.12 22.4467L108.075 8.68834C108.075 6.4056 109.248 5.27307 111.603 5.27307H127.006C128.044 5.27307 128.883 5.54735 129.524 6.10477C130.164 6.66218 130.489 7.52043 130.489 8.68834V22.4291Z" fill="white"/>
<path d="M155.367 22.6675C155.367 24.9148 153.987 26.0385 151.226 26.0385C148.491 26.0385 147.129 24.9148 147.129 22.6675V11.2538H145.243C144.548 11.2538 144.115 11.6696 143.926 12.5013L141.237 23.9062C140.858 25.4192 139.666 26.1712 137.654 26.1712C136.111 26.1712 134.956 25.8439 134.171 25.1803C133.386 24.5167 133.179 23.4815 133.558 22.0658L136.526 10.661C136.779 9.67884 137.014 8.92677 137.23 8.42244C137.447 7.91812 137.808 7.3784 138.313 6.80329C138.818 6.23702 139.495 5.83002 140.361 5.59998C141.227 5.36994 142.319 5.25491 143.637 5.25491H151.875C152.85 5.25491 153.671 5.54689 154.348 6.13085C155.024 6.71481 155.358 7.5642 155.358 8.67018V22.6675H155.367Z" fill="white"/>
<path d="M182.456 21.9684C182.456 24.7732 181.292 26.1711 178.973 26.1711C177.556 26.1711 176.617 25.6314 176.148 24.552L175.724 23.5787C175.697 23.5787 175.652 23.5699 175.607 23.5522C175.562 23.5345 175.517 23.5256 175.489 23.5256C173.793 25.3394 171.411 26.2508 168.334 26.2508C165.13 26.2508 162.559 25.304 160.61 23.4106C158.661 21.5172 157.686 18.9867 157.686 15.8103C157.686 12.6693 158.679 10.0238 160.673 7.86493C162.667 5.70606 165.392 4.63547 168.848 4.63547C171.799 4.63547 174.01 5.59104 175.489 7.50217C175.517 7.50217 175.562 7.49332 175.607 7.47563C175.652 7.45793 175.697 7.44908 175.724 7.44908L176.238 6.43158C176.807 5.35214 177.781 4.81242 179.162 4.81242C181.364 4.81242 182.456 6.10421 182.456 8.68778V21.9684ZM167.025 12.2977C166.285 13.1471 165.915 14.1823 165.915 15.4121C165.915 16.8278 166.267 17.9426 166.971 18.7566C167.675 19.5706 168.677 19.9776 169.958 19.9776C171.185 19.9776 172.16 19.5618 172.9 18.7301C173.64 17.8984 174.01 16.7924 174.01 15.4033C174.01 14.1381 173.64 13.094 172.9 12.2623C172.16 11.4306 171.176 11.0148 169.958 11.0148C168.749 11.0236 167.765 11.4483 167.025 12.2977Z" fill="white"/>
<path d="M185.488 8.39581C185.488 7.35177 185.858 6.48468 186.598 5.81224C187.338 5.13096 188.348 4.79474 189.639 4.79474C190.956 4.79474 191.976 5.12211 192.698 5.768C193.419 6.4139 193.78 7.28983 193.78 8.40466V12.6074H199.718V8.39581C199.718 7.35177 200.088 6.48468 200.828 5.81224C201.568 5.13096 202.596 4.79474 203.914 4.79474C205.231 4.79474 206.242 5.12211 206.955 5.768C207.659 6.4139 208.01 7.28983 208.01 8.40466V22.4462C208.01 23.5876 207.659 24.4812 206.955 25.1271C206.251 25.773 205.231 26.1004 203.914 26.1004C202.596 26.1004 201.568 25.7553 200.828 25.0652C200.088 24.375 199.718 23.4991 199.718 22.4551V17.978H193.78V22.4551C193.78 23.5964 193.428 24.4901 192.725 25.1359C192.021 25.7818 191.001 26.1092 189.684 26.1092C188.366 26.1092 187.338 25.7641 186.598 25.074C185.858 24.3839 185.488 23.5079 185.488 22.4639V8.39581Z" fill="white"/>
</svg>
