<svg width="245" height="40" viewBox="0 0 245 40" fill="none" xmlns="http://www.w3.org/2000/svg">
<path d="M45.2981 31.7885L12.9975 39.8556C10.4573 40.4906 7.85325 38.9708 7.2049 36.483L0.147466 9.36697C-0.500883 6.87916 1.0509 4.3289 3.58053 3.69393L10.9037 1.86191C11.9559 1.60168 13.5821 1.83068 14.5068 2.37196L16.9089 3.7668C17.8442 4.30808 19.4704 4.53708 20.512 4.27685L37.0608 0.144384C39.6011 -0.49058 42.2051 1.02917 42.8535 3.51698L48.7311 26.1154C49.3795 28.6032 47.8383 31.1535 45.2981 31.7885Z" fill="#008FF3"/>
<path d="M49.9108 30.654L22.2231 37.5658C19.6829 38.2007 17.0789 36.681 16.4305 34.1932L13.04 21.1608C12.6361 19.6202 13.3163 17.5176 14.5386 16.4767L26.6234 6.24437C27.6119 5.40123 29.4719 4.94322 30.7473 5.21386L46.3608 8.53441C47.9445 8.8675 49.5601 10.4081 49.964 11.9382L53.3545 24.9706C54.0029 27.4584 52.4511 30.0191 49.9108 30.654Z" fill="#008FF3"/>
<path d="M16.442 34.1936L13.9973 24.8148L13.0407 21.1612C12.6368 19.6206 13.317 17.518 14.5394 16.4771L4.26099 25.1896L7.20527 36.4836C7.85365 38.9714 10.4578 40.4807 12.9982 39.8562L13.1151 39.825C15.5917 39.1484 17.0798 36.6502 16.442 34.1936Z" fill="#0EE0BF"/>
<path d="M14.4855 16.5377C14.5068 16.5168 14.5281 16.496 14.5493 16.4752L26.6341 6.24293C27.6226 5.39978 29.4826 4.94177 30.758 5.21241L44.0439 8.04373L42.8641 3.52612C42.2157 1.03831 39.6117 -0.471029 37.0715 0.153526L20.512 4.28599C19.4598 4.54622 17.8336 4.31722 16.9089 3.77594L14.5068 2.3811C13.5715 1.83982 11.9453 1.61082 10.9037 1.87105L3.58053 3.69267C1.0509 4.32763 -0.500883 6.87789 0.147466 9.3657L4.26076 25.1877L14.5387 16.4752C14.5174 16.496 14.5068 16.5168 14.4855 16.5377Z" fill="#0EF3BF"/>
<path d="M42.1095 15.7373L44.8837 15.0503C45.3939 14.9254 45.7021 14.4154 45.5746 13.9157L44.044 8.04491L38.8357 6.94153L40.9509 15.0816C41.0784 15.5708 41.5993 15.8727 42.1095 15.7373Z" fill="#F32100"/>
<path d="M75.8341 35.6508C75.8341 38.3259 74.1867 39.6687 70.8918 39.6687C67.5969 39.6687 65.9495 38.3259 65.9495 35.6508L66.0026 22.5351C66.0026 20.9737 66.0345 19.7975 66.1089 19.0064C66.2152 18.0279 66.3852 17.0599 66.6084 16.1022C66.8316 15.1446 67.2887 13.9787 67.9689 12.6255C68.6491 11.2723 69.4994 10.0857 70.4879 9.09679C71.487 8.0975 72.9112 7.24395 74.7606 6.5153C76.61 5.78665 78.7145 5.43274 81.0847 5.43274C85.3362 5.43274 88.7267 6.64021 91.267 9.04474C93.7966 11.4493 95.072 14.4888 95.072 18.1424C95.072 22.0875 93.8178 25.1999 91.2988 27.4587C88.7798 29.7279 85.7188 30.8521 82.0944 30.8521C79.5754 30.8521 77.5241 30.3629 75.9404 29.3844H75.8873C75.8873 29.4156 75.866 29.4364 75.8341 29.4364V35.6508ZM84.3583 21.9626C85.2618 20.9321 85.7188 19.7038 85.7188 18.2986C85.7188 16.6331 85.3043 15.3215 84.4752 14.3639C83.6462 13.4062 82.4452 12.9274 80.8934 12.9274C79.4479 12.9274 78.2893 13.427 77.3965 14.4263C76.5037 15.4256 76.068 16.7164 76.068 18.309C76.068 19.7975 76.4718 21.0362 77.2903 22.0251C78.1087 23.0243 79.2884 23.524 80.8402 23.524C82.2751 23.5136 83.4443 22.9931 84.3583 21.9626Z" fill="#0E1821"/>
<path d="M101.704 27.3644C99.249 24.8974 98.0161 21.8267 98.0161 18.1314C98.0161 14.509 99.2172 11.4591 101.619 8.97126C104.021 6.49386 107.199 5.24475 111.164 5.24475C114.863 5.24475 117.902 6.25445 120.294 8.26343C122.675 10.2724 123.876 12.8747 123.876 16.0599C123.876 18.3396 122.877 19.4846 120.878 19.4846H107.624C107.731 22.3471 109.623 23.7732 113.279 23.7732C114.873 23.7732 116.723 23.4297 118.827 22.7427C119.932 22.3784 120.868 22.6074 121.633 23.4193C122.388 24.2312 122.77 25.2409 122.77 26.438C122.77 27.5205 122.239 28.4261 121.165 29.1548C119.21 30.4247 116.372 31.0597 112.673 31.0597C107.816 31.0597 104.159 29.8314 101.704 27.3644ZM107.89 14.8733H114.937C114.459 13.0309 113.29 12.1044 111.44 12.1044C109.633 12.1044 108.443 13.0205 107.89 14.8733Z" fill="#0E1821"/>
<path d="M153.689 26.3871C153.689 27.7299 153.285 28.7812 152.467 29.5411C151.649 30.301 150.437 30.6861 148.811 30.6861C147.142 30.6861 145.909 30.301 145.091 29.5203C144.272 28.7396 143.868 27.6987 143.868 26.3975V13.3548H137.098V26.3975C137.098 27.7403 136.694 28.7917 135.876 29.5515C135.057 30.3114 133.845 30.6965 132.219 30.6965C130.593 30.6965 129.371 30.3114 128.563 29.5307C127.755 28.75 127.341 27.7091 127.341 26.4079L127.288 10.2216C127.288 7.536 128.669 6.20361 131.443 6.20361H149.587C150.809 6.20361 151.797 6.5263 152.552 7.18208C153.307 7.83786 153.689 8.84756 153.689 10.2216V26.3871Z" fill="#0E1821"/>
<path d="M182.993 26.6676C182.993 29.3116 181.366 30.6335 178.114 30.6335C174.894 30.6335 173.289 29.3116 173.289 26.6676V13.2397H171.067C170.249 13.2397 169.739 13.7289 169.515 14.7074L166.348 28.1249C165.902 29.9049 164.499 30.7897 162.129 30.7897C160.311 30.7897 158.951 30.4045 158.026 29.6238C157.101 28.8432 156.857 27.6253 157.303 25.9598L160.8 12.5423C161.098 11.3869 161.374 10.5021 161.629 9.90876C161.884 9.31543 162.309 8.68047 162.904 8.00387C163.5 7.33768 164.297 6.85885 165.317 6.58821C166.337 6.31757 167.624 6.18225 169.175 6.18225H178.879C180.027 6.18225 180.994 6.52576 181.792 7.21277C182.589 7.89978 182.982 8.89906 182.982 10.2002V26.6676H182.993Z" fill="#0E1821"/>
<path d="M214.9 25.8452C214.9 29.1449 213.529 30.7896 210.797 30.7896C209.128 30.7896 208.023 30.1546 207.47 28.8847L206.971 27.7397C206.939 27.7397 206.886 27.7293 206.833 27.7084C206.78 27.6876 206.726 27.6772 206.694 27.6772C204.696 29.8111 201.89 30.8833 198.266 30.8833C194.493 30.8833 191.464 29.7695 189.168 27.5419C186.872 25.3143 185.724 22.3373 185.724 18.6004C185.724 14.9051 186.893 11.7927 189.242 9.25286C191.591 6.71301 194.801 5.45349 198.872 5.45349C202.347 5.45349 204.951 6.57769 206.694 8.82608C206.726 8.82608 206.78 8.81567 206.833 8.79486C206.886 8.77404 206.939 8.76363 206.971 8.76363L207.577 7.56657C208.246 6.29664 209.394 5.66168 211.02 5.66168C213.614 5.66168 214.9 7.18142 214.9 10.2209V25.8452ZM196.725 14.4679C195.853 15.4672 195.417 16.6851 195.417 18.1319C195.417 19.7974 195.832 21.109 196.661 22.0666C197.49 23.0243 198.67 23.5031 200.179 23.5031C201.625 23.5031 202.773 23.0139 203.644 22.0354C204.516 21.0569 204.951 19.7558 204.951 18.1215C204.951 16.633 204.516 15.4047 203.644 14.4263C202.773 13.4478 201.614 12.9585 200.179 12.9585C198.755 12.969 197.596 13.4686 196.725 14.4679Z" fill="#0E1821"/>
<path d="M218.471 9.87743C218.471 8.64914 218.907 7.62903 219.778 6.83793C220.65 6.03642 221.84 5.64087 223.36 5.64087C224.912 5.64087 226.113 6.02601 226.963 6.78589C227.814 7.54576 228.239 8.57627 228.239 9.88784V14.8322H235.232V9.87743C235.232 8.64914 235.668 7.62903 236.54 6.83793C237.411 6.03642 238.623 5.64087 240.175 5.64087C241.726 5.64087 242.917 6.02601 243.757 6.78589C244.586 7.54576 245 8.57627 245 9.88784V26.4073C245 27.7501 244.586 28.8014 243.757 29.5613C242.928 30.3212 241.726 30.7063 240.175 30.7063C238.623 30.7063 237.411 30.3004 236.54 29.4884C235.668 28.6765 235.232 27.646 235.232 26.4177V21.1506H228.239V26.4177C228.239 27.7605 227.824 28.8118 226.995 29.5717C226.166 30.3316 224.965 30.7167 223.413 30.7167C221.861 30.7167 220.65 30.3108 219.778 29.4988C218.907 28.6869 218.471 27.6564 218.471 26.4281V9.87743Z" fill="#0E1821"/>
</svg>
