<svg width="0" height="0" class="hidden">
  <symbol xmlns="http://www.w3.org/2000/svg" viewBox="0 0 24 24" id="ic_arr_hor">
    <path d="M10 19L3 12M3 12L10 5M3 12L21 12" stroke="currentColor" stroke-width="2" stroke-linecap="round" stroke-linejoin="round" fill="none"></path>
  </symbol>
  <symbol xmlns="http://www.w3.org/2000/svg" viewBox="0 0 48 48" id="ic_arr_ver">
    <path d="M38 18L24 32L10 18" stroke="currentColor" stroke-width="2" stroke-linecap="round" stroke-linejoin="round" fill="none"></path>
  </symbol>
  <symbol xmlns="http://www.w3.org/2000/svg" viewBox="0 0 25 24" id="ic_articles">
    <path d="M12.5 6.25278V19.2528M12.5 6.25278C11.3321 5.47686 9.74649 5 8 5C6.25351 5 4.66789 5.47686 3.5 6.25278V19.2528C4.66789 18.4769 6.25351 18 8 18C9.74649 18 11.3321 18.4769 12.5 19.2528M12.5 6.25278C13.6679 5.47686 15.2535 5 17 5C18.7465 5 20.3321 5.47686 21.5 6.25278V19.2528C20.3321 18.4769 18.7465 18 17 18C15.2535 18 13.6679 18.4769 12.5 19.2528" stroke="currentColor" stroke-width="1.5" stroke-linecap="round" stroke-linejoin="round" fill="none"></path>
  </symbol>
  <symbol xmlns="http://www.w3.org/2000/svg" viewBox="0 0 24 24" id="ic_bookmark">
    <path d="M5 5C5 3.89543 5.89543 3 7 3H17C18.1046 3 19 3.89543 19 5V21L12 17.5L5 21V5Z" stroke="currentColor" stroke-width="2" stroke-linecap="round" stroke-linejoin="round" fill="none"></path>
  </symbol>
  <symbol xmlns="http://www.w3.org/2000/svg" viewBox="0 0 24 24" id="ic_buy">
    <path d="M3 3H5L5.4 5M7 13H17L21 5H5.4M7 13L5.4 5M7 13L4.70711 15.2929C4.07714 15.9229 4.52331 17 5.41421 17H17M17 17C15.8954 17 15 17.8954 15 19C15 20.1046 15.8954 21 17 21C18.1046 21 19 20.1046 19 19C19 17.8954 18.1046 17 17 17ZM9 19C9 20.1046 8.10457 21 7 21C5.89543 21 5 20.1046 5 19C5 17.8954 5.89543 17 7 17C8.10457 17 9 17.8954 9 19Z" stroke="currentColor" stroke-width="1.5" stroke-linecap="round" stroke-linejoin="round" fill="none"></path>
  </symbol>
  <symbol xmlns="http://www.w3.org/2000/svg" viewBox="0 0 20 20" id="ic_calendar">
    <path fill-rule="evenodd" clip-rule="evenodd" d="M6 2.00012C5.44772 2.00012 5 2.44784 5 3.00012V4.00012H4C2.89543 4.00012 2 4.89555 2 6.00012V16.0001C2 17.1047 2.89543 18.0001 4 18.0001H16C17.1046 18.0001 18 17.1047 18 16.0001V6.00012C18 4.89555 17.1046 4.00012 16 4.00012H15V3.00012C15 2.44784 14.5523 2.00012 14 2.00012C13.4477 2.00012 13 2.44784 13 3.00012V4.00012H7V3.00012C7 2.44784 6.55228 2.00012 6 2.00012ZM6 7.00012C5.44772 7.00012 5 7.44784 5 8.00012C5 8.55241 5.44772 9.00012 6 9.00012H14C14.5523 9.00012 15 8.55241 15 8.00012C15 7.44784 14.5523 7.00012 14 7.00012H6Z" fill="currentColor"></path>
  </symbol>
  <symbol xmlns="http://www.w3.org/2000/svg" viewBox="0 0 16 12" id="ic_check">
    <path d="M1 7L5 11L15 1" stroke="currentColor" stroke-width="2" stroke-linecap="round" stroke-linejoin="round" fill="none"></path>
  </symbol>
  <symbol xmlns="http://www.w3.org/2000/svg" viewBox="0 0 24 24" id="ic_close">
    <path d="M10 14L12 12M12 12L14 10M12 12L10 10M12 12L14 14M21 12C21 16.9706 16.9706 21 12 21C7.02944 21 3 16.9706 3 12C3 7.02944 7.02944 3 12 3C16.9706 3 21 7.02944 21 12Z" stroke="currentColor" stroke-width="2" stroke-linecap="round" stroke-linejoin="round" fill="none"></path>
  </symbol>
  <symbol xmlns="http://www.w3.org/2000/svg" viewBox="0 0 24 24" id="ic_close2">
    <path d="M6 18L18 6M6 6L18 18" stroke="currentColor" stroke-width="1.5" stroke-linecap="round" stroke-linejoin="round" fill="none"></path>
  </symbol>
  <symbol xmlns="http://www.w3.org/2000/svg" viewBox="0 0 24 24" id="ic_comments">
    <path d="M8 12H8.01M12 12H12.01M16 12H16.01M21 12C21 16.4183 16.9706 20 12 20C10.4607 20 9.01172 19.6565 7.74467 19.0511L3 20L4.39499 16.28C3.51156 15.0423 3 13.5743 3 12C3 7.58172 7.02944 4 12 4C16.9706 4 21 7.58172 21 12Z" stroke="currentColor" stroke-width="1.5" stroke-linecap="round" stroke-linejoin="round" fill="none"></path>
  </symbol>
  <symbol xmlns="http://www.w3.org/2000/svg" viewBox="0 0 20 19" id="ic_dark_mode">
    <path d="M19.2514 12.9515C18.0462 13.4965 16.7085 13.7999 15.2999 13.7999C9.99797 13.7999 5.6999 9.50183 5.6999 4.19989C5.6999 2.79113 6.00335 1.45324 6.54844 0.248016C3.21755 1.75432 0.899902 5.10633 0.899902 8.99966C0.899902 14.3016 5.19797 18.5997 10.4999 18.5997C14.3931 18.5997 17.745 16.2822 19.2514 12.9515Z" fill="currentColor"></path>
  </symbol>
  <symbol xmlns="http://www.w3.org/2000/svg" viewBox="0 0 24 24" id="ic_double_arr_hor">
    <path d="M13 5L20 12L13 19M5 5L12 12L5 19" stroke="currentColor" stroke-width="1.5" stroke-linecap="round" stroke-linejoin="round" fill="none"></path>
  </symbol>
  <symbol xmlns="http://www.w3.org/2000/svg" viewBox="0 0 24 24" id="ic_email">
    <path d="M3 8L10.8906 13.2604C11.5624 13.7083 12.4376 13.7083 13.1094 13.2604L21 8M5 19H19C20.1046 19 21 18.1046 21 17V7C21 5.89543 20.1046 5 19 5H5C3.89543 5 3 5.89543 3 7V17C3 18.1046 3.89543 19 5 19Z" stroke="currentColor" stroke-width="2" stroke-linecap="round" stroke-linejoin="round" fill="none"></path>
  </symbol>
  <symbol xmlns="http://www.w3.org/2000/svg" viewBox="0 0 24 24" id="ic_eye">
    <path d="M14.9998 12C14.9998 13.6569 13.6566 15 11.9998 15C10.3429 15 8.99976 13.6569 8.99976 12C8.99976 10.3431 10.3429 9 11.9998 9C13.6566 9 14.9998 10.3431 14.9998 12Z" stroke="currentColor" stroke-width="1.5" stroke-linecap="round" stroke-linejoin="round" fill="none"></path>
    <path d="M2.45801 12C3.73228 7.94288 7.52257 5 12.0002 5C16.4778 5 20.2681 7.94291 21.5424 12C20.2681 16.0571 16.4778 19 12.0002 19C7.52256 19 3.73226 16.0571 2.45801 12Z" stroke="currentColor" stroke-width="1.5" stroke-linecap="round" stroke-linejoin="round" fill="none"></path>
  </symbol>
  <symbol xmlns="http://www.w3.org/2000/svg" viewBox="0 0 56 56" id="ic_file">
    <path d="M18.6667 16.3333V35C18.6667 37.5773 20.756 39.6667 23.3334 39.6667H37.3334M18.6667 16.3333V11.6667C18.6667 9.08934 20.756 7 23.3334 7H34.0335C34.6524 7 35.2459 7.24583 35.6835 7.68342L45.9833 17.9832C46.4209 18.4208 46.6667 19.0143 46.6667 19.6332V35C46.6667 37.5773 44.5774 39.6667 42 39.6667H37.3334M18.6667 16.3333H11.3334C10.2288 16.3333 9.33337 17.2288 9.33337 18.3333V44.3333C9.33337 46.9107 11.4227 49 14 49H35.3334C36.4379 49 37.3334 48.1046 37.3334 47V39.6667" stroke="currentColor" stroke-width="3" stroke-linecap="round" stroke-linejoin="round" fill="none"></path>
  </symbol>
  <symbol xmlns="http://www.w3.org/2000/svg" viewBox="0 0 25 24" id="ic_file2">
    <path d="M15.6716 7L9.08579 13.5858C8.30474 14.3668 8.30474 15.6332 9.08579 16.4142C9.86684 17.1953 11.1332 17.1953 11.9142 16.4142L18.3284 9.82843C19.8905 8.26633 19.8905 5.73367 18.3284 4.17157C16.7663 2.60948 14.2337 2.60948 12.6716 4.17157L6.25736 10.7574C3.91421 13.1005 3.91421 16.8995 6.25736 19.2426C8.6005 21.5858 12.3995 21.5858 14.7426 19.2426L21 13" stroke="currentColor" stroke-width="1.5" stroke-linecap="round" stroke-linejoin="round" fill="none"></path>
  </symbol>
  <symbol xmlns="http://www.w3.org/2000/svg" viewBox="0 0 24 24" id="ic_fire">
    <path d="M17.6569 18.6568C14.5327 21.781 9.46734 21.781 6.34315 18.6568C4.78105 17.0947 4 15.0474 4 13C4 10.9526 4.78105 8.90523 6.34315 7.34313C6.34315 7.34313 7.00004 8.99995 9.00004 9.99995C9.00004 7.99995 9.50004 4.99996 11.9859 3C14 5 16.0912 5.77745 17.6569 7.34313C19.219 8.90523 20 10.9526 20 13C20 15.0474 19.2189 17.0947 17.6569 18.6568Z" stroke="currentColor" stroke-width="1.5" stroke-linecap="round" stroke-linejoin="round" fill="none"></path>
    <path d="M9.87868 16.1213C11.0503 17.2928 12.9497 17.2928 14.1213 16.1213C14.7071 15.5355 15 14.7677 15 14C15 13.2322 14.7071 12.4644 14.1213 11.8786C13.5392 11.2965 12.7775 11.0037 12.0146 11L10.9999 13.9999L9 14C9.00001 14.7677 9.2929 15.5355 9.87868 16.1213Z" stroke="currentColor" stroke-width="1.5" stroke-linecap="round" stroke-linejoin="round" fill="none"></path>
  </symbol>
  <symbol xmlns="http://www.w3.org/2000/svg" viewBox="0 0 24 24" id="ic_fullscreen">
    <path d="M4 8V4M4 4H8M4 4L9 9M20 8V4M20 4H16M20 4L15 9M4 16V20M4 20H8M4 20L9 15M20 20L15 15M20 20V16M20 20H16" stroke="currentColor" stroke-width="1.5" stroke-linecap="round" stroke-linejoin="round" fill="none"></path>
  </symbol>
  <symbol xmlns="http://www.w3.org/2000/svg" viewBox="0 0 24 24" id="ic_light_mode">
    <path d="M11.9999 2.3999C12.6626 2.3999 13.1999 2.93716 13.1999 3.5999V4.7999C13.1999 5.46264 12.6626 5.9999 11.9999 5.9999C11.3372 5.9999 10.7999 5.46264 10.7999 4.7999V3.5999C10.7999 2.93716 11.3372 2.3999 11.9999 2.3999Z" fill="currentColor"></path>
    <path d="M16.7999 11.9999C16.7999 14.6509 14.6509 16.7999 11.9999 16.7999C9.34894 16.7999 7.1999 14.6509 7.1999 11.9999C7.1999 9.34894 9.34894 7.1999 11.9999 7.1999C14.6509 7.1999 16.7999 9.34894 16.7999 11.9999Z" fill="currentColor"></path>
    <path d="M16.2426 17.9396L17.0911 18.7881C17.5598 19.2567 18.3196 19.2567 18.7882 18.7881C19.2568 18.3195 19.2568 17.5597 18.7882 17.091L17.9397 16.2425C17.471 15.7739 16.7112 15.7739 16.2426 16.2425C15.774 16.7111 15.774 17.4709 16.2426 17.9396Z" fill="currentColor"></path>
    <path d="M18.7881 5.21161C19.2567 5.68024 19.2567 6.44004 18.7881 6.90867L17.9396 7.7572C17.4709 8.22583 16.7111 8.22583 16.2425 7.7572C15.7739 7.28857 15.7739 6.52877 16.2425 6.06014L17.091 5.21161C17.5597 4.74298 18.3195 4.74298 18.7881 5.21161Z" fill="currentColor"></path>
    <path d="M20.3999 13.1999C21.0626 13.1999 21.5999 12.6626 21.5999 11.9999C21.5999 11.3372 21.0626 10.7999 20.3999 10.7999H19.1999C18.5372 10.7999 17.9999 11.3372 17.9999 11.9999C17.9999 12.6626 18.5372 13.1999 19.1999 13.1999H20.3999Z" fill="currentColor"></path>
    <path d="M11.9999 17.9999C12.6626 17.9999 13.1999 18.5372 13.1999 19.1999V20.3999C13.1999 21.0626 12.6626 21.5999 11.9999 21.5999C11.3372 21.5999 10.7999 21.0626 10.7999 20.3999V19.1999C10.7999 18.5372 11.3372 17.9999 11.9999 17.9999Z" fill="currentColor"></path>
    <path d="M6.06028 7.75722C6.5289 8.22585 7.2887 8.22585 7.75733 7.75722C8.22596 7.28859 8.22596 6.52879 7.75733 6.06016L6.9088 5.21164C6.44017 4.74301 5.68038 4.74301 5.21175 5.21164C4.74312 5.68026 4.74312 6.44006 5.21175 6.90869L6.06028 7.75722Z" fill="currentColor"></path>
    <path d="M7.75722 17.9395L6.90869 18.7881C6.44006 19.2567 5.68026 19.2567 5.21164 18.7881C4.74301 18.3194 4.74301 17.5596 5.21164 17.091L6.06016 16.2425C6.52879 15.7738 7.28859 15.7738 7.75722 16.2425C8.22585 16.7111 8.22585 17.4709 7.75722 17.9395Z" fill="currentColor"></path>
    <path d="M4.7999 13.1999C5.46264 13.1999 5.9999 12.6626 5.9999 11.9999C5.9999 11.3372 5.46264 10.7999 4.7999 10.7999H3.5999C2.93716 10.7999 2.3999 11.3372 2.3999 11.9999C2.3999 12.6626 2.93716 13.1999 3.5999 13.1999H4.7999Z" fill="currentColor"></path>
  </symbol>
  <symbol fill="none" xmlns="http://www.w3.org/2000/svg" viewBox="0 0 25 24" id="ic_lightning">
    <path d="M13.5 10V3L4.5 14H11.5L11.5 21L20.5 10L13.5 10Z" stroke="currentColor" stroke-width="1.5" stroke-linecap="round" stroke-linejoin="round"></path>
  </symbol>
  <symbol xmlns="http://www.w3.org/2000/svg" viewBox="0 0 24 24" id="ic_link_arrow">
    <path d="M10.5858 9.17157H14.8284M14.8284 9.17157V13.4142M14.8284 9.17157L9.17157 14.8284M18.364 5.63604C21.8787 9.15076 21.8787 14.8492 18.364 18.364C14.8492 21.8787 9.15076 21.8787 5.63604 18.364C2.12132 14.8492 2.12132 9.15076 5.63604 5.63604C9.15076 2.12132 14.8492 2.12132 18.364 5.63604Z" stroke="currentColor" stroke-width="1.5" stroke-linecap="round" stroke-linejoin="round" fill="none"></path>
  </symbol>
  <symbol xmlns="http://www.w3.org/2000/svg" viewBox="0 0 24 24" id="ic_link_arrow2">
    <path d="M10 6H6C4.89543 6 4 6.89543 4 8V18C4 19.1046 4.89543 20 6 20H16C17.1046 20 18 19.1046 18 18V14M14 4H20M20 4V10M20 4L10 14" stroke="currentColor" stroke-width="2" stroke-linecap="round" stroke-linejoin="round" fill="none"></path>
  </symbol>
  <symbol xmlns="http://www.w3.org/2000/svg" viewBox="0 0 56 56" id="ic_location">
    <path d="M41.1994 38.866C38.5139 41.5514 32.2277 47.8377 29.4099 50.6554C28.6289 51.4365 27.3708 51.4361 26.5897 50.655C23.8162 47.8815 17.6729 41.7382 14.8007 38.866C7.51093 31.5762 7.51093 19.7571 14.8007 12.4673C22.0905 5.17755 33.9096 5.17755 41.1994 12.4673C48.4892 19.7571 48.4892 31.5762 41.1994 38.866Z" stroke="currentColor" stroke-width="3" stroke-linecap="round" stroke-linejoin="round" fill="none"></path>
    <path d="M35 25.6667C35 29.5327 31.866 32.6667 28 32.6667C24.134 32.6667 21 29.5327 21 25.6667C21 21.8007 24.134 18.6667 28 18.6667C31.866 18.6667 35 21.8007 35 25.6667Z" stroke="currentColor" stroke-width="3" stroke-linecap="round" stroke-linejoin="round" fill="none"></path>
  </symbol>
  <symbol xmlns="http://www.w3.org/2000/svg" viewBox="0 0 25 24" id="ic_map">
    <path d="M9.5 20L4.05279 17.2764C3.714 17.107 3.5 16.7607 3.5 16.382V5.61803C3.5 4.87465 4.28231 4.39116 4.94721 4.72361L9.5 7M9.5 20L15.5 17M9.5 20V7M15.5 17L20.0528 19.2764C20.7177 19.6088 21.5 19.1253 21.5 18.382V7.61803C21.5 7.23926 21.286 6.893 20.9472 6.72361L15.5 4M15.5 17V4M15.5 4L9.5 7" stroke="currentColor" stroke-width="1.5" stroke-linecap="round" stroke-linejoin="round" fill="none"></path>
  </symbol>
  <symbol xmlns="http://www.w3.org/2000/svg" viewBox="0 0 25 24" id="ic_menu">
    <path d="M4.5 6H20.5M4.5 12H20.5M4.5 18H20.5" stroke="currentColor" stroke-width="2" stroke-linecap="round" stroke-linejoin="round" fill="none"></path>
  </symbol>
  <symbol xmlns="http://www.w3.org/2000/svg" viewBox="0 0 40 40" id="ic_no">
    <path d="M16.6667 23.3333L20 20M20 20L23.3333 16.6667M20 20L16.6667 16.6667M20 20L23.3333 23.3333M35 20C35 28.2843 28.2843 35 20 35C11.7157 35 5 28.2843 5 20C5 11.7157 11.7157 5 20 5C28.2843 5 35 11.7157 35 20Z" stroke="currentColor" stroke-width="2" stroke-linecap="round" stroke-linejoin="round" fill="none"></path>
  </symbol>
  <symbol xmlns="http://www.w3.org/2000/svg" viewBox="0 0 32 33" id="ic_no2">
    <path fill-rule="evenodd" clip-rule="evenodd" d="M16.0002 29.4643C23.0694 29.4643 28.8002 23.7335 28.8002 16.6643C28.8002 9.59501 23.0694 3.86426 16.0002 3.86426C8.93095 3.86426 3.2002 9.59501 3.2002 16.6643C3.2002 23.7335 8.93095 29.4643 16.0002 29.4643ZM13.9316 12.3329C13.3067 11.708 12.2937 11.708 11.6688 12.3329C11.044 12.9577 11.044 13.9708 11.6688 14.5956L13.7375 16.6643L11.6688 18.7329C11.044 19.3577 11.044 20.3708 11.6688 20.9956C12.2937 21.6205 13.3067 21.6205 13.9316 20.9956L16.0002 18.927L18.0688 20.9956C18.6937 21.6205 19.7067 21.6205 20.3316 20.9956C20.9564 20.3708 20.9564 19.3577 20.3316 18.7329L18.2629 16.6643L20.3316 14.5956C20.9564 13.9708 20.9564 12.9577 20.3316 12.3329C19.7067 11.708 18.6937 11.708 18.0688 12.3329L16.0002 14.4015L13.9316 12.3329Z" fill="currentColor"></path>
  </symbol>
  <symbol xmlns="http://www.w3.org/2000/svg" viewBox="0 0 32 32" id="ic_notice">
    <path d="M12.8846 22.6667H19.1152M15.9999 4V5.33333M24.4852 7.51472L23.5424 8.45753M28 15.9999H26.6667M5.33333 15.9999H4M8.45746 8.45753L7.51465 7.51472M11.2859 20.7141C8.68239 18.1106 8.68239 13.8895 11.2859 11.286C13.8894 8.68249 18.1105 8.68249 20.714 11.286C23.3175 13.8895 23.3175 18.1106 20.714 20.7141L19.9845 21.4435C19.1407 22.2874 18.6666 23.4319 18.6666 24.6253V25.3333C18.6666 26.8061 17.4727 28 15.9999 28C14.5272 28 13.3333 26.8061 13.3333 25.3333V24.6253C13.3333 23.4319 12.8592 22.2874 12.0153 21.4435L11.2859 20.7141Z" stroke="currentColor" stroke-width="2" stroke-linecap="round" stroke-linejoin="round" fill="none"></path>
  </symbol>
  <symbol xmlns="http://www.w3.org/2000/svg" viewBox="0 0 24 24" id="ic_percents">
    <path d="M17.6565 6.34352L6.34277 17.6572" stroke="currentColor" stroke-width="1.5" stroke-linecap="round" stroke-linejoin="round" fill="none"></path>
    <circle cx="8" cy="8" r="2" stroke="currentColor" stroke-width="2" fill="none"></circle>
    <circle cx="16" cy="16" r="2" stroke="currentColor" stroke-width="2" fill="none"></circle>
  </symbol>
  <symbol xmlns="http://www.w3.org/2000/svg" viewBox="0 0 24 24" id="ic_phone">
    <path d="M3 5C3 3.89543 3.89543 3 5 3H8.27924C8.70967 3 9.09181 3.27543 9.22792 3.68377L10.7257 8.17721C10.8831 8.64932 10.6694 9.16531 10.2243 9.38787L7.96701 10.5165C9.06925 12.9612 11.0388 14.9308 13.4835 16.033L14.6121 13.7757C14.8347 13.3306 15.3507 13.1169 15.8228 13.2743L20.3162 14.7721C20.7246 14.9082 21 15.2903 21 15.7208V19C21 20.1046 20.1046 21 19 21H18C9.71573 21 3 14.2843 3 6V5Z" stroke="currentColor" stroke-width="1.5" stroke-linecap="round" stroke-linejoin="round" fill="none"></path>
  </symbol>
  <symbol xmlns="http://www.w3.org/2000/svg" viewBox="0 0 24 24" id="ic_phone2">
    <path d="M21 3L15 9M15 9V4M15 9H20M5 3C3.89543 3 3 3.89543 3 5V6C3 14.2843 9.71573 21 18 21H19C20.1046 21 21 20.1046 21 19V15.7208C21 15.2903 20.7246 14.9082 20.3162 14.7721L15.8228 13.2743C15.3507 13.1169 14.8347 13.3306 14.6121 13.7757L13.4835 16.033C11.0388 14.9308 9.06925 12.9612 7.96701 10.5165L10.2243 9.38787C10.6694 9.16531 10.8831 8.64932 10.7257 8.17721L9.22792 3.68377C9.09181 3.27543 8.70967 3 8.27924 3H5Z" stroke="currentColor" stroke-width="1.5" stroke-linecap="round" stroke-linejoin="round" fill="none"></path>
  </symbol>
  <symbol xmlns="http://www.w3.org/2000/svg" viewBox="0 0 56 56" id="ic_price">
    <path d="M32.9306 21.9831C33.4735 22.6088 34.4209 22.6759 35.0466 22.133C35.6723 21.59 35.7394 20.6426 35.1965 20.0169L32.9306 21.9831ZM23.0695 34.0169C22.5265 33.3912 21.5792 33.3241 20.9535 33.867C20.3277 34.41 20.2606 35.3574 20.8036 35.9831L23.0695 34.0169ZM29.5 16.3333C29.5 15.5049 28.8284 14.8333 28 14.8333C27.1716 14.8333 26.5 15.5049 26.5 16.3333H29.5ZM26.5 39.6666C26.5 40.4951 27.1715 41.1666 28 41.1667C28.8284 41.1667 29.5 40.4951 29.5 39.6667L26.5 39.6666ZM47.5 28C47.5 38.7696 38.7696 47.5 28 47.5V50.5C40.4264 50.5 50.5 40.4264 50.5 28H47.5ZM28 47.5C17.2304 47.5 8.5 38.7696 8.5 28H5.5C5.5 40.4264 15.5736 50.5 28 50.5V47.5ZM8.5 28C8.5 17.2304 17.2304 8.5 28 8.5V5.5C15.5736 5.5 5.5 15.5736 5.5 28H8.5ZM28 8.5C38.7696 8.5 47.5 17.2304 47.5 28H50.5C50.5 15.5736 40.4264 5.5 28 5.5V8.5ZM28 26.5C26.3218 26.5 24.8704 26.0438 23.8823 25.3851C22.8837 24.7194 22.5 23.9644 22.5 23.3333H19.5C19.5 25.2796 20.6833 26.858 22.2182 27.8812C23.7636 28.9115 25.8122 29.5 28 29.5V26.5ZM22.5 23.3333C22.5 22.7022 22.8837 21.9473 23.8823 21.2816C24.8704 20.6228 26.3218 20.1667 28 20.1667V17.1667C25.8122 17.1667 23.7636 17.7552 22.2182 18.7854C20.6833 19.8087 19.5 21.3871 19.5 23.3333H22.5ZM28 20.1667C30.281 20.1667 32.0778 21.0003 32.9306 21.9831L35.1965 20.0169C33.6286 18.21 30.901 17.1667 28 17.1667V20.1667ZM28 29.5C29.6782 29.5 31.1296 29.9562 32.1177 30.6149C33.1163 31.2806 33.5 32.0356 33.5 32.6667H36.5C36.5 30.7204 35.3167 29.142 33.7818 28.1188C32.2364 27.0885 30.1878 26.5 28 26.5V29.5ZM26.5 16.3333V18.6667H29.5V16.3333H26.5ZM26.5 37.3333L26.5 39.6666L29.5 39.6667L29.5 37.3334L26.5 37.3333ZM28.0001 35.8333C25.719 35.8333 23.9222 34.9997 23.0695 34.0169L20.8036 35.9831C22.3715 37.79 25.0991 38.8333 28 38.8333L28.0001 35.8333ZM33.5 32.6667C33.5 33.2978 33.1163 34.0527 32.1177 34.7184C31.1297 35.3771 29.6782 35.8333 28 35.8333V38.8333C30.1879 38.8333 32.2364 38.2448 33.7818 37.2146C35.3168 36.1913 36.5 34.6129 36.5 32.6667H33.5ZM26.5 18.6667L26.5 37.3333L29.5 37.3333L29.5 18.6667L26.5 18.6667Z" fill="currentColor"></path>
  </symbol>
  <symbol xmlns="http://www.w3.org/2000/svg" viewBox="0 0 24 24" id="ic_question">
    <path d="M8.22766 9C8.77678 7.83481 10.2584 7 12.0001 7C14.2092 7 16.0001 8.34315 16.0001 10C16.0001 11.3994 14.7224 12.5751 12.9943 12.9066C12.4519 13.0106 12.0001 13.4477 12.0001 14M12 17H12.01M21 12C21 16.9706 16.9706 21 12 21C7.02944 21 3 16.9706 3 12C3 7.02944 7.02944 3 12 3C16.9706 3 21 7.02944 21 12Z" stroke="currentColor" stroke-width="2" stroke-linecap="round" stroke-linejoin="round" fill="none"></path>
  </symbol>
  <symbol xmlns="http://www.w3.org/2000/svg" viewBox="0 0 24 24" id="ic_reply">
    <path d="M17 8H19C20.1046 8 21 8.89543 21 10V16C21 17.1046 20.1046 18 19 18H17V22L13 18H9C8.44772 18 7.94772 17.7761 7.58579 17.4142M7.58579 17.4142L11 14H15C16.1046 14 17 13.1046 17 12V6C17 4.89543 16.1046 4 15 4H5C3.89543 4 3 4.89543 3 6V12C3 13.1046 3.89543 14 5 14H7V18L7.58579 17.4142Z" stroke="currentColor" stroke-width="1.5" stroke-linecap="round" stroke-linejoin="round" fill="none"></path>
  </symbol>
  <symbol xmlns="http://www.w3.org/2000/svg" viewBox="0 0 25 24" id="ic_search">
    <path d="M21.5 21L15.5 15M17.5 10C17.5 13.866 14.366 17 10.5 17C6.63401 17 3.5 13.866 3.5 10C3.5 6.13401 6.63401 3 10.5 3C14.366 3 17.5 6.13401 17.5 10Z" stroke="currentColor" stroke-width="1.5" stroke-linecap="round" stroke-linejoin="round" fill="none"></path>
  </symbol>
  <symbol xmlns="http://www.w3.org/2000/svg" viewBox="0 0 24 24" id="ic_search2">
    <path d="M8 16L10.8787 13.1213M10.8787 13.1213C11.4216 13.6642 12.1716 14 13 14C14.6569 14 16 12.6569 16 11C16 9.34315 14.6569 8 13 8C11.3431 8 10 9.34315 10 11C10 11.8284 10.3358 12.5784 10.8787 13.1213ZM21 12C21 16.9706 16.9706 21 12 21C7.02944 21 3 16.9706 3 12C3 7.02944 7.02944 3 12 3C16.9706 3 21 7.02944 21 12Z" stroke="currentColor" stroke-width="2" stroke-linecap="round" fill="none"></path>
  </symbol>
  <symbol xmlns="http://www.w3.org/2000/svg" viewBox="0 0 24 24" id="ic_serial">
    <path d="M19 21V5C19 3.89543 18.1046 3 17 3H7C5.89543 3 5 3.89543 5 5V21M19 21L21 21M19 21H14M5 21L3 21M5 21H10M9 6.99998H10M9 11H10M14 6.99998H15M14 11H15M10 21V16C10 15.4477 10.4477 15 11 15H13C13.5523 15 14 15.4477 14 16V21M10 21H14" stroke="currentColor" stroke-width="1.5" stroke-linecap="round" stroke-linejoin="round" fill="none"></path>
  </symbol>
  <symbol xmlns="http://www.w3.org/2000/svg" viewBox="0 0 42 42" id="ic_slider_arr">
    <path d="M18.7778 27.6667L12.1111 21M12.1111 21L18.7778 14.3333M12.1111 21L29.8889 21M1 21C1 9.9543 9.95431 0.999999 21 1C32.0457 1 41 9.95431 41 21C41 32.0457 32.0457 41 21 41C9.9543 41 0.999999 32.0457 1 21Z" stroke="currentColor" stroke-width="2" stroke-linecap="round" stroke-linejoin="round" fill="none"></path>
  </symbol>
  <symbol fill="none" xmlns="http://www.w3.org/2000/svg" viewBox="0 0 15 15" id="ic_sub_menu_arrow">
    <path d="M8.125 5.625L10 7.5M10 7.5L8.125 9.375M10 7.5L5 7.5M13.125 7.5C13.125 10.6066 10.6066 13.125 7.5 13.125C4.3934 13.125 1.875 10.6066 1.875 7.5C1.875 4.3934 4.3934 1.875 7.5 1.875C10.6066 1.875 13.125 4.3934 13.125 7.5Z" stroke="currentColor" stroke-linecap="round" stroke-linejoin="round"></path>
  </symbol>
  <symbol xmlns="http://www.w3.org/2000/svg" viewBox="0 0 24 24" id="ic_telegram">
    <path d="M12 2C17.5399 2 22 6.50704 22 12C22 17.493 17.493 22 12 22C6.50704 22 2 17.5399 2 12C2 6.46009 6.50704 2 12 2ZM15.4742 16.0845C15.662 15.5211 16.507 9.88732 16.6479 8.76056C16.6948 8.43192 16.554 8.19718 16.3662 8.10329C16.1315 7.96244 15.7559 8.05634 15.2864 8.19718C14.6761 8.43192 7.11737 11.6714 6.69484 11.8592C6.2723 12.0469 5.89671 12.2347 5.89671 12.5164C5.89671 12.7042 5.99061 12.8451 6.31925 12.939C6.64789 13.0798 7.49296 13.3146 8.00939 13.4554C8.47887 13.5962 9.04225 13.4554 9.32394 13.2676C9.65258 13.0798 13.3615 10.5915 13.6432 10.3568C13.9249 10.1221 14.1127 10.4038 13.9249 10.6385C13.6901 10.8732 11.1549 13.3615 10.8263 13.6901C10.4038 14.1127 10.6854 14.5352 10.9671 14.723C11.2958 14.9108 13.5493 16.4131 13.8779 16.6948C14.2066 16.9296 14.5822 17.0704 14.8638 17.0704C15.1455 16.9765 15.3333 16.6009 15.4742 16.0845Z" fill="currentColor"></path>
  </symbol>
  <symbol xmlns="http://www.w3.org/2000/svg" viewBox="0 0 56 56" id="ic_time">
    <path d="M28 18.6667V28L35 35M49 28C49 39.598 39.598 49 28 49C16.402 49 7 39.598 7 28C7 16.402 16.402 7 28 7C39.598 7 49 16.402 49 28Z" stroke="currentColor" stroke-width="3" stroke-linecap="round" stroke-linejoin="round" fill="none"></path>
  </symbol>
  <symbol xmlns="http://www.w3.org/2000/svg" viewBox="0 0 24 24" id="ic_user">
    <path d="M16 7C16 9.20914 14.2091 11 12 11C9.79086 11 8 9.20914 8 7C8 4.79086 9.79086 3 12 3C14.2091 3 16 4.79086 16 7Z" stroke="currentColor" stroke-width="1.5" stroke-linecap="round" stroke-linejoin="round" fill="none"></path>
    <path d="M12 14C8.13401 14 5 17.134 5 21H19C19 17.134 15.866 14 12 14Z" stroke="currentColor" stroke-width="1.5" stroke-linecap="round" stroke-linejoin="round" fill="none"></path>
  </symbol>
  <symbol xmlns="http://www.w3.org/2000/svg" viewBox="0 0 80 80" id="ic_video_play">
    <path fill-rule="evenodd" clip-rule="evenodd" d="M40 72C57.6731 72 72 57.6731 72 40C72 22.3269 57.6731 8 40 8C22.3269 8 8 22.3269 8 40C8 57.6731 22.3269 72 40 72ZM38.2188 28.6718C36.9914 27.8535 35.4132 27.7772 34.1126 28.4733C32.8119 29.1694 32 30.5248 32 32V48C32 49.4752 32.8119 50.8306 34.1126 51.5267C35.4132 52.2228 36.9914 52.1465 38.2188 51.3282L50.2188 43.3282C51.3316 42.5863 52 41.3374 52 40C52 38.6626 51.3316 37.4137 50.2188 36.6718L38.2188 28.6718Z" fill="currentColor"></path>
  </symbol>
  <symbol xmlns="http://www.w3.org/2000/svg" viewBox="0 0 24 24" id="ic_views">
    <path d="M14.9998 12C14.9998 13.6569 13.6566 15 11.9998 15C10.3429 15 8.99976 13.6569 8.99976 12C8.99976 10.3431 10.3429 9 11.9998 9C13.6566 9 14.9998 10.3431 14.9998 12Z" stroke="currentColor" stroke-width="2" stroke-linecap="round" stroke-linejoin="round" fill="none"></path>
    <path d="M2.45801 12C3.73228 7.94288 7.52257 5 12.0002 5C16.4778 5 20.2681 7.94291 21.5424 12C20.2681 16.0571 16.4778 19 12.0002 19C7.52256 19 3.73226 16.0571 2.45801 12Z" stroke="currentColor" stroke-width="2" stroke-linecap="round" stroke-linejoin="round" fill="none"></path>
  </symbol>
  <symbol xmlns="http://www.w3.org/2000/svg" viewBox="0 0 25 24" id="ic_vk">
    <path d="M11.7855 2.02495C9.3981 2.20238 7.22037 3.18406 5.51045 4.85475C3.26129 7.04854 2.18279 10.1549 2.58147 13.275C3.07923 17.1764 5.83077 20.4256 9.61011 21.5755C12.5322 22.465 15.7838 21.9373 18.2611 20.1744C21.3053 18.006 22.8885 14.4088 22.4184 10.7264C21.9206 6.82501 19.1691 3.57581 15.3897 2.42591C14.2651 2.08256 12.9539 1.93738 11.7855 2.02495ZM12.5483 8.22148C13.0599 8.27217 13.3157 8.35283 13.4309 8.50261C13.4609 8.54409 13.5093 8.64549 13.5369 8.72845C13.5968 8.90358 13.5991 9.10406 13.5623 10.6019C13.5392 11.5375 13.5531 11.8256 13.6291 12.033C13.719 12.2703 13.9172 12.3786 14.0923 12.2887C14.2513 12.2058 14.6223 11.7979 14.8643 11.4361C15.4243 10.6065 15.7654 9.9636 16.1755 8.97041C16.2585 8.77453 16.3691 8.64549 16.4843 8.61553C16.5304 8.6017 17.1826 8.59018 17.9846 8.58788L19.4018 8.58327L19.5216 8.63397C19.676 8.7031 19.736 8.79297 19.736 8.95658C19.736 9.26768 19.411 9.906 18.8533 10.6872C18.7773 10.7955 18.4892 11.178 18.215 11.5398C17.6089 12.3371 17.4776 12.5238 17.3854 12.7174C17.2702 12.9616 17.2978 13.1621 17.4799 13.3995C17.5329 13.4663 17.8002 13.7359 18.0744 13.9986C18.8418 14.7337 19.1898 15.1209 19.4732 15.5449C19.676 15.8513 19.7544 16.0772 19.7221 16.2708C19.706 16.3768 19.6 16.5035 19.4802 16.5657C19.3373 16.6372 19.1184 16.651 17.9131 16.6671L16.7724 16.6832L16.588 16.621C16.1179 16.4643 15.8045 16.2039 15.0924 15.3789C14.6984 14.9227 14.4057 14.6991 14.2029 14.6968C14.0163 14.6968 13.7789 14.9457 13.6775 15.2545C13.6084 15.4619 13.583 15.6209 13.5623 15.9804C13.5369 16.4044 13.4862 16.5035 13.2258 16.6118C13.1313 16.6533 11.9561 16.6671 11.645 16.6348C11.0204 16.5657 10.442 16.3698 9.86821 16.0311C9.03629 15.5426 8.52701 15.1047 7.98085 14.4088C7.0314 13.1967 6.38385 12.1643 5.59802 10.6065C5.29383 10.0005 4.93664 9.21698 4.87903 9.03032C4.82141 8.83675 4.90438 8.67775 5.09334 8.61784C5.15787 8.5971 5.51737 8.58557 6.34698 8.57405L7.51073 8.56253L7.6467 8.61323C7.86101 8.69618 7.95089 8.80219 8.09607 9.15476C8.22051 9.45203 8.89111 10.7978 9.10082 11.1734C9.31514 11.5536 9.54328 11.8716 9.73916 12.0606C9.98113 12.298 10.0894 12.3556 10.26 12.3417C10.4051 12.3279 10.4443 12.2957 10.5342 12.0998C10.7531 11.6274 10.7877 10.0304 10.5918 9.40364C10.4789 9.04645 10.3107 8.91049 9.84516 8.8114C9.76451 8.79297 9.76451 8.76532 9.83825 8.65701C10.018 8.39892 10.3383 8.27448 10.949 8.22378C11.2832 8.19613 12.2741 8.19383 12.5483 8.22148Z" fill="currentColor"></path>
  </symbol>
  <symbol xmlns="http://www.w3.org/2000/svg" viewBox="0 0 24 24" id="ic_whatsapp">
    <path d="M12 2C6.47826 2 2 6.47826 2 12C2 13.7174 2.43478 15.413 3.28261 16.913L2.02174 21.4565C1.97826 21.6087 2.02174 21.7609 2.13043 21.8696C2.19565 21.9565 2.32609 22 2.43478 22C2.47826 22 2.5 22 2.54348 21.9783L7.28261 20.8043C8.71739 21.587 10.3478 22 12 22C17.5217 22 22 17.5217 22 12C22 6.47826 17.5217 2 12 2ZM17.0217 15.5217C16.8043 16.1087 15.7826 16.6522 15.2826 16.7174C14.8478 16.7826 14.2826 16.8043 13.6739 16.6087C13.3043 16.5 12.8261 16.3261 12.2174 16.0652C9.65217 15 7.95652 12.4348 7.82609 12.2609C7.69565 12.087 6.78261 10.8913 6.78261 9.63043C6.78261 8.36956 7.43478 7.76087 7.67391 7.52174C7.91304 7.28261 8.19565 7.19565 8.36957 7.19565C8.54348 7.19565 8.71739 7.19565 8.86957 7.19565C9.02174 7.19565 9.23913 7.13043 9.45652 7.63043C9.67391 8.13043 10.1739 9.3913 10.2391 9.52174C10.3043 9.65217 10.3478 9.80435 10.2609 9.95652C10.1739 10.1304 10.1304 10.2391 10 10.3696C9.86957 10.5 9.73913 10.6957 9.6087 10.8043C9.47826 10.9348 9.34783 11.0652 9.5 11.3261C9.65217 11.587 10.1739 12.413 10.9348 13.087C11.913 13.9565 12.7391 14.2174 13 14.3478C13.2609 14.4783 13.413 14.4565 13.5652 14.2826C13.7174 14.1087 14.2174 13.5435 14.3696 13.2826C14.5217 13.0217 14.7174 13.0652 14.9565 13.1522C15.1957 13.2391 16.4565 13.8478 16.7174 13.9783C16.9783 14.1087 17.1522 14.1739 17.2174 14.2826C17.2391 14.4348 17.2391 14.9348 17.0217 15.5217Z" fill="currentColor"></path>
  </symbol>
  <symbol xmlns="http://www.w3.org/2000/svg" viewBox="0 0 24 24" id="ic_write">
    <path d="M15.2322 5.23223L18.7677 8.76777M16.7322 3.73223C17.7085 2.75592 19.2914 2.75592 20.2677 3.73223C21.244 4.70854 21.244 6.29146 20.2677 7.26777L6.5 21.0355H3V17.4644L16.7322 3.73223Z" stroke="currentColor" stroke-width="2" stroke-linecap="round" stroke-linejoin="round" fill="none"></path>
  </symbol>
  <symbol xmlns="http://www.w3.org/2000/svg" viewBox="0 0 40 40" id="ic_yes">
    <path d="M15 20L18.3333 23.3333L25 16.6667M35 20C35 28.2843 28.2843 35 20 35C11.7157 35 5 28.2843 5 20C5 11.7157 11.7157 5 20 5C28.2843 5 35 11.7157 35 20Z" stroke="currentColor" stroke-width="2" stroke-linecap="round" stroke-linejoin="round" fill="none"></path>
  </symbol>
  <symbol xmlns="http://www.w3.org/2000/svg" viewBox="0 0 32 33" id="ic_yes2">
    <path fill-rule="evenodd" clip-rule="evenodd" d="M16.0002 29.4643C23.0694 29.4643 28.8002 23.7335 28.8002 16.6643C28.8002 9.59501 23.0694 3.86426 16.0002 3.86426C8.93095 3.86426 3.2002 9.59501 3.2002 16.6643C3.2002 23.7335 8.93095 29.4643 16.0002 29.4643ZM21.9316 14.5956C22.5564 13.9708 22.5564 12.9577 21.9316 12.3329C21.3067 11.708 20.2937 11.708 19.6688 12.3329L14.4002 17.6015L12.3316 15.5329C11.7067 14.908 10.6937 14.908 10.0688 15.5329C9.44399 16.1577 9.44399 17.1708 10.0688 17.7956L13.2688 20.9956C13.8937 21.6205 14.9067 21.6205 15.5316 20.9956L21.9316 14.5956Z" fill="currentColor"></path>
  </symbol>
  <symbol xmlns="http://www.w3.org/2000/svg" viewBox="0 0 25 24" id="ic_youtube">
    <path d="M12.5 4C9.28 4 5.10066 4.76272 5.10066 4.76272L5.09014 4.77408C3.62359 4.99581 2.5 6.18717 2.5 7.63604V11.9993V12.0007V16.3625V16.364C2.50143 17.0559 2.76375 17.7247 3.23984 18.2503C3.71594 18.7759 4.37464 19.1238 5.09766 19.2316L5.10066 19.2359C5.10066 19.2359 9.28 20 12.5 20C15.72 20 19.8993 19.2359 19.8993 19.2359L19.9008 19.2344C20.6246 19.1269 21.2841 18.7787 21.7606 18.2525C22.237 17.7263 22.4992 17.0566 22.5 16.364V16.3625V12.0007V11.9993V7.63604C22.4989 6.94383 22.2368 6.27467 21.7606 5.7488C21.2845 5.22292 20.6256 4.8748 19.9023 4.76698L19.8993 4.76272C19.8993 4.76272 15.72 4 12.5 4ZM10.1923 8.653L16.3462 11.9993L10.1923 15.3456V8.653Z" fill="currentColor"></path>
  </symbol>
  <symbol xmlns="http://www.w3.org/2000/svg" viewBox="0 0 32 32" id="ic_zoom">
    <path d="M28 28L20 20M13.3333 9.33333V13.3333M13.3333 13.3333V17.3333M13.3333 13.3333H17.3333M13.3333 13.3333H9.33333M22.6667 13.3333C22.6667 18.488 18.488 22.6667 13.3333 22.6667C8.17868 22.6667 4 18.488 4 13.3333C4 8.17868 8.17868 4 13.3333 4C18.488 4 22.6667 8.17868 22.6667 13.3333Z" stroke="currentColor" stroke-width="2" stroke-linecap="round" stroke-linejoin="round" fill="none"></path>
  </symbol>
  
  <symbol viewBox="0 0 22 16" fill="none" xmlns="http://www.w3.org/2000/svg" id="ic_view">
    <path d="M13.9998 8C13.9998 9.65685 12.6566 11 10.9998 11C9.3429 11 7.99976 9.65685 7.99976 8C7.99976 6.34315 9.3429 5 10.9998 5C12.6566 5 13.9998 6.34315 13.9998 8Z" stroke="currentColor" stroke-width="1.5" stroke-linecap="round" stroke-linejoin="round"/>
    <path d="M1.45801 7.99997C2.73228 3.94288 6.52257 1 11.0002 1C15.4778 1 19.2681 3.94291 20.5424 8.00004C19.2681 12.0571 15.4778 15 11.0002 15C6.52256 15 2.73226 12.0571 1.45801 7.99997Z" stroke="currentColor" stroke-width="1.5" stroke-linecap="round" stroke-linejoin="round"/>
  </symbol>
</svg>